<svg width="24" height="24" viewBox="0 0 24 24" fill="none" xmlns="http://www.w3.org/2000/svg">
<path d="M16 7C16 6.44772 15.5523 6 15 6C14.4477 6 14 6.44772 14 7H16ZM14 11C14 11.5523 14.4477 12 15 12C15.5523 12 16 11.5523 16 11H14ZM19 7C19 6.44772 18.5523 6 18 6C17.4477 6 17 6.44772 17 7H19ZM17 11C17 11.5523 17.4477 12 18 12C18.5523 12 19 11.5523 19 11H17ZM19 15C19 14.4477 18.5523 14 18 14C17.4477 14 17 14.4477 17 15H19ZM17 18C17 18.5523 17.4477 19 18 19C18.5523 19 19 18.5523 19 18H17ZM7 14C6.44772 14 6 14.4477 6 15C6 15.5523 6.44772 16 7 16V14ZM15 16C15.5523 16 16 15.5523 16 15C16 14.4477 15.5523 14 15 14V16ZM7 17C6.44772 17 6 17.4477 6 18C6 18.5523 6.44772 19 7 19V17ZM15 19C15.5523 19 16 18.5523 16 18C16 17.4477 15.5523 17 15 17V19ZM6 4H19V2H6V4ZM20 5V19H22V5H20ZM19 20H6V22H19V20ZM5 19V5H3V19H5ZM6 20C5.44772 20 5 19.5523 5 19H3C3 20.6569 4.34315 22 6 22V20ZM20 19C20 19.5523 19.5523 20 19 20V22C20.6569 22 22 20.6569 22 19H20ZM19 4C19.5523 4 20 4.44772 20 5H22C22 3.34315 20.6569 2 19 2V4ZM6 2C4.34315 2 3 3.34315 3 5H5C5 4.44772 5.44772 4 6 4V2ZM9 8H11V6H9V8ZM11 8V10H13V8H11ZM11 10H9V12H11V10ZM9 10V8H7V10H9ZM9 10H7C7 11.1046 7.89543 12 9 12V10ZM11 10V12C12.1046 12 13 11.1046 13 10H11ZM11 8H13C13 6.89543 12.1046 6 11 6V8ZM9 6C7.89543 6 7 6.89543 7 8H9V6ZM1 6V8H3V6H1ZM1 15V19H3V15H1ZM1 9V14H3V9H1ZM14 7V11H16V7H14ZM17 7V11H19V7H17ZM17 15V18H19V15H17ZM7 16H15V14H7V16ZM7 19H15V17H7V19Z" fill="black"/>
</svg>
