<svg width="24" height="24" viewBox="0 0 24 24" fill="none" xmlns="http://www.w3.org/2000/svg">
<path d="M12 8.99999V13M12 17H12.01M10.24 3.95699L1.81799 18.017C1.64446 18.3177 1.55267 18.6586 1.55173 19.0058C1.5508 19.3529 1.64075 19.6943 1.81265 19.9959C1.98455 20.2976 2.23241 20.549 2.53159 20.7251C2.83076 20.9013 3.17083 20.996 3.51799 21H20.363C20.7101 20.996 21.0502 20.9013 21.3494 20.7251C21.6486 20.549 21.8964 20.2976 22.0683 19.9959C22.2402 19.6943 22.3302 19.3529 22.3292 19.0058C22.3283 18.6586 22.2365 18.3177 22.063 18.017L13.64 3.95699C13.4626 3.66498 13.213 3.42358 12.9153 3.25605C12.6175 3.08852 12.2816 3.00052 11.94 3.00052C11.5983 3.00052 11.2624 3.08852 10.9647 3.25605C10.6669 3.42358 10.4173 3.66498 10.24 3.95699Z" stroke="black" stroke-width="2" stroke-linecap="round" stroke-linejoin="round"/>
</svg>
