<svg width="24" height="24" viewBox="0 0 24 24" fill="none" xmlns="http://www.w3.org/2000/svg">
<path d="M12 9V21M12 9C11.2044 9 10.4413 8.68393 9.87868 8.12132C9.31607 7.55871 9 6.79565 9 6C9 5.20435 9.31607 4.44129 9.87868 3.87868C10.4413 3.31607 11.2044 3 12 3C12.7956 3 13.5587 3.31607 14.1213 3.87868C14.6839 4.44129 15 5.20435 15 6C15 6.79565 14.6839 7.55871 14.1213 8.12132C13.5587 8.68393 12.7956 9 12 9ZM12 21C9.87827 21 7.84344 20.1571 6.34315 18.6569C4.84285 17.1566 4 15.1217 4 13M12 21C14.1217 21 16.1566 20.1571 17.6569 18.6569C19.1571 17.1566 20 15.1217 20 13M21 13H19M5 13H3" stroke="black" stroke-width="2" stroke-linecap="round" stroke-linejoin="round"/>
</svg>
