<svg width="24" height="24" viewBox="0 0 24 24" fill="none" xmlns="http://www.w3.org/2000/svg">
<path d="M20 15.0001H12V18.5861C12 18.7838 11.9413 18.9771 11.8314 19.1416C11.7215 19.306 11.5654 19.4341 11.3827 19.5098C11.2 19.5854 10.9989 19.6052 10.805 19.5667C10.611 19.5281 10.4329 19.4329 10.293 19.2931L3.707 12.7071C3.51953 12.5196 3.41422 12.2653 3.41422 12.0001C3.41422 11.7349 3.51953 11.4806 3.707 11.2931L10.293 4.70709C10.4329 4.56728 10.611 4.47208 10.805 4.43351C10.9989 4.39494 11.2 4.41475 11.3827 4.49042C11.5654 4.56609 11.7215 4.69423 11.8314 4.85864C11.9413 5.02305 12 5.21634 12 5.41409V9.00009H20C20.2652 9.00009 20.5196 9.10545 20.7071 9.29299C20.8946 9.48052 21 9.73488 21 10.0001V14.0001C21 14.2653 20.8946 14.5197 20.7071 14.7072C20.5196 14.8947 20.2652 15.0001 20 15.0001Z" stroke="black" stroke-width="2" stroke-linecap="round" stroke-linejoin="round"/>
</svg>
