<svg width="24" height="24" viewBox="0 0 24 24" fill="none" xmlns="http://www.w3.org/2000/svg">
<path d="M15 4V12H18.586C18.7838 12 18.9771 12.0587 19.1415 12.1686C19.3059 12.2785 19.434 12.4346 19.5097 12.6173C19.5853 12.8 19.6052 13.0011 19.5666 13.195C19.528 13.389 19.4328 13.5671 19.293 13.707L12.707 20.293C12.5195 20.4805 12.2652 20.5858 12 20.5858C11.7348 20.5858 11.4805 20.4805 11.293 20.293L4.707 13.707C4.56719 13.5671 4.47199 13.389 4.43342 13.195C4.39485 13.0011 4.41465 12.8 4.49032 12.6173C4.56599 12.4346 4.69413 12.2785 4.85854 12.1686C5.02295 12.0587 5.21625 12 5.414 12H9V4C9 3.73478 9.10536 3.48043 9.2929 3.29289C9.48043 3.10536 9.73479 3 10 3H14C14.2652 3 14.5196 3.10536 14.7071 3.29289C14.8946 3.48043 15 3.73478 15 4Z" stroke="black" stroke-width="2" stroke-linecap="round" stroke-linejoin="round"/>
</svg>
