<svg width="24" height="24" viewBox="0 0 24 24" fill="none" xmlns="http://www.w3.org/2000/svg">
<path d="M15 3H8.99997M15 12H18.586C18.7837 12 18.977 12.0587 19.1414 12.1686C19.3058 12.2785 19.434 12.4346 19.5096 12.6173C19.5853 12.8 19.6051 13.0011 19.5666 13.195C19.528 13.389 19.4328 13.5671 19.293 13.707L12.707 20.293C12.5194 20.4805 12.2651 20.5858 12 20.5858C11.7348 20.5858 11.4805 20.4805 11.293 20.293L4.70697 13.707C4.56716 13.5671 4.47196 13.389 4.43339 13.195C4.39482 13.0011 4.41462 12.8 4.49029 12.6173C4.56596 12.4346 4.6941 12.2785 4.85851 12.1686C5.02292 12.0587 5.21622 12 5.41397 12H8.99997V6H15V12Z" stroke="black" stroke-width="2" stroke-linecap="round" stroke-linejoin="round"/>
</svg>
