<svg width="24" height="24" viewBox="0 0 24 24" fill="none" xmlns="http://www.w3.org/2000/svg">
<path d="M13 9L20.383 16.418C21.206 17.238 21.206 18.566 20.383 19.385C19.9876 19.7783 19.4527 19.999 18.895 19.999C18.3373 19.999 17.8024 19.7783 17.407 19.385L10 12M10 12L16 6L13 3L6.99998 9L3.75998 10.296C3.56798 10.3728 3.39804 10.4961 3.26539 10.6547C3.13273 10.8133 3.04151 11.0024 2.99989 11.205C2.95826 11.4075 2.96755 11.6172 3.0269 11.8153C3.08625 12.0134 3.19383 12.1937 3.33998 12.34L6.65998 15.66C6.80627 15.8062 6.98655 15.9137 7.18464 15.9731C7.38273 16.0324 7.59245 16.0417 7.79501 16.0001C7.99757 15.9585 8.18664 15.8672 8.34528 15.7346C8.50391 15.6019 8.62716 15.432 8.70398 15.24L10 12Z" stroke="black" stroke-width="2" stroke-linecap="round" stroke-linejoin="round"/>
</svg>
