<svg width="24" height="24" viewBox="0 0 24 24" fill="none" xmlns="http://www.w3.org/2000/svg">
<path d="M15.0001 8C15.0001 8.79565 14.684 9.55871 14.1214 10.1213C13.5588 10.6839 12.7957 11 12.0001 11C11.2044 11 10.4413 10.6839 9.87874 10.1213C9.31613 9.55871 9.00006 8.79565 9.00006 8M4.69306 4.69L3.81406 19.19C3.80587 19.3262 3.82564 19.4626 3.87216 19.5909C3.91867 19.7192 3.99094 19.8366 4.08452 19.9359C4.1781 20.0352 4.29101 20.1142 4.4163 20.1683C4.54159 20.2223 4.67662 20.2501 4.81306 20.25H19.1881C19.3244 20.25 19.4593 20.2221 19.5845 20.168C19.7097 20.1139 19.8225 20.0348 19.9159 19.9355C20.0094 19.8362 20.0816 19.7189 20.128 19.5907C20.1745 19.4625 20.1942 19.3261 20.1861 19.19L19.3071 4.69C19.2918 4.43566 19.18 4.19675 18.9945 4.02206C18.809 3.84736 18.5639 3.75005 18.3091 3.75H5.69006C5.43526 3.75005 5.19009 3.84736 5.00462 4.02206C4.81914 4.19675 4.70835 4.43566 4.69306 4.69Z" stroke="black" stroke-width="2" stroke-linecap="round" stroke-linejoin="round"/>
</svg>
