<svg width="24" height="24" viewBox="0 0 24 24" fill="none" xmlns="http://www.w3.org/2000/svg">
<path d="M17.553 16.75C16.1465 15.3437 14.239 14.5536 12.25 14.5536C10.261 14.5536 8.3535 15.3437 6.94701 16.75M18 3.80402C16.6219 3.0084 14.9842 2.7928 13.4472 3.20462C11.9102 3.61645 10.5997 4.62198 9.804 6.00002L20.196 12C20.9916 10.6219 21.2072 8.98426 20.7954 7.44723C20.3836 5.91019 19.378 4.59969 18 3.80402ZM18 3.80402C18.957 4.35602 18.39 7.13002 16.732 10M18 3.80402C17.043 3.25202 14.925 5.13002 13.268 8.00002M15 9.00002L12 14.196M3 19.25C3.31129 19.0952 3.65249 19.0099 4 19C4.3895 18.9919 4.77512 19.0786 5.12358 19.2529C5.47203 19.4271 5.77283 19.6835 6 20C6.22717 20.3165 6.52797 20.5729 6.87642 20.7472C7.22488 20.9214 7.6105 21.0082 8 21C8.3895 21.0082 8.77512 20.9214 9.12358 20.7472C9.47203 20.5729 9.77283 20.3165 10 20C10.2272 19.6835 10.528 19.4271 10.8764 19.2529C11.2249 19.0786 11.6105 18.9919 12 19C12.3895 18.9919 12.7751 19.0786 13.1236 19.2529C13.472 19.4271 13.7728 19.6835 14 20C14.2272 20.3165 14.528 20.5729 14.8764 20.7472C15.2249 20.9214 15.6105 21.0082 16 21C16.3895 21.0082 16.7751 20.9214 17.1236 20.7472C17.472 20.5729 17.7728 20.3165 18 20C18.2272 19.6835 18.528 19.4271 18.8764 19.2529C19.2249 19.0786 19.6105 18.9919 20 19C20.3475 19.0099 20.6887 19.0952 21 19.25" stroke="black" stroke-width="2" stroke-linecap="round" stroke-linejoin="round"/>
</svg>
