<svg width="24" height="24" viewBox="0 0 24 24" fill="none" xmlns="http://www.w3.org/2000/svg">
<path d="M17 7L18.293 5.707C18.5172 5.48283 18.695 5.2167 18.8163 4.92382C18.9376 4.63093 19 4.31702 19 4C19 3.73478 19.1054 3.48043 19.2929 3.29289C19.4804 3.10536 19.7348 3 20 3H21M18.65 8.65C18.7616 8.76145 18.8501 8.89379 18.9105 9.03947C18.9709 9.18515 19.0019 9.3413 19.0019 9.499C19.0019 9.6567 18.9709 9.81285 18.9105 9.95853C18.8501 10.1042 18.7616 10.2366 18.65 10.348L17.678 11.32C18.1633 12.92 18.1001 14.6364 17.4984 16.1963C16.8966 17.7563 15.7908 19.0705 14.3567 19.9301C12.9225 20.7896 11.2423 21.1453 9.58283 20.9407C7.92339 20.736 6.37992 19.9827 5.19763 18.8004C4.01533 17.6181 3.26201 16.0746 3.05733 14.4152C2.85266 12.7557 3.20836 11.0755 4.06795 9.64133C4.92753 8.20719 6.24169 7.1014 7.80167 6.49964C9.36165 5.89788 11.078 5.83465 12.678 6.32L13.65 5.348C13.7614 5.23643 13.8938 5.14792 14.0395 5.08753C14.1851 5.02714 14.3413 4.99606 14.499 4.99606C14.6567 4.99606 14.8128 5.02714 14.9585 5.08753C15.1042 5.14792 15.2365 5.23643 15.348 5.348L18.65 8.65Z" stroke="black" stroke-width="2" stroke-linecap="round" stroke-linejoin="round"/>
</svg>
