<svg width="24" height="24" viewBox="0 0 24 24" fill="none" xmlns="http://www.w3.org/2000/svg">
<path d="M8 3H14M6.09998 17H15.9M13 3V11.416C13.134 11.475 13.265 11.539 13.393 11.609L17 8L19 10L15.392 13.608C15.8736 14.4928 16.0767 15.5025 15.9747 16.5047C15.8727 17.507 15.4703 18.455 14.8203 19.2246C14.1703 19.9943 13.3029 20.5496 12.3319 20.8179C11.3609 21.0861 10.3314 21.0548 9.3785 20.728C8.42557 20.4012 7.59358 19.7942 6.99153 18.9865C6.38948 18.1788 6.04547 17.208 6.00455 16.2015C5.96364 15.1949 6.22774 14.1994 6.76225 13.3455C7.29676 12.4916 8.07675 11.819 9.00001 11.416V3H13Z" stroke="black" stroke-width="2" stroke-linecap="round" stroke-linejoin="round"/>
</svg>
