<svg width="24" height="24" viewBox="0 0 24 24" fill="none" xmlns="http://www.w3.org/2000/svg">
<path d="M14.625 12.8C14.625 12.1635 14.3484 11.553 13.8562 11.1029C13.3639 10.6529 12.6962 10.4 12 10.4M12 10.4C11.3038 10.4 10.6361 10.6529 10.1438 11.1029C9.65156 11.553 9.375 12.1635 9.375 12.8M12 10.4C12.9665 10.4 13.75 9.68366 13.75 8.8C13.75 7.91634 12.9665 7.2 12 7.2C11.0335 7.2 10.25 7.91634 10.25 8.8C10.25 9.68366 11.0335 10.4 12 10.4ZM5 18V6C5 5.46957 5.23047 4.96086 5.6407 4.58579C6.05094 4.21071 6.60734 4 7.1875 4H18.125C18.3571 4 18.5796 4.08429 18.7437 4.23431C18.9078 4.38434 19 4.58783 19 4.8V19.2C19 19.4122 18.9078 19.6157 18.7437 19.7657C18.5796 19.9157 18.3571 20 18.125 20H7.1875C6.60734 20 6.05094 19.7893 5.6407 19.4142C5.23047 19.0391 5 18.5304 5 18ZM5 18C5 17.4696 5.23047 16.9609 5.6407 16.5858C6.05094 16.2107 6.60734 16 7.1875 16H19" stroke="black" stroke-width="2" stroke-linecap="round" stroke-linejoin="round"/>
</svg>
