<svg width="24" height="24" viewBox="0 0 24 24" fill="none" xmlns="http://www.w3.org/2000/svg">
<path d="M9 5.00004C9 4.73483 8.89464 4.48047 8.70711 4.29294C8.51957 4.1054 8.26522 4.00004 8 4.00004H6C5.73478 4.00004 5.48043 4.1054 5.29289 4.29294C5.10536 4.48047 5 4.73483 5 5.00004V19C5 19.2653 5.10536 19.5196 5.29289 19.7071C5.48043 19.8947 5.73478 20 6 20H8C8.26522 20 8.51957 19.8947 8.70711 19.7071C8.89464 19.5196 9 19.2653 9 19M9 5.00004V19M9 5.00004C9 4.73483 9.10536 4.48047 9.29289 4.29294C9.48043 4.1054 9.73478 4.00004 10 4.00004H12C12.2652 4.00004 12.5196 4.1054 12.7071 4.29294C12.8946 4.48047 13 4.73483 13 5.00004V19C13 19.2653 12.8946 19.5196 12.7071 19.7071C12.5196 19.8947 12.2652 20 12 20H10C9.73478 20 9.48043 19.8947 9.29289 19.7071C9.10536 19.5196 9 19.2653 9 19M5 8.00004H9M9 16H13M14 9.00004L18 8.00004M16 16L19.923 15.02M13.803 4.56004L15.987 4.03004C16.549 3.89504 17.12 4.22004 17.269 4.76204L20.964 18.18C21.0292 18.4257 21.0003 18.6868 20.8831 18.9123C20.7658 19.1378 20.5686 19.3114 20.33 19.399L20.197 19.44L18.013 19.97C17.451 20.105 16.88 19.78 16.731 19.238L13.036 5.82004C12.9708 5.57439 12.9997 5.31325 13.117 5.08778C13.2342 4.8623 13.4315 4.68872 13.67 4.60104L13.803 4.56004Z" stroke="black" stroke-width="2" stroke-linecap="round" stroke-linejoin="round"/>
</svg>
