<svg width="24" height="24" viewBox="0 0 24 24" fill="none" xmlns="http://www.w3.org/2000/svg">
<path d="M13.7 3.57895C13.7 5.29053 14.2577 6.96 15.295 8.35474L15.35 8.42842C16.4234 9.87126 17.0001 11.5984 17 13.3695V19.8947C17 20.4531 16.7682 20.9886 16.3556 21.3834C15.9431 21.7782 15.3835 22 14.8 22H8.2C7.61652 22 7.05695 21.7782 6.64436 21.3834C6.23178 20.9886 6 20.4531 6 19.8947V13.3684C6 11.5979 6.5764 9.87158 7.65 8.42842L7.705 8.35474C8.74249 6.96015 9.3 5.29083 9.3 3.57895M9.3 5.15789H13.7V3.05263C13.7 2.77346 13.5841 2.50572 13.3778 2.30831C13.1715 2.1109 12.8917 2 12.6 2H10.4C10.1083 2 9.82847 2.1109 9.62218 2.30831C9.41589 2.50572 9.3 2.77346 9.3 3.05263V5.15789Z" stroke="black" stroke-width="2" stroke-linecap="round" stroke-linejoin="round"/>
</svg>
