<svg width="24" height="24" viewBox="0 0 24 24" fill="none" xmlns="http://www.w3.org/2000/svg">
<path d="M12.0008 5.00884C12.002 4.60887 11.9232 4.2127 11.769 3.84364C11.6148 3.47457 11.3884 3.14007 11.1031 2.85979C10.8177 2.5795 10.4792 2.35911 10.1075 2.21157C9.7357 2.06403 9.33819 1.99232 8.9383 2.00065C8.53842 2.00899 8.14424 2.0972 7.77894 2.26011C7.41365 2.42301 7.08462 2.65732 6.81121 2.94924C6.53779 3.24117 6.32552 3.58482 6.18686 3.95999C6.0482 4.33516 5.98596 4.73427 6.00381 5.13384M12.0008 5.00884V18.0088M12.0008 5.00884C11.9996 4.60887 12.0784 4.2127 12.2326 3.84364C12.3868 3.47457 12.6132 3.14007 12.8985 2.85979C13.1839 2.5795 13.5224 2.35911 13.8941 2.21157C14.2659 2.06403 14.6634 1.99232 15.0633 2.00065C15.4632 2.00899 15.8574 2.0972 16.2227 2.26011C16.588 2.42301 16.917 2.65732 17.1904 2.94924C17.4638 3.24117 17.6761 3.58482 17.8148 3.95999C17.9534 4.33516 18.0157 4.73427 17.9978 5.13384M6.00381 5.13384C5.41601 5.28498 4.87031 5.56789 4.40804 5.96115C3.94577 6.35441 3.57905 6.84771 3.33565 7.40369C3.09225 7.95966 2.97857 8.56373 3.0032 9.17015C3.02782 9.77657 3.19013 10.3694 3.47781 10.9038M6.00381 5.13384C6.02358 5.61757 6.16014 6.08933 6.40181 6.50884M3.47781 10.9038C2.97199 11.3148 2.57423 11.8431 2.31915 12.4428C2.06406 13.0425 1.95936 13.6954 2.01417 14.3448C2.06898 14.9942 2.28162 15.6204 2.63361 16.1689C2.9856 16.7173 3.46627 17.1715 4.03381 17.4918M3.47781 10.9038C3.66075 10.7548 3.85651 10.6233 4.06281 10.5088M4.03381 17.4918C3.96372 18.0341 4.00555 18.5849 4.15669 19.1104C4.30784 19.6358 4.5651 20.1247 4.91259 20.5468C5.26008 20.9689 5.69042 21.3153 6.17703 21.5646C6.66364 21.8139 7.19618 21.9608 7.74178 21.9962C8.28738 22.0316 8.83445 21.9548 9.34919 21.7705C9.86394 21.5861 10.3354 21.2983 10.7346 20.9246C11.1337 20.5509 11.452 20.0994 11.6698 19.5979C11.8876 19.0964 12.0002 18.5556 12.0008 18.0088M4.03381 17.4918C4.63407 17.8304 5.31164 18.0092 6.00081 18.0088M12.0008 18.0088C12.0014 18.5556 12.1141 19.0964 12.3318 19.5979C12.5496 20.0994 12.8679 20.5509 13.267 20.9246C13.6662 21.2983 14.1377 21.5861 14.6524 21.7705C15.1672 21.9548 15.7142 22.0316 16.2598 21.9962C16.8054 21.9608 17.338 21.8139 17.8246 21.5646C18.3112 21.3153 18.7415 20.9689 19.089 20.5468C19.4365 20.1247 19.6938 19.6358 19.8449 19.1104C19.9961 18.5849 20.0379 18.0341 19.9678 17.4918M17.9978 5.13384C18.5856 5.28498 19.1313 5.56789 19.5936 5.96115C20.0558 6.35441 20.4226 6.84771 20.666 7.40369C20.9094 7.95966 21.023 8.56373 20.9984 9.17015C20.9738 9.77657 20.8115 10.3694 20.5238 10.9038M17.9978 5.13384C17.9777 5.61766 17.8418 6.08942 17.5998 6.50884M20.5238 10.9038C21.0296 11.3148 21.4274 11.8431 21.6825 12.4428C21.9376 13.0425 22.0423 13.6954 21.9874 14.3448C21.9326 14.9942 21.72 15.6204 21.368 16.1689C21.016 16.7173 20.5353 17.1715 19.9678 17.4918M20.5238 10.9038C20.3409 10.7548 20.1451 10.6233 19.9388 10.5088M19.9678 17.4918C19.3675 17.8304 18.69 18.0092 18.0008 18.0088M15.0008 13.0088C14.1613 12.7135 13.4281 12.1758 12.8941 11.4638C12.3601 10.7519 12.0493 9.89751 12.0008 9.00884C11.9524 9.89751 11.6415 10.7519 11.1075 11.4638C10.5735 12.1758 9.84036 12.7135 9.00081 13.0088" stroke="black" stroke-width="2" stroke-linecap="round" stroke-linejoin="round"/>
</svg>
