<svg width="24" height="24" viewBox="0 0 24 24" fill="none" xmlns="http://www.w3.org/2000/svg">
<path d="M12 22C18.0757 22 23 17.906 23 12.8569C23 9.72556 21.1144 6.96036 18.2159 5.32012C17.0371 4.64534 16.1103 4.03945 15.3385 3.53643C13.8865 2.58607 12.99 2 12 2C10.9944 2 9.8605 2.74085 8.3645 3.71857C7.52134 4.28141 6.66043 4.81555 5.78317 5.32012C2.88558 6.96036 1 9.72556 1 12.8569C1 17.906 5.92433 21.9991 12 21.9991V22ZM10.7158 5.12476C11.0219 4.40846 11.1768 3.63364 11.1723 2.85126C11.1723 2.71442 11.3574 2.67478 11.3831 2.8239C11.9862 5.45036 10.5563 6.75179 9.4975 7.18781C9.38383 7.23311 9.31508 7.07361 9.40308 6.99056C9.96425 6.47155 10.4117 5.83553 10.7158 5.12476ZM12.6022 5.0285C12.5156 4.25902 12.2712 3.51725 11.8854 2.85221V2.83711C11.8222 2.72103 11.9643 2.5889 12.055 2.67478C13.8535 4.66704 13.2531 6.51302 12.5647 7.44168C12.4895 7.53888 12.3538 7.43884 12.3914 7.32276C12.6177 6.58179 12.6895 5.80001 12.6022 5.0285ZM14.2302 4.49906C13.8619 3.82854 13.358 3.2473 12.7526 2.79464V2.78143C12.6499 2.70121 12.7306 2.52284 12.8571 2.57569C15.2358 3.60155 15.3999 5.57682 15.1112 6.73481C15.1048 6.7621 15.0888 6.78598 15.0663 6.80181C15.0445 6.81764 15.0175 6.82395 14.9912 6.81935C14.9649 6.81475 14.9415 6.79962 14.926 6.77727C14.9101 6.75462 14.9029 6.72672 14.9058 6.69894C14.8323 5.92513 14.6022 5.17575 14.2302 4.49906ZM9.56717 5.0285C9.00158 5.54379 8.392 5.74575 7.67608 5.97225C7.56883 5.97225 7.49733 5.89864 7.53308 5.80143C9.13908 4.94356 9.71108 4.24519 10.2822 3.17969C10.2822 3.17969 10.4243 3.06833 10.4545 3.25991C10.4545 3.54681 10.1346 4.51416 9.56717 5.0285ZM14.1001 15.6334C13.9698 16.2025 13.6694 16.7151 13.2412 17.0991C12.924 17.4256 12.5078 17.6323 12.0623 17.6842C11.6034 17.6395 11.1737 17.4327 10.8459 17.0991C10.4218 16.7135 10.1253 16.2011 9.998 15.6334C9.99353 15.5998 9.99648 15.5655 10.0066 15.5331C10.0168 15.5008 10.0339 15.4712 10.0567 15.4466C10.0793 15.4224 10.107 15.4039 10.1377 15.3926C10.1684 15.3813 10.2012 15.3775 10.2336 15.3815H13.8682C13.9002 15.3781 13.9325 15.3822 13.9627 15.3937C13.9929 15.4052 14.0201 15.4236 14.0423 15.4475C14.0882 15.4975 14.1093 15.5655 14.1001 15.6334ZM9.09692 13.5798C8.76463 13.8127 8.36311 13.9172 7.96326 13.8749C7.56341 13.8326 7.19093 13.6462 6.91158 13.3486C6.62847 13.0448 6.45334 12.6514 6.41457 12.2322C6.3758 11.813 6.47568 11.3927 6.698 11.0393C6.88775 10.7382 7.15908 10.5051 7.47533 10.3664C7.79097 10.2277 8.14018 10.1915 8.47633 10.2626C8.81183 10.3333 9.12075 10.5089 9.36275 10.7637C9.60539 11.0236 9.7698 11.3503 9.83616 11.7043C9.90252 12.0583 9.868 12.4245 9.73675 12.7588C9.60646 13.091 9.3839 13.3772 9.09692 13.5798ZM16.884 13.5846C16.5511 13.8157 16.1497 13.9185 15.7504 13.8748C15.3512 13.8312 14.9797 13.6438 14.7014 13.3458C14.378 12.9994 14.1982 12.5371 14.2 12.0566C14.2 11.6942 14.3008 11.3394 14.4933 11.0383C14.6831 10.7373 14.9544 10.5032 15.2716 10.3654C15.5877 10.2272 15.9372 10.1917 16.2735 10.2635C16.6099 10.3352 16.9188 10.5108 17.1608 10.7675C17.4028 11.0285 17.5661 11.356 17.6312 11.7106C17.6963 12.0651 17.6603 12.4315 17.5275 12.7654C17.3961 13.0977 17.1722 13.3827 16.884 13.5846Z" fill="black"/>
</svg>
