<svg width="24" height="24" viewBox="0 0 24 24" fill="none" xmlns="http://www.w3.org/2000/svg">
<path d="M12.12 4.64352C14.5555 4.64352 14.8435 4.65312 15.8054 4.69632C16.3833 4.70408 16.9557 4.81023 17.4979 5.01024C17.8944 5.15712 18.2525 5.38944 18.5472 5.6928C18.8506 5.98752 19.0829 6.3456 19.2288 6.74208C19.4304 7.28352 19.536 7.85568 19.5437 8.43456C19.5878 9.39648 19.5965 9.68544 19.5965 12.12C19.5965 14.5546 19.5869 14.8435 19.5437 15.8054C19.5359 16.3833 19.4298 16.9557 19.2298 17.4979C19.0778 17.8914 18.8453 18.2488 18.547 18.547C18.2488 18.8453 17.8914 19.0778 17.4979 19.2298C16.9565 19.4304 16.3843 19.537 15.8054 19.5437C14.8435 19.5878 14.5546 19.5965 12.12 19.5965C9.68544 19.5965 9.39648 19.5869 8.43456 19.5437C7.85634 19.536 7.28366 19.4299 6.74112 19.2298C6.34502 19.0835 5.98679 18.8503 5.6928 18.5472C5.38996 18.2528 5.15703 17.8943 5.0112 17.4979C4.81087 16.9557 4.70438 16.3834 4.69632 15.8054C4.65216 14.8435 4.64352 14.5555 4.64352 12.12C4.64352 9.68448 4.65312 9.39648 4.69632 8.43456C4.70408 7.85667 4.81023 7.28432 5.01024 6.74208C5.15712 6.3456 5.38944 5.98752 5.6928 5.6928C5.98752 5.38944 6.3456 5.15712 6.74208 5.0112C7.28426 4.81087 7.85661 4.70438 8.43456 4.69632C9.39648 4.65216 9.68544 4.64352 12.12 4.64352ZM12.12 3C9.6432 3 9.33216 3.01056 8.35968 3.05472C7.60319 3.0702 6.85474 3.21334 6.14592 3.47808C5.5372 3.70748 4.98583 4.06687 4.53024 4.5312C4.06625 4.98688 3.70719 5.53825 3.47808 6.14688C3.21377 6.85546 3.07096 7.60357 3.05568 8.35968C3.0096 9.33216 3 9.6432 3 12.12C3 14.5968 3.01056 14.9069 3.05472 15.8803C3.07008 16.6368 3.21312 17.3846 3.47808 18.0931C3.70735 18.7022 4.06675 19.2539 4.5312 19.7098C4.98688 20.1737 5.53825 20.5328 6.14688 20.7619C6.85546 21.0262 7.60357 21.169 8.35968 21.1843C9.33216 21.2304 9.6432 21.24 12.12 21.24C14.5968 21.24 14.9069 21.2294 15.8803 21.1853C16.6368 21.1698 17.3853 21.0267 18.0941 20.7619C18.7001 20.5274 19.2504 20.1688 19.7099 19.7093C20.1693 19.2497 20.5276 18.6992 20.7619 18.0931C21.0262 17.3845 21.169 16.6364 21.1843 15.8803C21.2304 14.9069 21.24 14.5968 21.24 12.12C21.24 9.6432 21.2294 9.33216 21.1853 8.35968C21.1698 7.60319 21.0267 6.85474 20.7619 6.14592C20.5325 5.5372 20.1731 4.98583 19.7088 4.53024C19.2531 4.06625 18.7018 3.70719 18.0931 3.47808C17.3845 3.21377 16.6364 3.07096 15.8803 3.05568C14.9069 3.0096 14.5968 3 12.12 3ZM12.12 7.43616C10.8778 7.43616 9.68642 7.92963 8.80802 8.80802C7.92963 9.68642 7.43616 10.8778 7.43616 12.12C7.43616 13.3622 7.92963 14.5536 8.80802 15.432C9.68642 16.3104 10.8778 16.8038 12.12 16.8038C13.3622 16.8038 14.5536 16.3104 15.432 15.432C16.3104 14.5536 16.8038 13.3622 16.8038 12.12C16.8038 10.8778 16.3104 9.68642 15.432 8.80802C14.5536 7.92963 13.3622 7.43616 12.12 7.43616ZM12.12 15.1603C11.3137 15.1603 10.5403 14.84 9.97017 14.2698C9.4 13.6997 9.07968 12.9263 9.07968 12.12C9.07968 11.3137 9.4 10.5403 9.97017 9.97017C10.5403 9.4 11.3137 9.07968 12.12 9.07968C12.9263 9.07968 13.6997 9.4 14.2698 9.97017C14.84 10.5403 15.1603 11.3137 15.1603 12.12C15.1603 12.9263 14.84 13.6997 14.2698 14.2698C13.6997 14.84 12.9263 15.1603 12.12 15.1603ZM16.9882 6.15744C16.6979 6.15744 16.4195 6.27274 16.2143 6.47798C16.0091 6.68322 15.8938 6.96159 15.8938 7.25184C15.8938 7.54209 16.0091 7.82046 16.2143 8.0257C16.4195 8.23094 16.6979 8.34624 16.9882 8.34624C17.2784 8.34624 17.5568 8.23094 17.762 8.0257C17.9673 7.82046 18.0826 7.54209 18.0826 7.25184C18.0826 6.96159 17.9673 6.68322 17.762 6.47798C17.5568 6.27274 17.2784 6.15744 16.9882 6.15744Z" fill="black"/>
</svg>
