<svg width="24" height="24" viewBox="0 0 24 24" fill="none" xmlns="http://www.w3.org/2000/svg">
<path d="M12.7024 3.00353C10.9357 2.92516 9.80486 4.17817 9.80486 4.17817C4.09978 4.24511 2.65892 9.08489 2.62475 9.1853L2.41809 9.78935C0.528058 16.9564 5.65897 19.7644 5.65897 19.7644C5.81563 19.8387 5.97147 19.7105 5.97147 19.7105C6.38814 19.4575 6.18147 19.2779 6.18147 19.2779C4.98979 17.8559 4.85229 14.4912 4.85145 14.4626C4.31811 14.0283 3.81144 13.3867 3.92561 12.5509C3.92561 12.5509 3.99561 12.1346 4.41228 12.3901C4.41228 12.3901 5.40063 12.9157 6.18147 13.0676C6.18064 13.0676 6.57815 13.1027 6.59815 13.2121C6.59815 13.2121 6.90982 14.6422 5.94814 15.1059C6.56898 15.4626 7.16899 15.7997 7.16899 15.7997C7.27232 16.8307 7.844 20.1424 7.844 20.1424C7.89733 20.7929 8.59901 20.9211 8.59901 20.9211C9.00151 21.0615 12.0324 20.9717 12.0324 20.9717C12.8774 20.9358 12.9174 20.1938 12.9174 20.1938C12.9299 19.7489 12.9424 17.2388 12.9424 17.2388C13.0224 16.7695 13.5807 16.8307 13.5807 16.8307C14.1666 16.8062 14.1541 17.2013 14.1541 17.2013C14.1399 17.6217 14.1916 20.055 14.1916 20.055C14.2166 20.7554 14.8424 20.9733 14.8424 20.9733C15.2491 20.9733 15.5324 20.9701 15.9799 20.9733C16.19 20.975 17.2075 20.9733 17.2075 20.9733C17.6658 20.7227 18.355 20.1824 18.355 20.1824C23.2451 16.1744 21.8009 10.4685 21.8009 10.4685C21.1084 7.00417 16.8266 6.36746 16.8266 6.36746C16.3416 4.88916 15.4574 4.17817 15.4574 4.17817C14.4391 3.34964 13.5049 3.03945 12.7024 3.00353ZM16.8741 6.49154C16.8741 6.49154 18.4117 9.00571 15.4349 12.9076C15.4358 12.9084 12.9849 16.2674 8.57484 13.9059C9.47819 14.3328 13.1882 15.7932 15.5541 12.2896C15.5541 12.2896 17.7475 9.48406 16.8741 6.49154ZM7.58566 9.44325C7.58566 9.44325 8.66568 9.47263 8.70318 10.9289C8.70318 10.9289 7.85316 8.75103 5.9773 10.7656C5.9773 10.7656 6.31398 9.35427 7.58566 9.44325Z" fill="black"/>
</svg>
