<svg width="24" height="24" viewBox="0 0 24 24" fill="none" xmlns="http://www.w3.org/2000/svg">
<path d="M20.2094 17.4233C20.3958 19.7342 20.3958 20.8175 20.3958 22H14.857C14.857 21.7425 14.8622 21.5067 14.8665 21.2683C14.882 20.525 14.8976 19.7508 14.7724 18.1867C14.6084 15.8975 13.5865 15.3883 11.7083 15.3883H3.00086V11.2217H11.9741C14.346 11.2217 15.532 10.5258 15.532 8.68083C15.532 7.05917 14.346 6.07667 11.9741 6.07667H3V2H12.9615C18.3312 2 21 4.44833 21 8.36C21 11.2858 19.1218 13.1933 16.5859 13.5117C18.7265 13.9258 19.978 15.1025 20.2094 17.4233ZM3 22V18.8942H8.85557C9.83351 18.8942 10.0458 19.5942 10.0458 20.0125V22H3Z" fill="black"/>
</svg>
