<svg width="24" height="24" viewBox="0 0 24 24" fill="none" xmlns="http://www.w3.org/2000/svg">
<path d="M20 2C21.1046 2 22 2.89543 22 4V20C22 21.1046 21.1046 22 20 22H4C2.89543 22 2 21.1046 2 20V4C2 2.89543 2.89543 2 4 2H20ZM11.1108 15.2417H7.7V19.8417H11.1983V19.0667H8.62917V17.8142H10.9375V17.0392H8.62917V16.0192H11.1108V15.2417ZM12.8992 15.2417H11.9958V19.8417H12.8583V16.8417L14.7133 19.8417H15.645V15.2417H14.7817V18.3133L12.8992 15.2417ZM17.1633 15.2417H16.1567L17.8008 19.8417H18.7925L20.4392 15.2417H19.4542L18.3275 18.6458L17.1633 15.2417ZM6.5 18.4H5.1V19.8H6.5V18.4Z" fill="black"/>
</svg>
