<svg width="24" height="24" viewBox="0 0 24 24" fill="none" xmlns="http://www.w3.org/2000/svg">
<path d="M18.6157 10.4757C18.4702 10.4759 18.3307 10.5343 18.2279 10.6379C18.125 10.7415 18.0671 10.8819 18.0669 11.0285V20.0412H16.4852L13.4493 13.6795C13.8825 13.1863 14.0681 12.5016 13.9271 11.8461C13.8616 11.5223 13.7212 11.2186 13.5172 10.9597C13.3132 10.7009 13.0514 10.4942 12.7531 10.3565V9.61219C12.7551 9.50916 12.7368 9.40674 12.6992 9.31092C12.6615 9.21509 12.6053 9.12777 12.5338 9.05406C12.4623 8.98034 12.377 8.92169 12.2828 8.88154C12.1885 8.84138 12.0873 8.82053 11.985 8.82018C11.8467 8.82019 11.7109 8.85755 11.5919 8.92835C11.473 9.00126 11.3757 9.10475 11.3098 9.22817C11.2439 9.3516 11.2118 9.49048 11.2169 9.63053V10.2905C10.7602 10.4576 10.3755 10.7794 10.1286 11.2008C9.88168 11.6223 9.78802 12.1172 9.86366 12.6006C9.92907 13.0161 10.1164 13.4023 10.4015 13.7097L7.48023 20.0412H4.80467C4.32591 20.0381 3.86773 19.8447 3.52979 19.5031C3.19184 19.1615 3.00146 18.6993 3.00003 18.2171V5.59898C2.99457 6.60916 3.80361 7.43233 4.8074 7.43783C4.84747 7.43794 4.88753 7.43672 4.92752 7.43417H18.3463C18.3463 7.43417 20.6533 7.23433 20.9509 8.84585C20.8404 8.85715 20.7379 8.90915 20.6632 8.99189C20.5884 9.07462 20.5467 9.18225 20.5459 9.29411C20.5459 9.94586 20.019 10.4766 19.361 10.4766L18.6157 10.4757ZM16.7519 21.6592C16.8544 21.8719 16.8688 22.117 16.792 22.3404C16.7152 22.5639 16.5535 22.7475 16.3423 22.8509C16.2276 22.9046 16.103 22.9336 15.9765 22.9361C15.8778 22.9384 15.7795 22.9244 15.6853 22.8949C15.6634 22.8875 15.6434 22.8756 15.6216 22.8664C15.5477 22.8354 15.4783 22.7947 15.415 22.7454C15.3919 22.7277 15.3701 22.7094 15.3495 22.6904C15.2716 22.618 15.2069 22.5323 15.1584 22.4374L14.0153 20.0412L12.5975 17.0666C12.5409 16.9446 12.4508 16.8415 12.338 16.7694C12.2251 16.6973 12.0941 16.6592 11.9604 16.6596H11.9586C11.824 16.6598 11.6922 16.6981 11.5781 16.77C11.4641 16.842 11.3723 16.9447 11.3134 17.0666L9.93919 20.0412L8.8171 22.4668C8.75432 22.6127 8.65383 22.739 8.5261 22.8325C8.39836 22.9261 8.24807 22.9834 8.09087 22.9984C8.03354 23.003 7.97803 22.9966 7.92251 22.9902C7.89096 22.9884 7.85972 22.9847 7.82878 22.9792C7.78509 22.97 7.74232 22.9535 7.69955 22.9379C7.67225 22.9269 7.64495 22.9196 7.61764 22.9068C7.57297 22.8829 7.53036 22.8553 7.49024 22.8243C7.47022 22.8121 7.4502 22.7986 7.43017 22.7839C7.37205 22.7341 7.32038 22.6772 7.27637 22.6144C7.18736 22.483 7.13456 22.3302 7.12337 22.1716C7.11217 22.0129 7.14299 21.8541 7.21267 21.7114L7.98258 20.0412L10.9566 13.5961C10.6114 13.3392 10.38 12.956 10.3123 12.5291C10.1713 11.6307 10.7792 10.7874 11.671 10.6444V9.61219C11.6683 9.55452 11.681 9.49717 11.7079 9.44619C11.7348 9.3952 11.7749 9.35248 11.8239 9.32252C11.8728 9.29368 11.9284 9.27847 11.985 9.27847C12.0416 9.27847 12.0972 9.29368 12.1461 9.32252C12.1949 9.3526 12.2348 9.39537 12.2615 9.44634C12.2883 9.49732 12.3009 9.55461 12.2981 9.61219V10.6746L12.3099 10.6801C12.6021 10.7609 12.8664 10.9217 13.0734 11.1447C13.2803 11.3677 13.4218 11.6441 13.482 11.9433C13.5473 12.2438 13.527 12.5568 13.4233 12.8462C13.3196 13.1355 13.1368 13.3894 12.896 13.5787L15.9801 20.0412L16.7519 21.6592ZM12.8951 12.2806C12.896 12.1481 12.871 12.0168 12.8216 11.894C12.7721 11.7712 12.6991 11.6595 12.6067 11.5652C12.5143 11.4708 12.4044 11.3958 12.2832 11.3443C12.162 11.2927 12.0319 11.2658 11.9004 11.265C11.6328 11.2647 11.3759 11.3704 11.1851 11.5592C10.9983 11.7469 10.8927 12.0012 10.8911 12.2669C10.8902 12.3994 10.9151 12.5308 10.9646 12.6535C11.0141 12.7763 11.0871 12.8881 11.1795 12.9824C11.2719 13.0767 11.3818 13.1518 11.503 13.2033C11.6242 13.2548 11.7543 13.2817 11.8858 13.2826H11.8931C12.1576 13.2828 12.4115 13.1776 12.5993 12.9898C12.787 12.8021 12.8934 12.5471 12.8951 12.2806ZM11.9604 17.118C11.9123 17.1179 11.865 17.1311 11.8238 17.1562C11.7826 17.1812 11.749 17.2171 11.7265 17.26L10.4406 20.0412H13.5112L12.1852 17.261C12.1653 17.2179 12.1335 17.1815 12.0937 17.1562C12.0538 17.1308 12.0076 17.1176 11.9604 17.118ZM19.371 10.934H18.6157C18.5908 10.934 18.567 10.944 18.5494 10.9617C18.5318 10.9794 18.5219 11.0034 18.5219 11.0285V22.8628C18.5219 22.8867 18.5309 22.9098 18.5471 22.9274C18.5633 22.9449 18.5855 22.9556 18.6093 22.9572H19.3774C19.8083 22.9555 20.221 22.7819 20.5251 22.4743C20.8293 22.1668 21 21.7504 21 21.3163V9.29319C21 9.72837 20.8284 10.1457 20.5229 10.4534C20.2174 10.7612 19.803 10.934 19.371 10.934ZM3.45414 5.59898V5.61548C3.45723 5.97603 3.6008 6.32093 3.85392 6.57589C4.10703 6.83085 4.44945 6.97546 4.8074 6.97858L4.92661 6.97583H5.95407C6.12447 5.78505 6.64347 4.67248 7.44473 3.78029H4.80922C4.4084 3.78211 4.0195 3.91781 3.70347 4.16614C3.38743 4.41448 3.16212 4.7614 3.06282 5.15255C3.28305 5.18555 3.45414 5.36797 3.45414 5.59806M9.22207 2.94061L8.27743 1.30067C8.2602 1.27023 8.25113 1.23579 8.25113 1.20075C8.25113 1.16571 8.2602 1.13127 8.27743 1.10083C8.29595 1.07175 8.321 1.04746 8.35057 1.02994C8.38013 1.01242 8.41338 1.00217 8.44762 1C8.48221 1.00056 8.51608 1.01015 8.5459 1.02782C8.57573 1.04549 8.6005 1.07065 8.6178 1.10083L9.57335 2.76461C10.3345 2.42092 11.1591 2.24324 11.9932 2.24324C12.8273 2.24324 13.6519 2.42092 14.413 2.76461L15.3631 1.10083C15.3932 1.0636 15.4356 1.03846 15.4825 1.02999C15.5295 1.02153 15.5778 1.03029 15.6189 1.05469C15.66 1.07908 15.691 1.1175 15.7064 1.16297C15.7217 1.20844 15.7204 1.25795 15.7026 1.3025L14.7652 2.94336C15.5093 3.35492 16.1502 3.93237 16.6388 4.63158C17.1274 5.33078 17.4509 6.13325 17.5846 6.97766L6.40272 6.97674C6.53639 6.13258 6.85981 5.33035 7.34828 4.63132C7.83675 3.93229 8.47735 3.35494 9.22116 2.94336M14.1145 5.34506C14.1159 5.40706 14.1295 5.46817 14.1543 5.5249C14.1792 5.58163 14.2149 5.63287 14.2595 5.67569C14.304 5.71851 14.3565 5.75207 14.4139 5.77445C14.4713 5.79684 14.5326 5.80761 14.5941 5.80614C14.6557 5.80627 14.7168 5.79414 14.7738 5.77047C14.8307 5.7468 14.8825 5.71205 14.9261 5.6682C14.9697 5.62435 15.0043 5.57226 15.028 5.51493C15.0516 5.45759 15.0637 5.39613 15.0637 5.33406C15.0634 5.23978 15.0354 5.14771 14.9832 5.06945C14.931 4.99119 14.857 4.93023 14.7705 4.89426C14.684 4.85828 14.5888 4.8489 14.4971 4.8673C14.4053 4.8857 14.3209 4.93105 14.2547 4.99763C14.2091 5.0431 14.1732 5.09742 14.1491 5.1573C14.125 5.21718 14.1132 5.28137 14.1145 5.34597M8.91174 5.34047C8.91234 5.40247 8.92505 5.46374 8.94915 5.52079C8.97326 5.57783 9.00828 5.62954 9.05223 5.67295C9.09617 5.71637 9.14817 5.75063 9.20527 5.7738C9.26236 5.79697 9.32342 5.80858 9.38497 5.80798C9.44694 5.80933 9.50853 5.79791 9.56597 5.77442C9.6234 5.75093 9.67546 5.71587 9.71896 5.67139C9.77086 5.62925 9.81338 5.57658 9.84374 5.5168C9.87411 5.45703 9.89164 5.39148 9.8952 5.32443C9.89877 5.25738 9.88828 5.19032 9.86443 5.12762C9.84057 5.06492 9.80388 5.00797 9.75674 4.96049C9.70961 4.91301 9.65308 4.87606 9.59083 4.85203C9.52858 4.828 9.46201 4.81744 9.39544 4.82103C9.32887 4.82462 9.2638 4.84228 9.20445 4.87286C9.14511 4.90345 9.09282 4.94627 9.05098 4.99855C9.00634 5.04334 8.97104 5.09665 8.94713 5.15537C8.92322 5.21408 8.91119 5.27701 8.91174 5.34047Z" fill="black"/>
</svg>
