<svg width="24" height="24" viewBox="0 0 24 24" fill="none" xmlns="http://www.w3.org/2000/svg">
<path fill-rule="evenodd" clip-rule="evenodd" d="M11.993 6C9.331 6 7.673 7.324 7.003 9.97C8.007 8.647 9.171 8.153 10.509 8.473C11.265 8.662 11.819 9.215 12.414 9.811C13.389 10.815 14.524 11.964 16.996 11.964C19.658 11.964 21.331 10.64 22 7.993C20.996 9.31633 19.8327 9.81067 18.51 9.476C17.753 9.287 17.2 8.735 16.604 8.138C15.614 7.15 14.48 6 11.993 6ZM7.003 11.964C4.327 11.964 2.669 13.287 2 15.934C3.004 14.611 4.167 14.116 5.505 14.436C6.262 14.626 6.815 15.178 7.411 15.774C8.385 16.778 9.52 17.927 11.993 17.927C14.655 17.927 16.327 16.604 16.996 13.957C15.993 15.28 14.829 15.774 13.491 15.44C12.735 15.25 12.181 14.698 11.586 14.102C10.611 13.112 9.476 11.964 7.004 11.964H7.003Z" fill="black"/>
</svg>
