<svg width="24" height="24" viewBox="0 0 24 24" fill="none" xmlns="http://www.w3.org/2000/svg">
<path d="M9.45667 9.17601V7.91483C9.57427 7.90576 9.6921 7.90047 9.81 7.89895C13.0783 7.78959 15.2208 10.8746 15.2208 10.8746C15.2208 10.8746 12.9092 14.271 10.4292 14.271C10.1013 14.2713 9.77559 14.2162 9.46417 14.1078V10.2749C10.7375 10.4381 10.995 11.0307 11.7533 12.3784L13.4533 10.8667C13.4533 10.8667 12.21 9.14514 10.12 9.14514C9.89849 9.13987 9.67689 9.15018 9.45667 9.17601ZM9.45667 5V6.8856L9.81 6.86179C14.3517 6.69863 17.3183 10.8041 17.3183 10.8041C17.3183 10.8041 13.9183 15.1821 10.3767 15.1821C10.0708 15.1809 9.7655 15.1522 9.46417 15.0965V16.2651C9.71417 16.296 9.9725 16.3198 10.2225 16.3198C13.52 16.3198 15.9058 14.5356 18.2167 12.4322C18.5992 12.7594 20.1667 13.5461 20.4917 13.8891C18.2975 15.8365 13.1817 17.4028 10.2808 17.4028C10.0017 17.4028 9.73667 17.3869 9.47167 17.3561V19H22V5H9.45667ZM9.45667 14.107V15.1044C6.40917 14.5277 5.5625 11.171 5.5625 11.171C5.5625 11.171 7.0275 9.45647 9.45667 9.17601V10.267H9.45C8.17667 10.1029 7.175 11.365 7.175 11.365C7.175 11.365 7.74167 13.4923 9.4575 14.1078M4.04667 11.0299C4.04667 11.0299 5.85 8.21028 9.46333 7.91395V6.8856C5.46083 7.22868 2 10.812 2 10.812C2 10.812 3.95833 16.811 9.45667 17.3561V16.2651C5.42333 15.7359 4.04667 11.0299 4.04667 11.0299Z" fill="black"/>
</svg>
