<svg width="24" height="24" viewBox="0 0 24 24" fill="none" xmlns="http://www.w3.org/2000/svg">
<path d="M6.53167 6.92167V13.9533C6.53167 15.67 7.94 17.0783 9.65667 17.0783H14.3442C16.0608 17.0783 17.4692 15.67 17.4692 13.9533V10.0467C17.4659 9.42604 17.2178 8.83179 16.7789 8.39302C16.34 7.95424 15.7456 7.7064 15.125 7.70333C14.546 7.7071 13.9891 7.926 13.5625 8.3175C13.1359 7.926 12.579 7.7071 12 7.70333C11.3795 7.70662 10.7854 7.95456 10.3466 8.39331C9.90789 8.83206 9.65995 9.42619 9.65667 10.0467V13.9533H11.2192V10.0467C11.2192 9.60583 11.5592 9.26583 12 9.26583C12.4408 9.26583 12.7817 9.60583 12.7817 10.0467V13.9533H14.3442V10.0467C14.3442 9.60583 14.6842 9.26583 15.125 9.26583C15.5658 9.26583 15.9067 9.60583 15.9067 10.0467V13.9533C15.9083 14.159 15.8691 14.3629 15.7911 14.5532C15.7132 14.7436 15.5982 14.9165 15.4527 15.0619C15.3073 15.2073 15.1344 15.3224 14.9441 15.4003C14.7538 15.4782 14.5498 15.5175 14.3442 15.5158H9.65667C9.45101 15.5175 9.24708 15.4782 9.05676 15.4003C8.86644 15.3224 8.69352 15.2073 8.5481 15.0619C8.40268 14.9165 8.28765 14.7436 8.20971 14.5532C8.13178 14.3629 8.0925 14.159 8.09417 13.9533V6.92167H6.53167ZM12 2C6.48667 2 2 6.48667 2 12C2 17.5133 6.48667 22 12 22C17.5133 22 22 17.5133 22 12C22 6.48667 17.5133 2 12 2ZM12 3.5625C13.1085 3.56085 14.2064 3.77797 15.2308 4.20141C16.2553 4.62486 17.1861 5.24629 17.9699 6.03012C18.7537 6.81394 19.3751 7.74473 19.7986 8.76916C20.222 9.79359 20.4391 10.8915 20.4375 12C20.4391 13.1085 20.222 14.2064 19.7986 15.2308C19.3751 16.2553 18.7537 17.1861 17.9699 17.9699C17.1861 18.7537 16.2553 19.3751 15.2308 19.7986C14.2064 20.222 13.1085 20.4391 12 20.4375C10.8915 20.4391 9.79359 20.222 8.76916 19.7986C7.74473 19.3751 6.81394 18.7537 6.03012 17.9699C5.24629 17.1861 4.62486 16.2553 4.20141 15.2308C3.77797 14.2064 3.56085 13.1085 3.5625 12C3.56085 10.8915 3.77797 9.79359 4.20141 8.76916C4.62486 7.74473 5.24629 6.81394 6.03012 6.03012C6.81394 5.24629 7.74473 4.62486 8.76916 4.20141C9.79359 3.77797 10.8915 3.56085 12 3.5625Z" fill="black"/>
</svg>
