<svg width="24" height="24" viewBox="0 0 24 24" fill="none" xmlns="http://www.w3.org/2000/svg">
<path d="M8.27417 9.29417H7.68667V10.0783H8.275C8.58833 10.0783 8.74583 9.92167 8.74583 9.68583C8.745 9.41167 8.54917 9.29417 8.27417 9.29417ZM5.6075 9.52917C5.6075 9.33333 5.45083 9.255 5.215 9.255H4.6275V9.84333H5.17667C5.45083 9.80417 5.6075 9.72583 5.6075 9.52917ZM10.7842 10.4708H11.49L11.1375 9.56833L10.7842 10.4708ZM5.29417 10.4708H4.58833V11.0592H5.29417C5.56833 11.0592 5.72583 10.9417 5.72583 10.7458C5.72583 10.55 5.56833 10.4708 5.29417 10.4708ZM4 2C2.89543 2 2 2.89543 2 4V20C2 21.1046 2.89543 22 4 22H20C21.1046 22 22 21.1046 22 20V4C22 2.89543 21.1046 2 20 2H4ZM9.02 4.51H11.8825V5.29417H10.9025V7.765H10V5.29417H9.02V4.51ZM8.82333 4.51V5.255H7.09833V5.765H8.66667V6.47083H7.09833V6.98083H8.86333V7.765H6.235L6.19583 4.51H8.82333ZM6.6275 10.8625C6.6275 11.4117 6.15667 11.7642 5.41167 11.7642H3.72583V8.51H5.41167C5.80417 8.51 6.1175 8.6275 6.31333 8.78417C6.43167 8.90167 6.51 9.09833 6.51 9.33333C6.51 9.72583 6.31417 9.92167 6 10.0783C6.3925 10.1958 6.6275 10.4317 6.6275 10.8625ZM4.235 6.70583C4.39167 6.90167 4.54833 7.01917 4.745 7.01917C4.98 7.01917 5.09778 6.86222 5.09833 6.54833V4.47083H6V6.54917C6 6.94167 5.8825 7.255 5.68667 7.45083C5.49083 7.64667 5.17667 7.765 4.78417 7.765C4.19583 7.80417 3.8825 7.56833 3.6475 7.255L4.235 6.70583ZM11.2158 19.49H3.72583V18.235H11.2158V19.49ZM11.9608 11.8042L11.7258 11.2158H10.4708L10.2358 11.8042H9.29417L9.31083 11.765H8.745L8.07833 10.785H7.68667V11.765H6.78417V8.51H8.31333C8.82333 8.51 9.13667 8.6275 9.3725 8.86333C9.56833 9.05917 9.64667 9.295 9.64667 9.60833C9.64667 10.1183 9.3725 10.4317 8.98 10.6283L9.48417 11.36L10.705 8.51083H11.5675L12.94 11.805L11.9608 11.8042ZM13.9608 11.765H13.0592V8.51H13.9608V11.765ZM17.255 11.765H16.4708L15.0983 10V11.8042H14.1967V8.51H15.02L16.3533 10.2358V8.51H17.255V11.765ZM18.8625 11.8042C18.5865 11.825 18.3091 11.7906 18.0466 11.7031C17.784 11.6155 17.5416 11.4765 17.3333 11.2942L17.8433 10.7058C18.1567 10.98 18.51 11.0983 18.9025 11.0983C19.1375 11.0983 19.295 11.02 19.295 10.8633C19.295 10.7067 19.1775 10.6675 18.7458 10.55C18.04 10.3933 17.53 10.1967 17.53 9.53C17.53 8.94167 18.0008 8.47083 18.785 8.47083C19.3342 8.47083 19.765 8.6275 20.1183 8.9025L19.6475 9.53C19.3333 9.33333 19.02 9.21583 18.745 9.21583C18.51 9.21583 18.4317 9.29417 18.4317 9.41167C18.4317 9.56833 18.5492 9.6075 18.9808 9.725C19.7258 9.88167 20.1967 10.1175 20.1967 10.745C20.1958 11.4117 19.6867 11.8042 18.8625 11.8042Z" fill="black"/>
</svg>
