<svg width="24" height="24" viewBox="0 0 24 24" fill="none" xmlns="http://www.w3.org/2000/svg">
<path fill-rule="evenodd" clip-rule="evenodd" d="M18.3889 18.3884C19.2803 17.4969 19.9874 16.4386 20.4698 15.2738C20.9523 14.109 21.2005 12.8606 21.2005 11.5999C21.2005 10.3392 20.9521 9.09082 20.4696 7.92608C19.9871 6.76134 19.2799 5.70304 18.3884 4.81161C17.4969 3.92017 16.4386 3.21306 15.2738 2.73065C14.109 2.24823 12.8606 1.99996 11.5999 2C10.3392 2.00004 9.09082 2.24841 7.92608 2.73091C6.76134 3.2134 5.70304 3.92059 4.81161 4.81209C3.01128 6.61255 1.99991 9.05444 2 11.6006C2.00009 14.1467 3.01163 16.5886 4.81209 18.3889C6.61255 20.1892 9.05444 21.2006 11.6006 21.2005C14.1467 21.2004 16.5886 20.1889 18.3889 18.3884ZM11.4606 2.64057C11.4606 2.60339 11.4753 2.56774 11.5016 2.54146C11.5279 2.51517 11.5636 2.50041 11.6007 2.50041C11.6379 2.50041 11.6735 2.51517 11.6998 2.54146C11.7261 2.56774 11.7409 2.60339 11.7409 2.64057V4.25529C11.7409 4.29246 11.7261 4.32811 11.6998 4.3544C11.6735 4.38068 11.6379 4.39545 11.6007 4.39545C11.5636 4.39545 11.5279 4.38068 11.5016 4.3544C11.4753 4.32811 11.4606 4.29246 11.4606 4.25529V2.64057ZM10.657 2.55897C10.694 2.55521 10.7308 2.56623 10.7596 2.58963C10.7884 2.61302 10.8068 2.64687 10.8106 2.68377L10.8807 3.35865C10.8845 3.39557 10.8735 3.43249 10.8501 3.46129C10.8267 3.4901 10.7928 3.50843 10.7559 3.51225C10.719 3.51607 10.6821 3.50506 10.6533 3.48166C10.6245 3.45825 10.6061 3.42437 10.6023 3.38745L10.5322 2.71257C10.5303 2.69427 10.5319 2.67576 10.5371 2.65811C10.5423 2.64045 10.551 2.62401 10.5626 2.60972C10.5742 2.59544 10.5885 2.5836 10.6047 2.57489C10.621 2.56617 10.6387 2.56076 10.657 2.55897ZM12.3975 2.68377C12.3984 2.66473 12.4032 2.64607 12.4116 2.62894C12.4199 2.61181 12.4317 2.59656 12.4462 2.58413C12.4606 2.5717 12.4774 2.56235 12.4956 2.55666C12.5138 2.55096 12.533 2.54903 12.552 2.55099C12.5709 2.55296 12.5893 2.55876 12.6059 2.56807C12.6226 2.57737 12.6371 2.58996 12.6487 2.60509C12.6603 2.62021 12.6687 2.63754 12.6734 2.65602C12.6781 2.6745 12.6789 2.69374 12.6759 2.71257L12.6049 3.38841C12.604 3.40745 12.5992 3.42611 12.5908 3.44324C12.5825 3.46037 12.5707 3.47562 12.5563 3.48804C12.5418 3.50047 12.525 3.50982 12.5068 3.51552C12.4886 3.52122 12.4694 3.52314 12.4505 3.52118C12.4315 3.51922 12.4131 3.51341 12.3965 3.50411C12.3799 3.49481 12.3653 3.48221 12.3537 3.46709C12.3421 3.45196 12.3337 3.43463 12.329 3.41615C12.3243 3.39767 12.3235 3.37843 12.3265 3.35961L12.3975 2.68377ZM9.71625 2.69817C9.73422 2.69423 9.75279 2.69389 9.7709 2.69717C9.789 2.70045 9.80627 2.70729 9.82171 2.71729C9.83716 2.72728 9.85047 2.74025 9.86087 2.75542C9.87127 2.77059 9.87857 2.78768 9.88233 2.80569L10.2164 4.38585C10.2202 4.40381 10.2204 4.42235 10.217 4.44039C10.2136 4.45844 10.2067 4.47564 10.1967 4.49101C10.1867 4.50639 10.1737 4.51964 10.1586 4.53001C10.1434 4.54038 10.1264 4.54767 10.1084 4.55145C10.0904 4.55523 10.0719 4.55544 10.0539 4.55206C10.0358 4.54867 10.0186 4.54177 10.0032 4.53174C9.98786 4.52172 9.97461 4.50876 9.96424 4.49361C9.95387 4.47846 9.94659 4.46141 9.94281 4.44345L9.60873 2.86425C9.60103 2.82797 9.60803 2.79013 9.62818 2.759C9.64833 2.72787 9.68 2.706 9.71625 2.69817ZM13.3258 2.80761C13.3295 2.78951 13.3367 2.77232 13.3471 2.75704C13.3574 2.74176 13.3707 2.72869 13.3862 2.7186C13.4016 2.7085 13.4189 2.70158 13.4371 2.69824C13.4553 2.6949 13.4739 2.6952 13.4919 2.69913C13.5099 2.70289 13.527 2.71018 13.5422 2.72058C13.5574 2.73099 13.5703 2.7443 13.5803 2.75974C13.5903 2.77518 13.5972 2.79246 13.6004 2.81056C13.6037 2.82866 13.6034 2.84724 13.5994 2.86521L13.2634 4.44441C13.2558 4.48069 13.2341 4.51245 13.203 4.5327C13.172 4.55296 13.1341 4.56005 13.0978 4.55241C13.0616 4.54477 13.0298 4.52303 13.0096 4.49197C12.9893 4.46092 12.9822 4.42309 12.9898 4.38681L13.3258 2.80761ZM8.79177 2.95449C8.80929 2.94867 8.82779 2.94639 8.84619 2.94779C8.8646 2.94919 8.88254 2.95423 8.89898 2.96263C8.91542 2.97103 8.93002 2.98261 8.94194 2.9967C8.95386 3.0108 8.96286 3.02712 8.96841 3.04473L9.17769 3.68985C9.18914 3.72511 9.18612 3.76348 9.16929 3.79652C9.15246 3.82955 9.12319 3.85455 9.08793 3.86601C9.05266 3.87746 9.01429 3.87444 8.98126 3.85761C8.94822 3.84078 8.92323 3.81151 8.91177 3.77625L8.70153 3.13113C8.69571 3.11361 8.69343 3.09511 8.69483 3.0767C8.69623 3.0583 8.70127 3.04035 8.70967 3.02392C8.71807 3.00748 8.72965 2.99287 8.74374 2.98096C8.75784 2.96904 8.77416 2.96004 8.79177 2.95449ZM14.235 3.04473C14.2405 3.02712 14.2495 3.0108 14.2614 2.9967C14.2734 2.98261 14.288 2.97103 14.3044 2.96263C14.3208 2.95423 14.3388 2.94919 14.3572 2.94779C14.3756 2.94639 14.3941 2.94867 14.4116 2.95449C14.4468 2.96612 14.476 2.99124 14.4928 3.02436C14.5095 3.05747 14.5124 3.09586 14.5009 3.13113L14.2906 3.77721C14.286 3.79589 14.2776 3.81343 14.2659 3.82871C14.2542 3.844 14.2395 3.85671 14.2226 3.86606C14.2058 3.8754 14.1872 3.88118 14.1681 3.88304C14.1489 3.88489 14.1296 3.88278 14.1113 3.87683C14.093 3.87088 14.0761 3.86123 14.0617 3.84846C14.0473 3.8357 14.0356 3.82011 14.0275 3.80266C14.0194 3.78521 14.015 3.76627 14.0145 3.74702C14.014 3.72778 14.0175 3.70864 14.0247 3.69081L14.235 3.04473ZM7.90473 3.28473C7.92159 3.2771 7.93981 3.27292 7.95831 3.27242C7.97682 3.27192 7.99523 3.27512 8.01249 3.28182C8.02974 3.28853 8.04548 3.2986 8.05879 3.31147C8.0721 3.32433 8.08272 3.33971 8.09001 3.35673L8.74569 4.83129C8.76084 4.86528 8.76186 4.90389 8.74854 4.93864C8.73522 4.97339 8.70864 5.00142 8.67465 5.01657C8.64066 5.03172 8.60204 5.03274 8.56729 5.01942C8.53255 5.0061 8.50452 4.97952 8.48937 4.94553L7.83369 3.47001C7.82618 3.45325 7.82207 3.43517 7.82158 3.41682C7.8211 3.39846 7.82424 3.3802 7.83085 3.36306C7.83745 3.34593 7.84738 3.33027 7.86006 3.31699C7.87274 3.30371 7.88792 3.29211 7.90473 3.28473ZM15.1239 3.36153C15.1298 3.34268 15.1397 3.32529 15.1528 3.31051C15.1659 3.29573 15.182 3.28389 15.2 3.27576C15.218 3.26764 15.2375 3.26341 15.2573 3.26337C15.2771 3.26332 15.2966 3.26745 15.3147 3.27549C15.3327 3.28352 15.3489 3.29529 15.362 3.31C15.3752 3.32472 15.3851 3.34206 15.3912 3.36088C15.3972 3.3797 15.3991 3.39958 15.3969 3.41922C15.3947 3.43885 15.3884 3.45779 15.3783 3.47481L14.7207 4.94937C14.714 4.96732 14.7037 4.98371 14.6905 4.99752C14.6772 5.01134 14.6612 5.02229 14.6435 5.02969C14.6259 5.03709 14.6069 5.04079 14.5877 5.04056C14.5686 5.04033 14.5496 5.03617 14.5322 5.02835C14.5147 5.02053 14.499 5.0092 14.486 4.99507C14.4731 4.98094 14.4632 4.96431 14.4569 4.9462C14.4507 4.92809 14.4482 4.90889 14.4496 4.88979C14.4511 4.87069 14.4564 4.85208 14.4654 4.83513L15.1239 3.36153ZM7.05513 3.72729C7.07107 3.71798 7.08868 3.71192 7.10697 3.70944C7.12526 3.70696 7.14386 3.70812 7.1617 3.71285C7.17954 3.71757 7.19627 3.72578 7.21093 3.73699C7.22559 3.7482 7.23789 3.76219 7.24713 3.77817L7.58601 4.36665C7.60459 4.39873 7.60967 4.43688 7.60013 4.4727C7.59059 4.50853 7.56721 4.5391 7.53513 4.55769C7.50305 4.57627 7.4649 4.58135 7.42907 4.57181C7.39324 4.56227 7.36267 4.53889 7.34409 4.50681L7.00425 3.91833C6.99497 3.90246 6.98892 3.88492 6.98645 3.8667C6.98399 3.84849 6.98515 3.82997 6.98988 3.81221C6.99461 3.79444 7.00281 3.7778 7.01401 3.76322C7.02521 3.74865 7.03918 3.73643 7.05513 3.72729ZM15.9543 3.77913C15.9634 3.76298 15.9756 3.7488 15.9902 3.73742C16.0048 3.72604 16.0216 3.71769 16.0394 3.71286C16.0573 3.70803 16.076 3.70682 16.0943 3.7093C16.1127 3.71178 16.1304 3.71789 16.1463 3.72729C16.2135 3.76569 16.2356 3.85209 16.1972 3.91929L15.8574 4.50681C15.8489 4.52412 15.837 4.53952 15.8224 4.55203C15.8078 4.56454 15.7907 4.5739 15.7723 4.57953C15.7539 4.58515 15.7345 4.58692 15.7153 4.58472C15.6962 4.58253 15.6777 4.57641 15.6611 4.56676C15.6444 4.5571 15.6299 4.54412 15.6185 4.52861C15.6071 4.51311 15.599 4.49541 15.5947 4.47664C15.5904 4.45786 15.59 4.4384 15.5936 4.41948C15.5972 4.40056 15.6046 4.38257 15.6154 4.36665L15.9543 3.77913ZM6.25833 4.23513C6.2883 4.21353 6.32559 4.20464 6.36209 4.21039C6.39858 4.21615 6.43133 4.23608 6.45321 4.26585L7.40073 5.57241C7.41151 5.58728 7.41925 5.60414 7.42352 5.62201C7.42778 5.63987 7.42848 5.65841 7.42559 5.67655C7.42269 5.69469 7.41625 5.71208 7.40663 5.72773C7.39701 5.74339 7.3844 5.75699 7.36953 5.76777C7.35465 5.77855 7.3378 5.78629 7.31993 5.79056C7.30206 5.79482 7.28353 5.79553 7.26539 5.79263C7.24724 5.78973 7.22985 5.78329 7.2142 5.77367C7.19855 5.76405 7.18495 5.75144 7.17417 5.73657L6.22665 4.43097C6.21568 4.41614 6.20777 4.39928 6.20337 4.38136C6.19898 4.36345 6.19819 4.34484 6.20104 4.32662C6.2039 4.3084 6.21035 4.29093 6.22002 4.27522C6.22969 4.25951 6.24335 4.24589 6.25833 4.23513ZM16.7578 4.27353C16.7685 4.25847 16.7821 4.24569 16.7978 4.23593C16.8135 4.22617 16.8309 4.21963 16.8491 4.21668C16.8674 4.21373 16.886 4.21444 16.9039 4.21876C16.9219 4.22308 16.9388 4.23093 16.9537 4.24185C17.0161 4.28793 17.0305 4.37433 16.9844 4.43769L16.034 5.74329C16.0238 5.75963 16.0103 5.77368 15.9944 5.78458C15.9785 5.79548 15.9606 5.80298 15.9416 5.80662C15.9227 5.81027 15.9033 5.80997 15.8845 5.80575C15.8657 5.80152 15.8479 5.79347 15.8324 5.78209C15.8168 5.77071 15.8038 5.75625 15.7941 5.7396C15.7844 5.72296 15.7782 5.70449 15.776 5.68535C15.7737 5.66622 15.7754 5.64682 15.781 5.62838C15.7866 5.60994 15.7959 5.59284 15.8084 5.57817L16.7588 4.27257L16.7578 4.27353ZM5.51913 4.84377C5.53269 4.83131 5.5486 4.82168 5.56591 4.81541C5.58323 4.80915 5.60162 4.80638 5.62001 4.80727C5.63841 4.80817 5.65644 4.8127 5.67307 4.82061C5.6897 4.82853 5.70459 4.83966 5.71689 4.85337L6.17097 5.35833C6.18332 5.37201 6.19286 5.38798 6.19904 5.40535C6.20522 5.42271 6.20792 5.44113 6.20698 5.45954C6.20605 5.47794 6.2015 5.49599 6.19359 5.51264C6.18568 5.52928 6.17457 5.54421 6.16089 5.55657C6.14721 5.56892 6.13123 5.57846 6.11387 5.58464C6.0965 5.59082 6.07809 5.59352 6.05968 5.59258C6.04127 5.59165 6.02323 5.5871 6.00658 5.57919C5.98993 5.57128 5.975 5.56017 5.96265 5.54649L5.50857 5.04153C5.49611 5.02796 5.48648 5.01206 5.48021 4.99474C5.47395 4.97742 5.47118 4.95904 5.47207 4.94064C5.47297 4.92225 5.4775 4.90422 5.48541 4.88759C5.49333 4.87096 5.50542 4.85606 5.51913 4.84377ZM17.4855 4.85529C17.4976 4.84071 17.5124 4.82872 17.5292 4.82003C17.546 4.81135 17.5644 4.80615 17.5832 4.80474C17.6021 4.80334 17.621 4.80576 17.6389 4.81187C17.6568 4.81797 17.6732 4.82763 17.6873 4.84026C17.7014 4.8529 17.7127 4.86824 17.7207 4.88538C17.7287 4.90252 17.7331 4.92109 17.7337 4.93998C17.7343 4.95887 17.7311 4.97769 17.7243 4.99531C17.7174 5.01292 17.7071 5.02897 17.6938 5.04249L17.2398 5.54745C17.2275 5.56113 17.2126 5.57225 17.196 5.58018C17.1794 5.58812 17.1614 5.5927 17.1431 5.59368C17.1247 5.59467 17.1063 5.59202 17.089 5.5859C17.0717 5.57978 17.0557 5.5703 17.042 5.55801C17.0283 5.54572 17.0172 5.53085 17.0093 5.51426C17.0013 5.49767 16.9968 5.47968 16.9958 5.46131C16.9948 5.44295 16.9974 5.42457 17.0036 5.40723C17.0097 5.38989 17.0192 5.37393 17.0314 5.36025L17.4855 4.85529ZM4.83753 5.51289C4.86237 5.48529 4.89715 5.46868 4.93422 5.4667C4.9713 5.46472 5.00765 5.47753 5.03529 5.50233L6.23529 6.58233C6.29289 6.63417 6.29769 6.72249 6.24489 6.78009C6.2326 6.79365 6.21777 6.80467 6.20122 6.81249C6.18468 6.82032 6.16676 6.82481 6.14848 6.8257C6.1302 6.82659 6.11192 6.82387 6.0947 6.81769C6.07747 6.81151 6.06163 6.80199 6.04809 6.78969L4.84809 5.70969C4.83452 5.6974 4.82351 5.68257 4.81568 5.66602C4.80786 5.64948 4.80337 5.63156 4.80248 5.61328C4.80159 5.595 4.80431 5.57672 4.81049 5.5595C4.81667 5.54227 4.82522 5.52643 4.83753 5.51289ZM18.17 5.50713C18.1836 5.49467 18.1995 5.48504 18.2168 5.47877C18.2341 5.47251 18.2525 5.46974 18.2709 5.47063C18.2893 5.47153 18.3073 5.47606 18.3239 5.48397C18.3406 5.49189 18.3555 5.50302 18.3678 5.51673C18.4196 5.57433 18.4158 5.66265 18.3582 5.71449L17.1562 6.79449C17.1382 6.81103 17.1159 6.82231 17.0919 6.82713L12.698 12.7503L4.91241 17.9871L5.32521 17.4294L5.03145 17.6943C5.01793 17.7075 5.00188 17.7179 4.98427 17.7247C4.96665 17.7316 4.94783 17.7348 4.92894 17.7342C4.91005 17.7336 4.89148 17.7291 4.87434 17.7212C4.8572 17.7132 4.84186 17.7018 4.82922 17.6878C4.81659 17.6737 4.80693 17.6573 4.80083 17.6394C4.79472 17.6215 4.7923 17.6025 4.7937 17.5837C4.79511 17.5648 4.80031 17.5465 4.80899 17.5297C4.81768 17.5129 4.82967 17.498 4.84425 17.486L6.04425 16.407C6.06247 16.3905 6.08461 16.3789 6.10857 16.3734L10.5034 10.4502L18.289 5.21337L17.8743 5.77305L18.17 5.50713ZM4.24713 6.25497C4.25796 6.24006 4.27164 6.22745 4.28738 6.21787C4.30312 6.20829 4.32061 6.20194 4.33883 6.19917C4.35705 6.1964 4.37563 6.19728 4.39351 6.20175C4.41139 6.20622 4.4282 6.21419 4.44297 6.22521L4.99209 6.62361C5.00825 6.63385 5.02214 6.6473 5.03291 6.66312C5.04368 6.67895 5.05109 6.6968 5.05469 6.7156C5.05829 6.73439 5.05801 6.75373 5.05385 6.77241C5.0497 6.79109 5.04176 6.80872 5.03053 6.82422C5.01931 6.83972 5.00502 6.85275 4.98856 6.86251C4.97211 6.87228 4.95382 6.87857 4.93484 6.881C4.91586 6.88344 4.89658 6.88195 4.87819 6.87665C4.85981 6.87135 4.8427 6.86233 4.82793 6.85017L4.27881 6.45177C4.26375 6.44108 4.25097 6.42751 4.24121 6.41184C4.23145 6.39616 4.22491 6.37871 4.22196 6.36048C4.21901 6.34226 4.21972 6.32363 4.22404 6.30568C4.22836 6.28773 4.23621 6.26986 4.24713 6.25497ZM18.7642 6.23001C18.779 6.21784 18.7961 6.20883 18.8145 6.20352C18.8329 6.19822 18.8522 6.19674 18.8712 6.19917C18.8901 6.2016 18.9084 6.20789 18.9249 6.21766C18.9413 6.22743 18.9556 6.24046 18.9669 6.25596C18.9781 6.27145 18.986 6.28909 18.9902 6.30777C18.9943 6.32645 18.9946 6.34578 18.991 6.36458C18.9874 6.38337 18.98 6.40123 18.9692 6.41705C18.9585 6.43287 18.9446 6.44632 18.9284 6.45657L18.3793 6.85497C18.3645 6.86713 18.3474 6.87615 18.329 6.88145C18.3106 6.88675 18.2914 6.88824 18.2724 6.8858C18.2534 6.88337 18.2351 6.87708 18.2187 6.86731C18.2022 6.85755 18.1879 6.84451 18.1767 6.82902C18.1655 6.81352 18.1575 6.79589 18.1534 6.77721C18.1492 6.75853 18.1489 6.73919 18.1525 6.7204C18.1561 6.7016 18.1635 6.68375 18.1743 6.66792C18.1851 6.6521 18.199 6.63865 18.2151 6.62841L18.7642 6.23001ZM3.72105 7.04985C3.73011 7.0337 3.74231 7.01952 3.75692 7.00814C3.77154 6.99676 3.78827 6.98841 3.80615 6.98358C3.82404 6.97875 3.8427 6.97754 3.86105 6.98002C3.87941 6.9825 3.89709 6.98861 3.91305 6.99801L5.31081 7.80537C5.32676 7.81457 5.34073 7.82682 5.35195 7.84143C5.36316 7.85604 5.37138 7.87271 5.37615 7.89049C5.38092 7.90827 5.38214 7.92682 5.37974 7.94508C5.37734 7.96334 5.37137 7.98094 5.36217 7.99689C5.35296 8.01283 5.34071 8.02681 5.32611 8.03803C5.3115 8.04924 5.29483 8.05746 5.27704 8.06223C5.25926 8.067 5.24071 8.06822 5.22246 8.06582C5.2042 8.06342 5.1866 8.05745 5.17065 8.04825L3.77289 7.24089C3.75674 7.23182 3.74256 7.21963 3.73118 7.20501C3.7198 7.1904 3.71145 7.17366 3.70662 7.15578C3.70179 7.1379 3.70058 7.11924 3.70306 7.10088C3.70554 7.08253 3.71165 7.06581 3.72105 7.04985ZM19.2903 6.99801C19.3063 6.9888 19.3239 6.98283 19.3421 6.98043C19.3604 6.97803 19.3789 6.97925 19.3967 6.98402C19.4145 6.98879 19.4312 6.99702 19.4458 7.00823C19.4604 7.01944 19.4726 7.03342 19.4818 7.04937C19.4911 7.06532 19.497 7.08292 19.4994 7.10118C19.5018 7.11943 19.5006 7.13798 19.4958 7.15576C19.4911 7.17355 19.4828 7.19022 19.4716 7.20482C19.4604 7.21943 19.4464 7.23168 19.4305 7.24089L18.0327 8.04729C18.0168 8.05812 17.9988 8.06555 17.9799 8.06913C17.961 8.0727 17.9415 8.07233 17.9227 8.06805C17.904 8.06377 17.8863 8.05566 17.8708 8.04424C17.8553 8.03282 17.8423 8.01832 17.8326 8.00166C17.823 7.985 17.8168 7.96652 17.8147 7.94739C17.8125 7.92826 17.8142 7.90888 17.8198 7.89046C17.8255 7.87204 17.8348 7.85498 17.8473 7.84034C17.8599 7.8257 17.8753 7.81379 17.8926 7.80537L19.2903 6.99801ZM3.29961 7.89657C3.30699 7.87976 3.31763 7.86458 3.33091 7.8519C3.34419 7.83922 3.35985 7.82929 3.37698 7.82269C3.39411 7.81608 3.41238 7.81294 3.43074 7.81342C3.44909 7.81391 3.46717 7.81802 3.48393 7.82553L4.10505 8.10201C4.12247 8.10913 4.13828 8.1197 4.15154 8.13307C4.16479 8.14644 4.17521 8.16234 4.18219 8.17983C4.18916 8.19732 4.19254 8.21603 4.19212 8.23485C4.1917 8.25367 4.1875 8.27222 4.17976 8.28938C4.17201 8.30654 4.16089 8.32196 4.14706 8.33473C4.13323 8.3475 4.11696 8.35735 4.09924 8.3637C4.08151 8.37004 4.06269 8.37275 4.0439 8.37167C4.0251 8.37058 4.00672 8.36571 3.98985 8.35737L3.37065 8.08089C3.35384 8.0735 3.33866 8.06286 3.32598 8.04958C3.3133 8.0363 3.30337 8.02064 3.29677 8.00351C3.29016 7.98638 3.28702 7.96811 3.2875 7.94976C3.28799 7.9314 3.2921 7.91333 3.29961 7.89657ZM19.7214 7.83129C19.7383 7.82236 19.7569 7.81701 19.776 7.81556C19.7951 7.81411 19.8143 7.81659 19.8324 7.82285C19.8505 7.82911 19.8672 7.83901 19.8813 7.85195C19.8954 7.86489 19.9068 7.88059 19.9146 7.89808C19.9224 7.91557 19.9266 7.93448 19.9268 7.95363C19.927 7.97279 19.9233 7.99179 19.9159 8.00946C19.9085 8.02714 19.8976 8.0431 19.8838 8.05638C19.87 8.06965 19.8536 8.07996 19.8356 8.08665L19.2154 8.36313C19.1985 8.37205 19.1799 8.3774 19.1608 8.37886C19.1417 8.38031 19.1225 8.37783 19.1044 8.37157C19.0863 8.36531 19.0696 8.3554 19.0555 8.34246C19.0414 8.32952 19.03 8.31382 19.0222 8.29634C19.0144 8.27885 19.0102 8.25994 19.01 8.24078C19.0098 8.22162 19.0135 8.20262 19.0209 8.18495C19.0283 8.16728 19.0392 8.15131 19.0531 8.13804C19.0669 8.12476 19.0833 8.11446 19.1012 8.10777L19.7214 7.83129ZM2.95017 8.78073C2.95572 8.76312 2.96472 8.7468 2.97663 8.7327C2.98855 8.71861 3.00316 8.70703 3.0196 8.69863C3.03603 8.69023 3.05398 8.68519 3.07238 8.68379C3.09079 8.68239 3.10929 8.68467 3.12681 8.69049L4.66185 9.19065C4.67931 9.19632 4.69548 9.20538 4.70944 9.2173C4.7234 9.22922 4.73488 9.24378 4.74321 9.26014C4.75155 9.2765 4.75658 9.29434 4.75802 9.31264C4.75946 9.33094 4.75728 9.34935 4.75161 9.36681C4.74593 9.38427 4.73688 9.40044 4.72495 9.4144C4.71303 9.42836 4.69848 9.43984 4.68212 9.44817C4.66576 9.45651 4.64792 9.46154 4.62962 9.46298C4.61131 9.46442 4.59291 9.46224 4.57545 9.45657L3.03945 8.95737C3.02193 8.95172 3.00571 8.94265 2.99172 8.93069C2.97773 8.91873 2.96625 8.90411 2.95794 8.88768C2.94964 8.87125 2.94468 8.85334 2.94334 8.83498C2.94201 8.81662 2.94433 8.79818 2.95017 8.78073ZM20.0794 8.69625C20.0973 8.68901 20.1164 8.68552 20.1357 8.686C20.1549 8.68648 20.1738 8.69092 20.1913 8.69904C20.2088 8.70716 20.2243 8.71879 20.2371 8.7332C20.2499 8.74761 20.2595 8.7645 20.2655 8.7828C20.2714 8.80111 20.2735 8.82045 20.2717 8.83961C20.2698 8.85877 20.264 8.87734 20.2547 8.89417C20.2454 8.911 20.2326 8.92572 20.2174 8.93742C20.2021 8.94912 20.1845 8.95754 20.1658 8.96217L18.6298 9.46137C18.612 9.46861 18.5929 9.4721 18.5736 9.47162C18.5544 9.47114 18.5355 9.4667 18.518 9.45858C18.5005 9.45046 18.485 9.43883 18.4722 9.42442C18.4594 9.41001 18.4498 9.39312 18.4438 9.37481C18.4379 9.3565 18.4358 9.33717 18.4376 9.31801C18.4395 9.29885 18.4453 9.28027 18.4546 9.26345C18.4639 9.24662 18.4767 9.2319 18.4919 9.2202C18.5072 9.2085 18.5248 9.20007 18.5434 9.19545L20.0794 8.69625ZM2.70921 9.71097C2.71297 9.69296 2.72026 9.67587 2.73066 9.6607C2.74107 9.64553 2.75438 9.63257 2.76982 9.62257C2.78526 9.61257 2.80254 9.60573 2.82064 9.60245C2.83874 9.59917 2.85732 9.59951 2.87529 9.60345L3.53865 9.74457C3.55772 9.74717 3.57606 9.75368 3.59251 9.76368C3.60896 9.77369 3.62317 9.78697 3.63426 9.80271C3.64535 9.81845 3.65308 9.8363 3.65697 9.85516C3.66085 9.87402 3.66081 9.89347 3.65684 9.91231C3.65288 9.93115 3.64507 9.94898 3.63391 9.96467C3.62275 9.98036 3.60848 9.99358 3.59199 10.0035C3.5755 10.0134 3.55713 10.0199 3.53804 10.0224C3.51896 10.0249 3.49955 10.0235 3.48105 10.0182L2.81673 9.87705C2.79872 9.87329 2.78163 9.866 2.76646 9.85559C2.75129 9.84519 2.73832 9.83188 2.72833 9.81643C2.71833 9.80099 2.71149 9.78372 2.70821 9.76561C2.70493 9.74751 2.70527 9.72894 2.70921 9.71097ZM20.3271 9.60537C20.3451 9.60159 20.3636 9.60138 20.3817 9.60476C20.3997 9.60814 20.4169 9.61504 20.4323 9.62507C20.4477 9.6351 20.4609 9.64806 20.4713 9.66321C20.4817 9.67836 20.4889 9.6954 20.4927 9.71337C20.4965 9.73133 20.4967 9.74987 20.4933 9.76791C20.49 9.78596 20.4831 9.80316 20.473 9.81854C20.463 9.83391 20.45 9.84716 20.4349 9.85753C20.4197 9.8679 20.4027 9.87519 20.3847 9.87897L19.7204 10.0191C19.7024 10.0229 19.6839 10.0231 19.6659 10.0197C19.6478 10.0164 19.6306 10.0095 19.6152 9.99942C19.5999 9.9894 19.5866 9.97644 19.5762 9.96129C19.5659 9.94614 19.5586 9.92909 19.5548 9.91113C19.551 9.89316 19.5508 9.87463 19.5542 9.85658C19.5576 9.83854 19.5645 9.82134 19.5745 9.80596C19.5845 9.79058 19.5975 9.77733 19.6126 9.76696C19.6278 9.75659 19.6448 9.74931 19.6628 9.74553L20.3271 9.60537ZM2.55177 10.6431C2.55356 10.6248 2.55897 10.607 2.56769 10.5908C2.5764 10.5746 2.58824 10.5603 2.60252 10.5487C2.61681 10.5371 2.63325 10.5284 2.65091 10.5232C2.66856 10.518 2.68707 10.5163 2.70537 10.5183L4.31145 10.6882C4.33049 10.6892 4.34915 10.6939 4.36628 10.7023C4.38341 10.7107 4.39865 10.7224 4.41108 10.7369C4.42351 10.7513 4.43286 10.7682 4.43856 10.7864C4.44426 10.8045 4.44618 10.8237 4.44422 10.8427C4.44226 10.8616 4.43645 10.88 4.42715 10.8966C4.41785 10.9133 4.40525 10.9278 4.39013 10.9394C4.375 10.9511 4.35767 10.9595 4.33919 10.9641C4.32071 10.9688 4.30147 10.9697 4.28265 10.9666L2.67657 10.7967C2.65825 10.7949 2.64047 10.7895 2.62426 10.7808C2.60804 10.7721 2.59372 10.7603 2.58211 10.746C2.57051 10.7317 2.56185 10.7152 2.55664 10.6976C2.55143 10.6799 2.54978 10.6614 2.55177 10.6431ZM20.497 10.5308C20.5153 10.5288 20.5339 10.5305 20.5515 10.5357C20.5692 10.5409 20.5856 10.5495 20.5999 10.5612C20.6142 10.5728 20.626 10.5871 20.6347 10.6033C20.6434 10.6195 20.6489 10.6373 20.6506 10.6556C20.6526 10.6739 20.651 10.6924 20.6458 10.7101C20.6406 10.7277 20.6319 10.7442 20.6203 10.7585C20.6087 10.7727 20.5944 10.7846 20.5782 10.7933C20.5619 10.802 20.5442 10.8074 20.5258 10.8092L18.9207 10.9762C18.9024 10.9781 18.884 10.9764 18.8664 10.9712C18.8487 10.9659 18.8323 10.9572 18.8181 10.9457C18.8038 10.9341 18.792 10.9198 18.7832 10.9036C18.7745 10.8875 18.769 10.8697 18.7671 10.8514C18.7652 10.8332 18.767 10.8147 18.7722 10.7971C18.7775 10.7795 18.7861 10.7631 18.7977 10.7488C18.8093 10.7345 18.8236 10.7227 18.8398 10.714C18.8559 10.7052 18.8736 10.6997 18.8919 10.6978L20.497 10.5308ZM2.51049 11.5993C2.51049 11.5225 2.57289 11.4591 2.64969 11.4591H3.32937C3.36654 11.4591 3.40219 11.4739 3.42848 11.5002C3.45476 11.5265 3.46953 11.5621 3.46953 11.5993C3.46953 11.6365 3.45476 11.6721 3.42848 11.6984C3.40219 11.7247 3.36654 11.7394 3.32937 11.7394H2.64969C2.63133 11.7394 2.61315 11.7358 2.59619 11.7288C2.57924 11.7217 2.56386 11.7114 2.55092 11.6983C2.53798 11.6853 2.52775 11.6699 2.52081 11.6529C2.51387 11.6359 2.51036 11.6176 2.51049 11.5993ZM19.7329 11.5993C19.7329 11.5225 19.7943 11.4591 19.8721 11.4591H20.5518C20.5889 11.4591 20.6246 11.4739 20.6509 11.5002C20.6772 11.5265 20.6919 11.5621 20.6919 11.5993C20.6919 11.6365 20.6772 11.6721 20.6509 11.6984C20.6246 11.7247 20.5889 11.7394 20.5518 11.7394H19.8721C19.8536 11.7396 19.8354 11.736 19.8183 11.729C19.8012 11.722 19.7857 11.7117 19.7727 11.6987C19.7597 11.6856 19.7493 11.6701 19.7423 11.6531C19.7353 11.636 19.7328 11.6177 19.7329 11.5993ZM4.28073 12.2233C4.29901 12.2214 4.31748 12.2231 4.33509 12.2284C4.35271 12.2336 4.36911 12.2423 4.38337 12.2539C4.39764 12.2655 4.40948 12.2797 4.41822 12.2959C4.42696 12.3121 4.43244 12.3298 4.43433 12.3481C4.43622 12.3664 4.43449 12.3848 4.42924 12.4025C4.42399 12.4201 4.41533 12.4365 4.40374 12.4507C4.39215 12.465 4.37787 12.4768 4.3617 12.4856C4.34554 12.4943 4.32781 12.4998 4.30953 12.5017L2.70441 12.6687C2.68613 12.6706 2.66765 12.6689 2.65004 12.6636C2.63243 12.6584 2.61602 12.6497 2.60176 12.6381C2.5875 12.6266 2.57566 12.6123 2.56691 12.5961C2.55817 12.5799 2.5527 12.5622 2.55081 12.5439C2.54892 12.5256 2.55064 12.5072 2.55589 12.4896C2.56114 12.4719 2.56981 12.4555 2.5814 12.4413C2.59298 12.427 2.60727 12.4152 2.62343 12.4064C2.6396 12.3977 2.65733 12.3922 2.67561 12.3903L4.28073 12.2233ZM18.7662 12.3577C18.768 12.3394 18.7734 12.3216 18.7821 12.3054C18.7908 12.2892 18.8026 12.2748 18.8169 12.2632C18.8312 12.2516 18.8477 12.243 18.8653 12.2378C18.883 12.2326 18.9015 12.2309 18.9198 12.2329L20.5249 12.4018C20.5439 12.4028 20.5626 12.4075 20.5797 12.4159C20.5968 12.4243 20.6121 12.436 20.6245 12.4505C20.637 12.4649 20.6463 12.4818 20.652 12.5C20.6577 12.5181 20.6596 12.5373 20.6577 12.5563C20.6557 12.5752 20.6499 12.5936 20.6406 12.6102C20.6313 12.6269 20.6187 12.6414 20.6036 12.653C20.5884 12.6647 20.5711 12.6731 20.5526 12.6777C20.5342 12.6824 20.5149 12.6833 20.4961 12.6802L18.89 12.5113C18.8717 12.5095 18.8539 12.5041 18.8377 12.4954C18.8215 12.4867 18.8072 12.4748 18.7956 12.4605C18.7839 12.4462 18.7753 12.4298 18.7701 12.4121C18.7649 12.3945 18.7642 12.376 18.7662 12.3577ZM3.48105 13.1804C3.49955 13.1751 3.51896 13.1737 3.53804 13.1762C3.55713 13.1787 3.5755 13.1851 3.59199 13.1951C3.60848 13.205 3.62275 13.2182 3.63391 13.2339C3.64507 13.2496 3.65288 13.2674 3.65684 13.2863C3.66081 13.3051 3.66085 13.3246 3.65697 13.3434C3.65308 13.3623 3.64535 13.3801 3.63426 13.3959C3.62317 13.4116 3.60896 13.4249 3.59251 13.4349C3.57606 13.4449 3.55772 13.4514 3.53865 13.454L2.87433 13.5961C2.8563 13.5999 2.8377 13.6001 2.8196 13.5967C2.8015 13.5933 2.78424 13.5863 2.76882 13.5762C2.7534 13.5662 2.74011 13.5532 2.72972 13.538C2.71933 13.5227 2.71203 13.5056 2.70825 13.4876C2.70447 13.4696 2.70427 13.451 2.70768 13.4329C2.71108 13.4148 2.71802 13.3975 2.72809 13.3821C2.73816 13.3667 2.75118 13.3534 2.76638 13.343C2.78159 13.3326 2.7987 13.3253 2.81673 13.3215L3.48105 13.1804ZM19.5543 13.2898C19.5581 13.2718 19.5654 13.2548 19.5758 13.2396C19.5862 13.2244 19.5995 13.2114 19.6149 13.2014C19.6304 13.1914 19.6477 13.1846 19.6658 13.1813C19.6839 13.178 19.7024 13.1784 19.7204 13.1823L20.3847 13.3234C20.4038 13.3261 20.4221 13.3326 20.4386 13.3426C20.455 13.3526 20.4693 13.3659 20.4803 13.3816C20.4914 13.3973 20.4992 13.4152 20.503 13.434C20.5069 13.4529 20.5069 13.4724 20.5029 13.4912C20.499 13.51 20.4912 13.5279 20.48 13.5435C20.4688 13.5592 20.4546 13.5725 20.4381 13.5824C20.4216 13.5923 20.4032 13.5988 20.3841 13.6013C20.365 13.6038 20.3456 13.6024 20.3271 13.597L19.6628 13.4559C19.6448 13.4522 19.6277 13.4449 19.6124 13.4345C19.5972 13.4241 19.5842 13.4108 19.5741 13.3954C19.5641 13.38 19.5571 13.3627 19.5537 13.3446C19.5503 13.3265 19.5505 13.3079 19.5543 13.2898ZM4.57257 13.7372C4.60783 13.7258 4.6462 13.7288 4.67924 13.7456C4.71227 13.7624 4.73727 13.7917 4.74873 13.827C4.76018 13.8622 4.75716 13.9006 4.74033 13.9336C4.7235 13.9667 4.69423 13.9917 4.65897 14.0031L3.12297 14.5023C3.10513 14.5096 3.086 14.5131 3.06675 14.5126C3.04751 14.5121 3.02857 14.5077 3.01112 14.4995C2.99366 14.4914 2.97807 14.4798 2.96531 14.4654C2.95255 14.451 2.94289 14.4341 2.93695 14.4158C2.931 14.3975 2.92888 14.3781 2.93074 14.359C2.93259 14.3398 2.93837 14.3212 2.94772 14.3044C2.95706 14.2876 2.96978 14.2729 2.98506 14.2612C3.00035 14.2495 3.01788 14.241 3.03657 14.2364L4.57257 13.7372ZM18.4513 13.8313C18.4569 13.8138 18.466 13.7975 18.478 13.7836C18.4899 13.7696 18.5045 13.7581 18.521 13.7498C18.5374 13.7415 18.5553 13.7365 18.5737 13.7352C18.592 13.7338 18.6105 13.7362 18.6279 13.742L20.163 14.2422C20.1817 14.2468 20.1992 14.2552 20.2145 14.2669C20.2298 14.2786 20.2425 14.2933 20.2518 14.3102C20.2612 14.327 20.2669 14.3456 20.2688 14.3647C20.2707 14.3839 20.2685 14.4032 20.2626 14.4215C20.2566 14.4398 20.247 14.4567 20.2342 14.4711C20.2215 14.4855 20.2059 14.4972 20.1884 14.5053C20.171 14.5134 20.152 14.5179 20.1328 14.5183C20.1135 14.5188 20.0944 14.5153 20.0766 14.5081L18.5406 14.0089C18.5229 14.0032 18.5066 13.9941 18.4925 13.9821C18.4785 13.9701 18.4669 13.9554 18.4586 13.9388C18.4503 13.9223 18.4454 13.9043 18.4441 13.8858C18.4429 13.8673 18.4453 13.8488 18.4513 13.8313ZM3.98697 14.8374C4.00392 14.8284 4.02253 14.8231 4.04163 14.8216C4.06073 14.8202 4.07993 14.8227 4.09804 14.8289C4.11615 14.8352 4.13278 14.8451 4.14691 14.858C4.16104 14.871 4.17237 14.8867 4.18019 14.9042C4.18801 14.9216 4.19217 14.9406 4.1924 14.9597C4.19263 14.9789 4.18893 14.9979 4.18153 15.0155C4.17413 15.0332 4.16318 15.0492 4.14936 15.0625C4.13555 15.0757 4.11916 15.086 4.10121 15.0927L3.48105 15.3692C3.46409 15.3781 3.44549 15.3835 3.42639 15.3849C3.40728 15.3864 3.38808 15.3839 3.36997 15.3776C3.35187 15.3714 3.33523 15.3615 3.3211 15.3485C3.30698 15.3356 3.29565 15.3199 3.28782 15.3024C3.28 15.2849 3.27585 15.266 3.27562 15.2469C3.27539 15.2277 3.27909 15.2087 3.28649 15.191C3.29389 15.1734 3.30484 15.1574 3.31865 15.1441C3.33247 15.1308 3.34886 15.1205 3.36681 15.1138L3.98697 14.8374ZM19.0273 14.9142C19.0347 14.8974 19.0453 14.8822 19.0586 14.8695C19.0719 14.8568 19.0875 14.8469 19.1047 14.8403C19.1218 14.8337 19.1401 14.8305 19.1584 14.831C19.1768 14.8315 19.1948 14.8356 19.2116 14.8431L19.8318 15.1196C19.8486 15.1271 19.8638 15.1378 19.8765 15.1512C19.8892 15.1646 19.8991 15.1803 19.9057 15.1975C19.9123 15.2147 19.9155 15.2331 19.915 15.2515C19.9145 15.2699 19.9103 15.2881 19.9028 15.3049C19.8875 15.3385 19.8596 15.3647 19.8251 15.3778C19.7905 15.3909 19.7522 15.3899 19.7185 15.375L19.0983 15.0985C19.0815 15.0911 19.0663 15.0805 19.0537 15.0672C19.041 15.0539 19.0311 15.0382 19.0244 15.0211C19.0178 15.004 19.0147 14.9857 19.0152 14.9674C19.0157 14.949 19.0198 14.9309 19.0273 14.9142ZM5.16873 15.1522C5.18463 15.1428 5.20226 15.1366 5.22057 15.1341C5.23889 15.1316 5.25753 15.1327 5.2754 15.1374C5.29327 15.1422 5.31003 15.1504 5.32468 15.1617C5.33933 15.173 5.35158 15.1871 5.36073 15.2031C5.39913 15.2703 5.37609 15.3558 5.30889 15.3951L3.91113 16.2015C3.89522 16.211 3.8776 16.2171 3.85928 16.2197C3.84097 16.2222 3.82233 16.2211 3.80445 16.2164C3.78658 16.2116 3.76983 16.2034 3.75518 16.1921C3.74053 16.1808 3.72827 16.1667 3.71913 16.1506C3.70973 16.1347 3.70362 16.117 3.70114 16.0987C3.69866 16.0803 3.69987 16.0616 3.7047 16.0438C3.70953 16.0259 3.71788 16.0091 3.72926 15.9945C3.74064 15.9799 3.75482 15.9677 3.77097 15.9586L5.16873 15.1522ZM17.8398 15.2031C17.8489 15.1872 17.8611 15.1732 17.8757 15.162C17.8903 15.1508 17.9069 15.1426 17.9247 15.1379C17.9424 15.1332 17.961 15.132 17.9792 15.1345C17.9974 15.1369 18.0149 15.143 18.0308 15.1522L19.4286 15.9586C19.4958 15.997 19.5188 16.0834 19.4804 16.1506C19.4713 16.1667 19.459 16.1808 19.4444 16.1921C19.4297 16.2034 19.413 16.2116 19.3951 16.2164C19.3772 16.2211 19.3586 16.2222 19.3403 16.2197C19.3219 16.2171 19.3043 16.211 19.2884 16.2015L17.8906 15.3951C17.8746 15.386 17.8605 15.3737 17.8492 15.3591C17.8379 15.3444 17.8297 15.3277 17.8249 15.3098C17.8202 15.2919 17.8191 15.2733 17.8216 15.255C17.8242 15.2367 17.8303 15.219 17.8398 15.2031ZM4.82313 16.3446C4.8379 16.3324 4.85501 16.3234 4.87339 16.3181C4.89178 16.3128 4.91106 16.3113 4.93004 16.3137C4.94902 16.3162 4.96731 16.3225 4.98377 16.3322C5.00022 16.342 5.01451 16.355 5.02573 16.3705C5.03696 16.386 5.0449 16.4036 5.04905 16.4223C5.05321 16.441 5.05349 16.4603 5.04989 16.4791C5.04629 16.4979 5.03888 16.5158 5.02811 16.5316C5.01734 16.5474 5.00345 16.5609 4.98729 16.5711L4.43817 16.9705C4.408 16.9923 4.37041 17.0011 4.33369 16.9952C4.29696 16.9893 4.2641 16.969 4.24233 16.9388C4.22056 16.9086 4.21167 16.8711 4.21761 16.8343C4.22355 16.7976 4.24384 16.7647 4.27401 16.743L4.82313 16.3446ZM18.1786 16.3801C18.1894 16.3651 18.203 16.3524 18.2187 16.3427C18.2344 16.3331 18.2519 16.3266 18.2701 16.3238C18.2884 16.3209 18.307 16.3217 18.3249 16.3261C18.3428 16.3305 18.3597 16.3384 18.3745 16.3494L18.9236 16.7487C18.9385 16.7594 18.9511 16.773 18.9607 16.7886C18.9704 16.8042 18.9769 16.8215 18.9798 16.8396C18.9828 16.8577 18.9821 16.8762 18.9779 16.894C18.9737 16.9119 18.966 16.9287 18.9553 16.9436C18.9446 16.9585 18.931 16.9711 18.9154 16.9807C18.8998 16.9904 18.8825 16.9969 18.8644 16.9998C18.8463 17.0028 18.8278 17.0021 18.81 16.9979C18.7921 16.9937 18.7753 16.986 18.7604 16.9753L18.2103 16.5759C18.1954 16.5652 18.1827 16.5515 18.173 16.5359C18.1633 16.5202 18.1568 16.5028 18.1539 16.4846C18.1509 16.4664 18.1516 16.4478 18.1559 16.4299C18.1601 16.4119 18.1679 16.395 18.1786 16.3801ZM16.9556 16.4214C16.9804 16.3938 17.0152 16.3772 17.0523 16.3752C17.0894 16.3732 17.1257 16.386 17.1534 16.4108L18.3534 17.4908C18.3679 17.5028 18.3799 17.5177 18.3886 17.5345C18.3973 17.5513 18.4025 17.5696 18.4039 17.5885C18.4053 17.6073 18.4029 17.6263 18.3968 17.6442C18.3907 17.6621 18.381 17.6785 18.3684 17.6926C18.3558 17.7066 18.3404 17.718 18.3233 17.726C18.3061 17.7339 18.2876 17.7384 18.2687 17.739C18.2498 17.7396 18.231 17.7364 18.2133 17.7295C18.1957 17.7227 18.1797 17.7123 18.1662 17.6991L16.9662 16.6191C16.9525 16.6068 16.9413 16.5919 16.9334 16.5753C16.9255 16.5587 16.921 16.5406 16.9201 16.5223C16.9192 16.5039 16.9219 16.4855 16.9282 16.4682C16.9345 16.4508 16.9432 16.4349 16.9556 16.4214ZM7.16649 17.4582C7.17717 17.4431 7.19075 17.4303 7.20642 17.4206C7.22209 17.4108 7.23955 17.4043 7.25777 17.4013C7.276 17.3984 7.29463 17.3991 7.31258 17.4034C7.33053 17.4077 7.34744 17.4156 7.36233 17.4265C7.42473 17.4726 7.43913 17.5599 7.39305 17.6223L6.44265 18.9279C6.43243 18.9443 6.41896 18.9583 6.40307 18.9692C6.38718 18.9801 6.36921 18.9876 6.35029 18.9913C6.33137 18.9949 6.3119 18.9946 6.2931 18.9904C6.2743 18.9862 6.25657 18.9781 6.24102 18.9667C6.22547 18.9554 6.21243 18.9409 6.20273 18.9242C6.19302 18.9076 6.18685 18.8891 6.1846 18.87C6.18235 18.8509 6.18407 18.8315 6.18965 18.813C6.19524 18.7946 6.20456 18.7775 6.21705 18.7628L7.16745 17.4572L7.16649 17.4582ZM15.8314 17.4322C15.8464 17.4215 15.8633 17.4137 15.8812 17.4095C15.8992 17.4052 15.9177 17.4045 15.9359 17.4075C15.9541 17.4104 15.9716 17.4169 15.9872 17.4266C16.0029 17.4363 16.0165 17.449 16.0273 17.4639L16.9748 18.7705C16.987 18.7853 16.996 18.8024 17.0013 18.8208C17.0066 18.8391 17.0081 18.8584 17.0056 18.8774C17.0032 18.8964 16.9969 18.9147 16.9872 18.9311C16.9774 18.9476 16.9644 18.9619 16.9489 18.9731C16.9334 18.9843 16.9157 18.9923 16.897 18.9964C16.8784 19.0006 16.859 19.0009 16.8402 18.9973C16.8214 18.9936 16.8036 18.9862 16.7878 18.9755C16.7719 18.9647 16.7585 18.9508 16.7482 18.9346L15.8007 17.6281C15.7898 17.6133 15.7818 17.5964 15.7775 17.5785C15.7731 17.5606 15.7723 17.542 15.7751 17.5237C15.778 17.5055 15.7844 17.488 15.7941 17.4723C15.8038 17.4566 15.8165 17.443 15.8314 17.4322ZM5.96265 17.653C5.97471 17.6384 5.98962 17.6264 6.00647 17.6177C6.02332 17.609 6.04176 17.6038 6.06068 17.6024C6.0796 17.601 6.09859 17.6035 6.11652 17.6097C6.13445 17.6159 6.15094 17.6257 6.16498 17.6384C6.17903 17.6511 6.19034 17.6666 6.19824 17.6839C6.20613 17.7011 6.21044 17.7198 6.21091 17.7387C6.21138 17.7577 6.208 17.7765 6.20097 17.7942C6.19394 17.8118 6.1834 17.8278 6.17001 17.8412L5.71593 18.3462C5.70357 18.3598 5.68864 18.371 5.672 18.3789C5.65535 18.3868 5.6373 18.3913 5.6189 18.3923C5.60049 18.3932 5.58207 18.3905 5.56471 18.3843C5.54734 18.3781 5.53137 18.3686 5.51769 18.3562C5.50401 18.3439 5.4929 18.329 5.48499 18.3123C5.47708 18.2957 5.47253 18.2776 5.47159 18.2592C5.47065 18.2408 5.47335 18.2224 5.47953 18.205C5.48571 18.1877 5.49525 18.1717 5.50761 18.158L5.96169 17.654L5.96265 17.653ZM17.041 17.6434C17.0547 17.6311 17.0707 17.6216 17.0881 17.6155C17.1055 17.6094 17.1239 17.6068 17.1423 17.6079C17.1607 17.609 17.1787 17.6137 17.1953 17.6218C17.2119 17.6298 17.2266 17.6411 17.2388 17.655L17.6929 18.159C17.7061 18.1725 17.7164 18.1885 17.7233 18.2062C17.7301 18.2238 17.7334 18.2426 17.7327 18.2615C17.7321 18.2804 17.7277 18.2989 17.7197 18.3161C17.7118 18.3332 17.7004 18.3486 17.6863 18.3612C17.6723 18.3738 17.6558 18.3835 17.6379 18.3896C17.62 18.3957 17.6011 18.3981 17.5822 18.3967C17.5634 18.3953 17.545 18.3901 17.5282 18.3814C17.5115 18.3727 17.4966 18.3607 17.4846 18.3462L17.0305 17.8422C17.018 17.8286 17.0084 17.8127 17.0021 17.7954C16.9959 17.7781 16.9931 17.7597 16.994 17.7413C16.9949 17.7229 16.9994 17.7049 17.0073 17.6882C17.0152 17.6716 17.0264 17.6567 17.0401 17.6444L17.041 17.6434ZM8.48073 18.2511C8.48812 18.2343 8.49875 18.2191 8.51203 18.2065C8.52531 18.1938 8.54097 18.1839 8.5581 18.1772C8.57523 18.1706 8.5935 18.1675 8.61186 18.168C8.63021 18.1685 8.64829 18.1726 8.66505 18.1801C8.68198 18.1875 8.69727 18.1981 8.71003 18.2115C8.72279 18.2248 8.73277 18.2406 8.73938 18.2578C8.74599 18.2751 8.7491 18.2935 8.74854 18.3119C8.74797 18.3304 8.74374 18.3486 8.73609 18.3654L8.07849 19.839C8.06347 19.8728 8.03561 19.8993 8.00104 19.9127C7.96647 19.926 7.92803 19.925 7.89417 19.91C7.8603 19.895 7.8338 19.8671 7.82047 19.8326C7.80715 19.798 7.80811 19.7596 7.82313 19.7257L8.48073 18.2511ZM14.5268 18.1839C14.5436 18.1763 14.5618 18.172 14.5802 18.1715C14.5987 18.1709 14.6171 18.174 14.6343 18.1806C14.6516 18.1873 14.6673 18.1972 14.6807 18.21C14.694 18.2228 14.7047 18.238 14.7121 18.255L15.3678 19.7305C15.3752 19.7473 15.3793 19.7653 15.3797 19.7837C15.3802 19.802 15.377 19.8202 15.3704 19.8374C15.3638 19.8545 15.3539 19.8701 15.3413 19.8834C15.3286 19.8967 15.3135 19.9074 15.2967 19.9148C15.28 19.9222 15.2619 19.9263 15.2436 19.9268C15.2252 19.9272 15.207 19.9241 15.1899 19.9175C15.1727 19.9109 15.1571 19.901 15.1438 19.8883C15.1305 19.8757 15.1198 19.8605 15.1124 19.8438L14.4558 18.3692C14.4481 18.3524 14.4439 18.3342 14.4433 18.3158C14.4428 18.2973 14.4459 18.2789 14.4525 18.2617C14.4591 18.2444 14.4691 18.2287 14.4818 18.2153C14.4946 18.202 14.5099 18.1913 14.5268 18.1839ZM7.34409 18.6937C7.35323 18.6777 7.36545 18.6638 7.38002 18.6526C7.3946 18.6414 7.41124 18.6332 7.42901 18.6284C7.44677 18.6237 7.46529 18.6225 7.4835 18.625C7.50172 18.6275 7.51926 18.6335 7.53513 18.6428C7.60233 18.6812 7.62537 18.7666 7.58601 18.8338L7.24713 19.4214C7.23792 19.4373 7.22567 19.4513 7.21107 19.4625C7.19646 19.4737 7.17979 19.4819 7.162 19.4867C7.12609 19.4963 7.08782 19.4913 7.05561 19.4727C7.0234 19.4541 6.99989 19.4235 6.99026 19.3876C6.98063 19.3517 6.98566 19.3134 7.00425 19.2812L7.34409 18.6937ZM15.6673 18.6428C15.6992 18.6244 15.7372 18.6194 15.7729 18.6289C15.8085 18.6384 15.8389 18.6617 15.8574 18.6937L16.1972 19.2822C16.2063 19.2981 16.2123 19.3156 16.2146 19.3338C16.217 19.3519 16.2158 19.3704 16.211 19.3881C16.2062 19.4058 16.198 19.4224 16.1868 19.4369C16.1757 19.4514 16.1617 19.4636 16.1458 19.4727C16.13 19.4819 16.1124 19.4878 16.0943 19.4902C16.0761 19.4925 16.0576 19.4913 16.0399 19.4865C16.0222 19.4817 16.0057 19.4735 15.9911 19.4624C15.9766 19.4512 15.9644 19.4373 15.9553 19.4214L15.6154 18.8338C15.6061 18.8179 15.6001 18.8003 15.5976 18.782C15.5951 18.7637 15.5963 18.7451 15.601 18.7273C15.6057 18.7094 15.6139 18.6927 15.6251 18.678C15.6364 18.6634 15.6504 18.6511 15.6663 18.6418L15.6673 18.6428ZM9.93801 18.7561C9.94166 18.7381 9.94885 18.721 9.95914 18.7058C9.96944 18.6906 9.98264 18.6776 9.99799 18.6675C10.0133 18.6574 10.0305 18.6504 10.0486 18.647C10.0666 18.6436 10.0852 18.6438 10.1031 18.6476C10.1799 18.6639 10.2279 18.7378 10.2116 18.8137L9.87561 20.3929C9.86797 20.4292 9.84623 20.4609 9.81518 20.4812C9.78412 20.5014 9.74629 20.5085 9.71001 20.5009C9.67373 20.4932 9.64196 20.4715 9.62171 20.4405C9.60146 20.4094 9.59437 20.3716 9.60201 20.3353L9.93801 18.7561ZM13.0926 18.6486C13.1106 18.6446 13.1292 18.6443 13.1474 18.6477C13.1656 18.651 13.1829 18.6579 13.1983 18.668C13.2138 18.6781 13.2271 18.6912 13.2374 18.7065C13.2478 18.7218 13.255 18.739 13.2586 18.757L13.5937 20.3362C13.6013 20.3727 13.5942 20.4106 13.5738 20.4418C13.5535 20.4729 13.5216 20.4947 13.4852 20.5023C13.4488 20.51 13.4108 20.5028 13.3797 20.4825C13.3486 20.4621 13.3268 20.4303 13.3191 20.3938L12.985 18.8146C12.9811 18.7967 12.9808 18.7781 12.984 18.76C12.9873 18.7419 12.9942 18.7246 13.0042 18.7092C13.0142 18.6937 13.0271 18.6804 13.0423 18.67C13.0575 18.6596 13.0746 18.6523 13.0926 18.6486ZM11.4606 18.9452C11.4606 18.908 11.4753 18.8724 11.5016 18.8461C11.5279 18.8198 11.5636 18.805 11.6007 18.805C11.6379 18.805 11.6735 18.8198 11.6998 18.8461C11.7261 18.8724 11.7409 18.908 11.7409 18.9452V20.5599C11.7409 20.6367 11.6785 20.7001 11.6007 20.7001C11.5823 20.7002 11.564 20.6967 11.5469 20.6897C11.5299 20.6827 11.5144 20.6724 11.5013 20.6593C11.4883 20.6463 11.478 20.6308 11.471 20.6137C11.464 20.5967 11.4604 20.5784 11.4606 20.5599V18.9452ZM8.91081 19.4233C8.91543 19.4046 8.92386 19.3871 8.93556 19.3718C8.94726 19.3565 8.96198 19.3438 8.97881 19.3344C8.99563 19.3251 9.01421 19.3193 9.03337 19.3175C9.05253 19.3156 9.07186 19.3177 9.09017 19.3237C9.10848 19.3296 9.12537 19.3393 9.13978 19.352C9.15419 19.3648 9.16582 19.3804 9.17394 19.3978C9.18206 19.4153 9.1865 19.4342 9.18698 19.4535C9.18746 19.4727 9.18397 19.4919 9.17673 19.5097L8.96649 20.1558C8.95503 20.191 8.93003 20.2203 8.897 20.2371C8.86396 20.254 8.82559 20.257 8.79033 20.2455C8.75506 20.2341 8.7258 20.2091 8.70896 20.176C8.69213 20.143 8.68911 20.1046 8.70057 20.0694L8.91081 19.4233ZM14.114 19.334C14.1315 19.3283 14.15 19.3261 14.1684 19.3276C14.1867 19.3291 14.2046 19.3341 14.221 19.3425C14.2374 19.3509 14.252 19.3624 14.264 19.3764C14.2759 19.3905 14.285 19.4067 14.2906 19.4242L14.4999 20.0694C14.5072 20.0872 14.5107 20.1063 14.5102 20.1256C14.5097 20.1448 14.5053 20.1638 14.4971 20.1812C14.489 20.1987 14.4774 20.2143 14.463 20.227C14.4486 20.2398 14.4317 20.2494 14.4134 20.2554C14.3951 20.2613 14.3757 20.2635 14.3566 20.2616C14.3374 20.2597 14.3188 20.254 14.302 20.2446C14.2852 20.2353 14.2705 20.2226 14.2588 20.2073C14.2471 20.192 14.2386 20.1745 14.234 20.1558L14.0228 19.5097C14.0117 19.4743 14.015 19.4359 14.0321 19.403C14.0492 19.3701 14.0786 19.3453 14.114 19.334ZM10.5966 19.8121C10.5975 19.793 10.6022 19.7744 10.6106 19.7573C10.619 19.7401 10.6307 19.7249 10.6452 19.7125C10.6596 19.7 10.6765 19.6907 10.6947 19.685C10.7129 19.6793 10.732 19.6774 10.751 19.6793C10.77 19.6813 10.7883 19.6871 10.805 19.6964C10.8216 19.7057 10.8362 19.7183 10.8478 19.7334C10.8594 19.7485 10.8678 19.7659 10.8724 19.7843C10.8771 19.8028 10.878 19.8221 10.875 19.8409L10.8039 20.5167C10.803 20.5358 10.7982 20.5544 10.7899 20.5716C10.7815 20.5887 10.7698 20.6039 10.7553 20.6164C10.7408 20.6288 10.724 20.6381 10.7058 20.6438C10.6876 20.6495 10.6685 20.6515 10.6495 20.6495C10.6305 20.6475 10.6122 20.6417 10.5955 20.6324C10.5789 20.6231 10.5643 20.6105 10.5527 20.5954C10.5411 20.5803 10.5327 20.563 10.528 20.5445C10.5234 20.526 10.5225 20.5067 10.5255 20.4879L10.5966 19.8121ZM12.4455 19.6873C12.4824 19.6835 12.5193 19.6946 12.5481 19.7179C12.5769 19.7413 12.5953 19.7752 12.5991 19.8121L12.6692 20.4879C12.673 20.5248 12.662 20.5618 12.6386 20.5906C12.6152 20.6194 12.5813 20.6377 12.5444 20.6415C12.5075 20.6453 12.4706 20.6343 12.4418 20.6109C12.413 20.5875 12.3946 20.5536 12.3908 20.5167L12.3207 19.8418C12.3187 19.8236 12.3204 19.805 12.3256 19.7874C12.3308 19.7697 12.3395 19.7533 12.3511 19.739C12.3627 19.7247 12.377 19.7129 12.3932 19.7042C12.4094 19.6955 12.4272 19.6891 12.4455 19.6873Z" fill="black"/>
</svg>
