<svg width="24" height="24" viewBox="0 0 24 24" fill="none" xmlns="http://www.w3.org/2000/svg">
<path d="M12 2L3 7V17L12 22L21 17V7L12 2ZM17.1948 15.825C17.1948 16.4125 16.6355 16.9 15.871 16.9C15.3247 16.9 14.7013 16.6875 14.3117 16.225L9.11688 10.2742V15.8242C9.11688 16.425 8.62338 16.8992 8.01385 16.8992H7.94805C7.32381 16.8992 6.83117 16.3992 6.83117 15.8242V8.175C6.83117 7.5875 7.37662 7.1 8.12987 7.1C8.68918 7.1 9.32467 7.3125 9.71428 7.775L14.8831 13.7258V8.175C14.8831 7.57417 15.4026 7.1 16 7.1H16.0649C16.6883 7.1 17.1818 7.6 17.1818 8.175V15.825H17.1948Z" fill="black"/>
</svg>
