<svg width="24" height="24" viewBox="0 0 24 24" fill="none" xmlns="http://www.w3.org/2000/svg">
<path d="M11.2132 2.00514C11.1662 2.00986 11.0165 2.02737 10.8812 2.03976C8.95793 2.24099 7.06378 3.05555 5.51919 4.34869C5.23416 4.58533 4.58481 5.23465 4.34816 5.51968C3.06953 7.04729 2.32202 8.76138 2.04603 10.79C1.98466 11.2405 1.98466 12.7602 2.04603 13.2105C2.32182 15.2389 3.06953 16.9532 4.34816 18.4808C4.58481 18.766 5.23416 19.4151 5.51919 19.6518C7.04687 20.9304 8.76102 21.6778 10.7897 21.9538C11.2402 22.0154 12.76 22.0154 13.2103 21.9538C15.2388 21.678 16.9531 20.9304 18.4808 19.6518C18.766 19.4151 19.4152 18.7658 19.6518 18.4808C20.9305 16.9532 21.678 15.2391 21.9534 13.2105C22.0155 12.76 22.0155 11.2403 21.9534 10.79C21.678 8.76158 20.9305 7.04729 19.6518 5.51968C19.4152 5.23465 18.7658 4.58533 18.4808 4.34869C16.9586 3.07482 15.2266 2.3179 13.2248 2.04979C13.0083 2.0197 12.6939 2.0075 12.1107 2.00278C11.6657 1.99747 11.2593 2.00062 11.2132 2.00514ZM11.3362 3.06774C11.3362 3.35513 11.3553 3.97987 11.383 4.57313C11.3976 4.86268 11.4145 5.27852 11.4224 5.49509C11.4491 6.26283 11.5305 8.2765 11.5427 8.45649L11.5551 8.63549L11.4444 8.62329C11.383 8.61857 11.3262 8.60402 11.3161 8.59635C11.3092 8.58651 11.2915 8.41656 11.2815 8.21749C11.2378 7.34215 11.0927 3.94525 11.0779 3.44896L11.0626 2.90271L11.1318 2.89346C11.1686 2.88795 11.2302 2.88107 11.2693 2.87812L11.3362 2.87576V3.06774ZM13.6897 3.00873C13.692 3.0109 13.6997 3.75405 13.7066 4.65909C13.7166 5.56669 13.729 6.38026 13.7367 6.46878C13.7436 6.56005 13.7412 6.63854 13.7288 6.64385C13.719 6.65073 13.6574 6.65073 13.596 6.64385L13.4831 6.63401L13.4662 5.91781C13.4582 5.59249 13.449 5.2672 13.4387 4.94195C13.4192 4.50625 13.4017 3.0286 13.417 2.99181C13.4263 2.96428 13.4538 2.96172 13.5567 2.97942C13.6283 2.99398 13.6875 3.00637 13.6897 3.00873ZM8.00053 3.83234C8.01587 3.85457 8.13115 5.21006 8.27396 6.98277C8.32098 7.58587 8.36701 8.13684 8.37468 8.2053C8.38687 8.3304 8.38451 8.33591 8.30544 8.38508C8.26177 8.41184 8.21711 8.43426 8.20708 8.43426C8.20019 8.43426 8.18564 8.37033 8.17797 8.29126C8.14334 7.97161 8.01037 6.42727 7.91752 5.31077C7.86283 4.65378 7.81365 4.06602 7.80677 4.00209C7.79457 3.89391 7.79693 3.88387 7.86067 3.85004C7.93896 3.80775 7.98361 3.80086 8.00033 3.83234H8.00053ZM14.7716 4.32725C14.8408 4.35184 14.8477 4.36403 14.8631 4.50389C14.8876 4.74977 14.88 5.92548 14.8532 5.92548C14.7816 5.92548 14.6341 5.84168 14.6219 5.79487C14.614 5.76556 14.6073 5.4168 14.6073 5.02024C14.6073 4.22122 14.5973 4.26804 14.7716 4.32725ZM10.2289 4.44252C10.2289 4.50861 10.2466 4.87507 10.2657 5.2616C10.2857 5.64714 10.308 6.13674 10.318 6.34879C10.3349 6.77682 10.3396 6.76148 10.175 6.77151C10.0936 6.77367 10.0936 6.77367 10.089 6.65073C10.0843 6.58248 10.0721 6.36807 10.0568 6.17136C10.0444 5.97466 10.0153 5.54899 9.9952 5.22462C9.98182 4.98562 9.96471 4.74695 9.94386 4.50861C9.9291 4.38567 9.93146 4.38095 9.99756 4.35636C10.0469 4.34001 10.0984 4.331 10.1504 4.32961C10.2289 4.32725 10.2289 4.32725 10.2289 4.44252ZM17.0515 4.77987L17.1353 4.8135L17.153 5.14318C17.1599 5.32297 17.1652 5.71166 17.1599 6.00475L17.153 6.54018L17.0493 6.48865L16.9462 6.43947L16.9386 5.62275C16.9341 5.17328 16.9362 4.79206 16.9409 4.77436C16.9508 4.73758 16.9508 4.73758 17.0515 4.77987ZM12.5609 5.10168C12.5755 5.11643 12.6101 6.30886 12.6125 6.91432L12.6148 7.27862L12.4996 7.26091C12.4327 7.25304 12.3788 7.24636 12.3766 7.244C12.3687 7.23868 12.2952 5.4166 12.2952 5.23937V5.05722L12.4203 5.07178C12.4919 5.08161 12.5533 5.09401 12.5609 5.10168ZM18.2249 5.27616C18.255 5.31078 18.2595 5.84935 18.2672 8.82C18.2741 12.2315 18.2741 12.32 18.2302 12.32C18.1988 12.3181 18.1686 12.3069 18.1436 12.2877C18.1067 12.2608 18.1019 11.9634 18.0897 9.04897C18.0797 7.28314 18.0673 5.6794 18.0604 5.48525L18.0451 5.13099L18.1165 5.18233C18.1588 5.21242 18.2058 5.25393 18.2249 5.27616ZM16.0187 5.78031C16.0311 5.79015 16.0433 5.93 16.0457 6.09071C16.0581 6.63382 16.0603 9.9664 16.0481 9.97643C16.0433 9.98096 15.9989 9.96856 15.9497 9.94948L15.8612 9.9125V5.72858L15.9304 5.74333C15.9674 5.75317 16.0066 5.76792 16.0189 5.78031H16.0187ZM9.23077 5.91781C9.23766 5.98469 9.24986 6.13438 9.25753 6.25732C9.2654 6.3781 9.28212 6.65388 9.29687 6.8675C9.32677 7.30025 9.32126 7.32779 9.1814 7.32779C9.10783 7.32779 9.0978 7.31992 9.08776 7.24636C9.06317 7.10099 8.97701 5.89086 8.98941 5.87158C9.0016 5.85388 9.13006 5.81021 9.18848 5.8047C9.20382 5.80254 9.22291 5.85388 9.23077 5.91781ZM5.16275 6.54549C5.1897 6.80593 5.2434 7.35238 5.28334 7.75799C5.32484 8.16379 5.35946 8.50803 5.35946 8.52258C5.35946 8.55248 5.16964 8.64552 5.15036 8.62625C5.13816 8.61405 4.89227 6.43711 4.89227 6.33876C4.89227 6.27975 5.08111 6.0315 5.1059 6.05845C5.11357 6.06298 5.13816 6.28191 5.16275 6.54549ZM14.8062 6.80377L14.8778 6.84508L14.88 7.37697C14.8823 7.66652 14.8878 7.99167 14.8878 8.09691C14.8924 8.3182 14.8654 8.35499 14.7324 8.30896L14.6565 8.28142V8.06996C14.6565 7.95253 14.6486 7.61046 14.6388 7.30773L14.6241 6.76148H14.6811C14.7102 6.76148 14.7671 6.78134 14.8062 6.80377ZM6.24231 7.75799C6.28696 8.22988 6.35758 9.02674 6.4044 9.52834L6.4882 10.4391L6.39221 10.5341L6.29916 10.6303L6.28146 10.4357C6.27162 10.3276 6.22244 9.82654 6.1709 9.31944C6.1153 8.77531 6.06127 8.23102 6.00881 7.68658L5.93957 6.97805L6.03557 6.88973C6.12173 6.80829 6.13176 6.80593 6.14868 6.85039C6.15851 6.87517 6.20002 7.28314 6.24231 7.75799ZM4.40049 8.05541C4.45419 8.54028 4.5972 9.8289 4.72015 10.9185C4.84309 12.008 4.95817 13.0576 4.98059 13.2543C5.00066 13.451 5.0343 13.749 5.05436 13.919C5.08898 14.2062 5.08898 14.2263 5.04984 14.2554C4.99063 14.3 4.96604 14.2947 4.96604 14.2432C4.96604 14.2209 4.94381 14.0341 4.91686 13.8328C4.8214 13.1033 4.72711 12.3736 4.63399 11.6437C4.5833 11.2628 4.53412 10.8817 4.48645 10.5005C4.43727 10.1285 4.36587 9.57535 4.32593 9.27026C4.28659 8.96517 4.22069 8.4441 4.1784 8.10694C4.13453 7.77254 4.10758 7.47532 4.11466 7.44306C4.13237 7.37697 4.27676 7.14564 4.2921 7.1602C4.29662 7.16708 4.3458 7.56817 4.40029 8.05521L4.40049 8.05541ZM3.64747 9.11506C3.68426 9.4109 3.7535 9.94948 3.80032 10.3152C3.84635 10.6795 3.90556 11.1342 3.93251 11.3243L3.97933 11.6685L3.92779 11.7129C3.89867 11.7375 3.86877 11.7468 3.85874 11.7375C3.8495 11.7275 3.82943 11.6291 3.81487 11.5208C3.74844 11.0531 3.68031 10.5856 3.61049 10.1185L3.436 8.91363L3.49226 8.74624C3.52216 8.65555 3.55364 8.58179 3.56131 8.58179C3.57134 8.58179 3.60813 8.82295 3.64747 9.11486V9.11506ZM17.1498 8.79305C17.1845 8.82767 17.1898 8.97992 17.1898 10.1092V11.3856H17.1207C16.9708 11.3856 16.9732 11.4224 16.9634 10.0256L16.9563 8.75391H17.0346C17.0761 8.75391 17.1308 8.77082 17.1498 8.79305ZM11.7664 9.23328C12.3219 9.31707 12.807 9.47228 13.2864 9.71816C13.596 9.87808 13.7436 9.98863 14.0878 10.3181C14.5995 10.8079 14.9146 11.2357 15.2097 11.8406C15.6401 12.7211 15.8077 13.5002 16.0187 15.591C16.1149 16.5283 16.24 18.2272 16.267 18.9232C16.2749 19.1254 16.2916 19.4574 16.3069 19.6608C16.3339 20.0944 16.3654 20.0352 15.9843 20.2195C15.4556 20.4756 14.9461 20.6522 14.2753 20.8175C13.4538 21.0187 12.9221 21.0824 12.1107 21.0856L11.5205 21.0879L11.5252 20.8051C11.5252 20.6499 11.5398 20.2887 11.5551 20.006C11.6289 18.636 11.6136 16.9072 11.5182 15.9474C11.4637 15.3966 11.3584 14.7279 11.2992 14.5803C11.287 14.5483 11.3431 14.5213 11.5866 14.4375C12.0324 14.2823 12.4181 14.088 12.4771 13.9928C12.5834 13.8106 12.3935 13.5494 12.1522 13.5494C12.1108 13.5494 11.9853 13.5938 11.8695 13.6454C11.3185 13.8989 10.2143 14.1962 9.57719 14.263C9.13694 14.31 8.45297 14.2823 7.97889 14.1962C7.72081 14.1493 7.25814 13.9751 6.8716 13.776C6.42683 13.5447 6.15399 13.2374 6.07255 12.8731C6.02789 12.6764 6.04029 12.283 6.09714 12.0617C6.15851 11.8182 6.33063 11.4639 6.4882 11.2572C7.18909 10.3352 8.63513 9.53601 10.1181 9.2557C10.5908 9.16719 11.2593 9.15735 11.7666 9.23328H11.7664ZM19.3536 9.3094C19.4421 9.34619 19.452 9.35622 19.452 9.44002C19.4575 10.1116 19.4421 11.6461 19.4297 11.71C19.4274 11.732 19.2999 11.7344 19.2454 11.7151C19.2116 11.7029 19.2061 11.5699 19.2061 10.4849C19.2061 9.70813 19.2161 9.27026 19.2307 9.27026C19.2431 9.27026 19.2999 9.28796 19.3536 9.3094ZM20.4287 10.6602L20.5172 10.6972L20.5003 12.7333C20.4802 15.3282 20.4778 15.4041 20.3842 15.6278C20.2319 15.9942 20.2396 16.068 20.2544 14.4599C20.2589 13.6554 20.2711 12.8416 20.2766 12.6518C20.2811 12.463 20.2858 11.9287 20.2888 11.4639C20.2888 10.9029 20.2957 10.6234 20.3134 10.6234C20.3281 10.6234 20.3795 10.6403 20.4287 10.6602ZM5.63762 11.2725C5.65217 11.4716 5.64686 11.4909 5.57526 11.6482L5.49697 11.8158L5.46785 11.5699C5.42084 11.1765 5.42084 11.1588 5.51388 11.1004C5.55618 11.0705 5.60063 11.0512 5.60772 11.056C5.61539 11.0605 5.62994 11.1588 5.63762 11.2725ZM4.11702 12.7557C4.13925 12.9569 4.31138 14.2947 4.40029 14.9517C4.53268 15.9675 4.54251 16.1127 4.4835 16.0513C4.47662 16.0434 4.41957 15.7015 4.36056 15.2912C3.97697 12.6396 3.97933 12.6573 4.01159 12.6373C4.07768 12.5926 4.10011 12.6172 4.11683 12.7555L4.11702 12.7557ZM5.88803 13.882C5.90278 13.9436 5.97419 14.6098 5.97419 14.6911C5.97419 14.7595 5.88567 14.824 5.84652 14.7841C5.83433 14.7717 5.80207 14.5628 5.77748 14.3222C5.75053 14.0787 5.72358 13.8252 5.71591 13.7591L5.70135 13.6361L5.78751 13.7345C5.83669 13.7882 5.88036 13.8545 5.88803 13.882ZM7.87286 14.8087C7.89981 14.8333 7.91752 14.9316 7.93896 15.1976C7.97594 15.677 7.98125 15.6402 7.88054 15.6402C7.77687 15.6402 7.77923 15.6478 7.74539 15.2143C7.71077 14.7741 7.71077 14.7796 7.77687 14.7796C7.80913 14.7796 7.85064 14.7941 7.87286 14.8087ZM9.82091 14.8455C9.82544 14.8701 9.83763 15.0176 9.84767 15.173C9.85553 15.3282 9.87776 15.677 9.89684 15.9474C9.96609 16.9408 9.96845 17.0669 9.92694 17.0669C9.87993 17.0669 9.87462 17.0301 9.82072 16.3286C9.79681 15.9897 9.76967 15.651 9.73928 15.3127C9.71783 15.0453 9.70249 14.8209 9.71016 14.8164C9.73711 14.7865 9.80852 14.8087 9.82091 14.8455ZM5.19737 15.3182C5.21193 15.3404 5.30478 16.1272 5.42084 17.2022C5.45546 17.5264 5.48929 17.8391 5.49697 17.8976L5.50936 18.0038L5.44779 17.9644C5.40097 17.9322 5.38405 17.9007 5.38405 17.8439C5.38405 17.6885 5.27783 16.6682 5.19718 16.0434C5.15036 15.6893 5.11357 15.3774 5.11357 15.3473C5.11357 15.2959 5.17259 15.2759 5.19737 15.3182ZM19.3906 16.3461L19.3737 17.3743L19.3121 17.4648C19.1717 17.6717 19.1793 17.7107 19.187 16.56L19.1915 15.5048L19.2822 15.411C19.3314 15.3618 19.3806 15.3205 19.3904 15.3205C19.3983 15.3205 19.3983 15.783 19.3904 16.3461H19.3906ZM17.116 17.9768C17.1284 19.4059 17.1253 19.5166 17.0861 19.5603C17.0615 19.5873 17.0393 19.605 17.0324 19.5973C17.0147 19.578 16.9901 16.4614 17.01 16.4445C17.02 16.4347 17.0446 16.4299 17.067 16.4323C17.0985 16.4392 17.1062 16.6145 17.1162 17.9766L17.116 17.9768ZM9.08324 16.9978C9.09996 17.1499 9.16153 17.8806 9.18612 18.2249C9.20068 18.4562 9.20068 18.4639 9.14678 18.4806C9.11766 18.4908 9.08304 18.4885 9.07321 18.4763C9.05629 18.4586 9.0016 17.9129 8.93551 17.0716L8.9178 16.8702H8.99472C9.06553 16.8702 9.07085 16.8749 9.08324 16.9978ZM7.14975 17.8584C7.16667 17.8761 7.17906 17.9375 7.17906 17.9991C7.17906 18.0628 7.20896 18.3946 7.24043 18.7389C7.33426 19.6811 7.34194 19.8086 7.29964 19.784C7.23591 19.747 7.17906 19.6909 7.19145 19.6764C7.19676 19.6665 7.18673 19.5434 7.16666 19.4029C7.14681 19.2311 7.13041 19.0589 7.11749 18.8864C7.10824 18.7444 7.08601 18.4832 7.06614 18.3087C7.01913 17.8783 7.02228 17.8291 7.07598 17.8291C7.10323 17.8299 7.12939 17.8403 7.14975 17.8584ZM8.31311 19.5135C8.32098 19.568 8.33553 19.7692 8.34537 19.9614C8.36229 20.3302 8.35461 20.3572 8.25409 20.281C8.22478 20.2588 8.20492 20.1658 8.17561 19.8855C8.12426 19.3782 8.12112 19.3982 8.21711 19.4083C8.28852 19.4151 8.29855 19.4252 8.31311 19.5135Z" fill="black"/>
<path d="M7.43498 10.4113C7.17906 10.5219 7.15978 10.8693 7.40036 10.9922C7.57543 11.0805 7.75228 11.0382 7.84375 10.886C8.01587 10.6057 7.73536 10.2813 7.43498 10.4113ZM9.10232 10.648C8.86626 10.7924 8.86626 11.1419 9.10232 11.2873C9.33602 11.4269 9.63876 11.2426 9.63876 10.9621C9.63876 10.6917 9.32893 10.5097 9.10232 10.648Z" fill="black"/>
</svg>
