<svg width="24" height="24" viewBox="0 0 24 24" fill="none" xmlns="http://www.w3.org/2000/svg">
<path d="M13.3121 20.4031C12.8854 20.4698 12.4491 20.5031 12.0031 20.5031C10.7759 20.5033 9.5633 20.2378 8.44851 19.7249C7.33372 19.2119 6.34321 18.4637 5.54507 17.5316C4.74692 16.5994 4.16007 15.5056 3.82484 14.3251C3.48961 13.1446 3.41396 11.9056 3.60309 10.6931C3.08182 9.7016 2.89134 8.56937 3.0595 7.4619C3.22765 6.35443 3.74562 5.32977 4.5377 4.5377C5.32977 3.74562 6.35443 3.22765 7.4619 3.0595C8.56937 2.89134 9.7016 3.08182 10.6931 3.60309C11.1211 3.53642 11.5578 3.50309 12.0031 3.50309C13.2302 3.50286 14.4429 3.76835 15.5577 4.2813C16.6725 4.79425 17.663 5.5425 18.4611 6.47461C19.2593 7.40673 19.8461 8.50062 20.1813 9.68108C20.5166 10.8616 20.5922 12.1006 20.4031 13.3131C20.9244 14.3046 21.1148 15.4368 20.9467 16.5443C20.7785 17.6517 20.2606 18.6764 19.4685 19.4685C18.6764 20.2606 17.6517 20.7785 16.5443 20.9467C15.4368 21.1148 14.3036 20.9244 13.3121 20.4031ZM12.0561 17.1591H12.0161C14.8881 17.1591 16.3191 15.7731 16.3191 13.9161C16.3191 12.7181 15.7681 11.4451 13.5931 10.9581L11.6101 10.5181C10.8551 10.3461 9.98809 10.1181 9.98809 9.40309C9.98809 8.68809 10.6081 8.19009 11.7121 8.19009C13.9421 8.19009 13.7391 9.71809 14.8431 9.71809C15.4191 9.71809 15.9361 9.37609 15.9361 8.78809C15.9361 7.41809 13.7391 6.38809 11.8801 6.38809C9.85909 6.38809 7.70709 7.24709 7.70709 9.53209C7.70709 10.6301 8.10109 11.8021 10.2671 12.3451L12.9561 13.0161C13.7721 13.2181 13.9741 13.6751 13.9741 14.0881C13.9741 14.7751 13.2901 15.4461 12.0561 15.4461C9.63909 15.4461 9.97809 13.5891 8.68209 13.5891C8.10209 13.5891 7.67909 13.9871 7.67909 14.5601C7.67909 15.6741 9.03109 17.1591 12.0561 17.1591Z" fill="black"/>
</svg>
