<svg width="24" height="24" viewBox="0 0 24 24" fill="none" xmlns="http://www.w3.org/2000/svg">
<path d="M20.4362 10.1871C20.6606 9.51375 20.7386 8.80021 20.6647 8.0943C20.5909 7.38839 20.3671 6.70642 20.0082 6.09408C19.4763 5.16792 18.664 4.43465 17.6884 4.00005C16.7128 3.56546 15.6244 3.45202 14.5802 3.67608C14.1088 3.14547 13.5297 2.7215 12.8815 2.43248C12.2333 2.14347 11.5309 1.99605 10.8212 2.00008C9.75357 1.9977 8.71278 2.33439 7.84886 2.96162C6.98493 3.58885 6.3425 4.47421 6.01417 5.49008C5.31882 5.63242 4.66183 5.92147 4.08707 6.33792C3.51232 6.75438 3.03302 7.28865 2.68117 7.90508C2.14497 8.82879 1.91608 9.89895 2.02751 10.9612C2.13895 12.0234 2.58495 13.0228 3.30117 13.8151C3.07687 14.4883 2.99902 15.2016 3.07283 15.9073C3.14665 16.6131 3.37042 17.2949 3.72917 17.9071C4.26102 18.8332 5.07333 19.5665 6.04892 20.0011C7.02451 20.4357 8.11293 20.5491 9.15717 20.3251C9.62808 20.8559 10.207 21.2799 10.8551 21.5688C11.5032 21.8577 12.2056 22.0047 12.9152 22.0001C13.9834 22.003 15.025 21.6665 15.8895 21.039C16.754 20.4116 17.3969 19.5256 17.7252 18.5091C18.4205 18.3664 19.0774 18.077 19.652 17.6602C20.2266 17.2434 20.7056 16.7088 21.0572 16.0921C21.5926 15.1684 21.8209 14.0985 21.7091 13.0367C21.5974 11.9749 21.1513 10.976 20.4352 10.1841V10.1861L20.4362 10.1871ZM12.9182 20.6941C12.0413 20.6954 11.1918 20.3885 10.5182 19.8271C10.5482 19.8101 10.6022 19.7811 10.6362 19.7601L14.6192 17.4601C14.7191 17.4031 14.8022 17.3205 14.8598 17.2209C14.9174 17.1213 14.9476 17.0082 14.9472 16.8931V11.2781L16.6302 12.2501C16.6388 12.2546 16.6463 12.2611 16.6519 12.2691C16.6574 12.2771 16.661 12.2864 16.6622 12.2961V16.9461C16.6609 17.939 16.2661 18.891 15.5644 19.5934C14.8626 20.2959 13.9111 20.6917 12.9182 20.6941ZM4.86417 17.2541C4.42499 16.4959 4.26674 15.6073 4.41717 14.7441L4.53617 14.8141L8.51817 17.1141C8.61758 17.1721 8.73059 17.2026 8.84567 17.2026C8.96075 17.2026 9.07377 17.1721 9.17317 17.1141L14.0352 14.3061V16.2501C14.0358 16.2601 14.034 16.27 14.0298 16.2791C14.0256 16.2882 14.0192 16.2961 14.0112 16.3021L9.98517 18.6271C9.12398 19.1228 8.10135 19.2567 7.14154 18.9995C6.18174 18.7423 5.36311 18.115 4.86517 17.2551L4.86417 17.2541ZM3.81617 8.56208C4.25346 7.80252 4.94362 7.22067 5.76617 6.91808L5.76517 7.05608V11.6571C5.76483 11.7719 5.79491 11.8848 5.85235 11.9842C5.90978 12.0836 5.99253 12.166 6.09217 12.2231L10.9542 15.0301L9.27117 16.0021C9.26284 16.0076 9.25326 16.0109 9.2433 16.0118C9.23335 16.0127 9.22334 16.0111 9.21417 16.0071L5.18717 13.6801C4.32727 13.1821 3.69993 12.3635 3.44273 11.4037C3.18554 10.4439 3.31947 9.42128 3.81517 8.56008L3.81617 8.56208ZM17.6462 11.7801L12.7842 8.97208L14.4672 8.00008C14.4755 7.99457 14.4851 7.99122 14.495 7.99035C14.505 7.98947 14.515 7.9911 14.5242 7.99508L18.5512 10.3201C19.1676 10.6767 19.6696 11.2015 19.9987 11.833C20.3278 12.4646 20.4702 13.1768 20.4094 13.8863C20.3486 14.5958 20.0869 15.2733 19.6552 15.8396C19.2234 16.4059 18.6393 16.8376 17.9712 17.0841V12.3451C17.9718 12.2306 17.9422 12.1179 17.8853 12.0185C17.8284 11.9191 17.7463 11.8365 17.6472 11.7791L17.6462 11.7801ZM19.3212 9.25908L19.2032 9.18808L15.2202 6.88808C15.1209 6.83029 15.0081 6.79984 14.8932 6.79984C14.7783 6.79984 14.6655 6.83029 14.5662 6.88808L9.70317 9.69508V7.75008C9.70252 7.7401 9.70437 7.73011 9.70857 7.72103C9.71276 7.71195 9.71915 7.70406 9.72717 7.69808L13.7532 5.37508C14.3699 5.01917 15.0753 4.84632 15.7867 4.87677C16.4982 4.90722 17.1862 5.1397 17.7703 5.547C18.3544 5.9543 18.8104 6.51956 19.0848 7.17662C19.3593 7.83367 19.441 8.55532 19.3202 9.25708H19.3212V9.25908ZM8.78817 12.7221L7.10517 11.7501C7.09631 11.7457 7.08866 11.7392 7.0829 11.7312C7.07715 11.7232 7.07346 11.7139 7.07217 11.7041V7.05408C7.0731 6.34216 7.27667 5.64521 7.65907 5.0447C8.04147 4.4442 8.58691 3.96496 9.23163 3.663C9.87635 3.36104 10.5937 3.24884 11.2998 3.33952C12.0059 3.43021 12.6717 3.72002 13.2192 4.17508L13.1012 4.24208L9.11817 6.54208C9.01838 6.59922 8.93554 6.68181 8.87809 6.78142C8.82065 6.88103 8.79065 6.99409 8.79117 7.10908L8.78817 12.7221ZM9.70317 10.7511L11.8692 9.50108L14.0352 10.7511V13.2511L11.8692 14.5011L9.70317 13.2511V10.7511Z" fill="black"/>
</svg>
