<svg width="24" height="24" viewBox="0 0 24 24" fill="none" xmlns="http://www.w3.org/2000/svg">
<path d="M19.6359 5.404C18.1912 4.73859 16.6651 4.26653 15.0969 4C14.8829 4.386 14.6893 4.782 14.5159 5.188C12.8465 4.93487 11.1484 4.93487 9.47894 5.188C9.30522 4.78238 9.11097 4.38587 8.89694 4C7.32819 4.26947 5.8013 4.74247 4.35494 5.407C1.48294 9.681 0.704935 13.846 1.09294 17.953C2.77431 19.2006 4.6573 20.1503 6.65993 20.761C7.11127 20.1503 7.5086 19.506 7.85194 18.828C7.20138 18.5829 6.57335 18.2818 5.97494 17.928C6.13194 17.813 6.28594 17.694 6.43494 17.58C8.17481 18.4026 10.0754 18.8292 11.9999 18.8292C13.9245 18.8292 15.8251 18.4026 17.5649 17.58C17.7149 17.704 17.8683 17.8197 18.0249 17.927C17.4236 18.2837 16.7969 18.5847 16.1449 18.83C16.4869 19.508 16.8839 20.1517 17.3359 20.761C19.3404 20.1525 21.2247 19.2026 22.9059 17.953C23.3629 13.191 22.1259 9.064 19.6359 5.404ZM8.34593 15.427C7.25993 15.427 6.36393 14.437 6.36393 13.22C6.36393 12.002 7.22894 11.003 8.34194 11.003C9.45494 11.003 10.3439 12.002 10.3249 13.219C10.3049 14.437 9.45193 15.427 8.34593 15.427ZM15.6549 15.427C14.5679 15.427 13.6749 14.437 13.6749 13.22C13.6749 12.002 14.5399 11.003 15.6549 11.003C16.7699 11.003 17.6509 12.002 17.6319 13.219C17.6129 14.436 16.7609 15.427 15.6549 15.427Z" fill="black"/>
</svg>
