<svg width="24" height="24" viewBox="0 0 24 24" fill="none" xmlns="http://www.w3.org/2000/svg">
<path d="M10.6815 19.6045C9.97675 19.7949 9.23279 19.7558 8.55007 19.4925C7.86736 19.2292 7.27877 18.7543 6.86381 18.132C6.60859 17.7613 6.42728 17.3413 6.33055 16.8966C6.23381 16.4519 6.22362 15.9916 6.30057 15.5428C6.32692 15.3955 6.36278 15.2501 6.40793 15.1078L6.49206 14.8403L6.722 15.0153C7.25169 15.4202 7.84402 15.728 8.47341 15.9253L8.64006 15.9778L8.62403 16.1511C8.60382 16.3967 8.66797 16.6418 8.8051 16.8428C8.93021 17.0301 9.10744 17.173 9.31298 17.2524C9.51852 17.3318 9.7425 17.3439 9.95482 17.287C10.0521 17.2605 10.1449 17.2183 10.2296 17.162L14.7083 14.1936C14.8178 14.1219 14.9117 14.0272 14.984 13.9156C15.0563 13.8039 15.1054 13.6778 15.1281 13.5453C15.1513 13.41 15.1483 13.2712 15.1192 13.1372C15.0902 13.0031 15.0358 12.8764 14.9591 12.7645C14.834 12.5772 14.6567 12.4342 14.4512 12.3548C14.2457 12.2754 14.0217 12.2634 13.8094 12.3203C13.712 12.3468 13.6193 12.3889 13.5346 12.4453L11.8256 13.5786C11.5451 13.7656 11.2383 13.9059 10.9162 13.9945C10.2116 14.185 9.46768 14.1461 8.78497 13.8829C8.10226 13.6197 7.51363 13.145 7.09856 12.5228C6.84338 12.152 6.66215 11.7318 6.56555 11.287C6.46896 10.8421 6.45895 10.3817 6.53612 9.93281C6.6123 9.493 6.77574 9.07452 7.01604 8.70406C7.25634 8.3336 7.56823 8.01928 7.9318 7.78115L12.4097 4.81199C12.6902 4.62506 12.997 4.48477 13.319 4.39616C14.0238 4.2057 14.7677 4.24477 15.4505 4.5081C16.1332 4.77142 16.7218 5.24632 17.1367 5.86865C17.3919 6.23931 17.5733 6.65934 17.67 7.10401C17.7667 7.54868 17.7769 8.00899 17.7 8.45781C17.6736 8.60516 17.6377 8.75049 17.5926 8.89281L17.5085 9.16031L17.2793 8.98531C16.7495 8.58002 16.1568 8.27197 15.5271 8.07448L15.3605 8.02198L15.3765 7.84948C15.3969 7.60363 15.3327 7.35822 15.1954 7.15698C15.0702 6.96985 14.8929 6.82706 14.6874 6.7478C14.4819 6.66855 14.2579 6.65663 14.0457 6.71365C13.9484 6.74011 13.8557 6.78229 13.7709 6.83865L9.29223 9.80698C9.18271 9.87869 9.0888 9.97339 9.0165 10.085C8.94421 10.1967 8.89513 10.3228 8.8724 10.4553C8.84924 10.5906 8.85227 10.7294 8.88129 10.8634C8.91032 10.9975 8.96477 11.1242 9.04146 11.2361C9.16656 11.4234 9.34379 11.5664 9.54933 11.6458C9.75487 11.7252 9.97885 11.7372 10.1912 11.6803C10.2888 11.6537 10.3818 11.6112 10.4668 11.5545L12.1749 10.4211C12.4555 10.2345 12.7623 10.0945 13.0843 10.0061C13.7889 9.8156 14.5329 9.85455 15.2156 10.1177C15.8983 10.3809 16.4869 10.8556 16.902 11.4778C17.1572 11.8486 17.3384 12.2688 17.435 12.7137C17.5316 13.1585 17.5416 13.6189 17.4644 14.0678C17.3883 14.5078 17.2249 14.9264 16.9846 15.297C16.7443 15.6676 16.4324 15.9821 16.0687 16.2203L11.5909 19.1886C11.3104 19.3755 11.0036 19.5158 10.6815 19.6045ZM18.9803 4.64616C17.1952 1.98783 13.6683 1.20033 11.119 2.89033L6.64028 5.85865C6.03506 6.2541 5.51601 6.77678 5.11644 7.39315C4.71686 8.00953 4.44559 8.70598 4.32002 9.43781C4.10614 10.6705 4.29392 11.9421 4.85361 13.0511C4.46952 13.6555 4.20782 14.3348 4.08447 15.0478C3.95691 15.7942 3.97397 16.5595 4.13467 17.2989C4.29537 18.0383 4.59646 18.7369 5.02026 19.3536C6.80612 22.0119 10.3322 22.7994 12.8816 21.1103L17.3603 18.142C17.9655 17.7465 18.4845 17.2238 18.8841 16.6075C19.2837 15.9911 19.5549 15.2946 19.6805 14.5628C19.894 13.3302 19.7065 12.0588 19.1477 10.9495C19.5312 10.345 19.7924 9.66567 19.9153 8.95281C20.043 8.20638 20.0262 7.4409 19.8656 6.70135C19.705 5.96179 19.404 5.26305 18.9803 4.64616Z" fill="black"/>
</svg>
