<svg width="24" height="24" viewBox="0 0 24 24" fill="none" xmlns="http://www.w3.org/2000/svg">
<path d="M22 12C22 17.5233 17.5233 22 12 22C6.47667 22 2 17.5233 2 12C2 6.47667 6.47667 2 12 2C17.5233 2 22 6.47667 22 12ZM16.3725 5.69917C15.3558 5.73417 14.47 6.295 13.81 7.06917C13.0783 7.91917 12.5925 8.92667 12.2425 9.95333C11.615 9.44167 11.1325 8.775 10.1267 8.48583C9.73025 8.3638 9.31027 8.33901 8.90224 8.41356C8.49422 8.48812 8.11015 8.65982 7.7825 8.91417C7.44083 9.18 7.19083 9.545 7.065 9.95917C6.765 10.9392 7.3825 11.8133 7.66417 12.1258L8.27833 12.7842C8.40333 12.9125 8.71083 13.2508 8.56083 13.7325C8.4 14.2583 7.76833 14.5967 7.1175 14.3983C6.8275 14.31 6.41083 14.0933 6.50583 13.79C6.54333 13.665 6.6325 13.5708 6.68083 13.4642C6.72417 13.3725 6.745 13.3025 6.76 13.2625C6.8775 12.875 6.71583 12.3708 6.30083 12.2433C5.91333 12.1242 5.51833 12.2183 5.36333 12.715C5.18917 13.2817 5.46083 14.3092 6.91333 14.7558C8.61333 15.2792 10.0508 14.3525 10.2542 13.1458C10.3817 12.39 10.0417 11.8275 9.41583 11.1067L8.90583 10.5425C8.59667 10.2342 8.49167 9.7075 8.81083 9.305C9.08083 8.96417 9.465 8.81833 10.0933 8.98917C11.0125 9.23917 11.4217 9.875 12.1033 10.3892C11.8217 11.3142 11.6367 12.2417 11.4708 13.0742L11.3683 13.6958C10.8808 16.2542 10.5075 17.66 9.54 18.4675C9.345 18.6058 9.065 18.8142 8.64583 18.8292C8.42417 18.8333 8.3525 18.6825 8.35 18.615C8.345 18.4617 8.475 18.3892 8.5625 18.3208C8.69083 18.2517 8.8875 18.1342 8.8725 17.7592C8.85917 17.3158 8.4925 16.9308 7.96083 16.9483C7.56333 16.9625 6.95833 17.3358 6.98083 18.02C7.00417 18.7283 7.66333 19.2575 8.6575 19.2233C9.18917 19.2058 10.3758 18.9892 11.5442 17.5992C12.905 16.0067 13.2858 14.1817 13.5725 12.8442L13.8917 11.0808C14.0683 11.1014 14.26 11.1147 14.4667 11.1208C16.16 11.1575 17.0075 10.2792 17.02 9.64083C17.0283 9.25417 16.7667 8.87333 16.4 8.8825C16.2436 8.88639 16.0928 8.94198 15.9713 9.04057C15.8498 9.13917 15.7644 9.27523 15.7283 9.4275C15.65 9.78417 16.2667 10.105 15.785 10.4183C15.4433 10.64 14.83 10.795 13.965 10.6683L14.1217 9.8C14.4433 8.15333 14.8375 6.1275 16.3392 6.0775C16.4492 6.07167 16.8492 6.0825 16.8583 6.34667C16.8608 6.43417 16.84 6.45833 16.7358 6.65917C16.6403 6.78842 16.591 6.94602 16.5958 7.10667C16.61 7.52667 16.9292 7.80333 17.3933 7.78667C18.0125 7.7675 18.1892 7.16333 18.1808 6.85417C18.1542 6.12583 17.3875 5.6675 16.3725 5.69917Z" fill="black"/>
</svg>
