<svg width="24" height="24" viewBox="0 0 24 24" fill="none" xmlns="http://www.w3.org/2000/svg">
<path d="M16.4349 11.9294C16.5395 11.9688 16.6441 12.0018 16.744 12.0467C17.1605 12.2328 17.4058 12.5537 17.4364 13.0037C17.4752 13.5861 17.4759 14.1682 17.4382 14.75C17.3929 15.421 16.7672 15.9343 16.0656 15.9151C15.3853 15.8958 14.7985 15.3467 14.7726 14.6858C14.7568 14.2816 14.7698 13.8755 14.767 13.4703C14.7661 13.2512 14.7642 13.2485 14.5402 13.2476C13.2787 13.2467 12.0171 13.2549 10.7556 13.2448C9.93365 13.2384 9.44032 13.6867 9.39404 14.5832C9.37646 14.9315 9.30149 15.2496 9.06361 15.5163C8.69616 15.9297 8.23245 16.0672 7.70117 15.9435C7.1884 15.8234 6.89869 15.465 6.7432 14.9828C6.6349 14.6464 6.69136 14.3072 6.7543 13.98C7.06992 12.3327 8.01864 11.2245 9.64673 10.7212C9.9779 10.6195 10.3228 10.5682 10.6695 10.5691C11.5395 10.5703 12.4099 10.57 13.2805 10.5682C13.399 10.5682 13.5184 10.5572 13.6369 10.5489C14.2866 10.5022 14.7161 10.0805 14.7661 9.30958C14.7698 9.25092 14.7661 9.19133 14.767 9.13267C14.7657 8.7909 14.9002 8.46234 15.1415 8.21794C15.3827 7.97354 15.7113 7.83291 16.0563 7.82642C16.7848 7.79983 17.3873 8.3095 17.4382 9.03458C17.5086 10.0273 17.1929 10.9101 16.5932 11.6993C16.5376 11.7717 16.4599 11.8313 16.4349 11.9294ZM8.5277 10.5663C8.28891 10.559 7.9992 10.5828 7.71135 10.5342C7.21524 10.4517 6.90054 10.1767 6.76726 9.69458C6.62195 9.16933 6.67748 8.689 7.09214 8.29667C7.5142 7.89883 8.01401 7.78333 8.56103 8.00792C9.04232 8.20592 9.35609 8.678 9.38479 9.19317C9.40793 9.60017 9.38756 10.009 9.39127 10.416C9.39219 10.5223 9.35147 10.5691 9.24225 10.5673C9.02011 10.5645 8.7989 10.5663 8.5277 10.5663ZM20.961 1H3.03812C2.7704 0.99976 2.50526 1.05181 2.25788 1.15316C2.01049 1.25451 1.78571 1.40318 1.59641 1.59067C1.4071 1.77815 1.25699 2.00076 1.15465 2.24577C1.05231 2.49077 0.999757 2.75336 1 3.0185V20.7257C0.999879 21.0244 1.05919 21.3202 1.17455 21.5962C1.28991 21.8722 1.45906 22.1229 1.67232 22.3342C1.88558 22.5454 2.13877 22.7129 2.41743 22.8271C2.69609 22.9414 2.99476 23.0001 3.29635 23H20.7036C21.0052 23.0001 21.3039 22.9414 21.5826 22.8271C21.8612 22.7129 22.1144 22.5454 22.3277 22.3342C22.5409 22.1229 22.7101 21.8722 22.8254 21.5962C22.9408 21.3202 23.0001 21.0244 23 20.7257V3.0185C22.9995 2.48315 22.7845 1.96988 22.4022 1.59142C22.0199 1.21295 21.5015 1.00024 20.961 1ZM19.5198 12.4336C20.0002 13.1706 20.1983 13.9827 20.1465 14.8692C20.1033 15.7089 19.787 16.5122 19.2449 17.1592C18.7027 17.8062 17.9637 18.2621 17.1383 18.4588C14.7457 19.0299 12.9122 17.6127 12.2948 15.8977C12.1939 15.619 12.1467 15.3275 12.0875 14.9947C12.0245 15.3742 11.981 15.718 11.8431 16.0342C11.198 17.5165 10.0993 18.4203 8.45088 18.6C7.51419 18.7065 6.56966 18.4811 5.78484 17.9636C5.00003 17.4461 4.42566 16.67 4.16362 15.773C3.93222 14.9819 4.00164 14.1716 4.10068 13.3667C4.17472 12.7682 4.39779 12.2044 4.68564 11.6727C4.7384 11.5756 4.7384 11.5041 4.67639 11.4115C4.15714 10.6369 3.95536 9.78258 4.02848 8.8595C4.06061 8.3693 4.19186 7.89049 4.41445 7.4515C5.07623 6.15717 6.52939 5.05808 8.47587 5.2405C10.1873 5.40092 11.7728 6.863 12.0208 8.5075C12.0329 8.59 12.0569 8.67067 12.0838 8.79258C12.1245 8.57167 12.1541 8.39017 12.193 8.20958C12.5114 6.71542 13.9886 5.1525 16.0813 5.13233C18.2027 5.11308 19.7744 6.76033 20.0706 8.29117C20.2279 9.10517 20.1529 9.91917 19.9752 10.7322C19.8716 11.2062 19.6883 11.6562 19.4902 12.0999C19.4356 12.2246 19.4439 12.3162 19.5198 12.4336Z" fill="black"/>
</svg>
