<svg width="24" height="24" viewBox="0 0 24 24" fill="none" xmlns="http://www.w3.org/2000/svg">
<path d="M11.6 3C16.904 3 21.2 7.29696 21.2 12.6C21.199 14.6115 20.5675 16.572 19.3943 18.2059C18.2211 19.8397 16.5652 21.0647 14.6595 21.7085C14.1795 21.8045 14 21.505 14 21.2525C14 20.929 14.0115 19.897 14.0115 18.6125C14.0115 17.713 13.712 17.137 13.3635 16.8365C15.5005 16.5965 17.744 15.7805 17.744 12.097C17.744 11.041 17.3725 10.1885 16.76 9.51648C16.856 9.27648 17.192 8.29248 16.664 6.97248C16.664 6.97248 15.8605 6.70848 14.024 7.95648C13.2424 7.74014 12.435 7.6313 11.624 7.63296C10.808 7.63296 9.992 7.74048 9.224 7.95648C7.38752 6.72096 6.584 6.97248 6.584 6.97248C6.056 8.29248 6.392 9.27648 6.488 9.51648C5.87552 10.1885 5.504 11.0525 5.504 12.097C5.504 15.769 7.736 16.5965 9.872 16.8365C9.59648 17.0765 9.344 17.497 9.26048 18.121C8.70848 18.3725 7.328 18.7805 6.464 17.329C6.28352 17.041 5.744 16.3325 4.98752 16.345C4.184 16.3565 4.664 16.801 5 16.9805C5.408 17.209 5.87552 18.0605 5.984 18.337C6.176 18.8765 6.8 19.9085 9.21152 19.465C9.21152 20.2685 9.224 21.025 9.224 21.2525C9.224 21.505 9.04352 21.793 8.56352 21.7085C6.65136 21.0725 4.98813 19.8503 3.80994 18.2154C2.63174 16.5806 1.99847 14.6161 2 12.601C2 7.29696 6.296 3 11.6 3Z" fill="black"/>
</svg>
