<svg width="24" height="24" viewBox="0 0 24 24" fill="none" xmlns="http://www.w3.org/2000/svg">
<path d="M12.0662 2.00177C11.8697 2.00095 11.6731 2.0042 11.4768 2.01152C5.87418 2.25423 1.31567 6.5389 1.01592 11.8387C0.772093 16.1907 3.35155 19.9971 7.17858 21.7634C8.60581 22.4224 10.2998 21.5951 10.5757 20.1149C10.7618 19.1174 10.2255 18.1298 9.2658 17.686C7.09058 16.677 5.63035 14.4953 5.80268 12.0115C6.00435 9.10599 8.48939 6.7453 11.5583 6.5451C15.1874 6.30859 18.2105 9.02272 18.2105 12.4083C18.2105 14.7318 16.7869 16.7381 14.719 17.6922C14.2635 17.9011 13.8916 18.2489 13.6606 18.6819C13.4296 19.115 13.3521 19.6094 13.4402 20.0892L13.4503 20.1388C13.7207 21.5951 15.3854 22.4224 16.7897 21.7793C20.4636 20.0954 23 16.5326 23 12.4083C22.9963 6.68063 18.1087 2.03366 12.0662 2V2.00177ZM12.0103 8.74635C9.87354 8.74635 8.1374 10.3904 8.1374 12.4127C8.1374 14.4341 9.87354 16.0773 12.0103 16.0773C14.147 16.0773 15.8831 14.4341 15.8831 12.4127C15.8831 10.3904 14.1461 8.74635 12.0103 8.74635Z" fill="black"/>
</svg>
