<svg width="24" height="24" viewBox="0 0 24 24" fill="none" xmlns="http://www.w3.org/2000/svg">
<path d="M13.8133 22H16.875C19.6883 22 22 19.6883 22 16.875V7.125C22 4.3125 19.6883 2 16.875 2H13.75C13.6883 2 13.625 2.06167 13.625 2.125V21.875C13.6242 21.9383 13.6875 22 13.8133 22ZM17.625 11.0008C18.7508 11.0008 19.6242 11.9383 19.6242 12.9992C19.6242 14.1258 18.6867 14.9992 17.625 14.9992C16.5 14.9992 15.625 14.125 15.625 12.9992C15.5625 11.875 16.5 11.0008 17.625 11.0008ZM11.5 2H7.125C4.3125 2 2 4.3125 2 7.125V16.875C2 19.6883 4.3125 22 7.125 22H11.5C11.5617 22 11.625 21.9383 11.625 21.8758V2.125C11.6258 2.06167 11.5625 2 11.5 2ZM10.0633 20.3758H7.125C6.66505 20.3766 6.20947 20.2866 5.78438 20.1109C5.35929 19.9353 4.97306 19.6774 4.64782 19.3522C4.32259 19.0269 4.06475 18.6407 3.88909 18.2156C3.71343 17.7905 3.6234 17.335 3.62417 16.875V7.125C3.6234 6.66505 3.71343 6.20947 3.88909 5.78438C4.06475 5.35929 4.32259 4.97306 4.64782 4.64782C4.97306 4.32259 5.35929 4.06475 5.78438 3.88909C6.20947 3.71343 6.66505 3.6234 7.125 3.62417H10L10.0633 20.3758ZM5.125 7.99917C5.125 9.06167 5.9375 9.87417 7 9.87417C8.0625 9.87417 8.875 9.06167 8.875 7.99917C8.875 6.93833 8.0625 6.12417 7 6.12417C5.9375 6.12417 5.125 6.93833 5.125 7.99917Z" fill="black"/>
</svg>
