<svg width="24" height="24" viewBox="0 0 24 24" fill="none" xmlns="http://www.w3.org/2000/svg">
<path d="M20.7204 1.00328C20.6615 0.995811 20.6015 1.00114 20.5451 1.01886L3.45102 6.11932C3.28055 6.16973 3.13638 6.31549 3.05942 6.48416C3.01956 6.54462 2.99925 6.61469 3.00097 6.68583V11.9348C2.99925 12.0059 3.01956 12.076 3.05942 12.1365C3.13638 12.3042 3.28055 12.449 3.45102 12.5004L10.7122 14.6674L3.45102 16.8336C3.20262 16.9069 3 17.1764 3 17.434V22.6481C3 22.9066 3.20262 23.0551 3.45102 22.9809L20.547 17.8795C20.7779 17.8108 20.962 17.5715 20.9873 17.3295C20.9903 17.3093 21 17.2928 21 17.2699V12.0549C21 11.7973 20.7974 11.5278 20.549 11.4535L13.3628 9.30939L20.547 7.16526C20.7954 7.09192 20.9971 6.8215 20.9971 6.56391V1.35162C20.9971 1.1582 20.8831 1.02619 20.7214 1.00328H20.7204Z" fill="black"/>
</svg>
