<svg width="24" height="24" viewBox="0 0 24 24" fill="none" xmlns="http://www.w3.org/2000/svg">
<path d="M19.8908 7.6875C20.5908 8.96833 20.9892 10.4375 20.9892 12C20.9892 15.3158 19.1925 18.2133 16.52 19.7708L19.2658 11.8317C19.7783 10.5483 19.9492 9.5225 19.9492 8.61167C19.9492 8.27417 19.9275 7.9625 19.8908 7.6875ZM13.24 7.77417C13.7792 7.74917 14.2667 7.68667 14.2667 7.68667C14.7517 7.62417 14.695 6.91167 14.2108 6.9375C14.2108 6.9375 12.7483 7.05 11.8108 7.05C10.9242 7.05 9.43583 6.925 9.43583 6.925C8.94833 6.9 8.885 7.6375 9.37333 7.6625C9.37333 7.6625 9.82333 7.71333 10.3108 7.7375L11.7108 11.575L9.73583 17.475L6.46167 7.75C7.0025 7.725 7.49 7.66667 7.49 7.66667C7.9775 7.60417 7.92 6.89167 7.43583 6.92C7.43583 6.92 5.98083 7.035 5.04083 7.035C4.87417 7.035 4.67583 7.02833 4.46583 7.0225C6.0925 4.625 8.8625 3.0125 12 3.0125C14.3408 3.0125 16.4708 3.90583 18.0717 5.37333C18.0333 5.37083 17.9958 5.36583 17.9542 5.36583C17.0708 5.36583 16.4442 6.135 16.4442 6.96083C16.4442 7.7025 16.8717 8.33 17.3275 9.07C17.67 9.67 18.0692 10.4392 18.0692 11.5508C18.0692 12.3133 17.7742 13.2125 17.385 14.45L16.4892 17.4375L13.2392 7.7625L13.24 7.77417ZM12 20.9867C11.1175 20.9867 10.2658 20.8592 9.46 20.6225L12.1575 12.7842L14.92 20.3567C14.94 20.4 14.9617 20.4414 14.985 20.4808C14.0517 20.8083 13.0475 20.9883 12 20.9883M3.00917 12C3.00917 10.6967 3.28917 9.45833 3.78833 8.34167L8.075 20.0908C6.55623 19.3538 5.27564 18.204 4.37975 16.7732C3.48387 15.3423 3.00889 13.6882 3.00917 12ZM12 2C6.4875 2 2 6.4875 2 12C2 17.5125 6.4875 22 12 22C17.5125 22 22 17.5125 22 12C22 6.4875 17.5125 2 12 2Z" fill="black"/>
</svg>
