<svg width="24" height="24" viewBox="0 0 24 24" fill="none" xmlns="http://www.w3.org/2000/svg">
<path d="M11.9825 2C6.72199 2 2.40825 6.05 2 11.1975L7.36984 13.4125C7.84048 13.0925 8.39666 12.9212 8.9661 12.9208C9.01842 12.9214 9.07074 12.9231 9.12306 12.9258L11.5116 9.47417V9.425C11.5129 8.42554 11.9113 7.46739 12.6193 6.76067C13.3273 6.05394 14.2872 5.65632 15.2885 5.655C17.3707 5.655 19.0655 7.3475 19.0655 9.4275C19.0655 11.5075 17.3707 13.1983 15.2885 13.1983H15.2009L11.798 15.6242L11.8013 15.7567C11.802 16.1281 11.7292 16.496 11.5873 16.8393C11.4454 17.1826 11.237 17.4946 10.9741 17.7575C10.7113 18.0203 10.399 18.2289 10.0553 18.3711C9.71164 18.5134 9.3432 18.5867 8.97111 18.5867C8.31648 18.5848 7.68251 18.3577 7.17598 17.9438C6.66944 17.5299 6.3213 16.9544 6.19018 16.3142L2.34563 14.725C3.53615 18.9225 7.39656 22 11.9825 22C17.5151 22 22 17.5225 22 12C22 6.4775 17.5143 2 11.9825 2ZM8.27651 17.175L7.04675 16.6667C7.26549 17.1192 7.64285 17.4992 8.14376 17.7083C8.53229 17.869 8.95978 17.9113 9.37234 17.8298C9.7849 17.7484 10.1641 17.5468 10.462 17.2505C10.76 16.9543 10.9634 16.5766 11.0466 16.1651C11.1299 15.7536 11.0892 15.3268 10.9297 14.9383C10.7191 14.4278 10.3175 14.0193 9.8102 13.7995C9.30285 13.5797 8.72965 13.5658 8.21222 13.7608L9.48372 14.2858C9.86755 14.4455 10.1721 14.7509 10.3304 15.1347C10.4887 15.5185 10.4877 15.9494 10.3278 16.3325C10.1678 16.7156 9.86189 17.0196 9.47736 17.1776C9.09283 17.3356 8.66034 17.3347 8.27651 17.175ZM17.8065 9.4225C17.8054 8.75648 17.5398 8.11806 17.068 7.64711C16.5962 7.17616 15.9566 6.9111 15.2894 6.91C14.7915 6.91 14.3049 7.05736 13.8909 7.33343C13.477 7.60951 13.1544 8.00191 12.9639 8.46101C12.7733 8.92011 12.7235 9.42529 12.8206 9.91266C12.9177 10.4 13.1575 10.8477 13.5095 11.1991C13.8615 11.5505 14.31 11.7898 14.7983 11.8867C15.2866 11.9837 15.7927 11.9339 16.2526 11.7437C16.7126 11.5536 17.1057 11.2315 17.3823 10.8184C17.6589 10.4052 17.8065 9.91943 17.8065 9.4225ZM13.4042 9.41833C13.4042 8.91763 13.6035 8.43743 13.9582 8.08337C14.3129 7.72932 14.794 7.53042 15.2956 7.53042C15.7973 7.53042 16.2783 7.72932 16.633 8.08337C16.9877 8.43743 17.187 8.91763 17.187 9.41833C17.1866 9.91894 16.9871 10.3989 16.6324 10.7528C16.2777 11.1067 15.7967 11.3056 15.2952 11.3058C15.0469 11.3059 14.8009 11.2572 14.5714 11.1624C14.342 11.0676 14.1335 10.9285 13.9578 10.7532C13.7822 10.5779 13.6429 10.3698 13.548 10.1408C13.453 9.91173 13.4041 9.66623 13.4042 9.41833Z" fill="black"/>
</svg>
