<svg width="24" height="24" viewBox="0 0 24 24" fill="none" xmlns="http://www.w3.org/2000/svg">
<path d="M22.3355 3.504L16.3433 4.59038L17.3846 1L9.06911 2.62069L8.93956 4.79663L1.65424 3.50138C1.15249 3.47233 0.860116 3.83074 1.0673 4.32836L11.6102 22.7182C11.8372 23.0867 12.3596 23.1011 12.5887 22.7182L22.9267 4.32659C23.1599 3.91083 22.8025 3.42348 22.3355 3.504ZM12.0974 22.2141L1.77196 4.20358L8.89947 5.47077L8.56347 11.1154L11.4851 10.4447L10.6705 14.4126L12.8898 13.7419L11.7884 19.0442C11.7335 19.3909 12.1876 19.5753 12.4122 19.079L18.9015 6.19737L15.699 6.81216L16.1347 5.30989L22.2218 4.20628L12.0974 22.2141Z" fill="black"/>
</svg>
