<svg width="24" height="24" viewBox="0 0 24 24" fill="none" xmlns="http://www.w3.org/2000/svg">
<path d="M12.0398 22.9707C12.48 22.967 12.9156 22.9441 13.3502 22.8845C14.346 22.7556 15.3189 22.4893 16.2412 22.0934C17.5377 21.5386 18.7196 20.7484 19.7268 19.7632C20.6538 18.8559 21.4129 17.7924 21.9691 16.6217C22.4441 15.614 22.7602 14.5392 22.9064 13.4353C23.0433 12.3719 23.0304 11.2847 22.865 10.2278C22.7265 9.34963 22.4818 8.49147 22.1363 7.67206C21.9164 7.15709 21.6539 6.66128 21.3515 6.18977C20.2782 4.50582 18.7224 3.15187 16.9314 2.24802C16.2914 1.92287 15.6234 1.65595 14.9354 1.4505H14.9308C15.0402 1.50825 15.1514 1.5715 15.2479 1.63475C15.3581 1.70259 15.4675 1.76859 15.5704 1.84101C16.0929 2.19167 16.5736 2.60072 17.003 3.0602C17.9799 4.10981 18.6544 5.39592 19.0413 6.76454C19.3023 7.66473 19.4401 8.59608 19.4962 9.53019C19.5366 10.2113 19.5366 10.897 19.453 11.5735C19.316 12.7377 18.9439 13.8744 18.3245 14.8699C17.868 15.6113 17.2746 16.2596 16.5757 16.7803C15.4326 17.631 13.9319 18.1388 12.4993 17.8015C12.2629 17.7455 12.0326 17.6663 11.8119 17.565C11.5606 17.4506 11.3209 17.3125 11.096 17.1524C10.6697 16.8694 10.2849 16.5285 9.95286 16.1395C9.54912 15.6596 9.2238 15.1191 8.98888 14.5381C8.70164 13.7945 8.54797 13.0064 8.53491 12.2097C8.50735 11.0427 8.74168 9.86936 9.3197 8.84542C9.70631 8.16344 10.2259 7.56561 10.8479 7.08721C11.0547 6.92404 11.2743 6.78195 11.4949 6.64812L11.5096 6.6417C11.0756 6.54248 10.6297 6.50544 10.1853 6.5317C9.80144 6.55761 9.42232 6.63152 9.05688 6.7517C8.72697 6.86171 8.40994 6.99921 8.12047 7.16421C7.88508 7.29844 7.65994 7.44979 7.44688 7.61706C7.25298 7.78206 7.06092 7.94707 6.88172 8.12582C5.84974 9.18276 5.25702 10.5844 5.0236 12.0272C4.88576 12.9192 4.88576 13.824 4.93998 14.7315C5.03647 16.0103 5.29929 17.2863 5.80839 18.4551C6.11824 19.1776 6.53588 19.8491 7.04713 20.447C7.82912 21.3479 8.81603 22.0489 9.92529 22.4912C10.5468 22.7439 11.2002 22.9104 11.867 22.9863C11.935 23 12.004 23 12.0591 23L12.0398 22.9707ZM9.34359 22.6058C9.20148 22.5449 9.06336 22.4751 8.93006 22.3968C8.23844 22.0247 7.60705 21.5507 7.05724 20.9906C6.05191 19.9483 5.37832 18.6384 4.99236 17.2505C4.73826 16.3 4.58578 15.3253 4.53748 14.3428C4.4961 13.7066 4.51024 13.068 4.57975 12.4343C4.70381 11.282 5.03463 10.1416 5.61265 9.15251C6.02827 8.42299 6.58524 7.78325 7.25114 7.27055C7.7068 6.92165 8.21274 6.6435 8.75179 6.44553C9.79517 6.06847 10.9356 6.05393 11.9883 6.40428C12.015 6.40428 12.015 6.40428 12.0297 6.43178C12.0435 6.44553 12.071 6.44553 12.0848 6.45928C12.1262 6.47395 12.1804 6.50053 12.2364 6.52712C12.4561 6.63712 12.6766 6.77554 12.8834 6.91212C13.7166 7.49446 14.3813 8.28554 14.8104 9.20568C15.1964 10.0435 15.3756 10.9786 15.3903 11.8989C15.4032 12.888 15.2249 13.8762 14.7976 14.7828C14.2775 15.877 13.4307 16.7838 12.3734 17.3789C12.4561 17.4064 12.5388 17.4201 12.6224 17.4476C12.8292 17.488 13.035 17.5155 13.2546 17.5155C14.6037 17.5567 15.9123 16.9104 16.8753 16.0057C17.0548 15.8407 17.2202 15.6619 17.3715 15.4694C17.5783 15.2219 17.7713 14.9744 17.9358 14.715C18.1554 14.3712 18.3355 14.0275 18.5 13.6571C18.7111 13.1671 18.8679 12.6557 18.9678 12.1317C19.1479 11.2114 19.1617 10.2782 19.1047 9.35785C18.9806 7.50431 18.4862 5.64985 17.412 4.11073C17.2532 3.8826 17.083 3.66262 16.902 3.45163C16.6003 3.11199 16.2738 2.79517 15.9251 2.50377C15.5357 2.18452 15.1162 1.90362 14.6726 1.665C14.1718 1.43616 13.6514 1.2527 13.1177 1.11682L12.842 1.06182C12.65 1.03432 12.4561 1.02149 12.2594 1.00682C11.9485 0.9942 11.6371 0.999097 11.3267 1.02149C10.6797 1.06274 10.0291 1.16816 9.38586 1.33041C6.30186 2.12426 3.60382 4.2684 2.1675 7.1138C1.70878 8.02009 1.38025 8.98628 1.19158 9.98395C0.973689 11.1248 0.941419 12.2933 1.096 13.4444C1.20628 14.3795 1.43969 15.2989 1.81095 16.1734C2.01955 16.6959 2.28053 17.2038 2.56908 17.6841C3.57442 19.3186 5.03463 20.6505 6.71355 21.5709C7.34579 21.9284 8.00744 22.2034 8.69573 22.4362C8.90341 22.5041 9.10926 22.5737 9.32889 22.6287L9.34359 22.6058Z" fill="black"/>
</svg>
