<svg width="24" height="24" viewBox="0 0 24 24" fill="none" xmlns="http://www.w3.org/2000/svg">
<path d="M20.8378 10.7453L12.4541 2.3616C12.2219 2.13004 11.9074 2 11.5795 2C11.2516 2 10.9371 2.13004 10.705 2.3616L8.96544 4.10112L11.1734 6.31008C11.4339 6.22115 11.714 6.20721 11.982 6.26987C12.25 6.33253 12.4949 6.46926 12.6889 6.66445C12.8829 6.85964 13.0181 7.10543 13.0791 7.37377C13.1401 7.64212 13.1245 7.92221 13.0339 8.18208L15.1613 10.3104C15.4793 10.2011 15.8252 10.2041 16.1413 10.3188C16.4574 10.4336 16.7247 10.6533 16.8985 10.9412C17.0723 11.2291 17.1421 11.5679 17.0964 11.9011C17.0507 12.2343 16.8922 12.5417 16.6473 12.7722C16.4024 13.0027 16.0859 13.1423 15.7506 13.1678C15.4153 13.1932 15.0813 13.1029 14.8045 12.912C14.5276 12.7211 14.3245 12.4411 14.2291 12.1186C14.1337 11.7961 14.1516 11.4507 14.28 11.1398L12.2957 9.15456V14.377C12.5972 14.526 12.8385 14.7738 12.9794 15.0791C13.1204 15.3845 13.1524 15.7289 13.0702 16.055C12.988 16.3811 12.7965 16.6691 12.5277 16.8712C12.2588 17.0732 11.9289 17.177 11.5928 17.1653C11.2567 17.1536 10.9348 17.027 10.6807 16.8067C10.4266 16.5864 10.2556 16.2857 10.1964 15.9546C10.1371 15.6236 10.1931 15.2822 10.355 14.9875C10.5169 14.6927 10.7749 14.4623 11.0861 14.3347V9.06432C10.9063 8.99092 10.7428 8.88259 10.6051 8.74559C10.4674 8.6086 10.3583 8.44566 10.284 8.2662C10.2098 8.08675 10.1718 7.89435 10.1724 7.70013C10.1729 7.50591 10.212 7.31373 10.2874 7.13472L8.10912 4.95744L2.3616 10.7069C2.13004 10.939 2 11.2535 2 11.5814C2 11.9093 2.13004 12.2238 2.3616 12.456L10.7443 20.8387C10.9765 21.0703 11.291 21.2003 11.6189 21.2003C11.9468 21.2003 12.2613 21.0703 12.4934 20.8387L20.8378 12.4944C21.0693 12.2622 21.1994 11.9477 21.1994 11.6198C21.1994 11.2919 21.0693 10.9774 20.8378 10.7453Z" fill="black"/>
</svg>
