<svg width="24" height="24" viewBox="0 0 24 24" fill="none" xmlns="http://www.w3.org/2000/svg">
<path d="M5.42001 19.528C7.24003 21.1243 9.57913 22.003 12 22C14.4224 22.0033 16.7632 21.1246 18.585 19.528C20.149 17.934 14.988 12.27 12 10.013C9.015 12.27 3.85001 17.934 5.41801 19.528M14.718 7.523C16.801 9.99 20.954 16.117 19.781 18.283C21.2203 16.5065 22.004 14.2884 22 12.002C22.0017 10.6782 21.7395 9.36727 21.2287 8.14595C20.7179 6.92464 19.9687 5.81741 19.025 4.889C19.025 4.889 19.002 4.871 18.957 4.854C18.8817 4.82812 18.8026 4.81527 18.723 4.816C18.229 4.816 17.068 5.179 14.718 7.523ZM5.04501 4.855C4.99701 4.872 4.97701 4.889 4.97301 4.89C4.02966 5.81858 3.28087 6.92588 2.7704 8.14719C2.25994 9.36849 1.99804 10.6793 2.00001 12.003C2.00001 14.382 2.83201 16.564 4.21701 18.281C3.05101 16.11 7.201 9.988 9.285 7.523C6.935 5.178 5.77201 4.818 5.28001 4.818C5.20019 4.8153 5.12063 4.82855 5.04601 4.857L5.04501 4.855ZM12 4.959C12 4.959 9.546 3.523 7.63 3.455C6.877 3.428 6.41701 3.701 6.36201 3.737C8.15 2.539 10.05 2 11.988 2H12C13.945 2 15.838 2.538 17.638 3.737C17.582 3.699 17.126 3.427 16.372 3.455C14.455 3.523 12 4.955 12 4.955V4.959Z" fill="black"/>
</svg>
