<svg width="24" height="24" viewBox="0 0 24 24" fill="none" xmlns="http://www.w3.org/2000/svg">
<path fill-rule="evenodd" clip-rule="evenodd" d="M11.087 2H17.913C18.515 2 19 2 19.393 2.032C19.799 2.065 20.154 2.135 20.483 2.302C21.006 2.569 21.431 2.994 21.697 3.517C21.865 3.846 21.935 4.201 21.967 4.607C22 5 22 5.484 22 6.086V13.467C22 14.069 22 14.555 21.968 14.948C21.935 15.353 21.865 15.708 21.698 16.038C21.4313 16.5608 21.006 16.9857 20.483 17.252C20.154 17.42 19.799 17.489 19.393 17.522C19 17.555 18.515 17.555 17.913 17.555H17.556V17.912C17.556 18.514 17.556 18.999 17.523 19.392C17.49 19.798 17.421 20.153 17.253 20.482C16.9866 21.0046 16.5616 21.4296 16.039 21.696C15.709 21.864 15.354 21.934 14.949 21.966C14.556 21.999 14.07 21.999 13.469 21.999H6.086C5.484 21.999 4.999 21.999 4.606 21.967C4.2 21.934 3.845 21.864 3.516 21.697C2.99323 21.4303 2.56828 21.005 2.302 20.482C2.134 20.153 2.064 19.798 2.032 19.392C2 19 2 18.516 2 17.914V10.533C2 9.931 2 9.445 2.032 9.052C2.065 8.647 2.135 8.292 2.302 7.962C2.56871 7.43923 2.99401 7.01428 3.517 6.748C3.846 6.581 4.201 6.511 4.607 6.478C5 6.445 5.485 6.445 6.087 6.445H7V6.088C7 5.486 7 5.001 7.032 4.608C7.065 4.202 7.135 3.847 7.302 3.518C7.56871 2.99523 7.99401 2.57028 8.517 2.304C8.846 2.136 9.201 2.066 9.607 2.034C10 2 10.485 2 11.087 2ZM17.889 16.444H17.556V10.532C17.556 9.93 17.556 9.444 17.523 9.051C17.49 8.646 17.421 8.291 17.253 7.961C16.9866 7.43838 16.5616 7.01345 16.039 6.747C15.709 6.58 15.354 6.51 14.949 6.477C14.556 6.444 14.07 6.444 13.469 6.444H8.11V6.111C8.11 5.48 8.11 5.039 8.139 4.697C8.166 4.361 8.217 4.167 8.292 4.021C8.452 3.708 8.707 3.453 9.02 3.293C9.166 3.218 9.36 3.167 9.696 3.14C10.039 3.112 10.479 3.111 11.11 3.111H17.888C18.519 3.111 18.96 3.111 19.302 3.14C19.638 3.167 19.832 3.218 19.978 3.293C20.292 3.453 20.546 3.708 20.706 4.021C20.781 4.167 20.832 4.361 20.859 4.697C20.888 5.039 20.888 5.48 20.888 6.111V13.444C20.888 14.076 20.888 14.516 20.859 14.859C20.832 15.195 20.781 15.389 20.706 15.534C20.5462 15.8477 20.2914 16.1028 19.978 16.263C19.832 16.337 19.638 16.388 19.302 16.416C18.959 16.444 18.52 16.444 17.889 16.444ZM5.442 18.558C5.57868 18.7002 5.74311 18.8128 5.92511 18.8888C6.10711 18.9649 6.30278 19.0027 6.5 19C6.778 19 7.028 18.9333 7.25 18.8C7.4739 18.665 7.66028 18.4759 7.792 18.25C7.93067 18.022 8 17.772 8 17.5C8.00271 17.3028 7.96488 17.1071 7.88885 16.9251C7.81281 16.7431 7.7002 16.5787 7.558 16.442C7.42132 16.2998 7.25689 16.1872 7.07489 16.1112C6.89289 16.0351 6.69722 15.9973 6.5 16C6.30278 15.9973 6.10711 16.0351 5.92511 16.1112C5.74311 16.1872 5.57868 16.2998 5.442 16.442C5.2998 16.5787 5.18719 16.7431 5.11115 16.9251C5.03512 17.1071 4.99729 17.3028 5 17.5C5 17.9113 5.14733 18.264 5.442 18.558Z" fill="black"/>
</svg>
