<svg width="24" height="24" viewBox="0 0 24 24" fill="none" xmlns="http://www.w3.org/2000/svg">
<path d="M9.9 8.6998L5 17.1998L3.9 15.2998L5.2 12.9998H2.6L2 11.9998L2.6 10.9998H6.3L7.6 8.6998H9.9ZM10.2 15.4998H19.9L18.8 17.3998H16.2L17.5 19.6998L16.9 20.6998H15.8L14 17.3998H11.3L10.2 15.4998ZM15.9 11.7998L11 3.2998H13.2L14.5 5.5998L15.8 3.2998H16.9L17.5 4.2998L15.6 7.4998L17 9.7998L15.9 11.7998ZM13.8 8.4998H4L5.1 6.5998H7.7L6.4 4.2998L7 3.2998H8.1L10 6.4998H12.7L13.8 8.4998ZM14.1 15.2998L19 6.7998L20.1 8.6998L18.8 10.9998H21.4L22 11.9998L21.4 12.9998H17.7L16.4 15.2998H14.1ZM8.1 12.1998L13 20.5998H10.8L9.5 18.2998L8.4 20.5998H7.1L6.5 19.5998L8.4 16.3998L7 14.1998L8.1 12.1998Z" fill="black"/>
</svg>
