<svg width="24" height="24" viewBox="0 0 24 24" fill="none" xmlns="http://www.w3.org/2000/svg">
<path d="M7.55328 5.28091C8.12401 5.27075 8.69388 5.32941 9.25056 5.45563C9.71904 5.55739 10.1645 5.74747 10.5619 6.01531C10.9286 6.28219 11.2195 6.64027 11.4038 7.05499C11.616 7.56379 11.7187 8.11291 11.7043 8.66395C11.7294 9.26962 11.5748 9.86919 11.2598 10.3872C10.9286 10.8768 10.4717 11.2675 9.936 11.519C10.6627 11.7148 11.2954 12.1622 11.7206 12.7824C12.1286 13.439 12.3341 14.2022 12.3101 14.975C12.3241 15.5912 12.1967 16.2023 11.9376 16.7615C11.6976 17.2492 11.3482 17.6745 10.9142 18.0038C10.468 18.3289 9.96597 18.5694 9.43296 18.7132C8.88042 18.8654 8.30977 18.942 7.73664 18.9408H1.44V5.28091H7.55328ZM7.1904 10.8057C7.63872 10.8249 8.07936 10.6905 8.44224 10.4256C8.6155 10.2712 8.75026 10.0785 8.83577 9.86282C8.92128 9.64713 8.95517 9.41443 8.93472 9.18331C8.94631 8.91341 8.89263 8.64469 8.77824 8.39995C8.68012 8.20577 8.52901 8.04334 8.3424 7.93147C8.15298 7.80881 7.94018 7.72676 7.71744 7.69051C7.4755 7.64398 7.22938 7.62274 6.98304 7.62715H4.2912V10.8182H7.1904V10.8057ZM7.34688 16.6214C7.61814 16.6243 7.8888 16.5953 8.15328 16.535C8.39328 16.4812 8.62368 16.3814 8.8272 16.2432C9.02688 16.104 9.18816 15.9167 9.29664 15.6979C9.42144 15.4195 9.47904 15.1161 9.46464 14.8108C9.49198 14.5331 9.45522 14.2528 9.35719 13.9915C9.25916 13.7302 9.10248 13.4949 8.8992 13.3036C8.46842 12.9872 7.94103 12.8304 7.40736 12.8601H4.2912V16.6214H7.34688ZM16.3728 16.5715C16.5968 16.7786 16.8605 16.9382 17.148 17.0405C17.4354 17.1428 17.7406 17.1857 18.0451 17.1667C18.528 17.1782 19.0022 17.0323 19.393 16.7481C19.7117 16.5417 19.9526 16.2355 20.0784 15.8784H22.3536C22.1104 16.8962 21.5188 17.7968 20.6813 18.4243C19.8766 18.9581 18.9258 19.2285 17.9606 19.198C17.2722 19.2057 16.5892 19.0761 15.9514 18.8169C15.3748 18.5762 14.8573 18.2133 14.4346 17.7532C14.0151 17.2701 13.6925 16.7108 13.4842 16.1059C13.2523 15.4289 13.1387 14.7171 13.1482 14.0016C13.1431 13.2983 13.2607 12.5995 13.4957 11.9366C13.8106 11.0026 14.4138 10.1926 15.2184 9.62331C16.023 9.054 16.9876 8.75473 17.9731 8.76859C18.7006 8.75468 19.4198 8.92474 20.064 9.26299C20.6455 9.58234 21.1475 10.0286 21.5328 10.5686C21.925 11.136 22.2065 11.7725 22.3622 12.4444C22.5331 13.1654 22.5926 13.9084 22.5427 14.6486H15.767C15.7116 15.3437 15.9294 16.0332 16.3728 16.5715ZM19.345 11.376C19.1555 11.1863 18.9275 11.0396 18.6764 10.9457C18.4253 10.8518 18.157 10.8129 17.8896 10.8316C17.5345 10.8177 17.1819 10.8961 16.8662 11.0592C16.6164 11.1972 16.3957 11.3824 16.2163 11.6044C16.058 11.8128 15.9399 12.0488 15.8678 12.3004C15.8033 12.5105 15.7631 12.7273 15.7478 12.9465H19.945C19.9083 12.375 19.6999 11.8279 19.3469 11.3769L19.345 11.376ZM20.4653 6.19291H15.2074V7.53691H20.4653V6.19291Z" fill="black"/>
</svg>
