<svg width="24" height="24" viewBox="0 0 24 24" fill="none" xmlns="http://www.w3.org/2000/svg">
<path d="M4.31225 7.79261C3.58755 7.79226 3.00018 8.37372 3 9.08885L3.00089 14.5161C3.00082 14.6863 3.03473 14.8549 3.10068 15.0123C3.16662 15.1696 3.26332 15.3126 3.38523 15.433C3.50715 15.5534 3.6519 15.6489 3.8112 15.714C3.97051 15.7792 4.14126 15.8127 4.31368 15.8126C4.4861 15.8128 4.65686 15.7794 4.81618 15.7143C4.9755 15.6492 5.12025 15.5537 5.24214 15.4333C5.36402 15.3129 5.46064 15.1699 5.52647 15.0125C5.5923 14.8551 5.62604 14.6865 5.62576 14.5162V9.08814C5.62538 8.74439 5.48682 8.41484 5.24053 8.17192C4.99423 7.92899 4.66035 7.79257 4.31225 7.79261ZM14.8963 2.9188L15.8123 1.26694C15.8356 1.22504 15.8412 1.1757 15.8278 1.12976C15.8143 1.08382 15.783 1.04501 15.7406 1.02185C15.6982 0.999085 15.6483 0.993864 15.602 1.00734C15.5557 1.02081 15.5167 1.05187 15.4935 1.09372L14.5682 2.76288C13.7897 2.42068 12.9183 2.22892 11.9964 2.2298C11.077 2.22892 10.206 2.42015 9.43074 2.76041L8.50435 1.09549C8.49304 1.0747 8.47767 1.05634 8.45912 1.04147C8.44058 1.0266 8.41923 1.0155 8.39631 1.00884C8.37339 1.00217 8.34937 1.00006 8.32562 1.00263C8.30187 1.00519 8.27887 1.01239 8.25796 1.0238C8.23684 1.03494 8.21819 1.05013 8.20309 1.06848C8.188 1.08683 8.17675 1.10796 8.17003 1.13065C8.1633 1.15334 8.16123 1.17713 8.16392 1.20062C8.16661 1.22411 8.17402 1.24684 8.18572 1.26747L9.1021 2.91827C7.30153 3.83522 6.08493 5.58154 6.08601 7.58655L17.9083 7.58514C17.9086 5.58084 16.6942 3.83805 14.8963 2.9188ZM9.30755 5.47154C9.17607 5.47147 9.05 5.41982 8.95708 5.32796C8.86417 5.23611 8.812 5.11156 8.81208 4.98172C8.81215 4.85188 8.86444 4.72739 8.95746 4.63563C9.05048 4.54387 9.1766 4.49236 9.30808 4.49243C9.43957 4.49266 9.56562 4.54434 9.65861 4.63614C9.75161 4.72795 9.80398 4.8524 9.80427 4.98225C9.80403 5.11216 9.75158 5.23666 9.65844 5.32841C9.5653 5.42015 9.4391 5.47163 9.30755 5.47154ZM14.6907 5.47066C14.6256 5.4707 14.5611 5.45808 14.501 5.43351C14.4408 5.40894 14.3862 5.3729 14.3401 5.32746C14.2941 5.28202 14.2576 5.22806 14.2327 5.16868C14.2078 5.10929 14.195 5.04564 14.195 4.98137C14.1957 4.85164 14.2482 4.72741 14.341 4.63559C14.4338 4.54377 14.5595 4.49177 14.6908 4.49084C14.8221 4.49191 14.9476 4.54402 15.0403 4.63587C15.1329 4.72773 15.1851 4.85192 15.1856 4.98154C15.1857 5.04576 15.1729 5.10937 15.1481 5.16872C15.1232 5.22807 15.0868 5.282 15.0408 5.32743C14.9948 5.37286 14.9403 5.40889 14.8802 5.43346C14.8201 5.45804 14.7557 5.47068 14.6907 5.47066ZM6.13428 8.03752L6.13625 16.4487C6.13599 16.6303 6.17204 16.8103 6.24233 16.9782C6.31261 17.1461 6.41576 17.2986 6.54585 17.4271C6.67595 17.5555 6.83043 17.6573 7.00045 17.7267C7.17047 17.7961 7.35269 17.8317 7.53665 17.8314L8.49022 17.8318L8.4913 20.7036C8.49112 21.4187 9.07975 22 9.80284 22C10.5281 22 11.1156 21.4182 11.1158 20.7027L11.1151 17.8316L12.8869 17.8311L12.8876 20.7027C12.8876 21.4173 13.4764 21.9998 14.1997 21.9984C14.9249 21.9989 15.5128 21.4171 15.5126 20.7016L15.5117 17.8307L16.4687 17.83C16.6527 17.83 16.8349 17.7943 17.0048 17.7248C17.1748 17.6553 17.3293 17.5534 17.4594 17.4249C17.5895 17.2965 17.6927 17.144 17.7631 16.9761C17.8335 16.8083 17.8698 16.6284 17.8698 16.4467L17.8682 8.03558L6.13428 8.03752ZM20.9991 9.08691C20.9991 8.91671 20.9651 8.74818 20.8991 8.59094C20.8332 8.43371 20.7365 8.29084 20.6146 8.17051C20.4927 8.05017 20.348 7.95473 20.1888 7.88961C20.0295 7.8245 19.8588 7.791 19.6865 7.79103C18.9618 7.79032 18.3746 8.37143 18.3746 9.08744L18.3757 14.515C18.3756 14.6852 18.4094 14.8538 18.4753 15.011C18.5412 15.1683 18.6379 15.3112 18.7598 15.4316C18.8816 15.5519 19.0263 15.6474 19.1856 15.7125C19.3449 15.7776 19.5156 15.811 19.6879 15.8109C19.8603 15.8109 20.031 15.7774 20.1903 15.7122C20.3495 15.647 20.4942 15.5515 20.6161 15.4311C20.7379 15.3107 20.8346 15.1677 20.9004 15.0104C20.9663 14.8531 21.0001 14.6845 21 14.5143L20.9991 9.08691Z" fill="black"/>
</svg>
