<svg width="24" height="24" viewBox="0 0 24 24" fill="none" xmlns="http://www.w3.org/2000/svg">
<path d="M7.15034 10.0726L7.29625 10.7708C7.29625 11.0032 7.36977 11.16 7.51679 11.3912V11.5469L7.44328 11.7792L6.93092 12.0906L6.7839 12.1672L6.56336 12.0906L6.27042 11.7014L6.051 11.2367C5.46402 11.9349 4.73224 12.3217 3.92583 12.3217C3.26645 12.3217 2.75298 12.0906 2.46004 11.7025C2.09359 11.3912 1.87417 10.8487 1.87417 10.2283C1.87417 9.60676 2.09359 9.06423 2.53355 8.67621C2.97351 8.21035 3.55827 8.05585 4.36579 8.05585C4.91067 8.05263 5.45325 8.13085 5.97749 8.28819V7.74567C5.97749 7.12412 5.83046 6.7361 5.61104 6.50376C5.39162 6.19358 5.02517 6.11456 4.43819 6.11456L3.6329 6.19358C3.27944 6.28793 2.9375 6.41727 2.60707 6.5816H2.45893C2.38542 6.5816 2.3119 6.50376 2.3119 6.34808V5.96006L2.38542 5.72771C2.38542 5.64987 2.45893 5.57203 2.60595 5.57203L3.48587 5.18401L4.65761 5.02951C5.53753 5.02951 6.1234 5.26185 6.56225 5.64987C6.92981 6.11574 7.14923 6.7361 7.14923 7.58998L7.15034 10.0726ZM4.21877 11.3145L4.95166 11.1588C5.24459 11.081 5.46402 10.8487 5.68455 10.6163L5.90398 10.1505L5.97749 9.45225V9.14207C5.52054 9.03401 5.0534 8.98178 4.58521 8.98639C4.14525 8.98639 3.77881 9.06423 3.48587 9.29657C3.26645 9.45225 3.19294 9.76244 3.19294 10.1505C3.19294 10.5385 3.26645 10.7708 3.41236 11.0032C3.6329 11.1588 3.85232 11.3145 4.21877 11.3145ZM10.0808 12.0906L9.78787 12.0127L9.64085 11.7792L7.95564 5.72771L7.88212 5.41753L8.02915 5.26185H8.76204L9.05498 5.33969L9.202 5.64987L10.4473 10.7708L11.5466 5.64987L11.6936 5.33969L11.9866 5.26185H12.5724L12.8654 5.33969L13.0124 5.64987L14.1841 10.8487L15.4305 5.64869L15.5764 5.33851L15.8705 5.26067H16.5298C16.6757 5.26067 16.7493 5.33851 16.7493 5.41635V5.57085L16.6757 5.72654L14.917 11.778L14.7711 12.0894L14.4771 12.1661H13.8177L13.5247 12.0894L12.2795 6.73492L11.1801 11.7002L11.0331 12.0115L10.7402 12.0894L10.0808 12.0906ZM19.5338 12.3229C18.8506 12.3188 18.1761 12.16 17.5557 11.857L17.3351 11.6247L17.2616 11.469V11.081C17.2616 10.9265 17.3351 10.8487 17.4086 10.8487H17.5557L17.7751 10.9265C18.303 11.186 18.8778 11.3181 19.4603 11.3145C19.9003 11.3145 20.2667 11.1588 20.4861 11.0043C20.7791 10.8487 20.8537 10.6151 20.8537 10.305L20.7067 9.76244L19.9738 9.37324L18.8744 8.98639C18.3621 8.83071 17.9221 8.52053 17.7016 8.21035C17.5589 8.01286 17.4551 7.78709 17.3963 7.54639C17.3375 7.3057 17.3248 7.05495 17.3591 6.80898C17.3933 6.56302 17.4738 6.32682 17.5958 6.11436C17.7178 5.9019 17.8787 5.71749 18.0691 5.57203L18.8009 5.18401C19.2721 5.01418 19.7733 4.95993 20.2667 5.02951C20.5637 5.08927 20.857 5.16671 21.1466 5.26185L21.4384 5.41753L21.659 5.57203L21.7325 5.88222V6.19358C21.7325 6.42592 21.659 6.50376 21.5855 6.50376L21.2925 6.34808C20.844 6.18878 20.3734 6.11024 19.9003 6.11574C19.4603 6.11574 19.0939 6.11574 18.8744 6.27024C18.655 6.42592 18.5815 6.65944 18.5815 6.96844C18.5815 7.20196 18.655 7.35764 18.8009 7.51214C18.9479 7.66783 19.1674 7.82233 19.6073 7.97801L20.632 8.28819C21.1455 8.52053 21.512 8.75405 21.7325 9.06423C21.953 9.37441 22.0989 9.76244 22.0989 10.1493L21.8784 11.081L21.366 11.7025C21.1455 11.9349 20.8537 12.0906 20.5596 12.1672L19.5338 12.3229Z" fill="black"/>
<path fill-rule="evenodd" clip-rule="evenodd" d="M20.9261 16.1253C17.9369 18.2391 14.3662 19.2345 10.7815 18.9533C7.1968 18.6721 3.80367 17.1304 1.14128 14.5732C0.848342 14.3397 1.06776 14.1073 1.28719 14.263C4.19868 16.009 7.4481 17.0283 10.7879 17.2433C14.1277 17.4583 17.4698 16.8634 20.5596 15.5037C20.9261 15.3492 21.2925 15.8139 20.9261 16.1253Z" fill="black"/>
<path fill-rule="evenodd" clip-rule="evenodd" d="M21.8784 14.8834C21.5855 14.4954 19.8267 14.651 19.0939 14.8055C18.8009 14.8055 18.8009 14.5732 19.0203 14.4175C20.4126 13.4091 22.6848 13.7193 22.9042 14.0295C23.1983 14.4187 22.8307 16.8235 21.5855 17.9876C21.366 18.1421 21.1455 18.0642 21.219 17.8319C21.5866 17.0558 22.1713 15.2714 21.8784 14.8834Z" fill="black"/>
</svg>
