<svg width="24" height="24" viewBox="0 0 24 24" fill="none" xmlns="http://www.w3.org/2000/svg">
<path d="M13 21.0001C11.573 19.9741 9.40997 17.1461 8.99997 15.0001C8.51397 15.7701 7.49897 17.0001 6.99997 17.0001C5.50097 16.1121 6.42597 13.0271 6.99997 11.0001C5.40397 9.56707 4.53197 8.54207 4.49997 7.00007C1.14997 3.56007 4.05597 1.73007 6.99997 4.00007H7.99997C16.482 4.50007 14.421 12.0701 17 15.5001C19.295 16.0221 20.665 17.7541 22 19.0001C19.914 18.8001 19.216 18.6561 18.5 19.0001C18.978 20.6401 20.623 21.2001 22 22.0001M9 7.00006H9.01" stroke="black" stroke-width="2" stroke-linecap="round" stroke-linejoin="round"/>
</svg>
