<svg width="24" height="24" viewBox="0 0 24 24" fill="none" xmlns="http://www.w3.org/2000/svg">
<path fill-rule="evenodd" clip-rule="evenodd" d="M2.57471 3.51349C2.39999 3.85621 2.39999 4.30357 2.39999 5.20021V19.2796C2.39999 20.1762 2.39999 20.6236 2.57471 20.9663C2.72831 21.2677 2.97215 21.5125 3.27359 21.6652C3.61631 21.8399 4.06367 21.8399 4.96031 21.8399H19.0397C19.9363 21.8399 20.3837 21.8399 20.7264 21.6652C21.0278 21.5116 21.2726 21.2677 21.4253 20.9663C21.6 20.6236 21.6 20.1762 21.6 19.2796V5.20021C21.6 4.30357 21.6 3.85621 21.4253 3.51349C21.2717 3.21274 21.0271 2.96816 20.7264 2.81461C20.3837 2.63989 19.9363 2.63989 19.0397 2.63989H4.96031C4.06367 2.63989 3.61631 2.63989 3.27359 2.81461C2.97215 2.96821 2.72735 3.21205 2.57471 3.51349ZM17.6246 14.9634C19.3171 15.6498 19.8883 16.3842 20.0285 17.2607C20.1629 18.0143 19.9958 18.5039 19.9709 18.5759C19.3469 20.7119 15.8659 20.781 14.4749 19.3708L14.3549 19.2364C14.1283 18.9849 13.9709 18.8101 13.8221 18.4818L14.5651 18.0537L15.2794 17.6409C15.6701 18.2409 16.032 18.5721 16.681 18.7065C17.5632 18.814 18.4502 18.5106 18.2515 17.5746C18.1325 17.1311 17.545 16.8834 16.8595 16.5925C16.3622 16.3813 15.8141 16.15 15.3562 15.8063C14.2502 15.0633 13.991 13.2585 14.9002 12.2274C15.2035 11.8453 15.72 11.5612 16.2614 11.4239L16.8278 11.3509C17.9126 11.3298 18.5923 11.6159 19.0906 12.1727C19.2298 12.3129 19.3421 12.4645 19.5542 12.7929L19.2576 12.982C18.9408 13.1836 18.8064 13.269 18.1488 13.6943C18.0747 13.5268 17.9672 13.3761 17.8328 13.2517C17.6985 13.1272 17.5401 13.0315 17.3674 12.9705C16.8854 12.8245 16.2778 12.9829 16.152 13.4917C16.1088 13.6492 16.1174 13.7951 16.1866 14.0543C16.345 14.4143 16.8038 14.6101 17.2858 14.8146C17.399 14.8626 17.512 14.9122 17.6246 14.9634ZM11.0419 11.4642H12.8371C12.8371 12.0146 12.8381 12.565 12.84 13.1154C12.8419 14.2146 12.8438 15.3109 12.8381 16.4082C12.8387 16.5573 12.8403 16.7045 12.8429 16.8498C12.8563 17.6841 12.8688 18.4415 12.5203 19.0837C12.2371 19.6597 11.6976 20.037 11.0707 20.2194C10.1088 20.4402 9.18911 20.3145 8.50463 19.9036C8.04671 19.6223 7.68863 19.1903 7.44671 18.6921L8.17631 18.2457L8.90591 17.7973C8.94002 17.8388 8.96903 17.8843 8.99231 17.9327L9.00863 17.9615C9.19487 18.2735 9.35519 18.4943 9.67103 18.6498C9.98111 18.7554 10.6627 18.8226 10.9248 18.2773C11.0534 18.0565 11.0467 17.4354 11.039 16.6914C11.0365 16.5026 11.0349 16.3081 11.0342 16.1077C11.0342 15.3321 11.0355 14.558 11.0381 13.7855C11.0406 13.013 11.0419 12.2393 11.0419 11.4642Z" fill="black"/>
</svg>
