<svg width="24" height="24" viewBox="0 0 24 24" fill="none" xmlns="http://www.w3.org/2000/svg">
<path d="M22 11.9883H21.9775L18.3792 8.39L21.965 4.71167V3.2175L21.4242 2.6775H14.5925L14.0425 3.18167V4.0525L12.0125 2.0225V2L12 2.01167L11.9883 2V2.0225L10.9133 3.09833L10.465 2.64917H3.69583L3.16417 3.22583V4.79667L3.6775 5.31H4.2775V9.735L2.0225 11.9892H2L2.01167 12L2 12.0117H2.0225L4.2775 14.2667V19.6558L5.03333 20.0917H6.96833L8.51583 18.505L11.9875 21.9767V22L12 21.9883L12.0117 22V21.9767L14.1033 19.8858H14.5075C14.6 19.8858 14.6833 19.8275 14.7158 19.7367L14.8375 19.3817C14.8489 19.3485 14.852 19.313 14.8466 19.2783C14.8413 19.2436 14.8276 19.2107 14.8067 19.1825L16.025 17.9642L15.515 19.5992C15.5046 19.6324 15.5022 19.6675 15.508 19.7018C15.5139 19.7361 15.5277 19.7686 15.5484 19.7965C15.5691 19.8245 15.5961 19.8471 15.6272 19.8626C15.6584 19.8782 15.6927 19.8861 15.7275 19.8858H17.2475C17.2907 19.885 17.3328 19.8718 17.3687 19.8477C17.4047 19.8236 17.4329 19.7897 17.45 19.75L17.5875 19.4217C17.6002 19.388 17.6046 19.3518 17.6004 19.3161C17.5961 19.2803 17.5834 19.2461 17.5632 19.2163C17.5431 19.1866 17.5161 19.162 17.4845 19.1448C17.4529 19.1276 17.4176 19.1183 17.3817 19.1175H17.3192L18.0192 16.9142H19.0458L18.1992 19.5983C18.189 19.6315 18.1867 19.6666 18.1926 19.7009C18.1985 19.7351 18.2123 19.7674 18.233 19.7953C18.2537 19.8232 18.2806 19.8459 18.3117 19.8615C18.3427 19.877 18.3769 19.8851 18.4117 19.885H20.08C20.1717 19.885 20.2525 19.83 20.2867 19.7433L20.4233 19.3867C20.4357 19.3532 20.4397 19.3172 20.4352 19.2819C20.4307 19.2465 20.4177 19.2127 20.3973 19.1834C20.377 19.1541 20.3498 19.1302 20.3182 19.1137C20.2866 19.0971 20.2515 19.0884 20.2158 19.0883H20.095L21.0375 16.0275C21.0488 15.994 21.0517 15.9583 21.0461 15.9235C21.0404 15.8886 21.0263 15.8557 21.005 15.8275L20.6925 15.4075L20.69 15.4033C20.6691 15.3771 20.6427 15.3558 20.6125 15.3411C20.5824 15.3264 20.5494 15.3186 20.5158 15.3183H19.3192C19.2595 15.319 19.2026 15.3432 19.1608 15.3858L18.8275 15.7517H18.3075L18.2725 15.7133L21.9767 12.0092H22L21.9883 12L22 11.9883ZM10.1983 19.6158L11.5142 15.8583H11.0967L11.3442 15.605H12.7267L11.4242 19.4008H11.9433L11.8775 19.6158H10.1983ZM13.2775 13.3525L13.4025 13.4783L13.1783 14.2467L12.9908 14.435H12.1833L12.0325 14.2842L12.2917 13.5583L12.5317 13.3525H13.2775ZM6.65833 19.3575H5.23083L5.0125 19.2325V4.57583H3.9825L3.89917 4.4925V3.5125L4.01833 3.38417H10.1608L10.3383 3.5625V4.48583L10.22 4.63H9.32083V11.87L16.66 4.63H14.9217L14.7758 4.47333V3.50417L14.8767 3.41167H21.1183L21.2283 3.5225V4.41417L12.8158 13.0417H12.505C12.4928 13.0411 12.4811 13.0414 12.47 13.0425L12.4533 13.045C12.4165 13.0528 12.3823 13.07 12.3542 13.095L12.0683 13.3408L12.065 13.3433C12.0381 13.3692 12.0173 13.4008 12.0042 13.4358L11.7575 14.1275L6.65833 19.3575ZM18.965 16.0642L19.36 15.6317H20.4717L20.7292 15.9775L19.675 19.4H20.0858L20.0192 19.5742H18.5333L19.47 16.6042H17.7908L16.8933 19.43H17.2467L17.1858 19.575H15.8483L16.7708 16.6183H15.0242L14.1392 19.4008H14.5025L14.4425 19.575H13.0583L14.32 15.8583H13.8317L13.9075 15.6325H15.2825L15.715 16.08H16.47L16.8792 15.6183H17.7633L18.1708 16.0642H18.965Z" fill="black"/>
</svg>
