<svg width="24" height="24" viewBox="0 0 24 24" fill="none" xmlns="http://www.w3.org/2000/svg">
<path d="M18.984 3H4.296C3.95228 3 3.62264 3.13654 3.37959 3.37959C3.13654 3.62264 3 3.95228 3 4.296V18.984C3 19.1542 3.03352 19.3227 3.09865 19.48C3.16378 19.6372 3.25924 19.7801 3.37959 19.9004C3.49993 20.0208 3.6428 20.1162 3.80004 20.1813C3.95728 20.2465 4.12581 20.28 4.296 20.28H18.984C19.1542 20.28 19.3227 20.2465 19.48 20.1813C19.6372 20.1162 19.7801 20.0208 19.9004 19.9004C20.0208 19.7801 20.1162 19.6372 20.1813 19.48C20.2465 19.3227 20.28 19.1542 20.28 18.984V4.296C20.28 3.95228 20.1435 3.62264 19.9004 3.37959C19.6574 3.13654 19.3277 3 18.984 3ZM8.184 17.688H5.592V9.912H8.184V17.688ZM6.888 8.4C6.59094 8.39151 6.30297 8.29567 6.06007 8.12445C5.81717 7.95323 5.63012 7.71423 5.52227 7.43731C5.41443 7.16039 5.39058 6.85783 5.45371 6.56743C5.51684 6.27703 5.66414 6.01168 5.87722 5.80452C6.09029 5.59736 6.35969 5.45759 6.65175 5.40267C6.94381 5.34774 7.24558 5.3801 7.51936 5.4957C7.79313 5.6113 8.02677 5.80502 8.19108 6.05264C8.35538 6.30027 8.44308 6.59082 8.4432 6.888C8.43688 7.29454 8.26962 7.682 7.9781 7.96543C7.68657 8.24885 7.29456 8.40513 6.888 8.4ZM17.688 17.688H15.096V13.5926C15.096 12.3658 14.5776 11.9251 13.9037 11.9251C13.706 11.9381 13.5129 11.9901 13.3355 12.0781C13.158 12.166 12.9997 12.2882 12.8696 12.4375C12.7395 12.5869 12.6402 12.7605 12.5775 12.9483C12.5148 13.1362 12.4898 13.3346 12.504 13.5322C12.4998 13.5724 12.4998 13.6129 12.504 13.6531V17.688H9.912V9.912H12.4176V11.0352C12.6704 10.6508 13.0177 10.3377 13.4261 10.1259C13.8346 9.91412 14.2905 9.81072 14.7504 9.8256C16.0896 9.8256 17.6534 10.5686 17.6534 12.9878L17.688 17.688Z" fill="black"/>
</svg>
