<svg width="24" height="24" viewBox="0 0 24 24" fill="none" xmlns="http://www.w3.org/2000/svg">
<path d="M9.28064 20.9168V14.5328H7.2992V11.599H9.28064V10.3347C9.28064 7.06688 10.759 5.55392 13.9654 5.55392C14.5722 5.55392 15.6205 5.67296 16.0506 5.792V8.45024C15.6813 8.42226 15.311 8.41073 14.9408 8.41568C13.3664 8.41568 12.7597 9.01088 12.7597 10.5622V11.6H15.897L15.3594 14.5338H12.7635V21.1309C17.5174 20.5549 21.2 16.5075 21.2 11.6C21.2 6.29792 16.9021 2 11.6 2C6.29792 2 2 6.29792 2 11.6C2 16.1024 5.09888 19.879 9.28064 20.9168Z" fill="black"/>
</svg>
