<svg width="24" height="24" viewBox="0 0 24 24" fill="none" xmlns="http://www.w3.org/2000/svg">
<path d="M12 2C6.474 2 2 6.478 2 12.008C1.99889 14.0194 2.60438 15.9844 3.73739 17.6464C4.8704 19.3084 6.47827 20.59 8.351 21.324C8.261 20.527 8.186 19.325 8.381 18.454C8.561 17.672 9.553 13.48 9.553 13.48C9.553 13.48 9.253 12.879 9.253 11.992C9.253 10.595 10.063 9.558 11.054 9.558C11.91 9.558 12.315 10.204 12.315 10.971C12.315 11.827 11.775 13.12 11.49 14.306C11.25 15.298 11.985 16.11 12.976 16.11C14.748 16.11 16.114 14.231 16.114 11.527C16.114 9.137 14.387 7.455 11.94 7.455C9.102 7.455 7.42 9.588 7.42 11.797C7.42 12.654 7.75 13.585 8.171 14.081C8.246 14.186 8.261 14.261 8.246 14.367C8.171 14.682 8.006 15.358 7.976 15.494C7.931 15.674 7.826 15.719 7.646 15.629C6.399 15.043 5.619 13.225 5.619 11.752C5.619 8.597 7.916 5.696 12.225 5.696C15.694 5.696 18.381 8.176 18.381 11.466C18.381 14.908 16.204 17.688 13.201 17.688C12.195 17.688 11.234 17.162 10.904 16.546L10.288 18.92C10.063 19.791 9.448 20.873 9.042 21.55C9.973 21.835 10.964 22 12 22C17.526 22 22 17.522 22 11.992C22 6.478 17.526 2 12 2Z" fill="black"/>
</svg>
