<svg width="24" height="24" viewBox="0 0 24 24" fill="none" xmlns="http://www.w3.org/2000/svg">
<path fill-rule="evenodd" clip-rule="evenodd" d="M19.9558 4.48768C20.8237 4.75648 21.5062 5.54464 21.7386 6.5488C22.1581 8.36608 22.16 12.16 22.16 12.16C22.16 12.16 22.16 15.9539 21.7376 17.7712C21.5062 18.7754 20.8237 19.5635 19.9558 19.8323C18.3843 20.32 12.08 20.32 12.08 20.32C12.08 20.32 5.77568 20.32 4.20416 19.8323C3.33632 19.5635 2.65376 18.7754 2.42144 17.7712C2 15.9539 2 12.16 2 12.16C2 12.16 2 8.36608 2.4224 6.5488C2.65376 5.54464 3.33632 4.75648 4.20416 4.48768C5.77568 4 12.08 4 12.08 4C12.08 4 18.3843 4 19.9558 4.48768ZM15.4534 12.16L9.96608 15.328V8.992L15.4534 12.16Z" fill="black"/>
</svg>
