<svg width="24" height="24" viewBox="0 0 24 24" fill="none" xmlns="http://www.w3.org/2000/svg">
<path d="M19.2688 5.77583C18.9545 5.3591 18.6068 4.96868 18.2291 4.60847C17.9884 4.37238 17.7325 4.15238 17.463 3.94991C16.9884 3.54653 16.4561 3.21647 15.8838 2.97071C14.6684 2.37221 13.3385 2.04187 11.9843 2.00207C9.75611 1.95791 8.21627 2.62799 7.34459 3.16751C7.03639 3.35152 6.7498 3.56953 6.4902 3.81743C8.02227 2.96038 9.79218 2.62669 11.5312 2.86703C14.9248 3.31343 18.0284 5.95823 18.0284 9.44783C18.0284 12.1339 15.9568 14.1845 13.5308 14.0366C9.92795 13.8206 9.01883 10.1179 10.8937 8.51855C10.3888 8.40911 9.43836 8.62319 8.77692 9.61295C8.18364 10.5029 8.21723 11.8757 8.58395 12.8501C8.34929 12.3699 8.19029 11.8563 8.11259 11.3275C7.63739 8.11823 9.78779 5.38031 11.7616 4.70351C10.6969 3.77231 8.03004 3.83567 6.04475 5.29871C4.89275 6.14735 4.06715 7.35311 3.62939 8.78831C3.75538 7.65605 4.09239 6.55742 4.62299 5.54927C3.95867 5.89391 3.11291 6.98351 2.69531 7.99247C2.0882 9.53299 1.87376 11.2003 2.07131 12.8443L2.08379 12.9538C2.09275 13.0414 2.10331 13.1291 2.11547 13.2168C2.36422 14.6514 2.93475 16.011 3.78421 17.1935C4.63367 18.376 5.74 19.3506 7.02011 20.0443C8.94982 21.0887 11.1791 21.4406 13.3367 21.0413C15.4942 20.642 17.4499 19.5156 18.878 17.8498C19.827 16.7445 20.513 15.4386 20.8846 14.03C21.2563 12.6215 21.3038 11.1471 21.0236 9.71759C20.7444 8.28802 20.1437 6.94034 19.2688 5.77583Z" fill="black"/>
</svg>
