<svg width="24" height="24" viewBox="0 0 24 24" fill="none" xmlns="http://www.w3.org/2000/svg">
<path d="M8.96364 17.4688C5.4257 18.3265 11.1047 20.1018 15.6044 18.4661C15.1673 18.319 14.7459 18.1388 14.345 17.9276C12.7827 18.2372 11.169 18.298 9.58192 18.1071C8.08202 17.9575 8.96364 17.4688 8.96364 17.4688ZM15.0663 15.7932C13.0511 16.1744 10.9774 16.262 8.92929 16.0526C7.42939 15.9129 8.41406 15.2846 8.41406 15.2846C4.52118 16.4016 10.578 17.6782 16.0166 16.2819C15.663 16.1808 15.3388 16.014 15.0663 15.7932ZM17.1501 6.0891C17.1501 6.0891 9.28423 7.79456 13.0397 11.5645C13.1862 11.7175 13.2954 11.8949 13.3606 12.0859C13.4258 12.2769 13.4456 12.4775 13.4188 12.6753C13.392 12.8732 13.3192 13.0643 13.2048 13.2368C13.0904 13.4093 12.9368 13.5598 12.7535 13.6789C12.7535 13.6789 15.5701 12.4123 14.2763 10.8265C12.9825 9.24071 12.1466 8.61238 17.1501 6.0891Z" fill="black"/>
<path d="M18.9935 19.0944C18.9935 19.0944 19.6347 19.5532 18.2722 19.9123C15.6731 20.6004 7.47519 20.8099 5.19671 19.9123C4.37233 19.6031 5.90658 19.1742 6.34167 19.0845C6.59947 19.026 6.86538 18.9991 7.1317 19.0047C6.21572 18.4462 1.23513 20.1018 4.60132 20.5805C13.8183 21.9468 21.3636 20.022 18.9935 19.0944ZM15.8334 14.2274C16.1701 14.0419 16.5222 13.8786 16.8868 13.7387C16.8868 13.7387 15.1579 14.008 13.4519 14.1377C11.6174 14.2924 9.77097 14.3091 7.93317 14.1875C5.20816 13.8783 9.38728 12.9708 9.38728 12.9708C8.12959 12.9619 6.88815 13.2185 5.76919 13.7188C3.41056 14.746 11.5971 15.1948 15.8334 14.2274ZM16.8753 16.6609C16.8502 16.6947 16.8193 16.725 16.7837 16.7507C22.5086 15.4342 20.4247 12.1131 17.6768 12.9508C17.5249 12.9988 17.3932 13.0858 17.299 13.2002C17.299 13.2002 17.4593 13.1503 17.7913 13.0805C19.1882 12.8311 21.1346 14.7061 16.8753 16.6609ZM11.9749 12.9708C11.1276 11.3052 8.24231 9.83911 11.9749 7.27594C16.6578 4.07447 14.2648 2 14.2648 2C15.2266 5.3012 10.8299 6.29855 9.29568 8.35307C8.23086 9.75932 9.83381 11.2653 11.9749 12.9708Z" fill="black"/>
<path d="M17.0242 21.2687C13.5649 21.7837 10.035 21.8308 6.55921 21.4083C6.55921 21.4083 7.0859 21.7873 9.81091 21.9369C13.9442 22.1663 20.2873 21.8172 20.4476 20.1117C20.4476 20.1117 20.1499 20.75 17.0242 21.2687Z" fill="black"/>
</svg>
