<svg width="24" height="24" viewBox="0 0 24 24" fill="none" xmlns="http://www.w3.org/2000/svg">
<path d="M14.6339 1.00586L14.7013 1.01466L14.7701 1.02638L14.8053 1.03371L14.839 1.04104L14.8727 1.0513L14.9078 1.06156L14.9767 1.08501L15.0104 1.09967L15.0455 1.11432L15.1115 1.14364L15.1452 1.15829L15.2096 1.19347L15.2741 1.23158L15.3664 1.2946L15.4543 1.36496L15.5099 1.41479L15.5627 1.46755L15.5876 1.49687L15.6022 1.51446L15.6169 1.53351L15.6315 1.5511L15.6462 1.57162L15.6608 1.58921L15.6901 1.62732L15.7048 1.64783L15.7194 1.66689L15.7443 1.70646L15.7707 1.75043L15.7941 1.7944L15.8176 1.84131L15.8293 1.86622L15.8512 1.91899L15.8615 1.9483L15.8761 1.97761L15.8864 2.00693L15.8981 2.03624L15.9084 2.06995L15.9201 2.10366L15.9303 2.13738L15.9538 2.21066L15.9655 2.24877L15.9772 2.28981L15.9919 2.33378L16.0842 2.67821L16.0988 2.73684L16.1193 2.81599L16.1384 2.8966L16.1735 3.06223L16.1882 3.14724L16.2058 3.23078L16.2204 3.31872L16.2468 3.4946L16.2614 3.58255L16.2731 3.67488L16.2834 3.76576L16.2936 3.85956L16.3024 3.95336L16.3112 4.04863L16.3186 4.1439L16.3244 4.24211L16.3317 4.34031L16.3464 4.64224L16.3522 5.06289L16.3478 5.38974L16.3391 5.61399L16.3361 5.72831L16.3288 5.84264L16.3229 5.95989L16.3083 6.1944L16.298 6.31459L16.2893 6.43478L16.2512 6.84517L16.2482 6.88328L16.2438 6.92139L16.2409 6.96096L16.2351 7.03718L16.2292 7.11046L16.2263 7.14564L16.2219 7.21599L16.2189 7.24823L16.2175 7.28195V7.31566L16.2145 7.34497L16.2131 7.37722V7.43584L16.2087 7.49007V7.51499L16.2072 7.54137L16.2043 7.58827V7.68794L16.2028 7.71726L16.2043 7.73191V7.77881L16.2058 7.78321L16.2072 7.78614H16.2116L16.216 7.78761H16.3142L16.3332 7.78614H16.3991L16.4489 7.78321L16.5031 7.78028L16.5324 7.77881H16.594L16.6613 7.77295H16.6965L16.7302 7.77002L16.7668 7.76709L16.8049 7.76416L16.8445 7.76123H16.884L16.9221 7.75829L16.9631 7.75536L17.0071 7.75097L17.051 7.74803H17.092L17.1799 7.74217L17.2239 7.73777L17.3147 7.73045L17.3586 7.72605L17.5637 7.71139L17.7644 7.69674L17.9636 7.68501L18.3504 7.67035L18.5408 7.66596L18.7254 7.66302H19.0872L19.263 7.66596L19.4344 7.67035L19.7669 7.68501L19.9281 7.69674L20.0848 7.70846L20.2386 7.72312L20.3895 7.73777L20.536 7.75536L20.6781 7.77442L20.8158 7.7964L20.9521 7.81985L21.081 7.84477L21.2084 7.87408L21.33 7.9034L21.4472 7.93271L21.5615 7.96496L21.6713 8.00013L21.7768 8.03531L21.8793 8.07342L21.9775 8.11299L22.0698 8.15403L22.1577 8.198L22.2426 8.24197L22.3217 8.28887L22.395 8.33724L22.4682 8.38854L22.5342 8.43984L22.5957 8.49261L22.6514 8.5483L22.7041 8.60693L22.7246 8.63185L22.7641 8.68021L22.7817 8.70366L22.7993 8.72858L22.814 8.7535L22.8286 8.77695L22.8579 8.82092L22.8726 8.84584L22.9092 8.91472L22.9209 8.93818L22.9311 8.96016L22.9399 8.98508L22.9634 9.05396L22.978 9.10233L22.9868 9.1507L22.9912 9.17415L22.9941 9.20053L22.9971 9.22398V9.2489L23 9.30167V9.32805L22.9971 9.38081L22.9956 9.41013L22.9927 9.43944L22.9912 9.46875L22.9824 9.52738L22.9766 9.5567L22.9707 9.58894L22.9663 9.61825L22.9546 9.66955L22.9399 9.72085L22.9224 9.77362L22.9033 9.82638L22.8813 9.88061L22.8564 9.93631L22.8301 9.99054L22.8008 10.0492L22.7685 10.1049L22.7334 10.1635L22.6968 10.2221L22.6587 10.2807L22.5708 10.398L22.477 10.5182L22.4243 10.5768L22.373 10.6384L22.2002 10.8201L22.1386 10.8831L22.0097 11.0063L21.9423 11.0693L21.8017 11.1924L21.7285 11.2554L21.5776 11.3785L21.4999 11.4416L21.4194 11.5002L21.1703 11.6834L21.0824 11.742L20.9037 11.8593L20.8129 11.9179L20.7206 11.9765L20.6649 12.0117L20.6063 12.0469L20.5448 12.0835L20.4833 12.1217L20.4174 12.1598L20.35 12.1979L20.2093 12.277L20.1361 12.321L20.0629 12.3606L19.9896 12.4016L19.9164 12.4456L19.7655 12.5276L19.6893 12.5672L19.6161 12.6083L19.5399 12.6478L19.3934 12.7255L19.3201 12.7636L19.2469 12.8003L19.1766 12.8369L19.0418 12.9043L18.9158 12.9659L18.8543 12.9952L18.7986 13.0245L18.7444 13.0494L18.6932 13.0744L18.6463 13.0963L18.6023 13.1154L18.5628 13.13L18.5247 13.1447L18.4954 13.1594L18.4661 13.1682L18.4412 13.1769L18.4236 13.1813L18.409 13.1843L18.4016 13.1813L18.3958 13.1755L18.3899 13.1667L18.3855 13.155L18.3811 13.1403L18.3782 13.1257L18.3767 13.1066L18.3738 13.0861V13.0641L18.3753 13.0392V13.0099L18.3767 12.9835L18.3797 12.9542L18.3811 12.9249L18.3885 12.8604L18.3929 12.8281L18.4075 12.7255L18.4134 12.6903L18.428 12.6215L18.4353 12.5863L18.45 12.5203L18.4588 12.4881L18.4661 12.4558L18.4764 12.4265L18.4837 12.3972L18.4939 12.3679L18.5042 12.3415L18.5218 12.2946L18.5306 12.2726L18.5408 12.2536L18.5511 12.236L18.5599 12.2213L18.5701 12.2067L18.5789 12.1979L18.5877 12.1905L18.6023 12.1847L18.617 12.1773L18.6243 12.1715L18.6346 12.1656L18.6434 12.1612L18.6536 12.1568L18.6653 12.151L18.6888 12.1363L18.7151 12.1246L18.7298 12.1158L18.7444 12.1099L18.7737 12.0923L18.8206 12.0689L18.8528 12.0513L18.8865 12.0322L18.9217 12.0147L18.9759 11.9853L18.9935 11.9751L19.0301 11.956L19.0491 11.9458L19.0858 11.9267L19.1063 11.9179L19.1238 11.9077L19.1429 11.8989L19.1619 11.8886L19.181 11.8798L19.3817 11.7772L19.4798 11.7245L19.578 11.6688L19.6747 11.616L19.7699 11.5632L19.8636 11.509L20.0482 11.3991L20.1361 11.3463L20.3119 11.2364L20.3969 11.1807L20.4804 11.1279L20.5639 11.0722L20.6444 11.018L20.7235 10.9623L20.8012 10.9095L20.8773 10.8553L21.0238 10.7468L21.0927 10.6955L21.1601 10.6413L21.226 10.5885L21.2905 10.5358L21.4135 10.4332L21.4721 10.3819L21.5805 10.2822L21.6787 10.184L21.7665 10.0887L21.8076 10.0418L21.8471 9.99787L21.8823 9.9539L21.916 9.90993L21.9453 9.86596L21.998 9.78095L22.0185 9.73991L22.039 9.69594L22.0566 9.65636L22.0712 9.61679L22.083 9.57722L22.0918 9.53911L22.0976 9.501L22.1005 9.46289V9.38961L22.0962 9.35296L22.0888 9.31779L22.0786 9.28554L22.0669 9.25183L22.0522 9.21812L22.0346 9.18588L22.0141 9.15656L21.9672 9.095L21.9086 9.03638L21.8383 8.98068L21.8002 8.9543L21.7592 8.92792L21.6713 8.87808L21.5717 8.82971L21.5175 8.80773L21.4589 8.78574L21.4003 8.76522L21.3388 8.7447L21.2758 8.72418L21.2084 8.70366L21.1396 8.68461L21.0663 8.66702L20.9931 8.65237L20.9169 8.63771L20.848 8.62305L20.7748 8.60839L20.6972 8.59667L20.6122 8.58787L20.5243 8.57615L20.432 8.56735L20.3368 8.55856L20.2386 8.55123L20.1361 8.5439L20.0306 8.53658L19.9222 8.53071L19.6996 8.52192L19.5824 8.51752L19.4652 8.51459H19.348L19.1033 8.51166L18.9818 8.51312H18.8572L18.4808 8.51752L18.2303 8.52632L18.1043 8.52925L17.9812 8.53658L17.8567 8.54097L17.7337 8.54977L17.6135 8.5571L17.4919 8.56589L17.3747 8.57322L17.1448 8.59374L17.0334 8.604L16.9236 8.61572L16.8181 8.62745L16.613 8.65676L16.5178 8.67142L16.0168 8.74763L15.8117 9.89527L15.5978 11.0429L16.594 12.2067L16.7463 12.3899L16.8972 12.5702L17.0437 12.746L17.1872 12.9219L17.3264 13.0978L17.4626 13.2708L17.5945 13.4408L17.7234 13.6093L17.8508 13.775L17.9739 13.9406L18.094 14.1018L18.2112 14.263L18.3255 14.4243L18.4353 14.5811L18.5423 14.7379L18.7474 15.0457L18.8455 15.1967L18.9407 15.3462L19.0316 15.4927L19.1195 15.6393L19.2044 15.7829L19.2865 15.9266L19.3656 16.0658L19.4417 16.2065L19.515 16.3458L19.5853 16.4821L19.6512 16.6169L19.7142 16.7488L19.7757 16.8807L19.8343 17.0127L19.8885 17.1416L19.9413 17.2736L19.9896 17.3996L20.0365 17.5257L20.0804 17.6517L20.1215 17.7748L20.1581 17.8965L20.1918 18.0181L20.2137 18.0943L20.2313 18.1676L20.2518 18.2409L20.2665 18.3113L20.2811 18.3787L20.2958 18.4446L20.3104 18.5091L20.3221 18.5736L20.3339 18.6322L20.3427 18.6909L20.3529 18.7495L20.3588 18.8081L20.3646 18.8624L20.369 18.9166L20.372 18.9694L20.3749 19.0192V19.1174L20.3705 19.2112L20.3661 19.2552L20.3602 19.2991L20.3529 19.3431L20.3353 19.4281L20.3236 19.4677L20.309 19.5087L20.2797 19.5849L20.2621 19.6231L20.2445 19.6597L20.2255 19.6978L20.205 19.7344L20.161 19.8077L20.1361 19.8429L20.1097 19.8781L20.0804 19.9133L20.0511 19.947L20.0218 19.9821L19.9779 20.0305L19.9339 20.0745L19.8871 20.1185L19.8373 20.1566L19.786 20.1917L19.7333 20.2255L19.6776 20.2548L19.619 20.2841L19.5604 20.309L19.4989 20.3295L19.4359 20.3486L19.3011 20.3779L19.2279 20.3881L19.1546 20.3955H18.9232L18.8411 20.3896L18.7576 20.3837L18.6697 20.372L18.5818 20.3574L18.491 20.3427L18.3943 20.3237L18.2991 20.3017L18.1995 20.2782L17.9944 20.2196L17.8875 20.1873L17.7776 20.1507L17.6648 20.1126L17.5505 20.0686L17.4333 20.0246L17.3132 19.9777L17.1902 19.9279L17.0642 19.8737L16.8005 19.7564L16.6657 19.6934L16.5295 19.6274L16.4812 19.6055L16.4313 19.5805L16.3771 19.5512L16.3186 19.5219L16.257 19.4897L16.194 19.453L16.1281 19.4164L16.0607 19.3783L15.9904 19.3372L15.7707 19.2053L15.6974 19.1584L15.6198 19.1145L15.4674 19.0192L15.3898 18.9723L15.3122 18.9239L15.2389 18.8741L15.1627 18.8272L15.0162 18.7334L14.943 18.685L14.8742 18.641L14.8068 18.5971L14.7408 18.5531L14.6793 18.5091L14.6207 18.4681L14.5621 18.4285L14.5094 18.3933L14.4596 18.3567L14.4156 18.323L14.3717 18.2937L14.3351 18.2644L14.3028 18.2394L14.2765 18.2145L14.253 18.1955L14.2384 18.1779L14.2267 18.1632L14.2208 18.153L14.2223 18.1471L14.2252 18.1383L14.2325 18.131V18.1251L14.2413 18.1163L14.256 18.1061L14.2853 18.0826L14.294 18.0767L14.3043 18.0694L14.3131 18.0636L14.3233 18.0577L14.3336 18.0504L14.3453 18.043L14.357 18.0372L14.3673 18.0298L14.3907 18.0152L14.4054 18.0079L14.42 18.002L14.4317 17.9932L14.4903 17.9639L14.505 17.9551L14.5196 17.9478L14.5343 17.9419L14.5665 17.9272L14.5958 17.9126L14.9796 17.7514L16.3171 18.5355L16.4519 18.6117L16.5837 18.685L16.7126 18.7583L16.8401 18.8272L16.9631 18.8917L17.0847 18.9547L17.3191 19.072L17.4333 19.1262L17.5417 19.176L17.6502 19.2244L17.7556 19.2684L17.8582 19.3094L17.9578 19.349L18.0545 19.3841L18.1468 19.4164L18.239 19.4457L18.3269 19.4721L18.4119 19.4955L18.4939 19.5161L18.573 19.5336L18.6492 19.5483L18.7225 19.56L18.7928 19.5703L18.8602 19.5747H18.9861L19.0447 19.5703L19.1004 19.5644L19.1517 19.5556L19.2015 19.541L19.2484 19.5263L19.2923 19.5073L19.3319 19.4853L19.3685 19.4604L19.4022 19.434L19.4315 19.4017L19.4578 19.368L19.4813 19.3299L19.5135 19.2654L19.537 19.1921L19.5516 19.1145L19.5604 19.0265L19.5633 18.9342L19.5589 18.8316L19.5472 18.726L19.5296 18.6117L19.5033 18.4945L19.474 18.3684L19.4359 18.2365L19.3919 18.1002L19.3407 17.958L19.285 17.8115L19.222 17.659L19.1531 17.5022L19.0799 17.341L18.9993 17.1739L18.9114 17.0024L18.8191 16.8294L18.7225 16.6492L18.6199 16.4674L18.5115 16.2813L18.3987 16.0907L18.1585 15.7023L18.031 15.5045L17.8992 15.3037L17.763 15.0985L17.6209 14.8933L17.3235 14.477L17.1697 14.2674L17.0085 14.0534L16.8474 13.8409L16.6789 13.624L16.509 13.4085L16.3332 13.1916L16.1545 12.9747L15.9743 12.7548L15.3634 12.0366L15.0631 13.1418L14.9547 13.5331L14.8434 13.9215L14.7291 14.3055L14.6119 14.6822L14.4947 15.056L14.3717 15.4224L14.2486 15.7829L14.1212 16.1391L13.9923 16.4879L13.8634 16.8324L13.7315 17.1695L13.5997 17.4993L13.4649 17.8217L13.3272 18.1354L13.191 18.4432L13.0518 18.7436L12.9112 19.0338L12.7705 19.3167L12.627 19.5923L12.4863 19.859L12.3428 20.1141L12.1992 20.3632L12.0557 20.6021L11.9121 20.8308L11.7656 21.0506L11.6235 21.2588L11.48 21.4566L11.3379 21.6442L11.1943 21.8201L11.0522 21.9857L10.9116 22.1396L10.7724 22.2818L10.6318 22.4108L10.4941 22.528L10.3578 22.635L10.2231 22.7288L10.0883 22.8095L9.95645 22.8769L9.82754 22.9311L9.69863 22.9722L9.66933 22.9795L9.6078 22.9912L9.57557 22.9941L9.51258 23H9.41297L9.37928 22.9971L9.34412 22.9941L9.31043 22.9897L9.27673 22.9839L9.20788 22.9692L9.17419 22.9604L9.13903 22.9516L9.10534 22.9399L9.07165 22.9296L9.0028 22.9033L8.90025 22.8593L8.8358 22.827L8.8021 22.8095L8.70688 22.7508L8.67759 22.7303L8.58969 22.6644L8.50619 22.5911L8.47982 22.5662L8.43002 22.5105L8.40365 22.4811L8.37435 22.4445L8.34798 22.4064L8.32308 22.3654L8.29378 22.3214L8.26888 22.2745L8.24251 22.2261L8.21614 22.1733L8.16633 22.062L8.11653 21.9418L8.09309 21.8787L8.04621 21.7468L7.99933 21.6091L7.97882 21.5358L7.95685 21.4625L7.91583 21.313L7.87775 21.1576L7.8587 21.0785L7.82501 20.9173L7.79278 20.7531L7.77813 20.671L7.75176 20.5069L7.74004 20.4233L7.71954 20.2592L7.69756 20.0115L7.68584 19.8502L7.68438 19.7711L7.68145 19.7125L7.67852 19.648V18.9181L7.68291 18.7334L7.68438 18.6396L7.68731 18.5458L7.68877 18.4505L7.69756 18.1691L7.70489 17.9859L7.70928 17.8979L7.71221 17.81L7.71661 17.725L7.71954 17.6429L7.7254 17.5638L7.73419 17.4172L7.73858 17.3483L7.74297 17.2853L7.74737 17.2267L7.75176 17.1724L7.75762 17.1226L7.76202 17.0786L7.76641 17.0405L7.77227 17.0083L7.77667 16.9819L7.78106 16.9628L7.78546 16.9511L7.78985 16.9452L7.79278 16.9467L7.79571 16.9452L7.80011 16.9482H7.8045L7.8089 16.9511L7.81329 16.9526L7.82794 16.9599L7.83233 16.9643L7.85577 16.9789L7.8631 16.9833L7.88068 16.9951L7.89093 17.0009L7.90119 17.0083L7.94513 17.0376L7.95978 17.0464L7.97004 17.0537L7.98468 17.0625L7.99933 17.0728L8.01105 17.0801L8.04035 17.1006L8.055 17.1094L8.09895 17.1387L8.14289 17.171L8.17219 17.1915L8.20149 17.2149L8.56772 17.4861L8.53256 18.3508L8.52817 18.4446L8.5267 18.5414V18.6366L8.52377 18.8272V19.0177L8.52817 19.3006L8.53403 19.4882L8.53842 19.5805L8.54135 19.6714L8.54721 19.7594L8.55307 19.8502L8.57065 20.1141L8.5853 20.2811L8.59409 20.3632L8.60141 20.4438L8.62045 20.5992L8.64096 20.7487L8.65268 20.8191L8.66294 20.8879L8.67466 20.9554L8.68638 21.0184L8.70103 21.0829L8.71567 21.1415L8.72739 21.2001L8.74204 21.2544L8.75669 21.3071L8.77134 21.357L8.80064 21.4449L8.82994 21.5255L8.86216 21.6017L8.89146 21.675L8.92369 21.741L8.95738 21.8025L8.99254 21.8582L9.0277 21.911L9.06286 21.9579L9.10094 22.0019L9.13903 22.04L9.18005 22.0722L9.2196 22.1015L9.26062 22.1235L9.30457 22.1426L9.34851 22.1543L9.39246 22.1631L9.43641 22.166H9.48475L9.53309 22.1587L9.5829 22.147L9.63564 22.1294L9.68691 22.1089L9.74257 22.0825L9.79824 22.0502L9.85684 22.0151L9.91543 21.9711L9.97696 21.9242L10.0385 21.8729L10.1029 21.8143L10.1674 21.7527L10.2333 21.6853L10.3022 21.612L10.3725 21.5343L10.4457 21.4522L10.519 21.3643L10.5922 21.272L10.6699 21.1737L10.7504 21.0712L10.831 20.9642L10.9145 20.8513L11.0024 20.7238L11.0947 20.5919L11.1855 20.4526L11.2778 20.3105L11.3686 20.161L11.4609 20.0071L11.5547 19.8458L11.7407 19.5117L11.833 19.3358L11.9253 19.1555L12.019 18.9708L12.2022 18.5897L12.2944 18.3919L12.3867 18.1911L12.479 17.9859L12.5713 17.7778L12.6621 17.5638L12.753 17.3483L12.8409 17.1284L12.9288 16.9057L13.0166 16.6799L13.1045 16.4513L13.2803 15.9823L13.3682 15.7448L13.4517 15.5045L13.5367 15.2641L13.6202 15.0193L13.7022 14.7746L13.7828 14.5254L13.8619 14.2762L13.9395 14.0271L14.0157 13.7735L14.0919 13.5185L14.1651 13.2634L14.2384 13.0069L14.379 12.491L14.7013 11.2935L13.9542 10.5387L13.5733 10.1576L13.5147 10.1019L13.4883 10.0726L13.459 10.0462L13.4297 10.0169L13.4034 9.99201L13.377 9.96269L13.3243 9.91139L13.3008 9.88648L13.2042 9.7956L13.1836 9.77508L13.1631 9.7531L13.1221 9.71499L13.1045 9.69594L13.087 9.67835L13.0694 9.66369L13.0254 9.61972L13.0108 9.608L12.6973 9.32219L9.99454 10.1166L9.77773 10.184L9.56386 10.2485L9.35437 10.3159L9.14929 10.3804L8.94713 10.4464L8.7479 10.5109L8.5516 10.5768L8.35824 10.6428L8.1678 10.7087L7.79864 10.8377L7.61846 10.9051L7.44267 10.9696L7.26688 11.0356L7.09402 11.103L6.92556 11.169L6.75856 11.2364L6.59302 11.3053L6.27074 11.4401L6.11253 11.509L5.95725 11.5779L5.80344 11.6468L5.50166 11.7875L5.20868 11.934L4.92156 12.0806L4.6403 12.2301L4.50113 12.3063L4.3649 12.3796L4.22866 12.4588L3.94007 12.6024L3.80823 12.683L3.67639 12.7651L3.55041 12.8428L3.43028 12.9205L3.31309 12.9981L3.20176 13.0744L3.09628 13.1476L2.99374 13.2209L2.89413 13.2942L2.80184 13.3675L2.71394 13.4378L2.62898 13.5111L2.54987 13.5815L2.47663 13.6489L2.40631 13.7178L2.34039 13.7837L2.2818 13.8497L2.2232 13.9142L2.17193 13.9772L2.12505 14.0402L2.0811 14.1018L2.04302 14.1604L2.01079 14.2191L1.98149 14.2777L1.95805 14.3363L1.93901 14.392L1.92436 14.4448L1.9141 14.4975L1.90824 14.5488V14.6001L1.91264 14.6485L1.92289 14.6969L1.93754 14.7408L1.95659 14.7848L1.98149 14.8288L2.01079 14.8728L2.04448 14.9138L2.08257 14.9519L2.12651 14.9885L2.17486 15.0252L2.22759 15.0604L2.28619 15.0926L2.33014 15.1161L2.37701 15.138L2.42829 15.16L2.48102 15.182L2.53522 15.2011L2.59382 15.2216L2.65535 15.2406L2.71687 15.2582L2.78279 15.2773L2.85164 15.2949L2.92196 15.3095L3.06845 15.3388L3.14463 15.3535L3.22373 15.3682L3.30577 15.3828L3.38927 15.3945L3.47423 15.4063L3.56213 15.418L3.65002 15.4282L3.83313 15.4473L3.92689 15.4546L4.12026 15.4693L4.2184 15.4752L4.31802 15.4795L4.42056 15.4854L4.62858 15.4913L4.83953 15.4942H5.16474L5.2746 15.4913L5.38594 15.4898L5.49727 15.4869L5.61007 15.4825L5.72433 15.4766L5.74484 15.4752L5.76681 15.4737H5.78732L5.8093 15.4722L5.85031 15.4693L5.89133 15.4678H6.01438L6.03489 15.4664L6.11107 15.4649L6.12865 15.4634H6.16673L6.18138 15.462H6.21654L6.23119 15.4605H6.24584L6.27514 15.459L6.28978 15.4576L6.30443 15.459H6.31615L6.32787 15.4576H6.40112L6.41577 15.462L6.43042 15.4678L6.44507 15.4766L6.45971 15.4869L6.47729 15.4986L6.49487 15.5133L6.51538 15.5279L6.53735 15.5426L6.55786 15.5602L6.57984 15.5807L6.60328 15.6027L6.69557 15.695L6.719 15.7199L6.78932 15.7991L6.81276 15.8284L6.8567 15.8826L6.87721 15.909L6.91823 15.9603L6.93581 15.9867L6.95339 16.0116L6.98562 16.0585L7.00027 16.0819L7.01492 16.1025L7.03396 16.1406L7.04128 16.1582L7.04714 16.1728L7.05154 16.1875L7.053 16.2021V16.2124L7.05007 16.2212L7.04568 16.2256L7.00906 16.2358H6.99734L6.96804 16.2388L6.92409 16.2476H6.90505L6.86403 16.252L6.84352 16.2549L6.82008 16.2564L6.79664 16.2593H6.77174L6.72047 16.2637L6.66627 16.2696L6.63697 16.271L6.60767 16.2754L6.51685 16.2813L6.48462 16.2842L6.4187 16.2901H6.385L6.35131 16.293L6.24584 16.2989H6.20922L6.17552 16.3003L6.1389 16.3033L5.98801 16.3106L5.84152 16.3194L5.69503 16.3238L5.55147 16.3296L5.40938 16.334L5.13104 16.337H4.86296L4.73112 16.334H4.59928L4.47183 16.3282L4.34439 16.3238L4.09975 16.3091L3.97962 16.2989L3.86243 16.2901L3.74524 16.2783L3.51964 16.252L3.30284 16.2227L3.20029 16.208L2.99521 16.1699L2.89706 16.1494L2.80037 16.1274L2.70808 16.1054L2.61579 16.0805L2.44001 16.0306L2.35504 16.0013L2.27447 15.972L2.19537 15.9427L2.11773 15.9134L2.04155 15.8811L1.9683 15.8474L1.89799 15.8152L1.8306 15.78L1.76468 15.7419L1.70609 15.7082L1.64749 15.6716L1.59182 15.6349L1.54055 15.5983L1.49074 15.5616L1.4424 15.5221L1.35451 15.4458L1.31349 15.4063L1.27687 15.3667L1.24171 15.3257L1.20802 15.2846L1.14942 15.1967L1.12305 15.1527L1.09961 15.1087L1.07911 15.0648L1.06006 15.0208L1.04541 14.9768L1.02051 14.8845L1.01318 14.8376L1.00586 14.7892L1.00146 14.7394L1 14.691L1.00146 14.6397L1.00439 14.5884L1.01025 14.5386L1.01758 14.4858L1.02783 14.433L1.03955 14.3788L1.0542 14.3246L1.07178 14.2704L1.09082 14.2147L1.1128 14.156L1.1377 14.0974L1.16407 14.0388L1.22267 13.9215L1.25489 13.8629L1.3633 13.6914L1.42189 13.6079L1.48635 13.5199L1.5552 13.4349L1.62845 13.347L1.70609 13.259L1.87309 13.0861L1.96391 12.9981L2.05766 12.9102L2.15728 12.8223L2.25982 12.7343L2.36676 12.6464L2.47809 12.5584L2.71248 12.3825L2.83553 12.2946L2.96737 12.2067L3.23545 12.0308L3.37608 11.9428L3.52257 11.8549L3.67199 11.767L3.82434 11.679L3.98255 11.5911L4.14369 11.5031L4.30923 11.4152L4.47769 11.3272L4.65348 11.2393L4.8322 11.1514L5.01238 11.0634L5.19843 10.9755L5.38887 10.8875L5.58223 10.7996L5.78 10.7117L5.98215 10.6237L6.18724 10.5358L6.39672 10.4478L6.6106 10.3599L6.70582 10.3203L6.80836 10.2793L6.92116 10.2353L7.1658 10.1444L7.29764 10.0946L7.57597 9.99201L7.72247 9.94071L7.87335 9.88648L8.0301 9.83225L8.18684 9.77655L8.34798 9.72232L8.50912 9.66662L8.67319 9.61093L8.84019 9.55523L9.00573 9.49953L9.33679 9.38961L10.1352 9.13165L10.2875 9.08474L10.434 9.04077L10.5746 8.9968L10.8427 8.91619L10.9672 8.87955L11.0844 8.84584L11.1943 8.81652L11.2968 8.78721L11.3891 8.76229L11.4741 8.74177L11.5473 8.72272L11.6118 8.70806L11.666 8.69634L11.7099 8.68901L11.7422 8.68754L11.9692 8.68314L11.7392 8.46036L11.7012 8.42518L11.6572 8.38414L11.6103 8.3431L11.5576 8.29913L11.5019 8.2493L11.4433 8.198L11.3774 8.14231L11.31 8.08368L11.2368 8.02505L11.1635 7.96349L11.0844 7.90047L11.0053 7.83451L10.9204 7.76709L10.7446 7.62931L10.6567 7.55896L10.4692 7.41239L10.374 7.33911L10.1806 7.18961L9.98428 7.04011L9.88174 6.96682L9.78359 6.89354L9.68398 6.82025L9.48768 6.67368L9.391 6.6004L9.29431 6.53005L9.19909 6.46116L9.10534 6.39374L9.01305 6.32632L8.92516 6.26329L8.83726 6.20173L8.7523 6.14017L8.67026 6.08155L8.58823 6.02585L8.51205 5.97308L8.43588 5.92325L8.21028 5.77668L8.09602 5.7034L7.98468 5.63305L7.75909 5.4982L7.64629 5.43225L7.53496 5.36922L7.31229 5.2461L7.20242 5.18748L7.09402 5.12885L6.98562 5.07315L6.88014 5.02039L6.6692 4.92072L6.56665 4.87382L6.3645 4.78588L6.26635 4.7463L6.16966 4.70673L6.07444 4.67009L5.98069 4.63638L5.8928 4.60413L5.71701 4.5455L5.63204 4.52059L5.55147 4.4986L5.47237 4.47808L5.39473 4.46049L5.32148 4.44584L5.25116 4.43411L5.18085 4.42385L5.11639 4.41652L5.0534 4.41213H4.93914L4.8864 4.41652L4.8366 4.42239L4.79265 4.43265L4.74138 4.4473L4.69303 4.46782L4.64909 4.49714L4.60953 4.52938L4.57584 4.56602L4.54654 4.60706L4.52018 4.65396L4.4982 4.70526L4.47916 4.76096L4.46451 4.82252L4.45572 4.88701L4.44986 4.95736L4.44839 5.03065L4.45132 5.10833L4.45865 5.19041L4.46744 5.27835L4.48209 5.36922L4.49967 5.46156L4.52164 5.55976L4.54801 5.66236L4.57731 5.76935L4.60953 5.87635L4.6901 6.10646L4.73405 6.22372L4.78239 6.34537L4.83513 6.47142L4.89373 6.6004L4.95232 6.73231L5.01531 6.86422L5.08417 7.002L5.15448 7.13977L5.22773 7.28195L5.30537 7.42558L5.3874 7.57215L5.47237 7.72165L5.56026 7.87262L5.65401 8.02505L5.74923 8.18041L5.84738 8.33724L6.25756 8.98654L6.07444 9.40573L6.06712 9.42332L6.05247 9.45556L6.04515 9.47462L6.0305 9.50833L6.02171 9.52298L6.01438 9.54057L6.00706 9.55523L5.99973 9.57282L5.99387 9.58748L5.97922 9.61679L5.97336 9.63145L5.95872 9.66076L5.95432 9.67542L5.947 9.69007L5.93235 9.72525L5.92502 9.73697L5.92063 9.74724L5.90158 9.78534L5.88694 9.80879L5.88401 9.81466L5.87961 9.82052L5.87229 9.83518L5.86203 9.84544H5.85471L5.83127 9.82199L5.81369 9.80293L5.79465 9.77655L5.77121 9.74724L5.74484 9.71206L5.71554 9.67102L5.68331 9.62705L5.64962 9.57868L5.57638 9.46875L5.53682 9.41013L5.4958 9.3471L5.45186 9.28115L5.40498 9.20933L5.31269 9.06276L5.21601 8.91179L5.06952 8.67728L5.01971 8.5952L4.97137 8.51459L4.92156 8.43544L4.82634 8.27422L4.778 8.19507L4.73405 8.11739L4.68718 8.03971L4.60221 7.89314L4.56119 7.81985L4.52164 7.75097L4.48502 7.68354L4.44839 7.62052L4.41617 7.56189L4.35757 7.4505L4.31948 7.38015L4.28286 7.30686L4.2477 7.23358L4.17739 7.08408L4.14516 7.00786L4.07924 6.85396L3.99134 6.61945L3.96205 6.54031L3.93568 6.46263L3.90638 6.38494L3.85657 6.22958L3.83313 6.15043L3.78919 5.998L3.74817 5.84704L3.71301 5.70047L3.69836 5.62718L3.66906 5.48648L3.65734 5.41759L3.63684 5.28568L3.62805 5.22265L3.62219 5.16109L3.61633 5.10247L3.6134 5.04384V4.98814L3.61193 4.93538L3.6134 4.88261V4.83424L3.62219 4.74337L3.62951 4.7038L3.64416 4.63051L3.65441 4.59534L3.66613 4.56016L3.67785 4.52352L3.68957 4.48981L3.71887 4.41945L3.74817 4.35203L3.78333 4.28461L3.8009 4.2553L3.84046 4.19081L3.86097 4.16149L3.92542 4.07355L3.94886 4.04424L3.99574 3.99001L4.02064 3.96509L4.04555 3.93871L4.07045 3.91526L4.09682 3.89034L4.15102 3.84637L4.17739 3.82585L4.20669 3.80533L4.23305 3.78628L4.28872 3.7511L4.37661 3.70713L4.43521 3.68368L4.49381 3.66462L4.60075 3.64264L4.71354 3.62798L4.83074 3.61772L4.95672 3.61626L5.08856 3.62065L5.22626 3.63531L5.36689 3.65436L5.51338 3.68368L5.66573 3.71592L5.82248 3.7555L5.98655 3.80386L6.15355 3.85663L6.32494 3.91819L6.50073 3.98268L6.68238 4.05596L6.86696 4.13511L7.0574 4.22305L7.24784 4.31539L7.44413 4.41213L7.64483 4.51472L7.84698 4.62318L8.05207 4.73751L8.26155 4.85916L8.47396 4.98521L8.68784 5.11712L8.90465 5.2549L9.12438 5.39853L9.34412 5.5451L9.56825 5.699L9.79385 5.8573L10.0209 6.02145L10.2494 6.19001L10.4809 6.36149L10.7123 6.54031L10.9467 6.72352L11.1811 6.91113L11.4155 7.10167L11.6499 7.29807L11.8843 7.49887L12.1187 7.70406L12.9126 8.41053L14.004 8.18334L14.1681 8.15403L14.3248 8.12472L14.401 8.11006L14.5109 8.08807L14.546 8.08368L14.6134 8.06902L14.6456 8.06316L14.7086 8.0529L14.7672 8.04264L14.7965 8.03824L14.8229 8.03384L14.8742 8.02652L14.8976 8.02358L14.9196 8.01919L14.9415 8.01626L14.9811 8.01039L14.9987 8.00893H15.0954L15.1071 8.006L15.1217 8.00013L15.1334 7.99427L15.1481 7.98548L15.1715 7.96203L15.1818 7.94737L15.1935 7.93271L15.2038 7.91366L15.214 7.89167L15.2228 7.86822L15.2345 7.84184L15.2448 7.81253L15.2536 7.78028L15.2624 7.74657L15.2711 7.70993L15.2799 7.67035L15.2902 7.62931L15.2975 7.58534L15.3063 7.53844L15.3136 7.48861L15.3224 7.43584L15.3297 7.37722L15.3385 7.31859L15.3458 7.25556L15.3532 7.19107L15.362 7.12218L15.3693 7.0489L15.3751 6.97562L15.3825 6.89793L15.3898 6.81586L15.3971 6.73085L15.4044 6.6429L15.4118 6.55057L15.4176 6.4553L15.425 6.35563L15.4323 6.25303L15.4396 6.14604L15.4455 6.03611L15.4543 5.87488L15.4616 5.71366L15.4674 5.55829L15.4762 5.2505V4.81079L15.4704 4.52791L15.4586 4.25676L15.4513 4.12485L15.4411 3.99587L15.4308 3.86982L15.4191 3.7467L15.4044 3.62652L15.3898 3.50926L15.3751 3.3964L15.3605 3.28648L15.3415 3.18095L15.3239 3.07835L15.3034 2.98015L15.2814 2.88488L15.2594 2.794L15.236 2.70606L15.2111 2.62252L15.1862 2.54337L15.1569 2.46716L15.1276 2.3968L15.0983 2.32791L15.069 2.26636L15.0368 2.20773L15.0045 2.1535L14.9708 2.10366L14.9371 2.05969L14.902 2.02012L14.8654 1.98494L14.8287 1.95563L14.7892 1.93071L14.7511 1.91166L14.7072 1.897L14.6632 1.88088L14.6193 1.87355L14.5753 1.87062L14.5314 1.87209L14.4874 1.88088L14.4391 1.88821L14.3893 1.90286L14.3395 1.92045L14.2882 1.94097L14.1827 1.9996L14.1285 2.03478L14.0728 2.07288L14.0172 2.11686L13.9586 2.16376L13.9 2.21506L13.8414 2.27075L13.7828 2.32938L13.7242 2.39387L13.6597 2.46129L13.5967 2.53165L13.5323 2.60493L13.4664 2.68554L13.399 2.76762L13.3331 2.85556L13.2642 2.94644L13.1939 3.04024L13.125 3.14284L13.0518 3.24544L12.9786 3.35097L12.9053 3.46382L12.8321 3.57815L12.7588 3.6954L12.6856 3.81852L12.6079 3.94457L12.4527 4.20839L12.3736 4.34764L11.6821 5.55683L11.228 5.61546L11.2133 5.61692L11.1958 5.61839H10.9804L10.9658 5.61692H10.9555L10.9453 5.61546L10.916 5.60959H10.9013L10.8867 5.60373H10.8808L10.8662 5.59494L10.8618 5.59201L10.8603 5.58761L10.8574 5.58468L10.8559 5.57881V5.57442L10.8588 5.55683L10.8632 5.53484L10.872 5.50553L10.8823 5.47328L10.8969 5.43811L10.9116 5.39707L10.9292 5.3531L10.9511 5.3062L10.9716 5.25197L10.9965 5.19773L11.0229 5.13911L11.0522 5.08048L11.0815 5.01746L11.1108 4.95297L11.143 4.88701L11.1782 4.81812L11.247 4.67448L11.3203 4.52791L11.3584 4.45463L11.3965 4.37841L11.5136 4.15563L11.5547 4.08235L11.5942 4.00906L11.6323 3.93578L11.6733 3.86249L11.7495 3.72472L11.7876 3.65876L11.8242 3.59427L11.8608 3.53271L11.8975 3.47408L11.9311 3.41546L11.9634 3.36269L11.9956 3.31286L12.0249 3.26449L12.0542 3.22052L12.1187 3.12525L12.2476 2.93911L12.3106 2.85117L12.4365 2.67821L12.5581 2.51699L12.6197 2.43784L12.7984 2.21359L12.857 2.14324L12.9156 2.07582L12.9742 2.00986L13.0328 1.94684L13.147 1.82665L13.2056 1.76802L13.317 1.65956L13.3726 1.60973L13.481 1.51299L13.5894 1.42505L13.6436 1.38401L13.6964 1.34444L13.755 1.2946L13.8575 1.22865L13.9102 1.19933L13.9615 1.17002L14.0128 1.14364L14.0626 1.12019L14.1153 1.0982L14.1637 1.07622L14.2135 1.05863L14.2633 1.04397L14.3116 1.02931L14.3732 1.01466L14.4054 1.00879L14.4347 1.00586L14.4669 1.00293L14.5314 1H14.5651L14.5987 1.00147L14.631 1.0044L14.6339 1.00586ZM14.6925 8.91619L14.5226 8.9499L14.3395 8.99387L14.1637 9.04517L14.0172 9.095L13.9058 9.13897L13.8399 9.17708L13.8282 9.2064L13.9952 9.39254L14.2442 9.64903L14.5109 9.90993L14.7277 10.1107L14.8302 10.1899L14.8536 10.1518L14.8859 10.0594L14.924 9.92019L14.9679 9.7443L15.0089 9.5435L15.0499 9.31339L15.0719 9.13311V9.0056L15.0529 8.92352L15.0133 8.88834L14.9489 8.88248L14.839 8.89127L14.6925 8.91326V8.91619ZM7.5584 8.90153L6.92263 9.14777L7.11306 8.79307C7.35917 8.32845 7.96271 7.64544 8.46664 7.26289C8.49301 7.24091 8.62485 7.13684 8.86509 6.94777L9.20495 7.18814C9.391 7.32005 9.54921 7.44757 9.55653 7.48128C9.56386 7.50766 9.43494 7.62785 9.27234 7.73045C9.10241 7.84184 8.79185 8.09687 8.57944 8.2962C8.30989 8.56003 8.01398 8.73298 7.5584 8.903V8.90153ZM11.206 17.4963C9.62392 17.2853 8.10627 16.3238 7.19656 14.946C6.81129 14.3568 6.34692 13.048 6.31762 12.4763C6.30004 12.1319 6.32787 12.0953 6.67359 11.934C6.87868 11.8417 7.0574 11.7728 7.07791 11.7787C7.09255 11.7933 7.15115 12.1275 7.1951 12.535C7.35624 13.8482 8.17952 15.1556 9.32801 15.8987C9.96085 16.3179 10.8808 16.6316 11.5517 16.6697C11.8125 16.6843 12.0352 16.7283 12.0396 16.7576C12.0498 16.7943 11.9766 16.9833 11.8784 17.19L11.7056 17.5711L11.2031 17.4978L11.206 17.4963ZM11.8359 6.25157C11.5503 5.96722 13.1983 6.17828 14.0728 6.5447C14.5738 6.7499 14.6119 6.77921 14.5768 7.0064C14.5504 7.19694 13.7022 7.28048 13.191 7.14124C12.8247 7.04157 12.249 6.66342 11.8359 6.25303V6.25157ZM15.466 15.1087C15.696 14.8654 15.945 14.5518 16.008 14.4345C16.1633 14.1267 16.2277 14.1267 16.4123 14.3817C16.4943 14.5107 16.6101 14.6602 16.6672 14.7408C16.7404 14.8346 16.6687 14.9856 16.4284 15.2978C15.8468 16.06 14.5182 17.083 14.6295 16.6814C14.8317 16.0219 15.0983 15.5015 15.4674 15.1102L15.466 15.1087ZM17.1506 11.5251C16.8664 11.1734 16.7258 10.8978 16.6276 10.5255C16.3815 9.60653 16.7595 8.75496 17.1023 9.43065C17.2956 9.79707 17.5828 10.9447 17.6252 11.4929C17.6502 11.7611 17.637 11.9912 17.6106 12C17.5754 12.0088 17.3762 11.7875 17.1521 11.5251H17.1506Z" fill="black"/>
</svg>
