<svg width="24" height="24" viewBox="0 0 24 24" fill="none" xmlns="http://www.w3.org/2000/svg">
<path d="M9.9075 2.0025L10.515 2H13.485L14.0933 2.0025L14.855 2.01083L15.2158 2.01667L15.5642 2.02583L15.9 2.0375L16.2233 2.05084L16.535 2.06834L16.835 2.08917L17.1225 2.11417L17.4 2.14167C18.85 2.30501 19.8442 2.65503 20.5942 3.40506C21.3442 4.15509 21.6942 5.14846 21.8575 6.59936L21.8858 6.87687L21.91 7.16522L21.9308 7.46523L21.9475 7.77607L21.9683 8.26609L21.9783 8.60778L21.9892 9.14446L21.9967 9.907L22 10.7237L21.9992 13.4846L21.9967 14.093L21.9883 14.8547L21.9825 15.2156L21.9733 15.5639L21.9617 15.8997L21.9483 16.2231L21.9308 16.5348L21.91 16.8348L21.885 17.1223L21.8575 17.3998C21.6942 18.8499 21.3442 19.8441 20.5942 20.5941C19.8442 21.3441 18.8508 21.6942 17.4 21.8575L17.1225 21.8858L16.8342 21.91L16.5342 21.9308L16.2233 21.9475L15.7333 21.9683L15.3917 21.9783L14.855 21.9892L14.0925 21.9967L13.2758 22L10.515 21.9992L9.90667 21.9967L9.145 21.9883L8.78417 21.9825L8.43583 21.9733L8.1 21.9617L7.77667 21.9483L7.465 21.9308L7.165 21.91L6.8775 21.885L6.6 21.8575C5.15 21.6942 4.15583 21.3441 3.40583 20.5941C2.65583 19.8441 2.30583 18.8507 2.1425 17.3998L2.11417 17.1223L2.09 16.834L2.06917 16.5339L2.0525 16.2231L2.03167 15.7331L2.02167 15.3914L2.01083 14.8547L2.00333 14.0922L2 13.2755L2.00083 10.5145L2.00333 9.90616L2.01167 9.14446L2.0175 8.78362L2.02667 8.43527L2.03833 8.09942L2.05167 7.77607L2.06917 7.46439L2.09 7.16438L2.115 6.87687L2.1425 6.59936C2.30583 5.1493 2.65583 4.15509 3.40583 3.40506C4.15583 2.65503 5.14917 2.30501 6.6 2.14167L6.8775 2.11334L7.16583 2.08917L7.46583 2.06834L7.77667 2.05167L8.26667 2.03083L8.60833 2.02083L9.145 2.01L9.9075 2.0025ZM7.65833 8.08275H5.375C5.48333 13.283 8.08333 16.4081 12.6417 16.4081H12.9V13.433C14.575 13.5996 15.8417 14.8247 16.35 16.4081H18.7167C18.0667 14.0413 16.3583 12.7329 15.2917 12.2329C16.3583 11.6162 17.8583 10.1162 18.2167 8.08275H16.0667C15.6 9.73282 14.2167 11.2329 12.9 11.3746V8.08275H10.75V13.8497C9.41667 13.5163 7.73333 11.8996 7.65833 8.08275Z" fill="black"/>
</svg>
