<svg width="24" height="24" viewBox="0 0 24 24" fill="none" xmlns="http://www.w3.org/2000/svg">
<path d="M11.5309 2C6.65696 2 6.96128 4.11392 6.96128 4.11392L6.96704 6.30368H11.6182V6.96128H5.11904C5.11904 6.96128 2 6.60608 2 11.5251C2 16.4422 4.72256 16.2675 4.72256 16.2675H6.34688V13.9856C6.34688 13.9856 6.25952 11.264 9.02528 11.264H13.639C13.639 11.264 16.231 11.3053 16.231 8.7584V4.54784C16.231 4.54784 16.6246 2 11.5309 2ZM8.96576 3.47264C9.07801 3.46884 9.18988 3.48766 9.29471 3.528C9.39954 3.56833 9.49518 3.62934 9.57593 3.70741C9.65668 3.78547 9.7209 3.87899 9.76476 3.98239C9.80862 4.08579 9.83122 4.19696 9.83122 4.30928C9.83122 4.4216 9.80862 4.53277 9.76476 4.63617C9.7209 4.73957 9.65668 4.83309 9.57593 4.91115C9.49518 4.98922 9.39954 5.05023 9.29471 5.09056C9.18988 5.1309 9.07801 5.14972 8.96576 5.14592C8.74877 5.13857 8.54313 5.0472 8.39223 4.89111C8.24133 4.73501 8.15698 4.52639 8.15698 4.30928C8.15698 4.09217 8.24133 3.88355 8.39223 3.72745C8.54313 3.57136 8.74877 3.47999 8.96576 3.47264Z" fill="black" fill-opacity="0.7"/>
<path d="M11.6691 21.1002C16.543 21.1002 16.2387 18.9862 16.2387 18.9862L16.233 16.7965H11.5818V16.1389H18.081C18.081 16.1389 21.2 16.4931 21.2 11.575C21.2 6.65696 18.4774 6.83168 18.4774 6.83168H16.8531V9.11264C16.8531 9.11264 16.9405 11.8352 14.1747 11.8352H9.56C9.56 11.8352 6.968 11.793 6.968 14.3408V18.5514C6.968 18.5514 6.57536 21.1002 11.6691 21.1002ZM14.2342 19.6275C14.1244 19.6276 14.0156 19.6061 13.914 19.5642C13.8124 19.5223 13.7201 19.4608 13.6424 19.3832C13.5646 19.3056 13.5029 19.2134 13.4607 19.1119C13.4185 19.0105 13.3968 18.9017 13.3966 18.7918C13.3965 18.682 13.418 18.5732 13.46 18.4716C13.5019 18.37 13.5634 18.2777 13.641 18.2C13.7186 18.1222 13.8108 18.0605 13.9122 18.0183C14.0137 17.9761 14.1225 17.9544 14.2323 17.9542C14.4542 17.954 14.6671 18.0419 14.8242 18.1986C14.9813 18.3553 15.0697 18.568 15.0699 18.7899C15.0702 19.0118 14.9823 19.2247 14.8256 19.3818C14.6688 19.5389 14.4561 19.6273 14.2342 19.6275Z" fill="black"/>
</svg>
