<svg width="24" height="24" viewBox="0 0 24 24" fill="none" xmlns="http://www.w3.org/2000/svg">
<path d="M20.8823 17.7616L13.4066 1.69471C13.3141 1.49641 13.1702 1.32727 12.9901 1.20537C12.8099 1.08347 12.6005 1.0134 12.3841 1.00265C12.1676 0.988069 11.9513 1.03385 11.7587 1.13503C11.5661 1.2362 11.4046 1.38888 11.2918 1.57647L3.18389 14.8677C3.06125 15.0686 2.99751 15.3006 3.00007 15.5367C3.00264 15.7728 3.07141 16.0034 3.19838 16.2015L7.16176 22.4144C7.31199 22.6472 7.53234 22.8246 7.79013 22.9206C8.04791 23.0165 8.32939 23.0258 8.59278 22.947L20.098 19.5032C20.4503 19.3978 20.7383 19.1457 20.8887 18.8111C21.039 18.4766 21.0372 18.0934 20.8823 17.7616ZM19.2086 18.4509L9.44596 21.3722C9.37832 21.3931 9.3065 21.3958 9.23749 21.3802C9.16849 21.3646 9.10466 21.3311 9.05221 21.2831C8.99977 21.2351 8.96051 21.1742 8.93824 21.1063C8.91598 21.0384 8.91148 20.9658 8.92518 20.8956L12.4122 3.99456C12.4774 3.67832 12.9094 3.62791 13.0453 3.92123L19.5021 17.7973C19.5306 17.8592 19.5455 17.9266 19.5458 17.9949C19.5461 18.0632 19.5318 18.1307 19.5038 18.1928C19.4758 18.255 19.4349 18.3102 19.3838 18.3548C19.3326 18.3993 19.2735 18.4321 19.2086 18.4509Z" fill="black"/>
</svg>
