<svg width="24" height="24" viewBox="0 0 24 24" fill="none" xmlns="http://www.w3.org/2000/svg">
<path d="M5.98784 4C4.89248 4 4.08224 4.96 4.11776 5.99968C4.15328 6.99808 4.10816 8.29408 3.78176 9.34912C3.45536 10.407 2.9024 11.0771 2 11.1626V12.1379C2.9024 12.2243 3.45536 12.8925 3.78176 13.9514C4.10816 15.0074 4.15328 16.3014 4.11776 17.3008C4.08224 18.3405 4.89248 19.2995 5.98784 19.2995H17.2141C18.3085 19.2995 19.1197 18.3405 19.0832 17.3008C19.0486 16.3014 19.0938 15.0064 19.4192 13.9514C19.7456 12.8925 20.2976 12.2234 21.2 12.137V11.1626C20.2976 11.0762 19.7466 10.407 19.4192 9.34816C19.0938 8.29312 19.0486 6.99904 19.0832 5.99968C19.1197 4.95904 18.3094 4 17.2131 4H5.98784ZM14.8582 13.4166C14.8582 14.849 13.7898 15.7168 12.0166 15.7168H8.74592C8.72621 15.7163 8.70745 15.7083 8.69351 15.6943C8.67957 15.6804 8.67153 15.6616 8.67104 15.6419V7.65472C8.67153 7.63501 8.67957 7.61625 8.69351 7.60231C8.70745 7.58837 8.72621 7.58033 8.74592 7.57984H11.9994C13.4778 7.57984 14.4483 8.38048 14.4483 9.61024C14.4483 10.4723 13.7955 11.2451 12.9642 11.3805V11.4256C14.097 11.5504 14.8582 12.3338 14.8582 13.4166ZM11.6874 8.61184H9.96512V11.0426H11.4147C12.536 11.0426 13.1542 10.5914 13.1542 9.78496C13.1542 9.02848 12.6234 8.61184 11.6874 8.61184ZM9.96512 12.0064V14.6848H11.7507C12.9181 14.6848 13.5363 14.2173 13.5363 13.337C13.5363 12.4566 12.9008 12.0064 11.6758 12.0064H9.96512Z" fill="black"/>
</svg>
