<svg width="24" height="24" viewBox="0 0 24 24" fill="none" xmlns="http://www.w3.org/2000/svg">
<path d="M12 2C6.47917 2 2 6.47917 2 12C2 17.5208 6.47917 22 12 22C17.5208 22 22 17.5208 22 12C22 6.47917 17.5208 2 12 2ZM12.64 5.42083C12.7925 5.42083 12.9425 5.465 13.0775 5.55167C13.1817 5.62083 13.3167 5.70583 13.7067 6.51333C13.965 6.44 14.0967 6.47833 14.1658 6.4975C14.3358 6.54417 14.4708 6.65583 14.5517 6.81C14.9492 7.57417 15.0033 8.9375 14.83 9.81417C14.6292 10.8408 14.2008 11.505 13.8875 11.9608C14.1575 12.235 14.5358 12.71 14.8183 13.4817C15.05 14.1267 15.0767 14.7133 15.0458 15.1608C15.2181 15.0791 15.3856 14.9875 15.5475 14.8867C16.0417 14.5817 16.7867 14.1225 17.675 14.1108C18.27 14.1033 18.7325 14.4817 18.8025 15.03C18.8364 15.2833 18.7744 15.5401 18.6287 15.7501C18.483 15.9601 18.2641 16.108 18.015 16.165C17.4742 16.2967 17.2233 16.3967 16.4975 16.8675C15.4708 17.5317 14.3817 17.9025 13.9875 18.0258C13.8169 18.1655 13.616 18.2633 13.4008 18.3117C12.7867 18.4625 10.6792 18.5742 10.5125 18.5742H10.4742C9.82167 18.5742 9.4625 18.3733 9.26583 18.165C8.7175 18.4392 8.0075 18.3233 7.4975 18.0533C7.32423 17.9666 7.1836 17.8262 7.09652 17.6531C7.00943 17.4799 6.98055 17.2833 7.01417 17.0925C6.96617 17.0429 6.92344 16.9884 6.88667 16.93C6.75167 16.7217 6.44667 16.15 6.50833 15.3083C6.555 14.7058 6.97167 14.1692 7.24167 13.8833C7.22168 13.2397 7.33753 12.5992 7.58167 12.0033C7.83667 11.3975 8.31917 10.88 8.68167 10.5558C8.415 10.1083 8.145 9.41667 8.4075 8.71417C8.59667 8.2125 8.75083 7.93417 9.09083 7.81417H9.08667C9.2525 7.7525 9.41083 7.68667 9.49167 7.59833C9.98771 7.05662 10.6737 6.72734 11.4067 6.67917C11.4378 6.6025 11.4725 6.52389 11.5108 6.44333C11.7692 5.895 12.0433 5.58583 12.3642 5.47C12.4518 5.43815 12.5442 5.42125 12.6375 5.42L12.64 5.42083ZM12.645 6.00417C12.2225 6.0175 11.8108 7.27 11.8108 7.27C11.8108 7.27 10.7525 7.1 9.9225 7.99583C9.75667 8.1775 9.5325 8.27417 9.30083 8.3625C9.235 8.38583 9.15417 8.38167 8.95333 8.9225C8.64417 9.74833 9.47417 10.6675 9.47417 10.6675C9.47417 10.6675 8.48583 11.3667 8.11917 12.235C7.71417 13.1883 7.8375 14.1192 7.8375 14.1192C7.8375 14.1192 7.135 14.7292 7.08833 15.3583C7.04583 15.9108 7.20417 16.3583 7.37417 16.6208C7.56333 16.9067 7.79917 16.7675 7.79917 16.7675C7.79917 16.7675 7.33167 17.3117 7.76833 17.5433C8.16583 17.7517 8.8375 17.8717 9.19333 17.5125C9.45167 17.2542 9.5025 16.6783 9.59833 16.4433C9.62167 16.3892 9.69833 16.5358 9.7725 16.6092C9.85333 16.6867 9.9925 16.7717 9.9925 16.7717C9.9925 16.7717 9.36333 17.0417 9.62167 17.66C9.70667 17.865 10.0117 17.9958 10.51 17.9917C10.695 17.9875 12.73 17.8758 13.2708 17.745C13.5833 17.6717 13.6917 17.5092 13.6917 17.5092C13.6917 17.5092 14.9967 17.15 16.19 16.3783C16.9542 15.88 17.2675 15.745 17.885 15.5983C18.395 15.475 18.36 14.6833 17.6842 14.695C16.985 14.7025 16.3717 15.0617 15.8542 15.3825C14.885 15.9808 14.4025 15.9425 14.4025 15.9425L14.3875 15.9158C14.3217 15.8075 14.6967 14.8383 14.2758 13.6842C13.82 12.4217 13.0983 12.1167 13.1558 12.02C13.4033 11.6033 14.0208 10.9392 14.2675 9.70333C14.4142 8.95417 14.3758 7.7225 14.0433 7.0775C13.9817 6.9575 13.4333 7.27833 13.4333 7.27833C13.4333 7.27833 12.92 6.13583 12.7767 6.0425C12.7381 6.0165 12.6915 6.00311 12.645 6.00417Z" fill="black"/>
</svg>
