<svg width="24" height="24" viewBox="0 0 24 24" fill="none" xmlns="http://www.w3.org/2000/svg">
<path d="M15.6749 13.2214C17.1205 13.2214 19.2132 12.9341 19.2132 11.2809C19.217 11.1533 19.2047 11.0258 19.1766 10.9011L18.3149 7.30557C18.1169 6.51421 17.9427 6.15554 16.4981 5.46111C15.377 4.91033 12.9341 4 12.2118 4C11.5398 4 11.3437 4.83366 10.5416 4.83366C9.76975 4.83366 9.19683 4.2115 8.4745 4.2115C7.78058 4.2115 7.32867 4.66534 6.98033 5.60035C6.98033 5.60035 6.00867 8.23529 5.88308 8.61776C5.86297 8.68802 5.85431 8.76085 5.85742 8.83366C5.85742 9.85768 10.053 13.217 15.6749 13.217M19.4342 11.9524C19.634 12.8619 19.634 12.957 19.634 13.0778C19.634 14.6332 17.8153 15.4968 15.4237 15.4968C10.02 15.5003 5.28542 12.4556 5.28542 10.4437C5.2842 10.1633 5.34351 9.88577 5.45958 9.62855C3.51717 9.72197 1 10.056 1 12.1912C1 15.6889 9.62125 20 16.4468 20C21.6809 20 23 17.7246 23 15.9286C23 14.5142 21.7286 12.9103 19.4369 11.9524" fill="black"/>
</svg>
