<svg width="24" height="24" viewBox="0 0 24 24" fill="none" xmlns="http://www.w3.org/2000/svg">
<path d="M20.4297 10.213C18.7185 10.2148 17.0495 9.68124 15.6567 8.687V15.673C15.6559 17.3513 14.9887 18.9606 13.8017 20.147C12.6146 21.3335 11.005 22 9.32673 22C8.0717 22.0023 6.84459 21.6297 5.80272 20.93C4.61426 20.1326 3.73115 18.9559 3.29751 17.592C2.86387 16.2281 2.90531 14.7575 3.41506 13.4201C3.92481 12.0828 4.87278 10.9577 6.10426 10.2285C7.33574 9.4993 8.77802 9.20901 10.1957 9.405V12.904C9.61429 12.7189 8.98924 12.7223 8.40985 12.9137C7.83045 13.1051 7.32634 13.4746 6.96948 13.9695C6.61262 14.4645 6.42127 15.0595 6.42275 15.6697C6.42423 16.2799 6.61847 16.874 6.97773 17.3672C7.33699 17.8604 7.8429 18.2275 8.42322 18.416C9.00353 18.6045 9.62859 18.6049 10.2091 18.417C10.7897 18.2291 11.296 17.8626 11.6558 17.3698C12.0156 16.8771 12.2105 16.2832 12.2127 15.673V2H15.6567V2.44C15.7665 3.62973 16.3169 4.73549 17.1999 5.54028C18.083 6.34508 19.2349 6.79081 20.4297 6.79V10.213Z" fill="black"/>
</svg>
