<svg width="24" height="24" viewBox="0 0 24 24" fill="none" xmlns="http://www.w3.org/2000/svg">
<path d="M21.816 11.8179C21.8147 11.1376 21.7565 10.4832 21.6413 9.85472H12.6V13.5728H17.7667C17.6571 14.1597 17.4295 14.7183 17.0979 15.2148C16.7662 15.7113 16.3373 16.1354 15.8371 16.4614V18.8787H18.9533C20.7686 17.2026 21.816 14.7411 21.816 11.8179Z" fill="black"/>
<path d="M12.599 21.2C15.191 21.2 17.3654 20.3456 18.9533 18.8787L15.8371 16.4614C14.9818 17.0374 13.8912 17.3859 12.599 17.3859C10.103 17.3859 7.98144 15.7021 7.22304 13.4326H4.02912V15.9114C5.60832 19.0448 8.8464 21.2 12.599 21.2Z" fill="black"/>
<path d="M7.224 13.424C7.02466 12.8364 6.92157 12.2205 6.91872 11.6C6.91872 10.9626 7.032 10.352 7.224 9.776V7.29728H4.03008C3.35302 8.63052 3.0001 10.1047 3 11.6C3 13.1533 3.37536 14.6106 4.03008 15.9027L6.51648 13.9654L7.224 13.424Z" fill="black"/>
<path d="M12.599 5.82272C14.0131 5.82272 15.2698 6.31136 16.273 7.25312L19.0224 4.50464C17.3558 2.95136 15.1901 2 12.5981 2C8.84448 2 5.60736 4.1552 4.02816 7.29728L7.22208 9.776C7.98048 7.50656 10.103 5.82272 12.599 5.82272Z" fill="black"/>
</svg>
