<svg width="24" height="24" viewBox="0 0 24 24" fill="none" xmlns="http://www.w3.org/2000/svg">
<path d="M20.882 10.3194L20.8552 10.2502L18.2411 3.42943C18.188 3.2961 18.0942 3.18294 17.973 3.10606C17.8518 3.02918 17.7094 2.99251 17.5662 3.00127C17.423 3.00911 17.2856 3.06071 17.1726 3.14911C17.0613 3.23978 16.9806 3.36242 16.9412 3.50047L15.1768 8.89951H8.02956L6.26604 3.50047C6.2287 3.36126 6.14759 3.23774 6.03468 3.14815C5.92176 3.06013 5.78459 3.0088 5.64162 3.00107C5.49865 2.99335 5.35674 3.0296 5.235 3.10495C5.11309 3.18125 5.01887 3.29465 4.9662 3.42847L2.34636 10.2464L2.32044 10.3155C1.94434 11.2985 1.89799 12.3771 2.18838 13.3887C2.47877 14.4003 3.09015 15.29 3.93036 15.9238L3.939 15.9306L3.963 15.9478L7.94412 18.9296L11.1131 21.3258C11.2534 21.4325 11.4249 21.4903 11.6012 21.4903C11.7776 21.4903 11.949 21.4325 12.0894 21.3258L13.2894 20.4195L15.2574 18.9296L19.2635 15.9296L19.2731 15.9219C20.1111 15.2877 20.7208 14.3988 21.0108 13.3886C21.3007 12.3784 21.2561 11.3015 20.882 10.3194Z" fill="black"/>
</svg>
