<svg width="24" height="24" viewBox="0 0 24 24" fill="none" xmlns="http://www.w3.org/2000/svg">
<path d="M4.53681 5.14285C4.53681 5.14285 11.791 4.80787 13.6451 6.30086C15.5306 5.35621 18.2787 5.02071 21.9858 5.44794C21.9858 5.44794 22.0177 16.1726 21.9858 17.9093C21.9539 19.6461 19.8766 21.9002 16.9046 21.9693C13.9327 22.0384 4.28113 21.9693 4.28113 21.9693M4.53681 5.14285L4.28113 21.9693M4.53681 5.14285L2.10757 6.81879L2 19.9202L4.28113 21.9693M16.3479 14.7466C17.1042 15.0738 17.9602 15.1249 18.7535 14.8902C19.5467 14.6556 20.222 14.1515 20.6513 13.4736C21.0805 12.7957 21.2338 11.9911 21.0821 11.2126C20.9304 10.4341 20.4842 9.73574 19.8282 9.25009C19.1722 8.76443 18.352 8.52524 17.5233 8.57792C16.6946 8.63059 15.915 8.97145 15.3324 9.53584C14.7498 10.1002 14.4048 10.8489 14.3628 11.6397C14.3208 12.4305 14.5848 13.2085 15.1046 13.8261M17.2409 5.34899C17.0774 4.4259 16.581 3.58619 15.8374 2.97488C15.0937 2.36357 14.1495 2.01904 13.1677 2.00077C12.186 1.9825 11.2284 2.29164 10.4603 2.87482C9.69219 3.45799 9.16179 4.27859 8.96069 5.1949M15.4149 15.9004C15.4477 16.4209 15.4007 16.9431 15.2754 17.4506M13.3554 12.0883C13.3554 14.0739 11.6671 15.6835 9.58448 15.6835C7.50188 15.6835 5.81359 14.0739 5.81359 12.0883C5.81359 10.1028 7.50188 8.49319 9.58448 8.49319C11.6671 8.49319 13.3554 10.1028 13.3554 12.0883ZM17.6198 9.76407C17.7476 10.0272 17.7726 10.3253 17.6903 10.6045C17.608 10.8836 17.4237 11.1256 17.1707 11.2867C16.9178 11.4477 16.6128 11.5173 16.3107 11.4829C16.0087 11.4485 15.7295 11.3122 15.5235 11.0988C15.3376 11.5272 15.301 12.0012 15.4192 12.4509C15.5374 12.9007 15.8042 13.3022 16.1801 13.5963C16.556 13.8904 17.0211 14.0615 17.5068 14.0843C17.9925 14.1071 18.473 13.9804 18.8774 13.7229C19.2818 13.4654 19.5886 13.0908 19.7526 12.6543C19.9165 12.2178 19.929 11.7427 19.788 11.299C19.647 10.8553 19.3602 10.4665 18.9698 10.1901C18.5794 9.91376 18.1061 9.76438 17.6198 9.76407ZM10.1213 9.94187C10.2218 10.2245 10.2129 10.532 10.0962 10.8089C9.97944 11.0857 9.76264 11.3136 9.48497 11.4513C9.20731 11.589 8.88711 11.6274 8.58234 11.5595C8.27756 11.4917 8.00833 11.322 7.82337 11.0813C7.58286 11.499 7.48961 11.9794 7.55739 12.4515C7.62517 12.9236 7.85038 13.3623 8.19978 13.7031C8.54918 14.0438 9.00423 14.2683 9.49775 14.3436C9.99126 14.4188 10.4971 14.3407 10.9405 14.1209C11.3839 13.9011 11.7414 13.5511 11.9602 13.1227C12.1791 12.6943 12.2476 12.2102 12.1557 11.7418C12.0638 11.2735 11.8164 10.8457 11.4499 10.5217C11.0835 10.1976 10.618 9.99404 10.1213 9.94187ZM12.1953 15.8226C12.1953 14.3709 13.2932 13.7808 14.7473 13.7808C16.0419 13.7808 16.7771 15.4567 16.7771 15.4567C15.5047 15.9727 14.1325 16.2271 12.75 16.2035C13.5469 16.9086 14.5502 17.3655 15.6262 17.5135C15.6262 17.5135 15.1792 17.833 13.6451 17.833C12.3986 17.8336 12.1953 16.5694 12.1953 15.8226Z" stroke="black" stroke-linecap="round" stroke-linejoin="round"/>
</svg>
