<svg width="24" height="24" viewBox="0 0 24 24" fill="none" xmlns="http://www.w3.org/2000/svg">
<path d="M4.45536 8.944H7.18176C7.98304 8.9504 8.5632 9.1808 8.92224 9.6352C9.28192 10.0896 9.40064 10.7104 9.2784 11.4976C9.22931 11.8648 9.12306 12.2221 8.96352 12.5565C8.80466 12.9053 8.5838 13.2225 8.31168 13.4925C7.97248 13.8445 7.6096 14.0685 7.22304 14.1645C6.82944 14.2605 6.42624 14.3075 6.02304 14.3066H4.8L4.41312 16.24H3L4.45536 8.944ZM5.64576 10.1037L5.0352 13.1565C5.07559 13.1623 5.11632 13.1655 5.15712 13.1661H5.30016C5.95104 13.1731 6.49376 13.1091 6.92832 12.9741C7.36224 12.8307 7.65376 12.3354 7.80288 11.488C7.92448 10.7757 7.80256 10.3651 7.43712 10.2563C7.07744 10.1475 6.62624 10.0966 6.08352 10.1037C6.00224 10.1101 5.92416 10.1133 5.84928 10.1133H5.6352L5.64576 10.1037ZM10.8902 7H12.2938L11.8973 8.944H13.1587C13.8506 8.9568 14.3664 9.0992 14.7062 9.3712C15.0518 9.64256 15.1536 10.1581 15.0115 10.9178L14.3299 14.3066H12.9043L13.5562 11.0704C13.624 10.7312 13.6035 10.4902 13.4947 10.3475C13.3859 10.2048 13.152 10.1338 12.793 10.1344L11.663 10.1248L10.8288 14.3066H9.42432L10.8902 7ZM16.5187 8.944H19.2461C20.0461 8.9504 20.6262 9.1808 20.9866 9.6352C21.3456 10.0896 21.464 10.7104 21.3418 11.4976C21.2927 11.8648 21.1864 12.2221 21.0269 12.5565C20.8683 12.9053 20.6478 13.2224 20.376 13.4925C20.0362 13.8445 19.6733 14.0685 19.2874 14.1645C18.8938 14.2605 18.4906 14.3075 18.0864 14.3066H16.8653L16.4784 16.24H15.0643L16.5187 8.944ZM17.7091 10.1037L17.0995 13.1565C17.1399 13.1623 17.1806 13.1655 17.2214 13.1661H17.3635C18.015 13.1731 18.5578 13.1091 18.9917 12.9741C19.4256 12.8307 19.7174 12.3354 19.8672 11.488C19.9888 10.7757 19.8666 10.3651 19.5005 10.2563C19.1414 10.1475 18.6902 10.0966 18.1469 10.1037C18.0693 10.11 17.9915 10.1132 17.9136 10.1133H17.6995L17.7091 10.1037Z" fill="black"/>
</svg>
