<svg width="24" height="24" viewBox="0 0 24 24" fill="none" xmlns="http://www.w3.org/2000/svg">
<path d="M16.5243 8.7996C16.6281 8.85271 16.7243 8.92444 16.8027 9.01135L18.9556 8.04847L16.9471 6.05098L16.4954 8.77063L16.5243 8.7996ZM12.055 6.98489C12.1622 7.14284 12.2262 7.32217 12.2482 7.51254L15.453 8.87478C15.5493 8.7996 15.66 8.74511 15.7782 8.71269L16.3042 5.44676L14.3522 3.39202L12.0536 6.93385L12.055 6.98489ZM22.9944 12.0324L19.5599 8.58716L17.2215 9.54659L22.9662 11.9966C22.9662 11.9966 23.0164 12.0324 22.9944 12.0324ZM22.4217 12.5932L16.9072 10.2287C16.8302 10.3304 16.7339 10.4157 16.6237 10.4798C16.5136 10.5438 16.3919 10.5853 16.2657 10.6019L15.6751 14.2417C15.8504 14.421 15.9508 14.6617 15.9508 14.9128L19.2808 15.6136L22.3357 12.5704V12.5132L22.4217 12.5932ZM15.1161 9.47072L12.123 8.19125C12.0202 8.35031 11.8781 8.47992 11.7105 8.56744C11.5428 8.65496 11.3555 8.6974 11.1666 8.69062H10.9844L8.50291 12.5311L15.1278 9.6535V9.66109C15.1249 9.60963 15.1249 9.55804 15.1278 9.50658C15.1314 9.49463 15.1271 9.48267 15.1161 9.47072ZM18.7548 16.1929L15.8257 15.5853C15.7169 15.7283 15.5704 15.8379 15.4028 15.9019L14.7042 20.2452L18.7727 16.1998C18.7727 16.1998 18.7651 16.2219 18.7541 16.2219L18.7548 16.1929ZM14.6575 15.8936C14.5189 15.8363 14.3956 15.7474 14.2974 15.6338C14.1991 15.5203 14.1287 15.3854 14.0916 15.2397L8.63768 14.1161L8.55861 14.2424L13.5085 21.4233L13.8056 21.1287L14.6472 15.9122C14.6472 15.9122 14.6753 15.9336 14.6575 15.9233V15.8936ZM8.7525 13.4547L14.1425 14.5686C14.2198 14.4327 14.329 14.3178 14.4607 14.234C14.5925 14.1502 14.7426 14.1 14.8981 14.0878L15.4819 10.5095L15.3561 10.4019L8.65624 13.2829C8.692 13.3363 8.72408 13.3935 8.7525 13.4547ZM6.49242 14.3562L6.37759 14.2424L4.05356 15.2004L5.1812 16.3254L6.46354 14.3279L6.49242 14.3562ZM8.02573 14.7231C7.86366 14.7962 7.68842 14.8354 7.51073 14.8383C7.36702 14.8383 7.23088 14.8162 7.09474 14.77L5.68038 16.8358L11.8831 23L12.975 21.9109L8.02573 14.7231ZM7.15525 12.2945C7.24876 12.2839 7.3441 12.2839 7.44128 12.2945C7.54579 12.2807 7.65306 12.2807 7.75688 12.2945L10.2631 8.38575C10.0686 8.18149 9.95961 7.9102 9.95852 7.62773C9.94836 7.54435 9.94836 7.46004 9.95852 7.37666L6.91459 5.96476L4.46473 8.35678L7.15525 12.2945ZM7.43166 5.48677L10.4 6.7552C10.6143 6.57561 10.8875 6.48221 11.1666 6.4931C11.2885 6.49586 11.4089 6.51494 11.5276 6.55035L13.8454 2.92231L11.9291 1L7.43166 5.42883C7.43166 5.42883 7.42409 5.47573 7.43166 5.48677ZM6.32121 12.9953C6.38217 12.8836 6.4562 12.7806 6.5433 12.6863L4.00405 8.88513L1 11.8131L6.32121 12.9953ZM6.08124 13.6381L1.48612 12.6753L3.50555 14.7307L6.05236 13.6457L6.08124 13.6381Z" fill="black"/>
</svg>
