<svg width="24" height="24" viewBox="0 0 24 24" fill="none" xmlns="http://www.w3.org/2000/svg">
<path d="M22.92 5C22.15 5.35 21.32 5.58 20.46 5.69C21.34 5.16 22.02 4.32 22.34 3.31C21.51 3.81 20.59 4.16 19.62 4.36C18.83 3.5 17.72 3 16.46 3C14.11 3 12.19 4.92 12.19 7.29C12.19 7.63 12.23 7.96 12.3 8.27C8.74 8.09 5.57 6.38 3.46 3.79C3.09 4.42 2.88 5.16 2.88 5.94C2.88 7.43 3.63 8.75 4.79 9.5C4.08 9.5 3.42 9.3 2.84 9V9.03C2.84 11.11 4.32 12.85 6.28 13.24C5.65084 13.4129 4.99004 13.4369 4.35 13.31C4.62161 14.1625 5.15354 14.9084 5.87102 15.4429C6.5885 15.9775 7.45545 16.2737 8.35 16.29C6.83367 17.4905 4.95401 18.1394 3.02 18.13C2.68 18.13 2.34 18.11 2 18.07C3.9 19.29 6.16 20 8.58 20C16.46 20 20.79 13.46 20.79 7.79C20.79 7.6 20.79 7.42 20.78 7.23C21.62 6.63 22.34 5.87 22.92 5Z" fill="black"/>
</svg>
