<svg width="24" height="24" viewBox="0 0 24 24" fill="none" xmlns="http://www.w3.org/2000/svg">
<path d="M11.5196 1C12.3121 2.30442 11.2674 4.0305 10.4326 4.99483C9.62296 5.92983 8.63864 6.71175 7.74437 7.5615C6.78436 8.4745 5.86127 9.43517 5.07237 10.5068C3.49367 12.6508 2.52645 15.3468 3.237 18.0225C3.94666 20.6955 6.2215 22.3968 8.79084 22.9991C7.49401 22.4289 6.28184 20.9797 6.27824 19.4974C6.27554 17.8795 7.28238 16.5073 8.53417 15.6052C8.38378 16.1846 8.30182 16.7144 8.67376 17.2314C8.84636 17.468 9.08201 17.6491 9.35274 17.7534C9.62346 17.8578 9.91791 17.8808 10.2011 17.8199C11.5403 17.5211 11.6024 16.0233 10.8081 15.1488C10.0228 14.2843 9.26364 13.3072 9.56173 12.0532C9.71212 11.4252 10.0913 10.8358 10.5713 10.4151C10.202 11.4033 11.2512 12.3768 11.9428 12.8626C13.1424 13.7041 14.4581 14.3403 15.5604 15.3266C16.7204 16.3643 17.5777 17.7658 17.4039 19.392C17.2166 21.1547 15.8405 22.3803 14.2969 23C17.5588 22.2667 20.9297 19.6908 20.9972 16.0086C21.0809 13.2292 19.2834 10.768 16.352 9.23992C16.5232 9.67992 16.4187 9.87883 16.2998 10.0869C15.8045 10.9523 14.4248 11.1429 13.7467 10.2556C12.6615 8.83658 13.7692 7.30758 13.9241 5.80517C14.1177 3.92142 12.9578 2.09358 11.5196 1Z" fill="black"/>
</svg>
