<svg width="24" height="24" viewBox="0 0 24 24" fill="none" xmlns="http://www.w3.org/2000/svg">
<path d="M12.3307 4.93617L15.7287 6.94642C15.8503 7.017 15.8548 7.21225 15.7287 7.28283L11.6914 9.6735C11.6337 9.70815 11.5681 9.72641 11.5013 9.72641C11.4345 9.72641 11.3689 9.70815 11.3113 9.6735L7.274 7.28283C7.14971 7.215 7.14792 7.01425 7.274 6.94642L10.6693 4.93617V1L2 6.1315V16.3936L5.32464 14.4264V10.4068C5.32196 10.2629 5.4856 10.1603 5.6081 10.2382L9.64542 12.6279C9.70314 12.6623 9.75113 12.7115 9.78468 12.7706C9.81823 12.8298 9.83619 12.8968 9.83678 12.9653V17.7438C9.83857 17.8868 9.67493 17.9895 9.55243 17.9125L6.15446 15.9023L2.83071 17.8685L11.5 23L20.1693 17.8685L16.8455 15.9023L13.4476 17.9116C13.3277 17.9867 13.1587 17.8896 13.1632 17.7438V12.9653C13.1632 12.8223 13.241 12.6939 13.3546 12.6279L17.3919 10.2382C17.5117 10.163 17.6798 10.2583 17.6763 10.4068V14.4264L21 16.3936V6.1315L12.3316 1L12.3307 4.93617Z" fill="black"/>
</svg>
