<svg width="24" height="24" viewBox="0 0 24 24" fill="none" xmlns="http://www.w3.org/2000/svg">
<path d="M22 11.908C22 10.583 20.341 9.328 17.797 8.549C18.384 5.956 18.123 3.894 16.974 3.233C16.6953 3.07738 16.3802 2.9987 16.061 3.005V3.914C16.248 3.914 16.399 3.951 16.525 4.02C17.08 4.338 17.32 5.549 17.133 7.106C17.088 7.489 17.015 7.893 16.925 8.305C16.0727 8.10009 15.2078 7.95143 14.336 7.86C13.8164 7.1439 13.2498 6.46307 12.64 5.822C13.97 4.587 15.217 3.91 16.065 3.91V3C14.944 3 13.476 3.8 11.992 5.186C10.508 3.808 9.041 3.017 7.92 3.017V3.927C8.763 3.927 10.015 4.599 11.344 5.826C10.774 6.426 10.202 7.106 9.66 7.86C8.739 7.958 7.867 8.109 7.068 8.309C6.97762 7.91846 6.90686 7.52363 6.856 7.126C6.664 5.569 6.9 4.358 7.451 4.036C7.59483 3.95879 7.75695 3.92215 7.92 3.93V3.021C7.577 3.021 7.267 3.095 6.998 3.249C5.853 3.909 5.596 5.969 6.187 8.553C3.651 9.336 2 10.587 2 11.908C2 13.233 3.66 14.488 6.203 15.268C5.616 17.86 5.877 19.923 7.027 20.583C7.292 20.738 7.602 20.812 7.944 20.812C9.065 20.812 10.533 20.012 12.017 18.627C13.5 20.005 14.968 20.795 16.089 20.795C16.432 20.795 16.741 20.722 17.011 20.567C18.156 19.907 18.413 17.847 17.821 15.263C20.349 14.485 22 13.229 22 11.908ZM16.692 9.189C16.542 9.715 16.354 10.257 16.142 10.799C15.8013 10.1364 15.4271 9.4916 15.021 8.867C15.5825 8.94932 16.1401 9.05676 16.692 9.189ZM14.825 13.531C14.507 14.081 14.181 14.603 13.843 15.088C12.6198 15.1968 11.3894 15.1982 10.166 15.092C9.46342 14.0901 8.84975 13.0287 8.332 11.92C8.84965 10.809 9.46051 9.74386 10.158 8.736C11.3812 8.62749 12.6116 8.62649 13.835 8.733C14.5379 9.73484 15.1519 10.7962 15.67 11.905C15.41 12.458 15.1282 13.0004 14.825 13.531ZM16.142 13.001C16.362 13.547 16.55 14.093 16.705 14.623C16.171 14.753 15.608 14.863 15.025 14.95C15.4289 14.3186 15.8017 13.6688 16.142 13.001ZM12.008 17.351C11.6085 16.9355 11.2303 16.4999 10.875 16.046C11.242 16.062 11.617 16.075 11.996 16.075C12.38 16.0757 12.758 16.066 13.13 16.046C12.763 16.523 12.384 16.959 12.008 17.351ZM8.975 14.95C8.41322 14.8687 7.8556 14.761 7.304 14.627C7.454 14.101 7.642 13.559 7.854 13.017C8.02 13.343 8.198 13.6693 8.388 13.996C8.57705 14.318 8.77276 14.6361 8.975 14.95ZM11.989 6.465C12.369 6.857 12.7467 7.29167 13.122 7.769C12.7489 7.7513 12.3755 7.74197 12.002 7.741C11.6173 7.74033 11.2393 7.74967 10.868 7.769C11.235 7.293 11.614 6.856 11.989 6.465ZM8.971 8.867C8.56726 9.49678 8.19448 10.1459 7.854 10.812C7.64095 10.2803 7.4534 9.73863 7.292 9.189C7.84715 9.05776 8.40766 8.95032 8.972 8.867H8.971ZM5.282 13.971C3.839 13.355 2.905 12.548 2.905 11.908C2.905 11.268 3.839 10.457 5.282 9.845C5.632 9.695 6.016 9.56 6.412 9.434C6.644 10.233 6.949 11.064 7.328 11.916C6.96963 12.7174 6.66724 13.5427 6.423 14.386C6.03591 14.267 5.65509 14.1285 5.282 13.971ZM7.475 19.797C6.921 19.479 6.68 18.267 6.868 16.711C6.913 16.327 6.986 15.924 7.076 15.512C7.875 15.708 8.747 15.858 9.664 15.956C10.214 16.711 10.785 17.396 11.36 17.995C10.031 19.23 8.784 19.907 7.936 19.907C7.77608 19.9076 7.61733 19.8699 7.475 19.797ZM17.145 16.69C17.337 18.247 17.1 19.458 16.55 19.78C16.4062 19.8572 16.2441 19.8939 16.081 19.886C15.237 19.886 13.986 19.214 12.657 17.986C13.227 17.387 13.798 16.706 14.34 15.952C15.2136 15.8628 16.0801 15.7131 16.933 15.504C17.0283 15.916 17.099 16.3113 17.145 16.69ZM18.715 13.971C18.364 14.121 17.981 14.256 17.585 14.383C17.3345 13.536 17.0282 12.7065 16.668 11.9C17.043 11.052 17.345 10.225 17.573 9.43C17.9777 9.55667 18.3597 9.695 18.719 9.845C20.162 10.461 21.095 11.268 21.095 11.908C21.091 12.548 20.158 13.36 18.715 13.971Z" fill="black"/>
<path d="M11.996 13.771C12.4901 13.771 12.964 13.5747 13.3133 13.2253C13.6627 12.876 13.859 12.4021 13.859 11.908C13.859 11.4139 13.6627 10.94 13.3133 10.5907C12.964 10.2413 12.4901 10.045 11.996 10.045C11.5019 10.045 11.028 10.2413 10.6787 10.5907C10.3293 10.94 10.133 11.4139 10.133 11.908C10.133 12.4021 10.3293 12.876 10.6787 13.2253C11.028 13.5747 11.5019 13.771 11.996 13.771Z" fill="black"/>
</svg>
