<svg width="24" height="24" viewBox="0 0 24 24" fill="none" xmlns="http://www.w3.org/2000/svg">
<path d="M19.459 8.158C18.7764 8.57848 18.2111 9.16614 17.8157 9.86602C17.4204 10.5659 17.208 11.3552 17.1985 12.16C17.2013 13.0657 17.4682 13.9507 17.9661 14.7054C18.4641 15.4601 19.1712 16.0514 20 16.406C19.6742 17.4664 19.1907 18.4711 18.5659 19.386C17.6719 20.68 16.738 21.973 15.3169 21.973C13.8958 21.973 13.5308 21.143 11.8928 21.143C10.2957 21.143 9.7268 22 8.42699 22C7.12718 22 6.22119 20.802 5.17895 19.332C3.80255 17.2726 3.04601 14.8578 3 12.377C3 8.294 5.63941 6.13 8.23804 6.13C9.6184 6.13 10.769 7.042 11.6353 7.042C12.4607 7.042 13.7466 6.076 15.3169 6.076C16.1242 6.05479 16.9243 6.2336 17.6466 6.59668C18.3689 6.95976 18.9914 7.49596 19.459 8.158ZM14.573 4.348C15.2649 3.52865 15.6567 2.49558 15.6829 1.421C15.6841 1.27961 15.6704 1.13849 15.6421 1C14.4531 1.11629 13.3535 1.68596 12.5691 2.592C11.8699 3.37802 11.4633 4.38341 11.4185 5.437C11.4185 5.56567 11.432 5.69267 11.4592 5.818C11.5534 5.836 11.6482 5.845 11.7437 5.845C12.2916 5.80103 12.8249 5.64557 13.3113 5.38807C13.7976 5.13056 14.2269 4.77637 14.573 4.347V4.348Z" fill="black"/>
</svg>
