<svg width="24" height="24" viewBox="0 0 24 24" fill="none" xmlns="http://www.w3.org/2000/svg">
<path d="M17.1273 3.83157V3.88657H17.2651V4.25324H17.3287V3.88657H17.4665V3.83157H17.1273ZM17.9223 3.83157L17.7677 4.12574L17.6158 3.83157H17.5389V4.25324H17.5981V3.91741L17.75 4.20908H17.7898L17.9417 3.91741V4.25408H18V3.83241L17.9223 3.83157ZM14.1622 4.66491C13.982 4.92325 13.7877 5.21491 13.5793 5.54825L13.5439 5.59992C13.152 6.22568 12.7794 6.86206 12.4266 7.50826C12.2612 7.80826 12.0913 8.1266 11.917 8.46326L13.9193 8.25493C14.5023 8.00326 14.7628 7.77326 15.0163 7.44159C15.0854 7.34742 15.1531 7.25241 15.2195 7.15659C15.4226 6.85409 15.6258 6.52075 15.8051 6.18992C15.9791 5.86825 16.1319 5.55075 16.2511 5.26491C16.3247 5.08047 16.383 4.9138 16.426 4.76491C16.4625 4.6338 16.492 4.5088 16.5144 4.38991C15.7335 4.51491 14.7787 4.63574 14.1578 4.66491H14.1622ZM11.9064 8.4841L11.8384 8.61743C11.7695 8.74965 11.7 8.88521 11.6299 9.0241L11.4003 9.4841L11.2837 9.72327C10.8403 10.6303 10.42 11.5472 10.0233 12.4733C9.87958 12.8044 9.73443 13.1461 9.58781 13.4983C9.45532 13.815 9.32548 14.1358 9.19034 14.4683L9.17268 14.5183C9.04078 14.8483 8.9074 15.1872 8.77256 15.535L8.76373 15.5575L9.39968 15.4908C9.38716 15.4904 9.37472 15.4887 9.36258 15.4858C10.1248 15.3975 11.1379 14.8608 11.7916 14.1966C12.0936 13.8908 12.3674 13.53 12.6218 13.1083C12.8097 12.795 12.9875 12.4455 13.1553 12.0599C13.3037 11.7227 13.445 11.3566 13.5793 10.9616C13.4062 11.0491 13.2057 11.1116 12.9848 11.1574C12.9055 11.1755 12.8249 11.1883 12.7437 11.1958C13.4556 10.9374 13.9043 10.4416 14.2302 9.8291C13.9719 9.99819 13.6817 10.1192 13.3752 10.1858C13.3234 10.1958 13.2722 10.2041 13.2216 10.2108L13.1836 10.2158H13.1853C13.4309 10.1174 13.6393 10.0091 13.8195 9.87994C14.0432 9.7201 14.2338 9.52296 14.3822 9.29827L14.4378 9.2116L14.5058 9.08327C14.6283 8.85326 14.7365 8.61675 14.83 8.37493L14.8565 8.3016C14.9035 8.17592 14.9399 8.0469 14.9651 7.91576C14.9386 7.9353 14.9108 7.95338 14.8821 7.96993C14.6675 8.09076 14.2991 8.20076 14.0024 8.25326L14.588 8.1916L14.0015 8.25243H13.9865L13.8981 8.2666C13.9028 8.26382 13.9078 8.2616 13.9131 8.25993L11.9126 8.46826L11.9011 8.4866L11.9064 8.4841ZM8.70543 15.7091C8.6018 15.9786 8.49728 16.2541 8.39187 16.5358L8.38746 16.5483L8.34329 16.6666C8.27263 16.8558 8.21081 17.0266 8.06948 17.4166C8.30266 17.5166 8.48903 17.7791 8.66569 18.0775C8.64888 17.7621 8.50099 17.4657 8.25409 17.2525C9.39614 17.3025 10.3827 17.0275 10.895 16.2383C10.9392 16.1683 10.9804 16.0939 11.0187 16.015C10.789 16.2925 10.4976 16.41 9.95878 16.3816L9.95437 16.3833L9.9579 16.3816C10.7528 16.045 11.1538 15.7233 11.5071 15.1875C11.5896 15.0602 11.672 14.9205 11.7545 14.7683C11.0584 15.4433 10.2511 15.635 9.40144 15.4891L8.76549 15.5541L8.70632 15.7066L8.70543 15.7091ZM15.0208 2.09407C14.6887 2.27907 14.1375 2.8024 13.4768 3.56324L14.0827 4.64158C14.5067 4.06908 14.9395 3.55241 15.3741 3.11157L15.4253 3.0599C15.4076 3.07657 15.3908 3.09379 15.3749 3.11157C15.2336 3.25824 14.8061 3.72824 14.1605 4.66408C14.7814 4.63491 15.7362 4.51408 16.5152 4.38908C16.7467 3.16407 16.2874 2.60407 16.2874 2.60407C16.2874 2.60407 15.7044 1.7124 15.019 2.09573L15.0208 2.09407ZM12.2968 7.42909C12.6595 6.78964 13.0442 6.16152 13.4503 5.54575L13.4856 5.49242C13.6835 5.19853 13.8828 4.91519 14.0836 4.64241L13.4786 3.56491L13.3399 3.72491C13.165 3.92991 12.9845 4.14935 12.7985 4.38324C12.166 5.18269 11.5718 6.00853 11.0178 6.85826L10.9984 6.88992L11.7871 8.3591C11.9544 8.04354 12.1237 7.73298 12.295 7.42743L12.2968 7.42909ZM9.00221 14.3625C9.14176 14.0241 9.28397 13.6875 9.42882 13.3416C9.56661 13.0133 9.71147 12.6833 9.85632 12.3499C10.3043 11.3393 10.7755 10.338 11.2695 9.3466L11.4506 8.99327C11.5566 8.79077 11.6599 8.5891 11.7686 8.38993C11.7717 8.3777 11.7778 8.36631 11.7863 8.3566L10.9957 6.88742L10.9569 6.94576C10.771 7.23283 10.5893 7.5223 10.4119 7.81409C10.0722 8.37139 9.75051 8.93833 9.44737 9.5141L9.36435 9.67494C8.93371 10.5082 8.56251 11.3676 8.2532 12.2474C8.06826 12.7939 7.91494 13.3495 7.79391 13.9116L8.58531 15.3866C8.68953 15.1222 8.7967 14.8547 8.90682 14.5841L9.00221 14.3625ZM7.78684 13.9658C7.68526 14.431 7.61621 14.902 7.58016 15.3758L7.57574 15.4258C7.32843 15.0508 6.66598 14.6858 6.66951 14.6891C7.14382 15.3375 7.50331 15.9808 7.55719 16.6141C7.30105 16.6625 6.95304 16.5916 6.55027 16.4516C6.96982 16.815 7.28338 16.915 7.40704 16.9416C7.0237 16.9666 6.62093 17.215 6.21817 17.5C6.80819 17.275 7.28691 17.1833 7.62785 17.2583C7.08906 18.7083 6.54144 20.3042 6 22C6.07512 21.9795 6.14373 21.9418 6.1998 21.8904C6.25586 21.8389 6.29766 21.7753 6.32151 21.705C6.41867 21.3983 7.06345 19.3833 8.0686 16.7341L8.15428 16.5091L8.17901 16.4441C8.28559 16.1675 8.3957 15.8841 8.50935 15.5941L8.58884 15.3966V15.3933L7.79567 13.9175C7.79302 13.9341 7.78684 13.9508 7.78507 13.9675L7.78684 13.9658Z" fill="black"/>
</svg>
