<svg width="24" height="24" viewBox="0 0 24 24" fill="none" xmlns="http://www.w3.org/2000/svg">
<path d="M3.97376 13.4086C5.06432 13.4086 5.94848 12.5821 5.94848 11.5616C5.94848 10.5411 5.06528 9.71456 3.97376 9.71456C2.88416 9.71456 2 10.5411 2 11.5616C2 12.5821 2.8832 13.4086 3.97376 13.4086ZM17.7862 21.1194C18.8768 21.1194 19.76 20.2938 19.76 19.2723C19.76 18.2528 18.8768 17.4253 17.7862 17.4253C16.6957 17.4253 15.8115 18.2528 15.8115 19.2723C15.8115 20.2928 16.6957 21.1194 17.7862 21.1194ZM13.1821 6.95168C15.5802 6.95168 17.5702 8.67392 17.8995 10.9069H21.2C21.0469 9.14297 20.2829 7.4878 19.04 6.22688C18.6279 6.43 18.1727 6.53016 17.7134 6.51879C17.2541 6.50742 16.8044 6.38486 16.4029 6.1616C16.0075 5.94487 15.6737 5.63116 15.4329 5.24995C15.1921 4.86874 15.0521 4.43256 15.0262 3.9824C13.2581 3.58482 11.4086 3.77178 9.75584 4.5152L11.408 7.28288C11.9737 7.0635 12.5753 6.95119 13.1821 6.95168Z" fill="black"/>
<path d="M17.9005 12.2144C17.5712 14.4483 15.5811 16.1715 13.1821 16.1715C12.5749 16.1718 11.973 16.0592 11.407 15.8394L9.75488 18.608C10.8314 19.0959 12.0001 19.347 13.1821 19.3443C13.8109 19.3443 14.4301 19.2742 15.0272 19.1398C15.0529 18.6893 15.1928 18.2526 15.4338 17.871C15.6748 17.4895 16.009 17.1755 16.4048 16.9587C16.8065 16.7353 17.2563 16.6126 17.7158 16.6013C18.1753 16.5899 18.6307 16.6902 19.0429 16.8934C20.2846 15.6323 21.0474 13.9776 21.2 12.2144H17.9005ZM8.41568 11.5616C8.41568 10.0928 9.12992 8.7824 10.2397 7.9376L8.58656 5.16992C8.1965 5.43376 7.83001 5.73087 7.4912 6.05792C6.55354 6.95618 5.85894 8.07752 5.47232 9.31712C5.85641 9.55291 6.174 9.88278 6.39507 10.2755C6.61614 10.6683 6.73337 11.1109 6.73568 11.5616C6.73568 12.5024 6.23264 13.329 5.47232 13.8051C5.85894 15.0447 6.55354 16.1661 7.4912 17.0643C7.8304 17.392 8.1952 17.688 8.5856 17.9523L10.2368 15.1846C9.128 14.3398 8.41568 13.0294 8.41568 11.5616ZM17.7843 5.69408C18.8749 5.69408 19.7581 4.86752 19.7581 3.84704C19.7581 2.82656 18.8749 2 17.7843 2C16.6938 2 15.8106 2.82656 15.8106 3.84704C15.8106 4.86752 16.6938 5.69408 17.7843 5.69408Z" fill="black"/>
</svg>
