<svg width="24" height="24" viewBox="0 0 24 24" fill="none" xmlns="http://www.w3.org/2000/svg">
<path d="M3.91011 2.01329C4.28211 1.96529 4.66011 2.04829 4.97711 2.24629L15.8231 8.39629L13.0781 11.1663L3.91011 2.01329ZM3.07511 2.84629C3.02402 3.0275 2.99877 3.21502 3.00011 3.40329V20.5953C2.99811 20.7846 3.02311 20.9703 3.07511 21.1523L12.2521 12.0003L3.07511 2.84629ZM13.0871 12.8313L3.91011 21.9853C4.28211 22.0373 4.66111 21.9553 4.97711 21.7523L15.8231 15.6023L13.0871 12.8313ZM20.1951 10.8843L16.9081 9.02029L13.9041 11.9993L16.8991 14.9863L20.1871 13.1223C21.2711 12.5073 21.2711 11.4923 20.1871 10.8763L20.1951 10.8843Z" fill="black"/>
</svg>
