<svg width="24" height="24" viewBox="0 0 24 24" fill="none" xmlns="http://www.w3.org/2000/svg">
<path fill-rule="evenodd" clip-rule="evenodd" d="M4.31842 5.34439C8.7805 0.150788 17.0557 1.17607 20.1488 7.24135H12.7146C11.3754 7.24135 10.5104 7.21159 9.57346 7.70503C9.01641 8.00411 8.5299 8.41908 8.14671 8.922C7.76353 9.42491 7.49254 10.0041 7.35202 10.6205L4.31842 5.34439Z" fill="black"/>
<path fill-rule="evenodd" clip-rule="evenodd" d="M8.4061 11.5997C8.40737 12.4456 8.74381 13.2565 9.34174 13.8548C9.93966 14.453 10.7503 14.79 11.5962 14.7917C12.4422 14.7902 13.2531 14.4534 13.8512 13.8551C14.4494 13.2568 14.7859 12.4458 14.7872 11.5997C14.7862 10.7536 14.4497 9.9423 13.8516 9.34378C13.2534 8.74526 12.4424 8.40831 11.5962 8.40679C10.7503 8.40856 9.93966 8.7455 9.34174 9.34378C8.74381 9.94207 8.40737 10.7539 8.4061 11.5997Z" fill="black"/>
<path fill-rule="evenodd" clip-rule="evenodd" d="M12.8346 15.7777C11.0442 16.3095 8.9485 15.7201 7.80034 13.7386C6.38304 11.2801 4.96864 8.81997 3.55714 6.35815C-0.129262 12.0068 3.04834 19.7041 9.73858 21.0173L12.8346 15.7777Z" fill="black"/>
<path fill-rule="evenodd" clip-rule="evenodd" d="M14.5607 8.40679C15.2828 9.07989 15.7556 9.97778 15.9021 10.9541C16.0485 11.9303 15.8599 12.9274 15.3671 13.7828C14.6048 15.0941 12.176 19.1953 10.9991 21.1805C17.8919 21.6049 22.9175 14.8493 20.6471 8.40679H14.5607Z" fill="black"/>
</svg>
