<svg width="24" height="24" viewBox="0 0 24 24" fill="none" xmlns="http://www.w3.org/2000/svg">
<path fill-rule="evenodd" clip-rule="evenodd" d="M2.57471 3.51349C2.39999 3.85621 2.39999 4.30357 2.39999 5.20021V19.2796C2.39999 20.1762 2.39999 20.6236 2.57471 20.9663C2.72831 21.2677 2.97215 21.5125 3.27359 21.6652C3.61631 21.8399 4.06367 21.8399 4.96031 21.8399H19.0397C19.9363 21.8399 20.3837 21.8399 20.7264 21.6652C21.0278 21.5116 21.2726 21.2677 21.4253 20.9663C21.6 20.6236 21.6 20.1762 21.6 19.2796V5.20021C21.6 4.30357 21.6 3.85621 21.4253 3.51349C21.2717 3.21274 21.0271 2.96816 20.7264 2.81461C20.3837 2.63989 19.9363 2.63989 19.0397 2.63989H4.96031C4.06367 2.63989 3.61631 2.63989 3.27359 2.81461C2.97215 2.96821 2.72735 3.21205 2.57471 3.51349ZM6.60959 13.0559V12.2735L6.62399 12.2783V11.4911L9.98399 11.4767C11.832 11.4767 13.3536 11.4815 13.3536 11.4959C13.3728 11.5055 13.3728 11.8559 13.3728 12.2879V13.0559H10.8768V20.1599H9.10559V13.0559H6.60959ZM19.0272 12.1583C18.7061 11.813 18.2876 11.5736 17.8272 11.4719L17.8368 11.4623C17.5056 11.3759 16.7136 11.3471 16.3776 11.4143C15.3408 11.6063 14.616 12.2783 14.4096 13.2383C14.3424 13.5119 14.3664 14.1935 14.4384 14.4719C14.5344 14.7935 14.7408 15.1823 14.9664 15.4319C15.36 15.8447 15.7824 16.1135 16.776 16.5359C17.64 16.9199 17.9472 17.0927 18.1008 17.3039C18.2112 17.4719 18.2448 17.5727 18.2448 17.7935C18.2448 18.0335 18.168 18.2063 17.9904 18.3695C17.5776 18.7439 16.7424 18.7871 16.1184 18.4655C15.912 18.3503 15.5568 18.0143 15.3984 17.7647L15.2736 17.5967L14.7312 17.9135L14.0112 18.3311L13.8288 18.4463C13.8096 18.4799 14.1504 18.9935 14.328 19.1855C14.7792 19.6799 15.5136 20.0639 16.2816 20.2079C16.6416 20.2703 17.4096 20.2799 17.7456 20.2223C18.816 20.0447 19.5648 19.5023 19.872 18.7007C20.1456 17.9663 20.0544 16.9871 19.6464 16.3631C19.2864 15.8063 18.6912 15.4175 17.3184 14.8271C16.5744 14.5007 16.3344 14.3423 16.2048 14.0783C16.1463 13.9657 16.1166 13.8404 16.1184 13.7135C16.1184 13.2095 16.5024 12.9071 17.0784 12.9455C17.4768 12.9743 17.7312 13.1279 17.9808 13.4831C18.0576 13.6079 18.1344 13.6895 18.1536 13.6751C18.6576 13.3631 19.488 12.8015 19.488 12.7727C19.4688 12.6863 19.2048 12.3503 19.0272 12.1583Z" fill="black"/>
</svg>
