<svg width="24" height="24" viewBox="0 0 24 24" fill="none" xmlns="http://www.w3.org/2000/svg">
<path d="M14.9987 16.9698C15.2029 15.4039 14.1288 14.4055 11.2926 13.5555C9.91844 13.1155 9.27131 12.5388 9.2864 11.7462C9.3441 10.8662 10.2167 10.2253 11.3743 10.2045C12.2859 10.2137 13.175 10.4714 13.9335 10.9462C14.0364 11.0062 14.1083 10.9962 14.1669 10.9129C14.2468 10.7929 14.4466 10.502 14.5131 10.3962C14.5584 10.3295 14.5673 10.2412 14.4528 10.1628C14.2885 10.0487 13.8278 9.81699 13.5802 9.71949C12.8748 9.43923 12.1171 9.29362 11.3512 9.29114C9.65568 9.2978 8.32148 10.3037 8.20875 11.6462C8.13655 12.6163 8.64845 13.4016 9.74445 14.0022C9.97792 14.1288 11.2358 14.5989 11.7364 14.7455C13.3112 15.2056 14.1288 16.0306 13.9361 16.9931C13.7613 17.8657 12.783 18.4299 11.4346 18.4465C10.3667 18.4082 9.40447 17.999 8.65881 17.4548L8.53364 17.3631C8.44132 17.2965 8.34013 17.3006 8.27887 17.3881C8.23449 17.4523 7.9451 17.844 7.87231 17.9465C7.80396 18.0365 7.84124 18.0865 7.91226 18.1415C8.22295 18.3857 8.6375 18.6524 8.9189 18.7874C9.69834 19.1602 10.5558 19.3671 11.4302 19.3932C12.0597 19.4213 12.6882 19.3207 13.2721 19.0982C14.2442 18.7107 14.8726 17.9365 14.9987 16.9698ZM11.5003 3.16755C9.66456 3.16755 8.16791 4.79262 8.09778 6.82603H14.9019C14.83 4.79178 13.3343 3.16672 11.5003 3.16672M18.4696 21.9992L18.3986 22L4.38724 21.9983C3.43386 21.965 2.73347 21.24 2.6376 20.3391L2.62872 20.1766L2.00112 7.23772C1.99701 7.18574 2.00423 7.13352 2.02234 7.08425C2.04046 7.03498 2.06908 6.98969 2.10647 6.95116C2.14386 6.91263 2.18922 6.88166 2.23979 6.86015C2.29036 6.83863 2.34507 6.82702 2.40058 6.82603H6.81685C6.92426 4.14009 8.97926 2 11.5003 2C14.0213 2 16.0746 4.14092 16.1829 6.8252H20.5929C20.6482 6.82536 20.7028 6.83604 20.7535 6.85659C20.8042 6.87715 20.85 6.90715 20.888 6.94477C20.926 6.9824 20.9555 7.02688 20.9746 7.07551C20.9938 7.12415 21.0023 7.17593 20.9995 7.22772L20.3133 20.2183L20.3071 20.3274C20.2236 21.2391 19.438 21.975 18.4696 21.9992Z" fill="black"/>
</svg>
