<svg width="24" height="24" viewBox="0 0 24 24" fill="none" xmlns="http://www.w3.org/2000/svg">
<path d="M3.27095 6.6969C1.49929 9.33907 1.71929 12.7755 3.07345 15.5811C3.10511 15.6486 3.13789 15.7147 3.17178 15.7793C3.19122 15.8231 3.21261 15.8663 3.23595 15.909C3.24761 15.9333 3.26067 15.9569 3.27511 15.98C3.29733 16.025 3.31983 16.0688 3.34261 16.1115L3.47344 16.3416C3.49844 16.384 3.52094 16.4255 3.54844 16.4679C3.59511 16.5492 3.64844 16.6297 3.69678 16.711C3.71733 16.7456 3.73928 16.7794 3.76261 16.8122C3.84309 16.9446 3.92928 17.073 4.02094 17.1972C4.08483 17.2895 4.1515 17.3804 4.22094 17.4698L4.29261 17.5693L4.47594 17.802C4.49927 17.8279 4.52177 17.8599 4.54594 17.8876C4.62816 17.9891 4.71316 18.0901 4.80094 18.1904L4.8051 18.1956C4.91036 18.3347 5.02903 18.4623 5.15927 18.5763C5.22538 18.6484 5.29343 18.719 5.36343 18.7882L5.4476 18.8722C5.53926 18.9633 5.63371 19.0524 5.73093 19.1395C5.73093 19.1395 5.73343 19.1404 5.7351 19.1421L5.7826 19.1854C5.8676 19.2632 5.95371 19.3382 6.04093 19.4103L6.14509 19.5011L6.36176 19.6742L6.47593 19.765C6.55343 19.8256 6.63592 19.8853 6.71509 19.9441C6.74398 19.966 6.77342 19.9871 6.80342 20.0072L6.82842 20.0271L7.06176 20.1872L7.16175 20.2564C7.28453 20.3372 7.40675 20.4156 7.52842 20.4917C7.56342 20.5096 7.59759 20.5292 7.63092 20.5506C7.72203 20.6054 7.81342 20.6581 7.90508 20.7089C7.95508 20.7377 8.00619 20.7648 8.05842 20.7902C8.12119 20.826 8.18619 20.862 8.25342 20.8984C8.26958 20.9033 8.28521 20.91 8.30008 20.9182L8.38008 20.9589C8.48008 21.0108 8.58425 21.0613 8.69258 21.1103C8.71313 21.1184 8.73425 21.1282 8.75591 21.1397C8.87536 21.1939 8.99702 21.2464 9.12091 21.2972C9.14924 21.3058 9.17924 21.3205 9.20841 21.3318C9.32174 21.3768 9.43591 21.4206 9.55091 21.4633L9.59257 21.4789C9.72035 21.5239 9.84813 21.5671 9.97591 21.6086L10.0684 21.6372C10.2017 21.6787 10.3301 21.728 10.4634 21.7557C19.0242 23.3753 21.5117 16.4117 21.5117 16.4117C19.4217 19.2373 15.7134 19.9822 12.2001 19.1533C12.0701 19.1222 11.9401 19.0789 11.8084 19.0391C11.6498 18.9901 11.4923 18.9376 11.3359 18.8817L11.2842 18.8609C11.172 18.8205 11.0609 18.7779 10.9509 18.7329L10.8592 18.6983C10.737 18.6464 10.6167 18.5933 10.4984 18.5391C10.4726 18.5304 10.4509 18.5183 10.4251 18.5079L10.1234 18.3609L10.0351 18.3159C9.95674 18.2778 9.87841 18.2337 9.80174 18.1922C9.7491 18.1659 9.69714 18.1382 9.64591 18.1091C9.55091 18.0572 9.45674 18.001 9.36258 17.9473C9.33369 17.9271 9.30258 17.9081 9.26924 17.8902C9.1461 17.8144 9.02414 17.7365 8.90341 17.6566C8.86988 17.6353 8.83708 17.6128 8.80508 17.5891C8.71664 17.5323 8.62993 17.4726 8.54508 17.4101L8.45925 17.3469C8.37624 17.2873 8.29428 17.2262 8.21342 17.1635C8.17786 17.1347 8.14119 17.1058 8.10342 17.077C8.03008 17.0164 7.95592 16.9602 7.88258 16.897L7.78425 16.8148C7.68966 16.736 7.59659 16.6553 7.50509 16.5726L7.47425 16.5458L7.18509 16.2724L7.10176 16.1911C7.03342 16.119 6.96398 16.048 6.89342 15.9782L6.81176 15.8917C6.72371 15.8008 6.63785 15.7076 6.55426 15.6123L6.54176 15.5984C6.45343 15.4981 6.36648 15.3957 6.28093 15.2913C6.25871 15.2648 6.23648 15.2368 6.21426 15.2074L6.0251 14.9677C5.92898 14.8396 5.83453 14.7101 5.74176 14.5793C3.79344 11.8186 3.08845 8.00674 4.6476 4.88095M8.76675 4.47174C7.48342 6.38458 7.55509 8.9437 8.55508 10.9673C8.72004 11.3079 8.90888 11.6356 9.12008 11.9475C9.31174 12.233 9.52341 12.5713 9.78091 12.8023C9.87091 12.9067 9.96646 13.0105 10.0676 13.1137L10.1426 13.1916C10.2381 13.2862 10.3353 13.3799 10.4342 13.4728L10.4476 13.484C10.56 13.5858 10.675 13.6845 10.7926 13.7799C10.8209 13.7998 10.8451 13.8231 10.8726 13.843C10.9892 13.9359 11.1081 14.027 11.2292 14.1164L11.2417 14.1242C11.2934 14.1623 11.3484 14.1998 11.4067 14.2367C11.4301 14.2523 11.4567 14.273 11.4817 14.2886C11.5695 14.3463 11.6578 14.4031 11.7467 14.459L11.7867 14.4789C11.8617 14.5265 11.9434 14.5724 12.0217 14.6148C12.0492 14.6321 12.0759 14.645 12.1051 14.6615C12.1606 14.6903 12.2153 14.7197 12.2692 14.7497L12.2959 14.7618C12.4092 14.8195 12.5226 14.8743 12.6359 14.9262C12.6637 14.9378 12.6892 14.949 12.7126 14.96C12.8053 15.0015 12.8987 15.041 12.9926 15.0785C13.0342 15.0932 13.0734 15.1105 13.1126 15.1235C13.1976 15.1563 13.2876 15.1866 13.3709 15.2169L13.4876 15.2558C13.61 15.2948 13.7334 15.3458 13.8617 15.3683C20.47 16.5042 22 11.2199 22 11.2199C20.6225 13.279 17.9567 14.2592 15.1159 13.4935C14.9901 13.4598 14.8653 13.4223 14.7417 13.3811C14.7017 13.3689 14.6667 13.356 14.6284 13.3439C14.5417 13.3127 14.4525 13.2833 14.3684 13.2496L14.2484 13.2028C14.1542 13.1639 14.0592 13.1276 13.9684 13.086C13.94 13.0731 13.9142 13.0644 13.8925 13.0514C13.7753 12.9978 13.6592 12.9424 13.5442 12.8853L13.3726 12.7928L13.2734 12.7408C13.1987 12.6995 13.1251 12.6563 13.0526 12.6111L13.0009 12.5808C12.9126 12.5237 12.8201 12.4683 12.7359 12.4095C12.7081 12.3922 12.6812 12.3743 12.6551 12.3559L12.4817 12.2382C12.3617 12.1517 12.2442 12.0582 12.1251 11.9674C12.0984 11.9432 12.0723 11.9204 12.0467 11.8991C10.7976 10.8799 9.81257 9.48528 9.34508 7.90811C8.85341 6.26692 8.96174 4.42761 9.81174 2.9335M13.3884 2.80632C12.6309 3.96043 12.5584 5.39312 13.0801 6.66489C13.6342 8.01712 14.7667 9.07866 16.0867 9.58045C16.14 9.60121 16.1945 9.6214 16.25 9.64101L16.3234 9.66437C16.4 9.69032 16.4775 9.71887 16.5567 9.73704C20.2075 10.4681 21.1958 7.79045 21.4617 7.39767C20.5925 8.69367 19.135 9.00426 17.3467 8.55265C17.2011 8.51459 17.0575 8.46838 16.9167 8.41423C16.7412 8.35097 16.5693 8.2776 16.4017 8.19448C16.0839 8.03509 15.782 7.84385 15.5 7.62348C13.8984 6.36295 12.9059 3.9587 13.9509 2" fill="black"/>
</svg>
