<svg width="24" height="24" viewBox="0 0 24 24" fill="none" xmlns="http://www.w3.org/2000/svg">
<path fill-rule="evenodd" clip-rule="evenodd" d="M5.838 2H17.162C18.1801 2 19.1565 2.4043 19.8766 3.124C20.5967 3.84371 21.0015 4.81992 21.002 5.838V17.162C21.002 19.282 19.282 21 17.164 21H5.838C5.33408 21.0003 4.83505 20.9012 4.36941 20.7086C3.90378 20.5159 3.48066 20.2334 3.12425 19.8772C2.76783 19.5209 2.48509 19.098 2.29219 18.6324C2.09929 18.1669 2 17.6679 2 17.164V5.838C1.99974 5.33391 2.09883 4.83472 2.29162 4.36895C2.4844 3.90318 2.76709 3.47998 3.12354 3.12354C3.47998 2.76709 3.90318 2.4844 4.36895 2.29162C4.83472 2.09883 5.33391 1.99974 5.838 2ZM11.804 5.7L11.419 6.365L11.042 5.698C10.9216 5.5108 10.7339 5.37705 10.5176 5.32447C10.3013 5.27188 10.0731 5.30448 9.88023 5.41551C9.68734 5.52655 9.54453 5.70751 9.48138 5.92093C9.41823 6.13435 9.43958 6.36388 9.541 6.562L10.421 8.092L7.601 12.982H5.395C5.28131 12.9815 5.16863 13.0035 5.0635 13.0468C4.95837 13.0901 4.86287 13.1538 4.78252 13.2342C4.70217 13.3147 4.63857 13.4102 4.5954 13.5154C4.55223 13.6206 4.53034 13.7333 4.531 13.847C4.531 14.327 4.915 14.711 5.395 14.711H13.257C13.634 14.003 13.147 12.982 12.278 12.982H9.597L13.304 6.565C13.3608 6.46644 13.3976 6.35766 13.4124 6.24487C13.4271 6.13208 13.4195 6.01749 13.39 5.90764C13.3605 5.79779 13.3096 5.69483 13.2403 5.60464C13.171 5.51445 13.0846 5.4388 12.986 5.382C12.8874 5.3252 12.7787 5.28838 12.6659 5.27362C12.5531 5.25886 12.4385 5.26646 12.3286 5.29599C12.2188 5.32552 12.1158 5.3764 12.0256 5.44572C11.9355 5.51504 11.8608 5.60144 11.804 5.7ZM7.254 17.043L8.084 15.602C7.636 15.06 7.068 14.894 6.37 15.11L5.752 16.179C5.69385 16.2776 5.65584 16.3868 5.64015 16.5002C5.62447 16.6136 5.63143 16.729 5.66063 16.8397C5.68982 16.9504 5.74068 17.0542 5.81026 17.1451C5.87983 17.236 5.96674 17.3123 6.06597 17.3694C6.16519 17.4265 6.27475 17.4634 6.38831 17.4779C6.50188 17.4924 6.61719 17.4842 6.72758 17.4538C6.83797 17.4235 6.94124 17.3716 7.03143 17.301C7.12162 17.2305 7.19693 17.1428 7.253 17.043H7.254ZM17.492 12.987H15.243L14.746 12.126C13.8593 10.5887 13.1757 9.407 12.695 8.581C12.184 9.006 11.666 10.261 12.391 11.509L13.544 13.509C14.114 14.495 14.7943 15.673 15.585 17.043C15.7054 17.2302 15.8931 17.3639 16.1094 17.4165C16.3257 17.4691 16.5539 17.4365 16.7468 17.3255C16.9397 17.2145 17.0825 17.0335 17.1456 16.8201C17.2088 16.6066 17.1874 16.3771 17.086 16.179L16.243 14.716H17.493C17.6067 14.7165 17.7194 14.6945 17.8245 14.6512C17.9296 14.6079 18.0251 14.5442 18.1055 14.4638C18.1858 14.3833 18.2494 14.2878 18.2926 14.1826C18.3358 14.0774 18.3577 13.9647 18.357 13.851C18.3575 13.7373 18.3355 13.6246 18.2922 13.5195C18.2489 13.4144 18.1852 13.3189 18.1048 13.2385C18.0243 13.1582 17.9288 13.0946 17.8236 13.0514C17.7184 13.0082 17.6057 12.9863 17.492 12.987Z" fill="black"/>
</svg>
