<svg width="24" height="24" viewBox="0 0 24 24" fill="none" xmlns="http://www.w3.org/2000/svg">
<path d="M2.18965 8.90287C2.18965 8.90287 1.70365 8.55087 2.28765 8.08287L3.64965 6.86387C3.75066 6.75388 3.8902 6.68709 4.03922 6.6774C4.18824 6.66771 4.33525 6.71588 4.44965 6.81187L17.0166 16.3309V20.8969C17.0166 20.8969 17.0166 21.6129 16.0896 21.5329L2.18965 8.90287Z" fill="black"/>
<path d="M5.42065 11.8449L2.18965 14.7909C2.18965 14.7909 1.85765 15.0389 2.18965 15.4809L3.69365 16.8499C3.69365 16.8499 4.05265 17.2339 4.58065 16.7979L8.01665 14.1969L5.42065 11.8429V11.8449ZM11.1096 11.8699L17.0546 7.32987L17.0166 2.79987C17.0166 2.79987 16.7626 1.79987 15.9166 2.31587L8.00665 9.51887L11.1096 11.8699Z" fill="black"/>
<path d="M16.0896 21.5399C16.1861 21.6412 16.3068 21.7161 16.4403 21.7576C16.5739 21.7991 16.7158 21.8057 16.8526 21.7769L21.4846 19.4939C22.0846 19.0939 21.9946 18.5899 21.9946 18.5899V4.95987C21.9946 4.35887 21.3826 4.15887 21.3826 4.15887L17.3666 2.21787C16.4896 1.67587 15.9166 2.31587 15.9166 2.31587C15.9166 2.31587 16.6546 1.78387 17.0166 2.79987V20.8099C17.0178 20.9331 16.9904 21.0549 16.9366 21.1659C16.8306 21.3779 16.6026 21.5779 16.0516 21.4939L16.0896 21.5399Z" fill="black"/>
</svg>
