<svg width="24" height="24" viewBox="0 0 24 24" fill="none" xmlns="http://www.w3.org/2000/svg">
<path d="M7.89189 10.9393V14.3674H6.86313V10.0582H8.98566C9.88754 10.0582 10.1932 10.7356 10.1932 11.3473V14.3674H9.16753V11.354C9.16753 11.0945 9.04378 10.9393 8.74128 10.9393H7.89189ZM14.8845 10.8875C14.5295 10.8875 14.2595 11.0773 14.1457 11.34C14.0803 11.4856 14.0469 11.6451 14.0482 11.8064H15.6301C15.6107 11.34 15.4089 10.8875 14.8845 10.8875ZM14.0476 12.5495C14.0476 13.1062 14.3732 13.5208 14.9589 13.5208C15.4114 13.5208 15.6357 13.3861 15.8995 13.1062L16.5345 13.7524C16.1307 14.1777 15.7014 14.4364 14.9495 14.4364C13.9663 14.4364 13.0257 13.8665 13.0257 12.2078C13.0257 10.7874 13.8463 9.9859 14.927 9.9859C16.0239 9.9859 16.6557 10.926 16.6557 12.1561V12.5469H14.0482L14.0476 12.5495ZM12.1563 14.3601C11.3194 14.3601 10.9651 13.7418 10.9651 13.13V8.88322H11.9907V10.0582H12.762V10.9393H11.9907V13.061C11.9907 13.3132 12.1013 13.4518 12.3457 13.4518H12.7626V14.3608L12.1563 14.3601ZM5.94874 9.46375H4.91373V8.41681H5.94874V9.46375ZM5.95187 14.4119C5.17686 14.3322 4.91373 13.8346 4.91373 13.2574V10.0576H5.94874V14.4152L5.95187 14.4119ZM18.2895 14.319C17.5145 14.2394 17.2545 13.7418 17.2545 13.1685V8.27217H18.2895V14.323V14.319ZM21.9121 8.98009C20.9746 4.11823 12.0844 3.81039 6.35875 7.51118V7.92253C12.0782 4.79894 20.197 4.81951 20.9358 9.29125C21.1802 10.7734 20.3952 12.3147 18.9927 13.203V14.3641C20.682 13.7073 22.4133 11.5789 21.9121 8.98009ZM11.4988 17.4804C7.54689 17.8672 3.42559 17.2555 2.84933 13.9799C2.56933 12.3624 3.26621 10.6487 4.1806 9.5845V9.0179C2.52683 10.5591 1.62869 12.5117 2.1462 14.8166C2.80683 17.7743 6.3425 19.4502 11.7363 18.8942C13.872 18.6733 16.6682 17.9441 18.6083 16.8103V15.2034C16.847 16.3193 13.927 17.2422 11.4988 17.4804ZM19.487 8.59329C19.487 8.54154 19.4545 8.52429 19.3895 8.52429H19.3245V8.67622H19.3895C19.4545 8.67622 19.487 8.65565 19.487 8.6039V8.59329ZM19.5883 8.96947H19.5102C19.5068 8.96941 19.5035 8.96839 19.5007 8.96652C19.4978 8.96466 19.4955 8.96201 19.4939 8.95886L19.3895 8.76911C19.385 8.7649 19.3793 8.76254 19.3733 8.76247H19.3277V8.9489C19.3277 8.95952 19.3177 8.96947 19.3083 8.96947H19.2402C19.2302 8.96947 19.2208 8.95886 19.2208 8.9489V8.47519C19.2208 8.45131 19.2339 8.43737 19.2533 8.43339C19.2958 8.43074 19.3381 8.42963 19.3802 8.43008C19.507 8.43008 19.5852 8.46789 19.5852 8.59594V8.60258C19.5852 8.68219 19.5458 8.72333 19.4908 8.74456L19.5983 8.93829C19.5983 8.94161 19.6014 8.9489 19.6014 8.95222C19.6045 8.95886 19.5983 8.96947 19.5883 8.96947ZM19.4058 8.34051C19.3151 8.34051 19.2282 8.37874 19.164 8.4468C19.0999 8.51486 19.0639 8.60717 19.0639 8.70342C19.067 8.90379 19.2202 9.06634 19.4089 9.06634C19.4986 9.06581 19.5845 9.02776 19.6479 8.96044C19.7113 8.89311 19.7472 8.80195 19.7477 8.70674C19.748 8.61008 19.7122 8.51722 19.6481 8.44856C19.584 8.3799 19.4968 8.34104 19.4058 8.34051ZM19.4058 9.14264C19.2966 9.14264 19.1919 9.09661 19.1148 9.01467C19.0376 8.93274 18.9942 8.82162 18.9942 8.70575C18.9942 8.58988 19.0376 8.47875 19.1148 8.39682C19.1919 8.31488 19.2966 8.26886 19.4058 8.26886C19.6302 8.26886 19.8189 8.4659 19.8189 8.7074C19.8189 8.9489 19.6302 9.14264 19.4058 9.14264Z" fill="black"/>
</svg>
