<svg width="24" height="24" viewBox="0 0 24 24" fill="none" xmlns="http://www.w3.org/2000/svg">
<path d="M14.7534 9.52491C14.3787 9.63013 14.0693 9.6865 13.7531 9.81052C13.5021 9.88192 13.2477 9.95708 12.9556 10.0398L12.9349 10.0435C12.7906 10.0886 12.7768 10.0924 12.6428 9.92326C12.4812 9.72408 12.3643 9.59631 12.1409 9.47605C11.4637 9.11528 10.8106 9.22051 10.2021 9.65268C9.47339 10.1675 9.09871 10.9304 9.10902 11.8774C9.11933 12.8169 9.70714 13.5873 10.5253 13.7151C11.2815 13.8203 11.8934 13.5422 12.3746 12.9447C12.4468 12.847 12.5121 12.7455 12.5843 12.6328C12.6118 12.5952 12.6359 12.5539 12.6634 12.5088H10.5974C10.374 12.5088 10.319 12.3585 10.3946 12.1593C10.5321 11.7948 10.7899 11.186 10.9412 10.8816C10.9721 10.8139 11.0478 10.6636 11.1784 10.6636H14.6537C14.8084 10.16 15.0593 9.65268 15.3962 9.17165C16.1765 8.048 17.0908 7.46174 18.3937 7.21747C19.4868 7.00702 20.5146 7.12352 21.4496 7.815C22.2952 8.44635 22.8177 9.30318 22.9586 10.4268C23.1408 12.009 22.7214 13.2942 21.6971 14.3953C21.0199 15.1807 20.1536 15.6731 19.1568 15.8948C18.9643 15.9324 18.7752 15.9511 18.5896 15.9699C18.4899 15.9775 18.3937 15.9887 18.2974 16C17.3246 15.9775 16.4343 15.6731 15.6849 14.9703C15.159 14.4705 14.7946 13.8579 14.6159 13.1477C14.4887 13.422 14.3409 13.6888 14.1346 13.9406C13.3921 15.053 12.3849 15.7445 11.1131 15.9286C10.0612 16.0827 9.0884 15.861 8.22903 15.1582C7.4384 14.5005 6.98809 13.6362 6.87122 12.5576C6.73028 11.2799 7.07403 10.0999 7.77871 9.12655C8.54184 8.03672 9.54902 7.34525 10.7796 7.10097C11.7868 6.86798 12.7493 7.02957 13.619 7.67595C14.1862 8.08558 14.5918 8.64553 14.8599 9.32573C14.9252 9.43096 14.8806 9.49108 14.7534 9.52491ZM2.66031 9.73536C2.61734 9.73536 2.60668 9.71281 2.62799 9.67523L2.85315 9.35955C2.87446 9.32573 2.92809 9.30318 2.97105 9.30318H6.7956C6.83685 9.30318 6.84716 9.337 6.82653 9.37083L6.64435 9.67523C6.62372 9.71281 6.56872 9.74663 6.53778 9.74663L2.66031 9.73536ZM1.04283 10.8139C1 10.8139 0.989278 10.7876 1.01073 10.7538L1.23564 10.4381C1.25709 10.4043 1.31065 10.378 1.35338 10.378H6.23872C6.27997 10.378 6.3006 10.4156 6.29029 10.4494L6.20435 10.7312C6.19404 10.7763 6.15279 10.8026 6.1081 10.8026L1.04283 10.8139ZM3.60286 11.8211C3.58155 11.8549 3.59221 11.8887 3.63483 11.8887L5.9706 11.9C6.00154 11.9 6.04622 11.8662 6.04622 11.8211L6.06685 11.5392C6.06685 11.4904 6.04622 11.4565 6.00154 11.4565H3.85999C3.81702 11.4565 3.77439 11.4904 3.75274 11.5279L3.60286 11.8211ZM20.8411 11.1446C20.8343 11.0469 20.8308 10.9642 20.8171 10.8816C20.6246 9.72408 19.6483 9.06643 18.6308 9.32573C17.634 9.57 16.9912 10.2615 16.7574 11.3626C16.5649 12.2758 16.9705 13.2003 17.7405 13.5761C18.3318 13.8579 18.9196 13.8241 19.4868 13.5047C20.3324 12.9936 20.793 12.2758 20.848 11.2686C20.8446 11.2235 20.8446 11.1822 20.8411 11.1446Z" fill="black"/>
</svg>
