<svg width="24" height="24" viewBox="0 0 24 24" fill="none" xmlns="http://www.w3.org/2000/svg">
<path d="M19.385 17.1451C18.1712 18.8876 16.3804 20.1448 14.3292 20.6944C12.278 21.244 10.0985 21.0505 8.17611 20.1482C6.25374 19.246 4.71233 17.693 3.82444 15.764C2.93655 13.8349 2.75938 11.6541 3.32425 9.60701C3.88911 7.55994 5.15964 5.77854 6.91115 4.57781C8.66267 3.37709 10.7824 2.83437 12.8954 3.04564C15.0084 3.25691 16.9787 4.20855 18.4578 5.73229C19.9369 7.25603 20.8296 9.25371 20.978 11.3721C21.188 14.3651 15.944 13.7851 14.065 12.8581C15.457 11.2581 14.467 8.82009 11.791 9.00709C10.046 9.12909 8.864 10.1641 9.007 12.2091C9.287 16.1991 13.451 18.4141 19.367 16.9991M3.02203 12.6281C2.73903 8.5851 11.739 5.4001 14.27 9.9401M12.628 20.9781C9.63497 21.1881 7.46597 16.2531 9.06097 11.2301" stroke="black" stroke-width="2" stroke-linecap="round" stroke-linejoin="round"/>
</svg>
