<svg width="24" height="24" viewBox="0 0 24 24" fill="none" xmlns="http://www.w3.org/2000/svg">
<path d="M17.0067 11.2693C16.916 11.2278 16.8245 11.1881 16.732 11.1502C16.5707 8.30634 14.9452 6.67805 12.2149 6.66049H12.1782C10.5445 6.66049 9.18651 7.32683 8.35028 8.53951L9.85121 9.52488C10.4761 8.61854 11.4563 8.42537 12.1792 8.42537H12.2037C13.1022 8.43122 13.7802 8.68098 14.2203 9.16781C14.5402 9.52423 14.7529 10.012 14.8584 10.6312C14.0057 10.4997 13.1402 10.4601 12.2782 10.5132C9.68274 10.6556 8.01333 12.1034 8.12565 14.1132C8.18282 15.1337 8.71377 16.0107 9.6225 16.5844C10.3903 17.0693 11.3787 17.3063 12.4079 17.2527C13.7659 17.1815 14.8298 16.6868 15.5731 15.7805C16.1378 15.0937 16.4941 14.2029 16.6524 13.08C17.2987 13.4527 17.7786 13.9444 18.0431 14.5337C18.4933 15.5385 18.5199 17.1873 17.1119 18.5317C15.8784 19.7102 14.3959 20.2195 12.1547 20.2351C9.66947 20.2176 7.78972 19.4556 6.56753 17.9707C5.42294 16.5795 4.83175 14.5707 4.80929 12C4.83073 9.42927 5.42192 7.42049 6.56753 6.02927C7.78972 4.54439 9.66947 3.78244 12.1547 3.76585C14.6583 3.78341 16.5717 4.54927 17.8399 6.04098C18.4627 6.77268 18.9324 7.69366 19.2407 8.76683L21 8.31805C20.6253 6.99707 20.0361 5.85951 19.2336 4.91512C17.605 3.00098 15.227 2.01951 12.1608 2H12.1486C9.08951 2.01951 6.73702 3.00488 5.15543 4.92488C3.74945 6.63415 3.02348 9.01268 3 11.9932V12.0068C3.02348 14.9883 3.74945 17.3659 5.15543 19.0751C6.736 20.9961 9.08951 21.9795 12.1496 22H12.1608C14.8809 21.9824 16.7984 21.3015 18.378 19.7932C20.4446 17.8195 20.3823 15.3454 19.7012 13.8273C19.2122 12.7385 18.281 11.8537 17.0067 11.2693ZM12.3099 15.4907C11.1724 15.5512 9.99109 15.0634 9.93289 14.0176C9.88899 13.2429 10.5098 12.3785 12.3803 12.2741C12.5948 12.2624 12.8051 12.2566 13.0113 12.2566C13.6903 12.2566 14.3265 12.32 14.9044 12.441C14.6889 15.0137 13.4238 15.4322 12.3109 15.4907H12.3099Z" fill="black"/>
</svg>
