<svg width="24" height="24" viewBox="0 0 24 24" fill="none" xmlns="http://www.w3.org/2000/svg">
<path d="M12.4589 1C12.3181 1 12.1725 1.00642 12.0219 1.01925C8.17456 1.3245 9.19512 5.42572 9.13595 6.79248C9.06676 7.7935 8.86282 8.58275 8.18002 9.56085C7.37431 10.5243 6.24359 12.0817 5.70736 13.7051C5.45426 14.4678 5.33409 15.2488 5.44607 15.9868C5.40407 16.0201 5.36988 16.0624 5.34593 16.1105C5.10922 16.3562 4.93624 16.6605 4.74233 16.8796C4.56116 17.062 4.30078 17.1244 4.01673 17.2463C3.73178 17.3709 3.41769 17.4929 3.23014 17.8696C3.14821 18.0429 3.10633 18.2308 3.10997 18.4215C3.10997 18.6039 3.13455 18.7881 3.16004 18.9128C3.21285 19.2785 3.26565 19.5801 3.19646 19.802C2.96977 20.4253 2.94154 20.8516 3.09996 21.1623C3.25837 21.4685 3.58702 21.5932 3.95574 21.7132C4.69317 21.8966 5.69461 21.837 6.4812 22.2632C7.32424 22.6904 8.18002 22.8774 8.86282 22.6941C9.3417 22.5878 9.74592 22.2687 9.9626 21.8269C10.497 21.8242 11.0824 21.5803 12.0201 21.5207C12.6565 21.4676 13.4531 21.7655 14.3662 21.7041C14.389 21.8269 14.4236 21.8856 14.47 22.0093L14.4727 22.0121C14.8287 22.7253 15.486 23.0498 16.188 22.9938C16.8899 22.9379 17.6373 22.5025 18.2427 21.7967C18.8172 21.0954 19.775 20.803 20.4077 20.4189C20.7245 20.2365 20.9803 19.989 20.9985 19.637C21.0195 19.2703 20.8165 18.8935 20.3485 18.3756V18.2867L20.3458 18.2839C20.191 18.1006 20.1182 17.7935 20.0381 17.4351C19.9607 17.0675 19.8724 16.7146 19.5901 16.4763H19.5874C19.5337 16.4268 19.4754 16.4148 19.4163 16.3525C19.3653 16.3169 19.3053 16.2965 19.2433 16.2938C19.6357 15.1223 19.4836 13.9563 19.0858 12.9076C18.6005 11.6151 17.752 10.4894 17.1056 9.71485C16.381 8.79359 15.6708 7.92091 15.6854 6.62748C15.7091 4.65479 15.9003 1.0055 12.4589 1ZM12.9405 4.12129H12.9524C13.1463 4.12129 13.3129 4.17812 13.484 4.30279C13.657 4.42654 13.7845 4.60713 13.8828 4.79138C13.9784 5.0288 14.0266 5.21213 14.0339 5.45505C14.0339 5.43672 14.0394 5.41838 14.0394 5.40005V5.4963L14.0358 5.47705L14.0321 5.45505C14.0305 5.67785 13.984 5.898 13.8955 6.10223C13.8531 6.2172 13.787 6.32184 13.7016 6.40931C13.6756 6.39518 13.6488 6.38233 13.6215 6.37081C13.5268 6.32956 13.4413 6.31214 13.363 6.24889C13.2981 6.22282 13.2311 6.20257 13.1627 6.18839C13.2082 6.13339 13.2956 6.06648 13.3293 6.00689C13.3778 5.88895 13.4045 5.76611 13.4094 5.63839V5.62005C13.4116 5.49555 13.3928 5.37156 13.3539 5.25338C13.3129 5.13055 13.2619 5.07005 13.1873 4.94813C13.1108 4.88763 13.0352 4.82713 12.9442 4.82713H12.9296C12.8449 4.82713 12.7694 4.85463 12.6911 4.94813C12.6046 5.03303 12.5405 5.13824 12.5044 5.2543C12.4564 5.37089 12.4287 5.49492 12.4225 5.62097V5.63839C12.4237 5.72028 12.4298 5.80186 12.4407 5.88314C12.265 5.82172 12.042 5.75939 11.8881 5.69797C11.8796 5.63717 11.8741 5.57599 11.8717 5.51464V5.4963C11.8654 5.25439 11.912 5.01404 12.0083 4.79229C12.0827 4.59098 12.2201 4.4195 12.3998 4.30371C12.5558 4.18582 12.7454 4.12247 12.9405 4.12129ZM10.2439 4.17537H10.2767C10.406 4.17537 10.5225 4.21937 10.6399 4.29912C10.7729 4.41737 10.8803 4.56312 10.9531 4.72538C11.0351 4.9078 11.0806 5.09205 11.0924 5.3368V5.34047C11.0988 5.4633 11.0979 5.5238 11.0906 5.5843V5.65764C11.0633 5.66405 11.0396 5.67414 11.015 5.67964C10.8766 5.73005 10.7656 5.80339 10.6572 5.86297C10.6682 5.77986 10.6691 5.69828 10.66 5.61822V5.60447C10.649 5.48255 10.6235 5.42113 10.5853 5.29922C10.5574 5.20556 10.5053 5.12107 10.4342 5.05446C10.4117 5.03401 10.3854 5.01828 10.3568 5.00821C10.3282 4.99813 10.2978 4.99391 10.2676 4.9958H10.2485C10.1838 5.0013 10.1301 5.03246 10.0791 5.1168C10.021 5.18772 9.98319 5.27331 9.96988 5.3643C9.94627 5.46327 9.93919 5.5655 9.94894 5.6668V5.68055C9.95986 5.80431 9.98262 5.86389 10.0218 5.98672C10.0636 6.10956 10.111 6.17006 10.1729 6.23239C10.1814 6.24095 10.1917 6.24828 10.2039 6.25439C10.1401 6.30664 10.0973 6.31856 10.0436 6.37906C10.0096 6.40952 9.96865 6.43094 9.92436 6.4414C9.82964 6.32672 9.74581 6.20334 9.674 6.07289C9.58854 5.88005 9.54063 5.67249 9.53288 5.46147C9.51872 5.25456 9.54343 5.04682 9.60572 4.84913C9.65506 4.66869 9.74299 4.50131 9.86336 4.35871C9.97989 4.23679 10.1001 4.17537 10.2439 4.17537ZM11.4912 5.73922C11.7934 5.73922 12.1585 5.79881 12.5982 6.10498C12.865 6.28831 13.0744 6.35156 13.556 6.53398H13.5587C13.7909 6.65865 13.9274 6.77782 13.9939 6.89973V6.77965C14.0266 6.84629 14.0448 6.91919 14.0473 6.99349C14.0499 7.06778 14.0366 7.14176 14.0084 7.21049C13.8965 7.49466 13.5387 7.79991 13.0407 7.98233V7.98416C12.7967 8.10792 12.5846 8.28942 12.3351 8.41042C12.0838 8.53417 11.7998 8.67809 11.4138 8.65517C11.2751 8.66341 11.1362 8.6425 11.0059 8.59376C10.9054 8.53794 10.8076 8.47737 10.7128 8.41225C10.5352 8.2885 10.3823 8.10792 10.1556 7.986V7.98141H10.151C9.78689 7.75591 9.59024 7.51208 9.52651 7.33057C9.46339 7.08429 9.52196 6.90096 9.70222 6.78057C9.90615 6.65682 10.0482 6.53215 10.1419 6.47256C10.2366 6.40473 10.2721 6.37906 10.3022 6.35248H10.304V6.34973C10.4579 6.16456 10.7009 5.91889 11.0678 5.79881C11.1944 5.76581 11.3355 5.73922 11.4921 5.73922H11.4912ZM14.0403 7.70274C14.3662 9.00168 15.1291 10.8882 15.6199 11.803C15.8802 12.2925 16.3983 13.3238 16.6231 14.5751C16.7651 14.5705 16.9236 14.5916 17.0902 14.6337C17.6783 13.102 16.5931 11.4556 16.0987 10.9982C15.8984 10.8149 15.8875 10.6911 15.9868 10.6911C16.5239 11.1806 17.2295 12.1321 17.4853 13.2184C17.6036 13.7088 17.6309 14.2304 17.5044 14.7492C17.5654 14.7749 17.6273 14.8042 17.691 14.8107C18.6306 15.3002 18.9774 15.6705 18.8108 16.2196V16.1802C18.7562 16.1774 18.7016 16.1802 18.647 16.1802H18.6324C18.7699 15.7521 18.4667 15.4239 17.6628 15.0582C16.8298 14.6915 16.1643 14.7502 16.0514 15.4844C16.0441 15.5238 16.0396 15.5449 16.035 15.6082C15.9731 15.6293 15.9085 15.6568 15.8447 15.6668C15.4533 15.9125 15.242 16.2801 15.1228 16.7549C15.0044 17.2435 14.968 17.8146 14.9361 18.4682V18.471C14.9179 18.7771 14.7814 19.2391 14.6457 19.7085C13.2801 20.6911 11.3865 21.1183 9.77687 20.0146C9.67542 19.8372 9.55249 19.673 9.41089 19.526C9.3425 19.4127 9.25817 19.3099 9.16053 19.2208C9.32622 19.2208 9.46824 19.1933 9.58387 19.1594C9.7145 19.0978 9.81679 18.9883 9.86973 18.8532C9.96806 18.6085 9.86973 18.2143 9.55564 17.7871C9.24155 17.3599 8.70806 16.875 7.92784 16.3928C7.35428 16.0262 7.03018 15.5953 6.88087 15.1132C6.73065 14.6237 6.75068 14.1186 6.86721 13.6052C7.09026 12.6244 7.662 11.671 8.02707 11.0725C8.12449 11.0129 8.06076 11.1962 7.65563 11.9653C7.29511 12.6537 6.61776 14.2542 7.54456 15.4982C7.57909 14.5905 7.77874 13.6969 8.13359 12.8618C8.64706 11.6903 9.72043 9.64977 9.80509 8.03275C9.84879 8.06575 10.0027 8.1565 10.0682 8.21792C10.2667 8.33984 10.4142 8.52317 10.6053 8.64417C10.7965 8.82842 11.0396 8.95126 11.4029 8.95126C11.4381 8.95431 11.4714 8.95615 11.503 8.95676C11.8781 8.95676 12.1676 8.83392 12.4107 8.71109C12.6747 8.58825 12.8841 8.40492 13.0844 8.34442H13.0889C13.5141 8.22067 13.8491 7.97591 14.0394 7.70274H14.0403ZM16.0295 15.9143C16.0632 16.4643 16.3418 17.0556 16.8325 17.1766C17.3678 17.2994 18.138 16.8714 18.4631 16.4753L18.6552 16.4662C18.9419 16.4598 19.1805 16.4753 19.4263 16.7118L19.429 16.7146C19.6184 16.897 19.7067 17.2004 19.785 17.5176C19.8623 17.8843 19.9252 18.2326 20.1573 18.4948C20.5998 18.9779 20.7445 19.3253 20.7363 19.5398L20.7391 19.5334V19.5499L20.7363 19.5398C20.7227 19.78 20.5679 19.9019 20.283 20.0843C19.7094 20.4519 18.6934 20.737 18.0461 21.5235C17.4835 22.1991 16.7988 22.5685 16.1925 22.6153C15.588 22.6638 15.0663 22.4319 14.7595 21.7921L14.755 21.7893C14.5638 21.4227 14.6457 20.8497 14.806 20.2401C14.9662 19.6278 15.1956 19.0081 15.2275 18.5012C15.2612 17.8467 15.2967 17.2774 15.405 16.8384C15.5143 16.4121 15.6854 16.1078 15.9886 15.9363L16.0295 15.9162V15.9143ZM6.18441 15.9593H6.19351C6.24207 15.9593 6.28971 15.9635 6.33645 15.9721C6.67876 16.0225 6.97919 16.2773 7.26779 16.6614L8.09626 18.1868L8.09899 18.1895C8.32022 18.6781 8.78544 19.1649 9.18147 19.6901C9.57658 20.2383 9.88248 20.7269 9.84515 21.1293V21.1348C9.79326 21.8168 9.40816 22.1872 8.82095 22.321C8.23373 22.4447 7.43713 22.3228 6.64052 21.8957C5.75925 21.4043 4.71228 21.4657 4.03949 21.3438C3.70386 21.2827 3.48445 21.1605 3.38127 20.9771C3.28113 20.7938 3.27839 20.4253 3.49325 19.8496V19.846L3.49507 19.8432C3.60159 19.537 3.52238 19.1539 3.47049 18.8184C3.42042 18.4508 3.39493 18.1675 3.50964 17.9567C3.6553 17.6505 3.87016 17.59 4.13782 17.4681C4.40548 17.3444 4.72048 17.2829 4.97084 17.0373H4.97266V17.0354C5.20572 16.7898 5.37779 16.4845 5.58081 16.2673C5.75379 16.083 5.92677 15.9593 6.18441 15.9593ZM12.702 7.64133C12.306 7.82558 11.8417 8.13175 11.3473 8.13175C10.8539 8.13175 10.4642 7.887 10.182 7.70458C10.0418 7.58174 9.92709 7.45891 9.84242 7.39749C9.69311 7.27466 9.71132 7.09224 9.77505 7.09224C9.87429 7.1069 9.89249 7.21507 9.95622 7.27557C10.0436 7.33607 10.152 7.45891 10.284 7.58083C10.5498 7.76416 10.903 8.00891 11.3464 8.00891C11.788 8.00891 12.3051 7.76416 12.6192 7.58174C12.7967 7.45799 13.0243 7.27557 13.2091 7.15365C13.3511 7.02899 13.3448 6.9089 13.4631 6.9089C13.5796 6.92357 13.4941 7.03174 13.3293 7.21324C13.1274 7.36714 12.9178 7.51033 12.7011 7.64224L12.702 7.64133ZM11.7169 6.19023V6.17006C11.7115 6.15173 11.7288 6.13156 11.7433 6.12423C11.8107 6.08481 11.9072 6.09948 11.9801 6.12789C12.0374 6.12789 12.1257 6.18931 12.1166 6.25164C12.1112 6.29656 12.0392 6.31215 11.9937 6.31215C11.9436 6.31215 11.91 6.27273 11.8653 6.24981C11.818 6.23331 11.7324 6.24248 11.7169 6.19023ZM11.2153 6.19023C11.1971 6.24339 11.1124 6.23514 11.0642 6.25073C11.0214 6.27364 10.9859 6.31306 10.9367 6.31306C10.8912 6.31306 10.8184 6.29473 10.8129 6.25073C10.8038 6.19023 10.893 6.12881 10.9495 6.12881C11.0223 6.10039 11.117 6.08573 11.1853 6.12423C11.2026 6.13248 11.218 6.15173 11.2126 6.17006V6.18839H11.2153V6.19023Z" fill="black"/>
</svg>
