<svg width="24" height="24" viewBox="0 0 24 24" fill="none" xmlns="http://www.w3.org/2000/svg">
<path d="M9.23565 3V19.7932L12.8244 21V6.91621C12.8244 6.25585 13.103 5.81465 13.5522 5.96778C14.1352 6.14005 14.2489 6.74681 14.2489 7.40812V13.0307C16.4864 14.1725 18.2473 13.0288 18.2473 10.0141C18.2473 6.91621 17.2152 5.53998 14.1792 4.43747C12.9811 4.00872 10.7619 3.30242 9.2384 3H9.23565ZM13.5036 18.5433L19.2749 16.366C19.9303 16.1191 20.0321 15.7679 19.5004 15.5832C18.9632 15.3994 17.9998 15.4501 17.3398 15.7009L13.4853 17.1364V14.852L13.7053 14.7706C13.7053 14.7706 14.8062 14.3687 16.3755 14.1821C17.9302 14.0098 19.8451 14.2108 21.3594 14.8147C23.0534 15.3898 23.2294 16.2234 22.804 16.7976C22.3778 17.3719 21.3172 17.7891 21.3172 17.7891L13.4853 20.7627V18.5653L13.5036 18.5433ZM2.65678 18.3165C0.915132 17.7949 0.627301 16.7201 1.41746 16.0961C2.1517 15.5353 3.39744 15.0893 3.39744 15.0893L8.54449 13.1628V15.3764L4.85493 16.7852C4.20869 17.0446 4.09869 17.39 4.63585 17.5757C5.17301 17.7623 6.13642 17.7193 6.78358 17.4609L8.56007 16.7852V18.7701C8.45007 18.7988 8.3254 18.8122 8.20257 18.84C6.42517 19.1567 4.5396 19.0275 2.66778 18.3815L2.65678 18.3165Z" fill="black"/>
</svg>
