<svg width="24" height="24" viewBox="0 0 24 24" fill="none" xmlns="http://www.w3.org/2000/svg">
<path d="M16.616 13.924C16.9328 13.1642 17.057 12.3379 16.9778 11.5185C16.8985 10.6991 16.6181 9.91194 16.1615 9.22693C15.705 8.54192 15.0863 7.98025 14.3605 7.59176C13.6347 7.20328 12.8242 7.00002 12.001 7.00002C11.1778 7.00002 10.3673 7.20328 9.6415 7.59176C8.9157 7.98025 8.29705 8.54192 7.84048 9.22693C7.38391 9.91194 7.10353 10.6991 7.02425 11.5185C6.94497 12.3379 7.06923 13.1642 7.38601 13.924M20.307 15.469C20.877 14.1013 21.1004 12.6141 20.9576 11.1393C20.8147 9.6645 20.31 8.24779 19.4881 7.01493C18.6662 5.78206 17.5527 4.77117 16.2463 4.07201C14.94 3.37284 13.4812 3.00702 11.9995 3.00702C10.5178 3.00702 9.05904 3.37284 7.75268 4.07201C6.44632 4.77117 5.33278 5.78206 4.51092 7.01493C3.68906 8.24779 3.1843 9.6645 3.04144 11.1393C2.89859 12.6141 3.12206 14.1013 3.69201 15.469M9.00002 21L12 12L15 21M10 19H14M11 12C11 12.2652 11.1054 12.5196 11.2929 12.7071C11.4804 12.8947 11.7348 13 12 13C12.2652 13 12.5196 12.8947 12.7071 12.7071C12.8947 12.5196 13 12.2652 13 12C13 11.7348 12.8947 11.4804 12.7071 11.2929C12.5196 11.1054 12.2652 11 12 11C11.7348 11 11.4804 11.1054 11.2929 11.2929C11.1054 11.4804 11 11.7348 11 12Z" stroke="black" stroke-width="2" stroke-linecap="round" stroke-linejoin="round"/>
</svg>
