<svg width="24" height="24" viewBox="0 0 24 24" fill="none" xmlns="http://www.w3.org/2000/svg">
<path d="M9.25908 9.37351L14.626 14.74M9.25908 9.37351L9.25765 9.37209L4.1114 14.5222C3.39978 15.2339 3 16.1991 3 17.2054C3 18.2118 3.39978 19.177 4.1114 19.8887C4.82314 20.6003 5.78839 21 6.79485 21C7.80132 21 8.76657 20.6003 9.47831 19.8887L14.626 14.74M9.25908 9.37351L11.8514 3.82198C11.9481 3.61464 12.0933 3.43365 12.2748 3.29434C12.4563 3.15503 12.6687 3.06152 12.894 3.02171C13.1193 2.98191 13.3508 2.99699 13.5691 3.06567C13.7873 3.13436 13.9858 3.25463 14.1477 3.41629L20.5837 9.85322C20.7454 10.0151 20.8656 10.2135 20.9343 10.4318C21.003 10.65 21.0181 10.8815 20.9783 11.1068C20.9385 11.3321 20.845 11.5445 20.7056 11.7259C20.5663 11.9074 20.3853 12.0526 20.178 12.1493L14.626 14.74M7.1778 11.4546L12.5447 16.8211M15.6054 4.87108L13.9071 7.55432M18.8925 8.15787L16.2076 9.85465" stroke="black" stroke-width="2" stroke-linecap="round" stroke-linejoin="round"/>
</svg>
