<svg width="24" height="24" viewBox="0 0 24 24" fill="none" xmlns="http://www.w3.org/2000/svg">
<path d="M15.818 3.49196C16.967 4.64196 16.036 7.43696 13.737 9.73696C11.438 12.036 8.64201 12.968 7.49201 11.818M15.818 3.49196C14.668 2.34196 11.873 3.27496 9.57401 5.57396C7.27401 7.87296 6.34301 10.669 7.49201 11.818M15.818 3.49196C16.1794 3.85331 16.4933 4.25925 16.752 4.69996C19.079 8.57796 20.427 10.877 20.799 11.595C21.357 12.673 20.724 13.85 19.287 15.287C17.85 16.724 16.673 17.356 15.595 16.799L8.7 12.752C8.26 12.494 7.85401 12.18 7.49201 11.818M5.00001 16L6.46501 17.638C6.72643 17.919 6.90146 18.2693 6.96921 18.6471C7.03696 19.0249 6.99457 19.4142 6.8471 19.7686C6.69963 20.1229 6.4533 20.4274 6.13753 20.6456C5.82175 20.8638 5.44986 20.9865 5.06625 20.9991C4.68263 21.0117 4.30349 20.9136 3.97409 20.7166C3.64468 20.5196 3.37891 20.232 3.20851 19.8881C3.03811 19.5441 2.97028 19.1584 3.0131 18.777C3.05592 18.3956 3.20759 18.0345 3.45001 17.737L5.00001 16Z" stroke="black" stroke-width="2" stroke-linecap="round" stroke-linejoin="round"/>
</svg>
