<svg width="24" height="24" viewBox="0 0 24 24" fill="none" xmlns="http://www.w3.org/2000/svg">
<path d="M4 19C3.46957 19 2.96086 18.7893 2.58579 18.4142C2.21071 18.0391 2 17.5304 2 17C2 16.4696 2.21071 15.9609 2.58579 15.5858C2.96086 15.2107 3.46957 15 4 15M4 19C4.53043 19 5.03914 18.7893 5.41421 18.4142C5.78929 18.0391 6 17.5304 6 17C6 16.4696 5.78929 15.9609 5.41421 15.5858C5.03914 15.2107 4.53043 15 4 15M4 19H13M4 15H13M13 19C12.4696 19 11.9609 18.7893 11.5858 18.4142C11.2107 18.0391 11 17.5304 11 17C11 16.4696 11.2107 15.9609 11.5858 15.5858C11.9609 15.2107 12.4696 15 13 15M13 19C13.5304 19 14.0391 18.7893 14.4142 18.4142C14.7893 18.0391 15 17.5304 15 17M15 17C15 16.4696 14.7893 15.9609 14.4142 15.5858C14.0391 15.2107 13.5304 15 13 15M15 17H18M13 15V10C13 9.20435 12.6839 8.44129 12.1213 7.87868C11.5587 7.31607 10.7956 7 10 7H8V12M18 13V19H21M5 15V13C5 12.7348 5.10536 12.4804 5.29289 12.2929C5.48043 12.1054 5.73478 12 6 12H13" stroke="black" stroke-width="2" stroke-linecap="round" stroke-linejoin="round"/>
</svg>
