<svg width="24" height="24" viewBox="0 0 24 24" fill="none" xmlns="http://www.w3.org/2000/svg">
<path d="M16.243 9.172L19.329 8.4C19.5866 8.33566 19.8224 8.20411 20.0125 8.01879C20.2026 7.83348 20.3401 7.60103 20.411 7.3452C20.4819 7.08936 20.4836 6.8193 20.4159 6.56258C20.3483 6.30587 20.2137 6.07171 20.026 5.884L17.81 3.66701C17.6367 3.49354 17.4234 3.36522 17.189 3.29329C16.9546 3.22135 16.7061 3.20799 16.4653 3.25437C16.2245 3.30076 15.9987 3.40547 15.8078 3.55935C15.6168 3.71322 15.4665 3.91156 15.37 4.13701L14.122 7.05001M9.172 16.243L8.4 19.329C8.33566 19.5866 8.20411 19.8224 8.01879 20.0125C7.83348 20.2026 7.60103 20.3401 7.3452 20.411C7.08936 20.4818 6.8193 20.4836 6.56258 20.4159C6.30587 20.3483 6.07171 20.2137 5.884 20.026L3.66701 17.81C3.49354 17.6367 3.36522 17.4234 3.29329 17.189C3.22135 16.9546 3.20799 16.7061 3.25437 16.4653C3.30076 16.2245 3.40547 15.9987 3.55935 15.8078C3.71322 15.6168 3.91156 15.4665 4.13701 15.37L7.05001 14.122M7.04999 11.293L11.293 7.05001C11.668 6.67506 12.1767 6.46443 12.707 6.46443C13.2373 6.46443 13.7459 6.67506 14.121 7.05001L16.95 9.88C17.3249 10.2551 17.5356 10.7637 17.5356 11.294C17.5356 11.8243 17.3249 12.3329 16.95 12.708L12.707 16.951C12.3319 17.3259 11.8233 17.5366 11.293 17.5366C10.7627 17.5366 10.254 17.3259 9.87899 16.951L7.04999 14.12C6.67505 13.7449 6.46442 13.2363 6.46442 12.706C6.46442 12.1757 6.67505 11.6671 7.04999 11.292V11.293Z" stroke="black" stroke-width="2" stroke-linecap="round" stroke-linejoin="round"/>
</svg>
