<svg width="24" height="24" viewBox="0 0 24 24" fill="none" xmlns="http://www.w3.org/2000/svg">
<path d="M10 3.19998C8.43573 3.56262 6.99694 4.33718 5.8329 5.44332C4.66886 6.54946 3.82197 7.94689 3.38005 9.49066C2.93814 11.0344 2.91731 12.6683 3.31971 14.2229C3.72212 15.7774 4.53311 17.196 5.66857 18.3314C6.80403 19.4669 8.2226 20.2779 9.77714 20.6803C11.3317 21.0827 12.9656 21.0619 14.5093 20.62C16.0531 20.178 17.4506 19.3311 18.5567 18.1671C19.6628 17.0031 20.4374 15.5643 20.8 14C20.8 13.7348 20.6947 13.4804 20.5071 13.2929C20.3196 13.1053 20.0652 13 19.8 13H16C15.8182 13.699 15.455 14.3376 14.9471 14.8511C14.4392 15.3646 13.8047 15.7348 13.1077 15.9243C12.4108 16.1138 11.6761 16.1159 10.9782 15.9302C10.2802 15.7446 9.64361 15.3778 9.13289 14.8671C8.62218 14.3564 8.25544 13.7198 8.06979 13.0219C7.88414 12.3239 7.88617 11.5892 8.07566 10.8923C8.26516 10.1953 8.63541 9.56078 9.14893 9.05289C9.66245 8.545 10.301 8.18178 11 7.99998V3.99998C10.9876 3.88151 10.9518 3.76668 10.8946 3.66215C10.8375 3.55763 10.7602 3.46548 10.6672 3.39107C10.5741 3.31665 10.4673 3.26144 10.3527 3.22864C10.2382 3.19584 10.1183 3.1861 10 3.19998Z" stroke="black" stroke-width="2" stroke-linecap="round" stroke-linejoin="round"/>
<path d="M15 3.49998C16.2697 3.94707 17.423 4.67328 18.3748 5.62514C19.3267 6.577 20.0529 7.73026 20.5 8.99998H16C15.6934 8.64094 15.359 8.30657 15 7.99998V3.49998Z" stroke="black" stroke-width="2" stroke-linecap="round" stroke-linejoin="round"/>
</svg>
