<svg width="24" height="24" viewBox="0 0 24 24" fill="none" xmlns="http://www.w3.org/2000/svg">
<path d="M16.924 11.132C16.7523 10.1581 16.2957 9.25697 15.6119 8.54258C14.9281 7.82818 14.0478 7.33261 13.0824 7.11851C12.1169 6.90442 11.1096 6.98143 10.188 7.33981C9.26626 7.69818 8.47154 8.32182 7.90428 9.13186C7.33703 9.94191 7.02272 10.902 7.0011 11.8906C6.97949 12.8793 7.25154 13.8522 7.78285 14.6863C8.31416 15.5203 9.08087 16.1781 9.98602 16.5764C10.8912 16.9747 11.8941 17.0957 12.868 16.924M3 12C3 13.78 3.52784 15.5201 4.51677 17.0001C5.50571 18.4802 6.91131 19.6337 8.55585 20.3149C10.2004 20.9961 12.01 21.1743 13.7558 20.8271C15.5016 20.4798 17.1053 19.6226 18.364 18.364C19.6226 17.1053 20.4798 15.5016 20.8271 13.7558C21.1743 12.01 20.9961 10.2004 20.3149 8.55585C19.6337 6.91131 18.4802 5.50571 17.0001 4.51677C15.5201 3.52784 13.78 3 12 3M11 12C11 12.2652 11.1054 12.5196 11.2929 12.7071C11.4804 12.8946 11.7348 13 12 13C12.2652 13 12.5196 12.8946 12.7071 12.7071C12.8946 12.5196 13 12.2652 13 12C13 11.7348 12.8946 11.4804 12.7071 11.2929C12.5196 11.1054 12.2652 11 12 11C11.7348 11 11.4804 11.1054 11.2929 11.2929C11.1054 11.4804 11 11.7348 11 12Z" stroke="black" stroke-width="2" stroke-linecap="round" stroke-linejoin="round"/>
</svg>
