<svg width="24" height="24" viewBox="0 0 24 24" fill="none" xmlns="http://www.w3.org/2000/svg">
<path d="M3.87564 11.042L19.2834 6.56303L18.5667 4.23395C18.298 3.33816 17.3126 2.80068 16.3272 3.06942L4.23395 6.65261C3.33816 6.92135 2.80068 7.90673 3.06942 8.8921L3.87564 11.042ZM3.87564 11.042H20V18.2084C20 18.6836 19.8112 19.1393 19.4753 19.4753C19.1393 19.8112 18.6836 20 18.2084 20H5.66723C5.19207 20 4.73637 19.8112 4.40038 19.4753C4.06439 19.1393 3.87564 18.6836 3.87564 18.2084V11.042ZM6.74219 5.93597L9.51916 9.42958M12.2961 4.23395L15.0731 7.81715" stroke="black" stroke-width="2" stroke-linecap="round" stroke-linejoin="round"/>
</svg>
