<svg width="24" height="24" viewBox="0 0 24 24" fill="none" xmlns="http://www.w3.org/2000/svg">
<path d="M11 10.9999L7.60299 7.55991C7.21616 7.16642 6.99939 6.63671 6.99939 6.08491C6.99939 5.53312 7.21616 5.00341 7.60299 4.60991C7.7929 4.4164 8.01947 4.26269 8.26946 4.15776C8.51946 4.05282 8.78787 3.99878 9.05899 3.99878C9.33012 3.99878 9.59852 4.05282 9.84852 4.15776C10.0985 4.26269 10.3251 4.4164 10.515 4.60991L11 4.99991L11.485 4.60991C11.6749 4.4164 11.9015 4.26269 12.1515 4.15776C12.4015 4.05282 12.6699 3.99878 12.941 3.99878C13.2121 3.99878 13.4805 4.05282 13.7305 4.15776C13.9805 4.26269 14.2071 4.4164 14.397 4.60991C14.7838 5.00341 15.0006 5.53312 15.0006 6.08491C15.0006 6.63671 14.7838 7.16642 14.397 7.55991L11 10.9999ZM11 10.9999L7.60299 14.4399C7.21616 14.8334 6.99939 15.3631 6.99939 15.9149C6.99939 16.4667 7.21616 16.9964 7.60299 17.3899C7.7929 17.5834 8.01947 17.7371 8.26946 17.8421C8.51946 17.947 8.78787 18.001 9.05899 18.001C9.33012 18.001 9.59852 17.947 9.84852 17.8421C10.0985 17.7371 10.3251 17.5834 10.515 17.3899L11 16.9999L11.485 17.3899C11.6749 17.5834 11.9015 17.7371 12.1515 17.8421C12.4015 17.947 12.6699 18.001 12.941 18.001C13.2121 18.001 13.4805 17.947 13.7305 17.8421C13.9805 17.7371 14.2071 17.5834 14.397 17.3899C14.7838 16.9964 15.0006 16.4667 15.0006 15.9149C15.0006 15.3631 14.7838 14.8334 14.397 14.4399L11 10.9999ZM14.44 7.60291C14.8335 7.21608 15.3632 6.99931 15.915 6.99931C16.4668 6.99931 16.9965 7.21608 17.39 7.60291C17.5835 7.79281 17.7372 8.01939 17.8422 8.26938C17.9471 8.51938 18.0011 8.78779 18.0011 9.05891C18.0011 9.33004 17.9471 9.59844 17.8422 9.84844C17.7372 10.0984 17.5835 10.325 17.39 10.5149L17 10.9999L17.39 11.4849C17.5835 11.6748 17.7372 11.9014 17.8422 12.1514C17.9471 12.4014 18.0011 12.6698 18.0011 12.9409C18.0011 13.212 17.9471 13.4804 17.8422 13.7304C17.7372 13.9804 17.5835 14.207 17.39 14.3969C16.9965 14.7837 16.4668 15.0005 15.915 15.0005C15.3632 15.0005 14.8335 14.7837 14.44 14.3969M7.56 7.60291C7.16651 7.21608 6.6368 6.99931 6.085 6.99931C5.53321 6.99931 5.0035 7.21608 4.61 7.60291C4.41649 7.79281 4.26278 8.01939 4.15785 8.26938C4.05292 8.51938 3.99887 8.78779 3.99887 9.05891C3.99887 9.33004 4.05292 9.59844 4.15785 9.84844C4.26278 10.0984 4.41649 10.325 4.61 10.5149L5 10.9999L4.61 11.4849C4.41649 11.6748 4.26278 11.9014 4.15785 12.1514C4.05292 12.4014 3.99887 12.6698 3.99887 12.9409C3.99887 13.212 4.05292 13.4804 4.15785 13.7304C4.26278 13.9804 4.41649 14.207 4.61 14.3969C5.0035 14.7837 5.53321 15.0005 6.085 15.0005C6.6368 15.0005 7.16651 14.7837 7.56 14.3969M15 14.9999L21 20.9999" stroke="black" stroke-width="2" stroke-linecap="round" stroke-linejoin="round"/>
</svg>
