<svg width="24" height="24" viewBox="0 0 24 24" fill="none" xmlns="http://www.w3.org/2000/svg">
<path d="M12 9.99991L8.60299 6.55991C8.21616 6.16642 7.99939 5.63671 7.99939 5.08491C7.99939 4.53312 8.21616 4.00341 8.60299 3.60991C8.7929 3.4164 9.01947 3.26269 9.26946 3.15776C9.51946 3.05283 9.78787 2.99878 10.059 2.99878C10.3301 2.99878 10.5985 3.05283 10.8485 3.15776C11.0985 3.26269 11.3251 3.4164 11.515 3.60991L12 3.99991L12.485 3.60991C12.6749 3.4164 12.9015 3.26269 13.1515 3.15776C13.4015 3.05283 13.6699 2.99878 13.941 2.99878C14.2121 2.99878 14.4805 3.05283 14.7305 3.15776C14.9805 3.26269 15.2071 3.4164 15.397 3.60991C15.7838 4.00341 16.0006 4.53312 16.0006 5.08491C16.0006 5.63671 15.7838 6.16642 15.397 6.55991L12 9.99991Z" stroke="black" stroke-width="2" stroke-linecap="round" stroke-linejoin="round"/>
<path d="M12 13.9999L8.60299 17.4399C8.21616 17.8334 7.99939 18.3631 7.99939 18.9149C7.99939 19.4667 8.21616 19.9964 8.60299 20.3899C8.7929 20.5834 9.01947 20.7371 9.26946 20.8421C9.51946 20.947 9.78787 21.001 10.059 21.001C10.3301 21.001 10.5985 20.947 10.8485 20.8421C11.0985 20.7371 11.3251 20.5834 11.515 20.3899L12 19.9999L12.485 20.3899C12.6749 20.5834 12.9015 20.7371 13.1515 20.8421C13.4015 20.947 13.6699 21.001 13.941 21.001C14.2121 21.001 14.4805 20.947 14.7305 20.8421C14.9805 20.7371 15.2071 20.5834 15.397 20.3899C15.7838 19.9964 16.0006 19.4667 16.0006 18.9149C16.0006 18.3631 15.7838 17.8334 15.397 17.4399L12 13.9999Z" stroke="black" stroke-width="2" stroke-linecap="round" stroke-linejoin="round"/>
<path d="M14 11.9999L17.44 8.60291C17.8335 8.21608 18.3632 7.99931 18.915 7.99931C19.4668 7.99931 19.9965 8.21608 20.39 8.60291C20.5835 8.79281 20.7372 9.01939 20.8422 9.26938C20.9471 9.51938 21.0011 9.78779 21.0011 10.0589C21.0011 10.33 20.9471 10.5984 20.8422 10.8484C20.7372 11.0984 20.5835 11.325 20.39 11.5149L20 11.9999L20.39 12.4849C20.5835 12.6748 20.7372 12.9014 20.8422 13.1514C20.9471 13.4014 21.0011 13.6698 21.0011 13.9409C21.0011 14.212 20.9471 14.4804 20.8422 14.7304C20.7372 14.9804 20.5835 15.207 20.39 15.3969C19.9965 15.7837 19.4668 16.0005 18.915 16.0005C18.3632 16.0005 17.8335 15.7837 17.44 15.3969L14 11.9999Z" stroke="black" stroke-width="2" stroke-linecap="round" stroke-linejoin="round"/>
<path d="M10 11.9999L6.56 8.60291C6.16651 8.21608 5.6368 7.99931 5.085 7.99931C4.53321 7.99931 4.0035 8.21608 3.61 8.60291C3.41649 8.79281 3.26278 9.01939 3.15785 9.26938C3.05292 9.51938 2.99887 9.78779 2.99887 10.0589C2.99887 10.33 3.05292 10.5984 3.15785 10.8484C3.26278 11.0984 3.41649 11.325 3.61 11.5149L4 11.9999L3.61 12.4849C3.41649 12.6748 3.26278 12.9014 3.15785 13.1514C3.05292 13.4014 2.99887 13.6698 2.99887 13.9409C2.99887 14.212 3.05292 14.4804 3.15785 14.7304C3.26278 14.9804 3.41649 15.207 3.61 15.3969C4.0035 15.7837 4.53321 16.0005 5.085 16.0005C5.6368 16.0005 6.16651 15.7837 6.56 15.3969L10 11.9999Z" stroke="black" stroke-width="2" stroke-linecap="round" stroke-linejoin="round"/>
</svg>
