<svg width="24" height="24" viewBox="0 0 24 24" fill="none" xmlns="http://www.w3.org/2000/svg">
<path d="M12 3C12.7478 3.00004 13.4807 3.20973 14.1154 3.60527C14.7501 4.0008 15.2612 4.56635 15.5907 5.23771C15.9201 5.90906 16.0548 6.65934 15.9794 7.40338C15.904 8.14742 15.6215 8.85541 15.164 9.447C15.8297 9.10286 16.5787 8.95264 17.3256 9.01348C18.0725 9.07431 18.7873 9.34374 19.3886 9.79107C19.9898 10.2384 20.4533 10.8456 20.7262 11.5436C20.9991 12.2415 21.0705 13.0021 20.9322 13.7386C20.7939 14.4751 20.4514 15.1579 19.9439 15.7093C19.4363 16.2607 18.7841 16.6584 18.0616 16.8571C17.339 17.0558 16.5751 17.0475 15.857 16.8332C15.1389 16.6189 14.4955 16.2072 14 15.645V17L15 21H9L10 17V15.645C9.50443 16.2071 8.86095 16.6186 8.14287 16.8328C7.4248 17.0469 6.66101 17.0551 5.93854 16.8563C5.21606 16.6575 4.56395 16.2597 4.0565 15.7084C3.54906 15.157 3.20669 14.4742 3.0684 13.7378C2.93012 13.0013 3.00147 12.2408 3.27435 11.543C3.54722 10.8451 4.01064 10.2379 4.61179 9.79055C5.21295 9.34322 5.92766 9.07375 6.67451 9.01283C7.42136 8.95191 8.1703 9.102 8.836 9.446C8.37884 8.85447 8.09661 8.14667 8.02132 7.40288C7.94602 6.65909 8.08067 5.90908 8.41 5.23794C8.73932 4.56679 9.25014 4.00136 9.88451 3.6058C10.5189 3.21024 11.2514 3.00037 11.999 3H12Z" stroke="black" stroke-width="2" stroke-linecap="round" stroke-linejoin="round"/>
</svg>
