<svg width="24" height="24" viewBox="0 0 24 24" fill="none" xmlns="http://www.w3.org/2000/svg">
<path d="M8 7C8.14277 6.42863 8.4725 5.9214 8.93674 5.559C9.40097 5.1966 9.97306 4.99983 10.562 5H13.938C14.5269 4.99983 15.099 5.1966 15.5633 5.559C16.0275 5.9214 16.3572 6.42863 16.5 7C16.6418 7.56729 16.5859 8.16598 16.3416 8.69723C16.0972 9.22847 15.679 9.66051 15.156 9.922L9.28 12.86C8.62516 13.1875 8.09617 13.7213 7.77452 14.379C7.45288 15.0368 7.35642 15.782 7.5 16.5C7.64103 17.205 8.022 17.8394 8.57807 18.2952C9.13415 18.7511 9.83099 19.0001 10.55 19H13.438C14.0269 19.0002 14.599 18.8034 15.0633 18.441C15.5275 18.0786 15.8572 17.5714 16 17M6 10H18M6 14H18" stroke="black" stroke-width="2" stroke-linecap="round" stroke-linejoin="round"/>
</svg>
