<svg width="24" height="24" viewBox="0 0 24 24" fill="none" xmlns="http://www.w3.org/2000/svg">
<path d="M15 5H4H7C8.06087 5 9.07828 5.42143 9.82843 6.17157C10.5786 6.92172 11 7.93913 11 9C11 10.0609 10.5786 11.0783 9.82843 11.8284C9.07828 12.5786 8.06087 13 7 13H4L10 19M21 17L16.414 12.586C16.0368 12.2217 15.5316 12.0201 15.0072 12.0247C14.4828 12.0292 13.9812 12.2395 13.6104 12.6104C13.2395 12.9812 13.0292 13.4828 13.0246 14.0072C13.0201 14.5316 13.2217 15.0368 13.586 15.414L14.293 16.121" stroke="black" stroke-width="2" stroke-linecap="round" stroke-linejoin="round"/>
</svg>
