<svg width="24" height="24" viewBox="0 0 24 24" fill="none" xmlns="http://www.w3.org/2000/svg">
<path d="M3 5V4C2.44772 4 2 4.44772 2 5H3ZM2 16.4545C2 17.0068 2.44772 17.4545 3 17.4545C3.55228 17.4545 4 17.0068 4 16.4545H2ZM9.05222 16.9328C9.31634 17.4178 9.92365 17.5969 10.4087 17.3328C10.8937 17.0687 11.0728 16.4614 10.8087 15.9763L9.05222 16.9328ZM14.0695 7.54545C14.0695 6.99317 13.6218 6.54545 13.0695 6.54545C12.5173 6.54545 12.0695 6.99317 12.0695 7.54545H14.0695ZM12.0695 19C12.0695 19.5523 12.5173 20 13.0695 20C13.6218 20 14.0695 19.5523 14.0695 19H12.0695ZM12.3844 7.93533C11.9821 8.3137 11.9627 8.94656 12.3411 9.34888C12.7195 9.75119 13.3523 9.77059 13.7546 9.39222L12.3844 7.93533ZM15.1482 7.61882L14.9643 6.63587L15.1482 7.61882ZM17.4938 7.8361L17.1308 8.76789L17.1308 8.76789L17.4938 7.8361ZM19.3158 9.24237L20.131 8.6632L20.131 8.6632L19.3158 9.24237ZM19.3158 13.4849L20.131 14.0641L20.131 14.0641L19.3158 13.4849ZM17.4938 14.8912L17.1308 13.9594L17.1308 13.9594L17.4938 14.8912ZM15.1482 15.1085L14.9643 16.0914L14.9643 16.0914L15.1482 15.1085ZM13.7546 13.335C13.3523 12.9567 12.7195 12.9761 12.3411 13.3784C11.9627 13.7807 11.9821 14.4136 12.3844 14.7919L13.7546 13.335ZM3 6H7.15827V4H3V6ZM2 5V10.0909H4V5H2ZM2 10.0909V16.4545H4V10.0909H2ZM7.15827 9.09091H6.46523V11.0909H7.15827V9.09091ZM6.46523 9.09091H3V11.0909H6.46523V9.09091ZM5.58699 10.5691L9.05222 16.9328L10.8087 15.9763L7.34346 9.61268L5.58699 10.5691ZM12.0695 7.54545V19H14.0695V7.54545H12.0695ZM8.93046 7.54545C8.93046 8.32037 8.21906 9.09091 7.15827 9.09091V11.0909C9.15956 11.0909 10.9305 9.58217 10.9305 7.54545H8.93046ZM7.15827 6C8.21906 6 8.93046 6.77054 8.93046 7.54545H10.9305C10.9305 5.50874 9.15956 4 7.15827 4V6ZM13.7546 9.39222C14.1791 8.99306 14.727 8.71497 15.3321 8.60177L14.9643 6.63587C13.9944 6.81733 13.0956 7.26652 12.3844 7.93533L13.7546 9.39222ZM15.3321 8.60177C15.9374 8.48854 16.5641 8.54712 17.1308 8.76789L17.8568 6.90431C16.9399 6.5471 15.9341 6.45445 14.9643 6.63587L15.3321 8.60177ZM17.1308 8.76789C17.6972 8.98853 18.1715 9.35838 18.5006 9.82154L20.131 8.6632C19.5679 7.87057 18.7741 7.26165 17.8568 6.90431L17.1308 8.76789ZM18.5006 9.82154C18.829 10.2838 19 10.8204 19 11.3636H21C21 10.3965 20.6947 9.45668 20.131 8.6632L18.5006 9.82154ZM19 11.3636C19 11.9069 18.829 12.4434 18.5006 12.9057L20.131 14.0641C20.6947 13.2706 21 12.3307 21 11.3636H19ZM18.5006 12.9057C18.1715 13.3689 17.6972 13.7387 17.1308 13.9594L17.8568 15.823C18.7741 15.4656 19.5679 14.8567 20.131 14.0641L18.5006 12.9057ZM17.1308 13.9594C16.5641 14.1802 15.9374 14.2387 15.3321 14.1255L14.9643 16.0914C15.9341 16.2728 16.9399 16.1802 17.8568 15.823L17.1308 13.9594ZM15.3321 14.1255C14.727 14.0123 14.1791 13.7342 13.7546 13.335L12.3844 14.7919C13.0956 15.4608 13.9944 15.9099 14.9643 16.0914L15.3321 14.1255Z" fill="black"/>
</svg>
