<svg width="24" height="24" viewBox="0 0 24 24" fill="none" xmlns="http://www.w3.org/2000/svg">
<path d="M17 18.5C16.2156 18.8595 15.3629 19.0456 14.5 19.0456C13.6372 19.0456 12.7844 18.8595 12 18.5C11.18 18.2169 10.3084 18.115 9.44516 18.2014C8.58196 18.2877 7.74775 18.5602 7.00002 19C7.53545 18.8147 8.00745 18.4815 8.36139 18.0391C8.71534 17.5967 8.93676 17.063 9.00002 16.5V9C9.0053 8.12393 9.29806 7.27382 9.83331 6.58026C10.3686 5.88669 11.1167 5.38804 11.9628 5.16089C12.809 4.93374 13.7063 4.99066 14.5169 5.32291C15.3276 5.65516 16.0067 6.24436 16.45 7M13.9 13H6.90002" stroke="black" stroke-width="2" stroke-linecap="round" stroke-linejoin="round"/>
</svg>
