<svg width="24" height="24" viewBox="0 0 24 24" fill="none" xmlns="http://www.w3.org/2000/svg">
<path d="M9.00001 11C8.1416 10.9852 7.29383 11.1916 6.53834 11.5994C5.78286 12.0073 5.14512 12.6028 4.68654 13.3286C4.22797 14.0544 3.96401 14.8861 3.92009 15.7435C3.87617 16.6009 4.05377 17.4552 4.43579 18.224C4.81781 18.9929 5.39136 19.6505 6.10123 20.1334C6.81109 20.6163 7.63333 20.9082 8.48877 20.9812C9.34421 21.0541 10.204 20.9056 10.9854 20.5498C11.7667 20.194 12.4433 19.6431 12.95 18.95M19 20L15 15H11L14 10L10 7L6 8M15 6C15 6.53043 15.2107 7.03914 15.5858 7.41421C15.9609 7.78929 16.4696 8 17 8C17.5304 8 18.0391 7.78929 18.4142 7.41421C18.7893 7.03914 19 6.53043 19 6C19 5.46957 18.7893 4.96086 18.4142 4.58579C18.0391 4.21071 17.5304 4 17 4C16.4696 4 15.9609 4.21071 15.5858 4.58579C15.2107 4.96086 15 5.46957 15 6Z" stroke="black" stroke-width="2" stroke-linecap="round" stroke-linejoin="round"/>
</svg>
