<svg width="24" height="24" viewBox="0 0 24 24" fill="none" xmlns="http://www.w3.org/2000/svg">
<path d="M9.17201 20.485C9.54346 20.1136 9.8381 19.6726 10.0391 19.1873C10.2402 18.702 10.3436 18.1818 10.3436 17.6565C10.3436 17.1312 10.2402 16.6111 10.0391 16.1257C9.8381 15.6404 9.54346 15.1995 9.17201 14.828C8.80057 14.4566 8.3596 14.1619 7.87429 13.9609C7.38897 13.7599 6.86882 13.6564 6.34351 13.6564C5.81821 13.6564 5.29806 13.7599 4.81274 13.9609C4.32743 14.1619 3.88646 14.4566 3.51501 14.828M14.828 3.51501C14.0778 4.26518 13.6564 5.28262 13.6564 6.34351C13.6564 7.40441 14.0778 8.42185 14.828 9.17201C15.5781 9.92218 16.5956 10.3436 17.6565 10.3436C18.7174 10.3436 19.7348 9.92218 20.485 9.17201M14.828 14.828C15.21 14.459 15.5148 14.0176 15.7244 13.5296C15.934 13.0416 16.0444 12.5167 16.049 11.9856C16.0536 11.4545 15.9524 10.9278 15.7513 10.4362C15.5501 9.94461 15.2531 9.49801 14.8776 9.12244C14.502 8.74686 14.0554 8.44985 13.5638 8.24873C13.0722 8.0476 12.5455 7.9464 12.0144 7.95101C11.4833 7.95563 10.9584 8.06597 10.4704 8.27561C9.98235 8.48525 9.54097 8.78997 9.17198 9.17201C8.44335 9.92642 8.04017 10.9368 8.04928 11.9856C8.0584 13.0344 8.47907 14.0377 9.22071 14.7793C9.96234 15.5209 10.9656 15.9416 12.0144 15.9507C13.0632 15.9598 14.0736 15.5566 14.828 14.828Z" stroke="black" stroke-width="2" stroke-linecap="round" stroke-linejoin="round"/>
</svg>
