<svg width="24" height="24" viewBox="0 0 24 24" fill="none" xmlns="http://www.w3.org/2000/svg">
<path d="M16 2V5M16 5C16.5028 5.68064 16.8297 6.47489 16.9518 7.31223C17.074 8.14958 16.9875 9.00412 16.7 9.8L16.5 10.3C16.1139 11.318 15.9499 12.4067 16.0189 13.4932C16.0879 14.5798 16.3883 15.639 16.9 16.6C17.7 17.9 19 20 19 20C19 20 15.9 22 12 22C8.1 22 5 20 5 20C5 20 6.3 17.9 7.1 16.5C7.59723 15.5522 7.88978 14.5106 7.95869 13.4425C8.0276 12.3744 7.87132 11.3038 7.5 10.3L7.3 9.8C7.05365 8.99805 6.98866 8.15136 7.10972 7.32121C7.23079 6.49106 7.53488 5.6982 8 5M16 5C14.2 5 12.7 6 12 7.5C11.3 6 9.8 5 8 5M8 5V2" stroke="black" stroke-width="2" stroke-linecap="round" stroke-linejoin="round"/>
</svg>
