<svg width="24" height="24" viewBox="0 0 24 24" fill="none" xmlns="http://www.w3.org/2000/svg">
<path d="M4.40914 13.2994L4.47537 12.8645C4.75566 12.84 5.08908 12.822 5.46092 12.822C5.83103 12.822 6.23335 12.8405 6.65445 12.8886C6.47633 13.1038 6.31121 13.33 6.16015 13.5659L4.40914 13.2994ZM19.4025 13.2994L17.6523 13.5659C17.5012 13.3299 17.3361 13.1038 17.158 12.8886C17.5791 12.8405 17.9814 12.822 18.3515 12.822C18.7231 12.822 19.0564 12.8399 19.3368 12.8645L19.4025 13.2994ZM8.66874 16.5282C8.66874 14.7414 10.1195 13.2907 11.9062 13.2907C13.693 13.2907 15.1437 14.7414 15.1437 16.5282C15.1437 18.315 13.693 19.7657 11.9062 19.7657C10.1195 19.7657 8.66874 18.315 8.66874 16.5282Z" stroke="black" stroke-width="2"/>
</svg>
