<svg width="24" height="24" viewBox="0 0 24 24" fill="none" xmlns="http://www.w3.org/2000/svg">
<path d="M3 3L10.2 10.2M21 3L13.8 10.2M21 9.3C21 11.7853 16.9706 13.8 12 13.8M21 9.3C21 6.81472 16.9706 4.8 12 4.8C7.02944 4.8 3 6.81472 3 9.3M21 9.3V16.5C21 17.6935 20.0518 18.8381 18.364 19.682C16.6761 20.5259 14.3869 21 12 21M12 13.8C7.02944 13.8 3 11.7853 3 9.3M12 13.8V21M3 9.3V16.5C3 17.6935 3.94821 18.8381 5.63604 19.682C7.32387 20.5259 9.61305 21 12 21M7.5 13.26V20.37M16.5 13.26V20.37" stroke="black" stroke-width="2" stroke-linecap="round" stroke-linejoin="round"/>
</svg>
