<svg width="24" height="24" viewBox="0 0 24 24" fill="none" xmlns="http://www.w3.org/2000/svg">
<path d="M6 10.0001C5.99915 8.92094 6.2478 7.85623 6.72652 6.88911C7.20525 5.92199 7.9011 5.07865 8.7597 4.42496C9.6183 3.77128 10.6164 3.32495 11.676 3.12085C12.7357 2.91675 13.8282 2.9604 14.8682 3.2484C15.9081 3.53639 16.8674 4.06093 17.6712 4.78104C18.4749 5.50114 19.1012 6.39731 19.5012 7.39955C19.9013 8.40178 20.0642 9.48293 19.9772 10.5585C19.8903 11.6342 19.5558 12.6751 19 13.6001C18.4315 14.3581 17.7581 15.0315 17 15.6001C16.1137 16.4348 15.4297 17.4609 15 18.6001C14.6897 19.1865 14.2535 19.697 13.7228 20.0951C13.192 20.4933 12.5798 20.7691 11.93 20.9029C11.2802 21.0367 10.6088 21.0251 9.96393 20.869C9.31908 20.7129 8.71673 20.4162 8.2 20.0001M9.99997 10.0001C9.99397 9.49817 10.114 9.00279 10.349 8.5593C10.5841 8.11581 10.9266 7.73839 11.3453 7.46159C11.7641 7.1848 12.2455 7.01748 12.7456 6.97496C13.2458 6.93244 13.7486 7.01609 14.208 7.21823C14.6674 7.42038 15.0688 7.73456 15.3753 8.13201C15.6818 8.52945 15.8837 8.99746 15.9625 9.49316C16.0414 9.98886 15.9945 10.4964 15.8264 10.9693C15.6582 11.4422 15.3741 11.8654 15 12.2001" stroke="black" stroke-width="2" stroke-linecap="round" stroke-linejoin="round"/>
</svg>
