<svg width="24" height="24" viewBox="0 0 24 24" fill="none" xmlns="http://www.w3.org/2000/svg">
<path d="M12 21C16.9707 21 21 16.9707 21 12M12 21C7.0293 21 3 16.9707 3 12M12 21C13.9881 21 15.6 16.9707 15.6 12C15.6 7.0293 13.9881 3 12 3M12 21C10.0119 21 8.4 16.9707 8.4 12C8.4 7.0293 10.0119 3 12 3M21 12C21 7.0293 16.9707 3 12 3M21 12H3M12 3C7.0293 3 3 7.0293 3 12M5.6361 5.7639C6.47093 6.60083 7.4629 7.26455 8.55502 7.71694C9.64714 8.16932 10.8179 8.40146 12 8.4C13.1821 8.40146 14.3529 8.16932 15.445 7.71694C16.5371 7.26455 17.5291 6.60083 18.3639 5.7639M18.3639 18.2361C17.5291 17.3992 16.5371 16.7354 15.445 16.2831C14.3529 15.8307 13.1821 15.5985 12 15.6C10.8179 15.5985 9.64714 15.8307 8.55502 16.2831C7.4629 16.7354 6.47093 17.3992 5.6361 18.2361" stroke="black" stroke-width="2" stroke-linecap="round" stroke-linejoin="round"/>
</svg>
