<svg width="24" height="24" viewBox="0 0 24 24" fill="none" xmlns="http://www.w3.org/2000/svg">
<path d="M6.23468 5.08867L6.9151 5.71988C7.14498 5.93313 7.32881 6.19113 7.45533 6.47801C7.7462 7.13139 7.74548 7.78555 7.74503 8.18375C7.74502 8.19888 7.745 8.21363 7.745 8.228C7.745 8.35093 7.74525 8.44287 7.74826 8.51929C7.9075 8.56979 8.11183 8.61416 8.37002 8.66824L8.37351 8.66897C8.38945 8.67238 8.40577 8.67585 8.42242 8.67939C8.59919 8.71695 8.81386 8.76257 9.01466 8.81821L6.23468 5.08867ZM6.23468 5.08867C7.7962 3.78468 9.80643 3 12 3C13.0625 3 14.082 3.18411 15.0284 3.52217M6.23468 5.08867L15.0284 3.52217M13.283 14.1412C13.9271 14.8169 14.4553 15.412 14.8575 15.9197C15.2458 16.4099 15.5664 16.8796 15.737 17.2951L15.7377 17.2967C15.8607 17.5978 16.1974 18.5252 16.0404 19.5486L15.9582 20.0852C17.1603 19.4956 18.2117 18.6457 19.0389 17.6091L17.2765 16.7893C17.3234 16.5559 17.355 16.2778 17.355 15.952V15.847C17.355 15.6078 17.3546 15.4404 17.3465 15.3005C17.3385 15.163 17.3249 15.1009 17.317 15.0749C17.3169 15.0747 17.3169 15.0744 17.3168 15.0741C17.3051 15.0633 17.2743 15.038 17.2089 15.0004C16.9723 14.8672 16.798 14.7863 16.6451 14.7168C16.6372 14.7132 16.6291 14.7096 16.6208 14.7058C16.4529 14.63 16.2165 14.5233 15.983 14.3522C15.7231 14.1616 15.5056 13.9233 15.2944 13.6142L15.2909 13.6092L15.2909 13.6091L15.1749 13.4371L15.1682 13.4272L15.1683 13.4272C15.0758 13.2865 15.0234 13.2084 14.974 13.1475C14.9519 13.1203 14.9374 13.1054 14.9296 13.0982C14.9264 13.0975 14.9221 13.0968 14.9165 13.096C14.8784 13.0907 14.7882 13.0859 14.6188 13.1126C14.6186 13.1127 14.6184 13.1127 14.6183 13.1127L14.462 12.125C14.0234 12.1946 13.586 12.252 13.1723 12.3063L13.283 14.1412ZM13.283 14.1412C13.2833 14.113 13.2853 14.0695 13.2914 14.0051C13.3023 13.8903 13.3225 13.7463 13.353 13.5417L13.3912 13.2861L13.283 14.1412ZM9.16731 8.86631C9.13328 8.34748 9.18515 7.8004 9.32993 7.40856L9.16731 8.86631ZM9.16731 8.86631C9.11785 8.8488 9.06711 8.83273 9.0151 8.81833L9.16731 8.86631ZM15.0284 3.52217L14.5928 3.81596C14.3135 4.00434 13.9642 4.24411 13.6464 4.48815C13.3556 4.7115 12.9934 5.01064 12.7673 5.32037L12.7672 5.32053C12.6822 5.43696 12.6285 5.55765 12.6067 5.60679C12.5811 5.66455 12.5551 5.72928 12.5351 5.77893C12.5332 5.78363 12.5314 5.78819 12.5296 5.7926C12.4819 5.91103 12.4432 6.00416 12.3992 6.08722C12.3908 6.1031 12.383 6.117 12.3759 6.1291C12.3748 6.12907 12.3736 6.12904 12.3724 6.12901C12.2902 6.12674 12.1965 6.12084 12.0765 6.11308L12.0762 6.11306C12.0634 6.11224 12.0501 6.11137 12.0363 6.11047C11.749 6.09165 11.2557 6.05935 10.7873 6.1657C10.2355 6.291 9.61535 6.63462 9.33003 7.40827L15.0284 3.52217ZM17.3226 15.0799C17.3226 15.0799 17.3226 15.0798 17.3226 15.0798L17.3226 15.0799ZM20.9594 12.86C20.7999 14.5427 20.1772 16.0903 19.2201 17.3741C19.9868 16.344 20.5249 15.1609 20.797 13.9037C20.8717 13.5584 20.9258 13.2099 20.9594 12.86ZM20.951 11.0553C20.9066 10.6344 20.8325 10.2159 20.7286 9.80304C20.4894 8.85229 20.0972 7.9497 19.5697 7.12967C20.3139 8.28395 20.8013 9.61942 20.951 11.0553ZM15.4652 3.69123C15.731 3.80223 15.9904 3.92563 16.2427 4.06069C16.0158 3.93942 15.7834 3.82769 15.5461 3.72592L15.4652 3.69123ZM15.434 20.3212L15.5237 20.2841C15.2205 20.4132 14.9089 20.5261 14.5897 20.6219C14.8749 20.536 15.1567 20.4358 15.434 20.3212Z" stroke="black" stroke-width="2"/>
</svg>
