<svg width="24" height="24" viewBox="0 0 24 24" fill="none" xmlns="http://www.w3.org/2000/svg">
<path d="M16 8.00834L2 22.0083M17.5 15.0083H9M12.67 19.0083C12.9331 19.0083 13.1936 18.9563 13.4366 18.8554C13.6796 18.7545 13.9003 18.6067 14.086 18.4203L20.24 12.2483C21.3658 11.1225 21.9983 9.59552 21.9983 8.00334C21.9983 6.41115 21.3658 4.88418 20.24 3.75834C19.1142 2.63249 17.5872 2 15.995 2C14.4028 2 12.8758 2.63249 11.75 3.75834L5.586 9.92234C5.2109 10.2973 5.00011 10.8059 5 11.3363V18.0083C5 18.2736 5.10536 18.5279 5.29289 18.7154C5.48043 18.903 5.73478 19.0083 6 19.0083H12.67Z" stroke="black" stroke-width="2" stroke-linecap="round" stroke-linejoin="round"/>
</svg>
