<svg width="24" height="24" viewBox="0 0 24 24" fill="none" xmlns="http://www.w3.org/2000/svg">
<path d="M12.0299 10.2C11.604 10.2 11.1955 10.3896 10.8943 10.7272C10.5931 11.0648 10.4239 11.5226 10.4239 12C10.4239 12.918 10.3436 14.259 10.2152 15.6M13.6359 13.008C13.6359 15.15 13.6359 18.75 12.8329 21M16.2778 20.118C16.3741 19.578 16.6231 18.048 16.6793 17.4M4 12C4 10.1111 4.53028 8.27 5.51571 6.73761C6.50115 5.20522 7.89179 4.05919 9.49065 3.46185C11.0895 2.86451 12.8155 2.84616 14.4242 3.40938C16.0329 3.9726 17.4427 5.08885 18.4539 6.6M4 15.6H4.00803M19.8993 15.6C20.0599 13.8 20.0045 10.7814 19.8993 10.2M6.40898 18.75C6.81048 17.4 7.21197 14.7 7.21197 12C7.21116 11.387 7.30349 10.7783 7.48499 10.2M9.33991 21C9.50853 20.406 9.70125 19.812 9.79761 19.2M9.62095 7.32C10.3536 6.8459 11.1847 6.59638 12.0307 6.59654C12.8767 6.59669 13.7077 6.84651 14.4403 7.32087C15.1728 7.79522 15.7809 8.4774 16.2036 9.29879C16.6262 10.1202 16.8484 11.0518 16.8479 12V13.8" stroke="black" stroke-width="2" stroke-linecap="round" stroke-linejoin="round"/>
</svg>
