<svg width="24" height="24" viewBox="0 0 24 24" fill="none" xmlns="http://www.w3.org/2000/svg">
<path d="M9 3H15M10 9H14M10 9L9.99999 3M10 9L5.99999 20C5.95174 20.0971 5.92669 20.204 5.92682 20.3124C5.92695 20.4208 5.95224 20.5277 6.00072 20.6246C6.0492 20.7216 6.11952 20.806 6.20616 20.8711C6.2928 20.9362 6.39339 20.9804 6.49999 21H17.5C17.6066 20.9804 17.7072 20.9362 17.7938 20.8711C17.8805 20.806 17.9508 20.7216 17.9993 20.6246C18.0477 20.5277 18.073 20.4208 18.0732 20.3124C18.0733 20.204 18.0482 20.0971 18 20L14 9M14 9L14 3" stroke="black" stroke-width="2" stroke-linecap="round" stroke-linejoin="round"/>
</svg>
