<svg width="24" height="24" viewBox="0 0 24 24" fill="none" xmlns="http://www.w3.org/2000/svg">
<path d="M6.10001 15H17.9M9 3H15M14 3V10.342C15.0518 10.7134 15.9792 11.3707 16.6781 12.24C17.377 13.1093 17.8198 14.1562 17.9567 15.2632C18.0935 16.3702 17.9192 17.4934 17.453 18.5068C16.9869 19.5202 16.2476 20.3835 15.318 21H8.68299C7.75281 20.3838 7.01288 19.5204 6.54633 18.5068C6.07979 17.4933 5.90511 16.3697 6.04192 15.2624C6.17873 14.155 6.62161 13.1077 7.3208 12.2382C8.01999 11.3686 8.9478 10.7113 9.99999 10.34V3H14Z" stroke="black" stroke-width="2" stroke-linecap="round" stroke-linejoin="round"/>
</svg>
