<svg width="24" height="24" viewBox="0 0 24 24" fill="none" xmlns="http://www.w3.org/2000/svg">
<path d="M10.6504 13.35C10.6077 13.3071 10.56 13.2704 10.5087 13.2404L10.8125 12.9365C10.8494 12.9821 10.8889 13.026 10.9307 13.068L10.9319 13.0692L10.6508 13.3496M10.6504 13.35C10.6919 13.3915 10.7276 13.4378 10.7569 13.4875L11.0599 13.1846C11.0157 13.1486 10.9731 13.1103 10.9324 13.0697L10.932 13.0693L10.6508 13.3496M10.6504 13.35L10.6508 13.3496M10.6504 13.35L10.6508 13.3496M13.3166 10.6856L13.3306 10.6717C13.3306 10.6717 13.3306 10.6716 13.3305 10.6716L13.6063 10.3941L13.33 10.6711C13.2876 10.6286 13.2432 10.5887 13.1971 10.5513L13.4964 10.2519C13.5267 10.3037 13.5637 10.3515 13.6064 10.394C13.648 10.4355 13.6943 10.4712 13.7441 10.5005L13.4455 10.7991L13.3166 10.6856ZM13.3166 10.6856L12.9016 11.1033C12.9015 11.1032 12.9014 11.1031 12.9012 11.103C12.9009 11.1026 12.9005 11.1023 12.9002 11.1019L13.0897 10.912M13.3166 10.6856L13.0897 10.912M13.0897 10.912L12.8997 11.1014M13.0897 10.912L13.1176 10.884L12.8997 11.1014M12.8997 11.1014L12.6225 11.3778M12.8997 11.1014L12.8997 11.1014M12.8997 11.1014C12.8573 11.0592 12.8173 11.0149 12.7798 10.9686L12.8997 11.1014ZM12.8997 11.1014L12.6225 11.3778M12.6225 11.3778C12.664 11.4194 12.6997 11.4657 12.7291 11.5154L13.0277 11.2169L12.6225 11.3778ZM14.6991 9.54557C14.669 9.49462 14.6325 9.4476 14.5903 9.40571C14.5478 9.36379 14.5004 9.32788 14.4495 9.29852L14.7495 8.99837C14.7857 9.04293 14.8242 9.08582 14.865 9.12685C14.865 9.12678 14.8649 9.12672 14.8649 9.12666L14.8823 9.10928L14.8823 9.10927L15.0798 8.91313L15.0798 8.91309L14.6991 9.54557ZM14.6991 9.54557L14.9977 9.24697L14.6991 9.54557ZM6.86852 16.8816L7.58492 16.165C7.61514 16.2164 7.6519 16.2638 7.69438 16.306M6.86852 16.8816C6.76587 16.7552 6.68174 16.6145 6.61896 16.4636C6.53748 16.2678 6.49348 16.0585 6.48913 15.8467L3.45684 18.8798C3.75139 19.0391 4.0266 19.242 4.27695 19.4739M6.86852 16.8816C6.90572 16.9274 6.94534 16.9713 6.98727 17.0131M6.86852 16.8816L4.27695 19.4739M4.27695 19.4739L3.72256 20.0284C3.76464 20.0664 3.80588 20.1055 3.84613 20.1454L3.84957 20.1488L3.84979 20.149L3.8519 20.1511L3.85187 20.1511C3.89192 20.1915 3.93101 20.2328 3.96902 20.2749L4.52356 19.7204M4.27695 19.4739C4.31961 19.5134 4.36154 19.5538 4.40272 19.5949L4.40372 19.5959C4.44449 19.6367 4.48446 19.6782 4.52356 19.7204M4.52356 19.7204C4.75669 19.972 4.95908 20.2474 5.11828 20.5399L8.14732 17.5111C7.93764 17.506 7.7306 17.4621 7.53674 17.3814C7.38444 17.318 7.24249 17.2329 7.11522 17.129M4.52356 19.7204L7.11522 17.129M7.11522 17.129L7.83123 16.413C7.78144 16.3832 7.73544 16.3473 7.69438 16.306M7.11522 17.129C7.07071 17.0926 7.028 17.0539 6.98727 17.0131M7.69438 16.306L6.98955 17.0154C6.98879 17.0146 6.98803 17.0139 6.98727 17.0131M7.69438 16.306L6.985 17.0108C6.98576 17.0116 6.98651 17.0123 6.98727 17.0131M10.1672 12.1676L9.67616 12.6588L9.32537 13.0096L10.1672 12.1676ZM10.1672 12.1676V13.1454M10.1672 12.1676L9.66651 14.3339C9.70807 14.3753 9.75432 14.411 9.80401 14.4404L9.50566 14.7387C9.46938 14.6943 9.43081 14.6516 9.39007 14.611C9.38984 14.6107 9.38962 14.6105 9.3894 14.6103C9.38875 14.6097 9.3881 14.609 9.38745 14.6084L9.38432 14.6053C9.34373 14.5653 9.30132 14.5276 9.25731 14.4921L9.55742 14.1919C9.49616 14.0865 9.46309 13.9659 9.46309 13.8419C9.46309 13.6575 9.53625 13.4805 9.66651 13.35C9.73211 13.2842 9.81019 13.2322 9.89617 13.1971C9.98215 13.1619 10.0743 13.1444 10.1672 13.1454M10.1672 13.1454H10.1715L10.1778 12.157L10.1715 12.7395L10.1672 13.1454ZM3.08812 21.8396C3.18393 21.8936 3.27529 21.9345 3.35741 21.9612L3.08812 21.8396ZM3.08812 21.8396L3.4295 21.7287L3.08812 21.8396ZM18.4071 4.36111L18.5295 4.48311L19.5178 5.46831L19.6393 5.58947C19.5081 5.7516 19.3987 5.86729 19.3185 5.93696C19.2962 5.94722 19.2648 5.96068 19.2251 5.97633C19.1815 5.99349 19.1344 6.0107 19.0864 6.02698L17.97 4.91058C17.9859 4.8643 18.0026 4.81879 18.0193 4.77651C18.0353 4.73589 18.0492 4.70387 18.0597 4.68109C18.1288 4.60144 18.2443 4.49244 18.4071 4.36111ZM10.4355 11.8992L10.1893 12.1455L10.1922 12.1456C10.2835 12.1475 10.3738 12.1567 10.4625 12.1729C10.4462 12.0831 10.4371 11.9916 10.4355 11.8992ZM11.3584 12.6437C11.3582 12.6435 11.358 12.6434 11.3579 12.6432C11.3576 12.643 11.3574 12.6428 11.3572 12.6425C11.3151 12.6004 11.2711 12.5608 11.2252 12.5236L11.5294 12.2195C11.5592 12.271 11.5959 12.3188 11.6387 12.3617C11.6802 12.4032 11.7265 12.4389 11.7762 12.4683L11.4733 12.7712C11.4373 12.727 11.399 12.6844 11.3584 12.6437ZM11.8534 13.8052C11.8515 13.7149 11.8423 13.6255 11.8263 13.5376C11.9142 13.5537 12.0036 13.5628 12.0939 13.5648L11.8534 13.8052ZM13.8256 11.8332L14.0618 11.597C13.9733 11.5951 13.8856 11.5863 13.7994 11.5708C13.8148 11.657 13.8237 11.7447 13.8256 11.8332ZM14.9272 10.7317L14.5903 10.394L14.9272 10.7317ZM14.3978 8.23145C14.3099 8.21586 14.2204 8.20714 14.1301 8.20562L14.3978 8.23145ZM9.86135 15.5111C9.94684 15.5263 10.0339 15.535 10.1217 15.5369L9.88773 15.7708C9.88561 15.6835 9.87677 15.5967 9.86135 15.5111ZM9.08765 15.1567L8.78965 15.4546C8.75989 15.4048 8.72396 15.3588 8.68262 15.3177C8.63959 15.2754 8.59161 15.2391 8.54005 15.2096L8.84063 14.9089C8.8771 14.954 8.91602 14.9974 8.9573 15.0388C8.9577 15.0393 8.95811 15.0397 8.95852 15.0401C8.95853 15.0401 8.95854 15.0401 8.95855 15.0401L8.96027 15.0418C9.00095 15.0824 9.04347 15.1207 9.08765 15.1567ZM8.49011 14.1435C8.40069 14.1277 8.30961 14.1189 8.21769 14.1176L8.46336 13.8719C8.46497 13.9636 8.474 14.0544 8.49011 14.1435ZM3.43339 21.7274L3.44204 21.7246L3.46094 21.7184L3.43339 21.7274ZM3.42994 21.7273L3.0846 21.8376L3.4361 21.6549L3.44518 21.6781L3.43353 21.7157L3.42994 21.7273ZM3.43385 21.726L3.43627 21.7185L3.44749 21.684L3.43385 21.726Z" stroke="black" stroke-width="2"/>
</svg>
