<svg width="24" height="24" viewBox="0 0 24 24" fill="none" xmlns="http://www.w3.org/2000/svg">
<path d="M20.5 10C20.5 8.67392 19.9732 7.40215 19.0355 6.46447C18.0978 5.52678 16.8261 5 15.5 5H8.6C7.44399 4.99973 6.3236 5.40003 5.42949 6.13278C4.53539 6.86553 3.92281 7.88546 3.696 9.019L2.062 17.192C1.9642 17.681 2.02799 18.1886 2.24376 18.6382C2.45952 19.0878 2.81558 19.4551 3.25826 19.6847C3.70094 19.9143 4.20626 19.9939 4.69808 19.9113C5.1899 19.8288 5.64156 19.5886 5.985 19.227L10 15L14 15L18.07 19.284C18.4128 19.6447 18.8632 19.8845 19.3538 19.9674C19.8444 20.0503 20.3487 19.9719 20.7909 19.744C21.2332 19.516 21.5896 19.1508 21.8067 18.7031C22.0238 18.2554 22.0899 17.7494 21.995 17.261L20.395 9.02901M8 9V11M7 10H9M14 10H16" stroke="black" stroke-width="2" stroke-linecap="round" stroke-linejoin="round"/>
</svg>
