<svg width="24" height="24" viewBox="0 0 24 24" fill="none" xmlns="http://www.w3.org/2000/svg">
<path d="M13 10.0001L20.383 17.4181C21.206 18.2381 21.206 19.5661 20.383 20.3851C19.9876 20.7784 19.4526 20.9991 18.895 20.9991C18.3373 20.9991 17.8023 20.7784 17.407 20.3851L9.99997 13.0001M13 10.0001L8.99997 6.00009M13 10.0001L13.5 10.5001L15.793 8.20709C15.9804 8.01957 16.0858 7.76526 16.0858 7.50009C16.0858 7.23493 15.9804 6.98062 15.793 6.79309L12.207 3.20709C12.0194 3.01962 11.7651 2.91431 11.5 2.91431C11.2348 2.91431 10.9805 3.01962 10.793 3.20709L8.49997 5.50009L8.99997 6.00009M13 10.0001L9.99997 13.0001M9.99997 13.0001L5.99997 9.00009M9.99997 13.0001L10.5 13.5001L8.20697 15.7931C8.01944 15.9806 7.76514 16.0859 7.49997 16.0859C7.23481 16.0859 6.9805 15.9806 6.79297 15.7931L3.20697 12.2071C3.0195 12.0196 2.91418 11.7653 2.91418 11.5001C2.91418 11.2349 3.0195 10.9806 3.20697 10.7931L5.49997 8.50009L5.99997 9.00009M5.99997 9.00009L8.99997 6.00009M2.99997 21.0001H9.99997" stroke="black" stroke-width="2" stroke-linecap="round" stroke-linejoin="round"/>
</svg>
