<svg width="24" height="24" viewBox="0 0 24 24" fill="none" xmlns="http://www.w3.org/2000/svg">
<path d="M15.9188 2.94515C15.9174 3.01875 15.9192 3.09133 15.9237 3.16265L15.8112 2.8815L15.67 2.52877L15.9622 2.51492C15.9361 2.65746 15.9217 2.80073 15.9188 2.94515ZM6.77877 9.03617L13.247 3.96326L14.6563 7.48457L6.77877 9.03617ZM16.5217 10.5615L16.916 10.5788L17.3542 10.6113C18.5236 10.6979 19.0817 10.8449 19.3504 10.9646C19.4699 11.0179 19.5134 11.0579 19.5273 11.0715C19.5431 11.0872 19.563 11.1105 19.6092 11.1915C19.6189 11.2086 19.6301 11.2294 19.643 11.2535C19.7496 11.4519 19.9738 11.8695 20.4633 12.1887C20.8051 12.4115 21.2368 12.5691 21.7896 12.6809L21.8003 13.1975L17.6498 14.973L19.2132 13.5824L16.8806 13.3938L5.41625 12.4671L15.229 10.5306C15.7113 10.5355 16.1385 10.5446 16.5217 10.5615ZM3.90761 12.0564L3.90751 12.0557L2.93007 12.2045L2.93007 12.2045L3.90761 12.0564ZM17.2214 18.0817L17.2828 18.0589L17.2067 18.7304L17.1034 18.0722L17.2214 18.0817ZM5.05399 17.1447L5.02957 16.971L5.07063 16.9747L5.05399 17.1447Z" stroke="black" stroke-width="2"/>
</svg>
