<svg width="24" height="24" viewBox="0 0 24 24" fill="none" xmlns="http://www.w3.org/2000/svg">
<path d="M20.7542 3H22V3.2309H21.2426H20.8257L20.5323 3.52704L15.3907 8.71598L15.2489 8.57491L20.7542 3ZM7.59247 16.8358L7.44168 16.5331L7.13809 16.384L3.07465 14.389C3.0385 14.367 3.02345 14.3464 3.01612 14.3338C3.00646 14.3171 3 14.2956 3 14.2699C3 14.2443 3.00646 14.2228 3.01612 14.2061C3.02365 14.1931 3.03933 14.1718 3.07768 14.1491L7.51879 11.9081L6.82678 12.5865L6.84802 12.6079L6.74966 12.7072L5.96492 13.4992L5.26749 14.203L5.96492 14.9069L9.09282 18.0636L9.80316 18.7805L10.5135 18.0636L11.2982 17.2716L11.3837 17.1854L11.4051 17.207L12.0072 16.5815L9.84614 20.9434C9.83239 20.9661 9.8188 20.9767 9.80735 20.9832C9.79193 20.9921 9.76823 21 9.73684 21C9.71347 21 9.68937 20.9933 9.67186 20.9832C9.65862 20.9757 9.65112 20.9678 9.64509 20.9566L7.59247 16.8358ZM11.9694 9.69671C11.9763 9.69967 11.9982 9.71021 12.0327 9.74218L14.2095 11.9391C14.2264 11.9594 14.2378 11.9758 14.2455 11.9884L14.2082 12.139L13.0468 14.4831L12.8567 14.2911L9.72876 11.1344L9.50317 10.9067L11.9005 9.69701L11.909 9.69275C11.9197 9.69271 11.9323 9.69269 11.9474 9.69269C11.9584 9.69269 11.9634 9.69416 11.9694 9.69671Z" stroke="black" stroke-width="2"/>
</svg>
