<svg width="24" height="24" viewBox="0 0 24 24" fill="none" xmlns="http://www.w3.org/2000/svg">
<path d="M20.5337 3.51698L16.6345 7.43675C16.586 7.38643 16.5366 7.33689 16.4865 7.28816L20.7521 3H22V3.22222H21.2426H20.8269L20.5337 3.51698ZM15.3684 12L15.3684 12.0012C15.3693 12.7655 15.1169 13.5078 14.6519 14.1108C14.187 14.7137 13.5363 15.1428 12.8033 15.3316L12.0526 15.5249V16.3V16.4444C12.0526 17.6544 11.5745 18.8136 10.725 19.6676C9.87578 20.5213 8.72506 21 7.52632 21C6.32757 21 5.17685 20.5213 4.32759 19.6676C3.47815 18.8136 3 17.6544 3 16.4444C3 15.2345 3.47815 14.0752 4.32759 13.2213C5.17685 12.3676 6.32757 11.8889 7.52632 11.8889H7.67H8.4475L8.63915 11.1354C9.0246 9.61983 10.3854 8.55556 11.9474 8.55556C12.853 8.55556 13.7226 8.91716 14.3646 9.56254C15.0067 10.2081 15.3684 11.0848 15.3684 12ZM7.06246 13.7824L6.35849 13.0772L5.65079 13.7786L4.86605 14.5564L4.15451 15.2616L4.86103 15.9719L7.98892 19.1164L8.6979 19.8291L9.40687 19.1164L10.1916 18.3275L10.8944 17.621L10.1904 16.9157L7.06246 13.7824ZM11.9474 9.33333C11.2407 9.33333 10.5641 9.61557 10.0661 10.1163C9.56823 10.6167 9.28947 11.2945 9.28947 12C9.28947 12.7055 9.56823 13.3833 10.0661 13.8837C10.5641 14.3844 11.2407 14.6667 11.9474 14.6667C12.654 14.6667 13.3306 14.3844 13.8286 13.8837C14.3265 13.3833 14.6053 12.7055 14.6053 12C14.6053 11.2945 14.3265 10.6167 13.8286 10.1163C13.3306 9.61557 12.654 9.33333 11.9474 9.33333Z" stroke="black" stroke-width="2"/>
</svg>
