<svg width="24" height="24" viewBox="0 0 24 24" fill="none" xmlns="http://www.w3.org/2000/svg">
<path d="M11 12V4.5C11 4.10218 10.842 3.72064 10.5607 3.43934C10.2794 3.15804 9.89782 3 9.5 3C9.10218 3 8.72064 3.15804 8.43934 3.43934C8.15804 3.72064 8 4.10218 8 4.5V13L6.53 11.53C6.23554 11.2359 5.85125 11.0486 5.43816 10.9978C5.02507 10.9471 4.60688 11.0359 4.25 11.25C3.91495 11.4509 3.67148 11.7745 3.57138 12.1522C3.47128 12.5298 3.52245 12.9315 3.714 13.272C5.593 16.612 6.688 18.521 7 19C7.06508 19.1002 7.13041 19.2002 7.196 19.3C7.74252 20.1299 8.48658 20.811 9.36138 21.2823C10.2362 21.7535 11.2143 22.0002 12.208 22H12H14C15.5913 22 17.1174 21.3679 18.2426 20.2426C19.3679 19.1174 20 17.5913 20 16V11.5C20 11.1022 19.842 10.7206 19.5607 10.4393C19.2794 10.158 18.8978 10 18.5 10C18.1022 10 17.7206 10.158 17.4393 10.4393C17.158 10.7206 17 11.1022 17 11.5M11 11.5V9.5C11 9.30302 11.0388 9.10796 11.1142 8.92597C11.1896 8.74399 11.3001 8.57863 11.4393 8.43934C11.5786 8.30005 11.744 8.18956 11.926 8.11418C12.108 8.0388 12.303 8 12.5 8C12.697 8 12.892 8.0388 13.074 8.11418C13.256 8.18956 13.4214 8.30005 13.5607 8.43934C13.6999 8.57863 13.8104 8.74399 13.8858 8.92597C13.9612 9.10796 14 9.30302 14 9.5V12M14 10.5C14 10.1022 14.158 9.72064 14.4393 9.43934C14.7206 9.15804 15.1022 9 15.5 9C15.8978 9 16.2794 9.15804 16.5607 9.43934C16.842 9.72064 17 10.1022 17 10.5V12" stroke="black" stroke-width="2" stroke-linecap="round" stroke-linejoin="round"/>
</svg>
