<svg width="24" height="24" viewBox="0 0 24 24" fill="none" xmlns="http://www.w3.org/2000/svg">
<path d="M11 11.5V10.5C11 10.1022 11.158 9.72064 11.4393 9.43934C11.7206 9.15804 12.1022 9 12.5 9C12.8978 9 13.2794 9.15804 13.5607 9.43934C13.842 9.72064 14 10.1022 14 10.5M14 10.5V12M14 10.5C14 10.1022 14.158 9.72064 14.4393 9.43934C14.7206 9.15804 15.1022 9 15.5 9C15.8978 9 16.2794 9.15804 16.5607 9.43934C16.842 9.72064 17 10.1022 17 10.5V12V5.5C17 5.10218 17.158 4.72064 17.4393 4.43934C17.7206 4.15804 18.1022 4 18.5 4C18.8978 4 19.2794 4.15804 19.5607 4.43934C19.842 4.72064 20 5.10218 20 5.5V16C20 17.5913 19.3679 19.1174 18.2426 20.2426C17.1174 21.3679 15.5913 22 14 22H12H12.208C11.2143 22.0002 10.2362 21.7535 9.36138 21.2823C8.48658 20.811 7.74252 20.1299 7.196 19.3C7.13041 19.2002 7.06508 19.1002 7 19C6.688 18.521 5.593 16.612 3.714 13.272C3.52245 12.9315 3.47128 12.5298 3.57138 12.1522C3.67148 11.7745 3.91495 11.4509 4.25 11.25C4.60688 11.0359 5.02507 10.9471 5.43816 10.9978C5.85125 11.0486 6.23554 11.2359 6.53 11.53L8 13L8 4.5C8 4.10218 8.15804 3.72064 8.43934 3.43934C8.72064 3.15804 9.10218 3 9.5 3C9.89782 3 10.2794 3.15804 10.5607 3.43934C10.842 3.72064 11 4.10218 11 4.5V12" stroke="black" stroke-width="2" stroke-linecap="round" stroke-linejoin="round"/>
</svg>
