<svg width="24" height="24" viewBox="0 0 24 24" fill="none" xmlns="http://www.w3.org/2000/svg">
<path d="M19.5 13.572L12 21L9.10397 18.132M2.98697 10.028C2.97862 8.97338 3.30396 7.94311 3.91649 7.08453C4.52902 6.22596 5.39735 5.58306 6.39732 5.24778C7.39728 4.9125 8.47766 4.90201 9.48394 5.2178C10.4902 5.5336 11.3709 6.15951 12 7.00603C12.4135 6.45605 12.9361 5.99735 13.5351 5.65863C14.134 5.31992 14.7965 5.10848 15.4809 5.03755C16.1653 4.96662 16.8571 5.03773 17.5127 5.24642C18.1684 5.45511 18.774 5.7969 19.2915 6.25039C19.8091 6.70388 20.2274 7.25931 20.5204 7.88192C20.8134 8.50453 20.9747 9.18091 20.9943 9.86874C21.0138 10.5566 20.8912 11.241 20.6341 11.8793C20.377 12.5175 19.9909 13.0958 19.5 13.578M3 13H5L7 16L9 10L10 13H13" stroke="black" stroke-width="2" stroke-linecap="round" stroke-linejoin="round"/>
</svg>
