<svg width="24" height="24" viewBox="0 0 24 24" fill="none" xmlns="http://www.w3.org/2000/svg">
<path d="M19.875 6.27002C20.2187 6.46548 20.5041 6.74899 20.7018 7.09137C20.8995 7.43376 21.0025 7.82265 21 8.21802V15.502C21 16.311 20.557 17.057 19.842 17.45L13.092 21.72C12.7574 21.9037 12.3818 22.0001 12 22.0001C11.6182 22.0001 11.2426 21.9037 10.908 21.72L4.158 17.45C3.80817 17.2588 3.51612 16.9772 3.31241 16.6345C3.1087 16.2918 3.0008 15.9007 3 15.502V8.21702C3 7.40802 3.443 6.66302 4.158 6.27002L10.908 2.29002C11.2525 2.10005 11.6396 2.00043 12.033 2.00043C12.4264 2.00043 12.8135 2.10005 13.158 2.29002L19.908 6.27002H19.875Z" stroke="black" stroke-width="2" stroke-linecap="round" stroke-linejoin="round"/>
</svg>
