<svg width="24" height="24" viewBox="0 0 24 24" fill="none" xmlns="http://www.w3.org/2000/svg">
<path d="M9.99999 20.7769C9.1296 20.5795 8.29367 20.2529 7.51999 19.8079M14 3.2229C15.9881 3.67697 17.7632 4.79259 19.0346 6.38711C20.306 7.98162 20.9984 9.96055 20.9984 11.9999C20.9984 14.0392 20.306 16.0182 19.0346 17.6127C17.7632 19.2072 15.9881 20.3228 14 20.7769M4.57899 17.0929C4.0335 16.3004 3.61919 15.4252 3.35199 14.5009M3.12399 10.4999C3.28399 9.5499 3.59199 8.6499 4.02399 7.8249L4.19299 7.5199M6.90699 4.5789C7.84265 3.9348 8.89231 3.47462 9.99999 3.2229M12 7.99991V11.9999L15 14.9999" stroke="black" stroke-width="2" stroke-linecap="round" stroke-linejoin="round"/>
</svg>
