<svg width="24" height="24" viewBox="0 0 24 24" fill="none" xmlns="http://www.w3.org/2000/svg">
<path d="M17.5 11.5L20 10M6.5 11.5L4 10M12 13H12.01M12 16H12.01M12 3C12.7819 2.99975 13.5468 3.22868 14.2 3.65848C14.8532 4.08828 15.3661 4.70009 15.6753 5.41828C15.9845 6.13647 16.0764 6.92953 15.9397 7.6994C15.8029 8.46927 15.4436 9.18219 14.906 9.75C16.0699 10.394 16.9867 11.4065 17.5125 12.6284C18.0382 13.8502 18.143 15.2121 17.8104 16.5C17.4779 17.7879 16.7268 18.9288 15.6752 19.7433C14.6236 20.5579 13.3312 20.9999 12.001 20.9999C10.6709 20.9999 9.37842 20.5579 8.32684 19.7433C7.27525 18.9288 6.52414 17.7879 6.19157 16.5C5.859 15.2121 5.96383 13.8502 6.48957 12.6284C7.01531 11.4065 7.93216 10.394 9.09601 9.75C8.55856 9.18231 8.19924 8.46957 8.06245 7.69989C7.92567 6.9302 8.01742 6.13731 8.32637 5.4192C8.63531 4.70109 9.14791 4.08925 9.8008 3.6593C10.4537 3.22936 11.2183 3.00014 12 3Z" stroke="black" stroke-width="2" stroke-linecap="round" stroke-linejoin="round"/>
</svg>
