<svg width="24" height="24" viewBox="0 0 24 24" fill="none" xmlns="http://www.w3.org/2000/svg">
<path d="M17.553 16.7501C16.1465 15.3437 14.239 14.5537 12.25 14.5537C10.261 14.5537 8.3535 15.3437 6.94701 16.7501M18 3.80408C16.6219 3.00847 14.9842 2.79286 13.4472 3.20468C11.9102 3.61651 10.5997 4.62204 9.804 6.00008L20.196 12.0001C20.9916 10.622 21.2072 8.98432 20.7954 7.44729C20.3836 5.91025 19.378 4.59975 18 3.80408ZM18 3.80408C18.957 4.35608 18.39 7.13008 16.732 10.0001M18 3.80408C17.043 3.25208 14.925 5.13008 13.268 8.00008M15 9.00008L12 14.1961M3 19.2501C3.31129 19.0953 3.65249 19.01 4 19.0001C4.3895 18.9919 4.77512 19.0787 5.12358 19.2529C5.47203 19.4272 5.77283 19.6836 6 20.0001C6.22717 20.3166 6.52797 20.573 6.87642 20.7472C7.22488 20.9215 7.6105 21.0082 8 21.0001C8.3895 21.0082 8.77512 20.9215 9.12358 20.7472C9.47203 20.573 9.77283 20.3166 10 20.0001C10.2272 19.6836 10.528 19.4272 10.8764 19.2529C11.2249 19.0787 11.6105 18.9919 12 19.0001C12.3895 18.9919 12.7751 19.0787 13.1236 19.2529C13.472 19.4272 13.7728 19.6836 14 20.0001C14.2272 20.3166 14.528 20.573 14.8764 20.7472C15.2249 20.9215 15.6105 21.0082 16 21.0001C16.3895 21.0082 16.7751 20.9215 17.1236 20.7472C17.472 20.573 17.7728 20.3166 18 20.0001C18.2272 19.6836 18.528 19.4272 18.8764 19.2529C19.2249 19.0787 19.6105 18.9919 20 19.0001C20.3475 19.01 20.6887 19.0953 21 19.2501" stroke="black" stroke-width="2" stroke-linecap="round" stroke-linejoin="round"/>
</svg>
