<svg width="24" height="24" viewBox="0 0 24 24" fill="none" xmlns="http://www.w3.org/2000/svg">
<path d="M11.5 8.50009C12.0523 8.50009 12.5 8.05238 12.5 7.50009C12.5 6.94781 12.0523 6.50009 11.5 6.50009C10.9477 6.50009 10.5 6.94781 10.5 7.50009C10.5 8.05238 10.9477 8.50009 11.5 8.50009Z" fill="black"/>
<path d="M5.63599 5.6361C6.53143 4.74051 7.6058 4.04398 8.78887 3.59205C9.97194 3.14012 11.2371 2.94296 12.5016 3.01347C13.766 3.08398 15.0014 3.42056 16.1269 4.00121C17.2524 4.58186 18.2427 5.39351 19.033 6.3831L13.414 12.0001L19.033 17.6171C18.2687 18.5725 17.3176 19.362 16.2378 19.9374C15.1581 20.5128 13.9724 20.862 12.7531 20.9637C11.5338 21.0654 10.3066 20.9174 9.14651 20.5287C7.98637 20.1401 6.91766 19.519 6.00566 18.7034C5.09367 17.8878 4.35754 16.8948 3.84227 15.7851C3.327 14.6754 3.0434 13.4723 3.0088 12.2493C2.9742 11.0263 3.18933 9.80909 3.64105 8.67203C4.09276 7.53497 4.77157 6.50196 5.63599 5.6361Z" stroke="black" stroke-width="2" stroke-linecap="round" stroke-linejoin="round"/>
<path d="M11.5 8.50009C12.0523 8.50009 12.5 8.05238 12.5 7.50009C12.5 6.94781 12.0523 6.50009 11.5 6.50009C10.9477 6.50009 10.5 6.94781 10.5 7.50009C10.5 8.05238 10.9477 8.50009 11.5 8.50009Z" stroke="black" stroke-width="2" stroke-linecap="round" stroke-linejoin="round"/>
</svg>
