<svg width="24" height="24" viewBox="0 0 24 24" fill="none" xmlns="http://www.w3.org/2000/svg">
<path d="M11.414 10.0001L4.03097 17.4181C3.83532 17.6124 3.68004 17.8436 3.57408 18.0982C3.46812 18.3528 3.41357 18.6258 3.41357 18.9016C3.41357 19.1774 3.46812 19.4504 3.57408 19.705C3.68004 19.9596 3.83532 20.1907 4.03097 20.3851C4.42634 20.7784 4.96132 20.9991 5.51897 20.9991C6.07662 20.9991 6.6116 20.7784 7.00697 20.3851L14.414 13.0001M18.121 15.2931L20.707 12.7071C20.8944 12.5196 20.9998 12.2653 20.9998 12.0001C20.9998 11.7349 20.8944 11.4806 20.707 11.2931L13.121 3.70709C12.9334 3.51962 12.6791 3.41431 12.414 3.41431C12.1488 3.41431 11.8945 3.51962 11.707 3.70709L9.12097 6.29309C8.9335 6.48062 8.82819 6.73493 8.82819 7.00009C8.82819 7.26526 8.9335 7.51957 9.12097 7.70709L16.707 15.2931C16.8945 15.4806 17.1488 15.5859 17.414 15.5859C17.6791 15.5859 17.9334 15.4806 18.121 15.2931Z" stroke="black" stroke-width="2" stroke-linecap="round" stroke-linejoin="round"/>
</svg>
