<svg width="24" height="24" viewBox="0 0 24 24" fill="none" xmlns="http://www.w3.org/2000/svg">
<path d="M6 5.5C6 6.16304 6.63214 6.79893 7.75736 7.26777C8.88258 7.73661 10.4087 8 12 8C13.5913 8 15.1174 7.73661 16.2426 7.26777C17.3679 6.79893 18 6.16304 18 5.5M6 5.5C6 4.83696 6.63214 4.20107 7.75736 3.73223C8.88258 3.26339 10.4087 3 12 3C13.5913 3 15.1174 3.26339 16.2426 3.73223C17.3679 4.20107 18 4.83696 18 5.5M6 5.5L6.00003 12.127C5.69842 11.9894 5.35807 11.9622 5.03843 12.0501C4.71879 12.1379 4.44018 12.3353 4.25127 12.6077C4.06236 12.8801 3.97516 13.2102 4.00491 13.5404C4.03466 13.8705 4.17947 14.1798 4.41403 14.414L6.00003 16V18C6.00003 19.657 8.68603 21 12 21H12.275C15.46 20.925 18 19.61 18 18V14L19.586 12.414L19.683 12.306C19.8837 12.0584 19.9949 11.7504 19.9987 11.4318C20.0025 11.1131 19.8986 10.8025 19.7039 10.5503C19.5091 10.298 19.2349 10.1189 18.9257 10.0419C18.6165 9.96489 18.2903 9.99453 18 10.126L18 5.5M10 12.5V14M14 16V17" stroke="black" stroke-width="2" stroke-linecap="round" stroke-linejoin="round"/>
</svg>
