<svg width="24" height="24" viewBox="0 0 24 24" fill="none" xmlns="http://www.w3.org/2000/svg">
<path d="M13 10.0001L20.383 17.4181C21.206 18.2381 21.206 19.5661 20.383 20.3851C19.9876 20.7784 19.4527 20.9991 18.895 20.9991C18.3374 20.9991 17.8024 20.7784 17.407 20.3851L10 13.0001M13 10.0001L9 6.00009M13 10.0001L13.5 10.5001L15.793 8.20709C15.9805 8.01957 16.0858 7.76526 16.0858 7.50009C16.0858 7.23493 15.9805 6.98062 15.793 6.79309L12.207 3.20709C12.0195 3.01962 11.7652 2.91431 11.5 2.91431C11.2348 2.91431 10.9805 3.01962 10.793 3.20709L8.5 5.50009L9 6.00009M13 10.0001L10 13.0001M10 13.0001L6 9.00009M10 13.0001L10.5 13.5001L8.207 15.7931C8.01947 15.9806 7.76517 16.0859 7.5 16.0859C7.23484 16.0859 6.98053 15.9806 6.793 15.7931L3.207 12.2071C3.01953 12.0196 2.91422 11.7653 2.91422 11.5001C2.91422 11.2349 3.01953 10.9806 3.207 10.7931L5.5 8.50009L6 9.00009M6 9.00009L9 6.00009M3 21.0001H10" stroke="black" stroke-width="2" stroke-linecap="round" stroke-linejoin="round"/>
</svg>
