<svg width="24" height="24" viewBox="0 0 24 24" fill="none" xmlns="http://www.w3.org/2000/svg">
<path d="M4 17.0001C4 17.7957 4.31607 18.5588 4.87868 19.1214C5.44129 19.684 6.20435 20.0001 7 20.0001M14.805 6.37005L17.588 3.58605C17.7737 3.4003 17.9941 3.25293 18.2368 3.15238C18.4794 3.05183 18.7395 3.00005 19.0021 3C19.2648 2.99995 19.5249 3.05164 19.7676 3.15211C20.0102 3.25258 20.2307 3.39986 20.4165 3.58555C20.6022 3.77124 20.7496 3.9917 20.8502 4.23434C20.9507 4.47698 21.0025 4.73705 21.0025 4.9997C21.0026 5.26235 20.9509 5.52244 20.8504 5.76511C20.75 6.00779 20.6027 6.2283 20.417 6.41405L17.633 9.20005M16.505 7.49506C17.4313 8.4212 17.9661 9.66795 17.9988 10.9774C18.0316 12.2868 17.5598 13.5588 16.681 14.5301L16.505 14.7141L14.638 16.5811C14.0404 17.1781 13.6803 17.9721 13.625 18.8151L13.617 19.0451V19.9791C13.617 20.3061 13.487 20.6191 13.257 20.8501C13.1726 20.935 13.0611 20.9875 12.9419 20.9985C12.8227 21.0095 12.7034 20.9782 12.605 20.9101L12.535 20.8501L3.15 11.4661C3.10253 11.4187 3.06486 11.3624 3.03917 11.3005C3.01347 11.2385 3.00024 11.1721 3.00024 11.1051C3.00024 11.038 3.01347 10.9716 3.03917 10.9096C3.06486 10.8477 3.10253 10.7914 3.15 10.7441C3.348 10.5461 3.606 10.4221 3.882 10.3911L4.021 10.3831H4.954C5.802 10.3831 6.617 10.0741 7.251 9.51906L7.419 9.36206L9.286 7.49506L9.446 7.34206C10.4157 6.45317 11.6911 5.97291 13.0062 6.00141C14.3214 6.02992 15.5747 6.56499 16.505 7.49506Z" stroke="black" stroke-width="2" stroke-linecap="round" stroke-linejoin="round"/>
</svg>
