<svg width="24" height="24" viewBox="0 0 24 24" fill="none" xmlns="http://www.w3.org/2000/svg">
<path d="M14.5 14C15.5 10.667 16.667 9.00002 18 9.00002C19.333 9.00002 20.5 10.667 21.5 14M18 16V17M2.5 14C3.5 10.667 4.667 9.00002 6 9.00002C7.333 9.00002 8.5 10.667 9.5 14M6 16V17M18 4.00001C20.21 4.00001 22 5.68201 22 7.75801C22 7.83601 22 7.91401 21.992 7.99201L21.392 17.006C21.282 18.689 19.796 20.006 18 20.006C16.204 20.006 14.72 18.695 14.608 17.006L14.008 7.99201C13.87 5.92101 15.546 4.13701 17.751 4.00701C17.8343 4.00217 17.9166 3.99983 18 4.00001ZM6.00001 4.00002C8.21001 4.00002 10 5.68202 10 7.75802C10 7.83602 10 7.91402 9.99201 7.99202L9.39201 17.006C9.28201 18.689 7.79601 20.006 6.00001 20.006C4.20401 20.006 2.72001 18.695 2.60801 17.006L2.00801 7.99202C1.87001 5.92102 3.54601 4.13702 5.75001 4.00702C5.83401 4.00702 5.91701 4.00002 6.00001 4.00002Z" stroke="black" stroke-width="2" stroke-linecap="round" stroke-linejoin="round"/>
</svg>
