<svg width="24" height="24" viewBox="0 0 24 24" fill="none" xmlns="http://www.w3.org/2000/svg">
<path d="M10 10L16.5 16.5M14.42 9.058L9.05802 14.421C8.81962 14.6594 8.52424 14.8329 8.19994 14.925C7.87564 15.0171 7.53317 15.0248 7.20505 14.9474C6.87694 14.8699 6.57406 14.7099 6.32518 14.4825C6.0763 14.2551 5.88967 13.9678 5.78302 13.648L3.10102 5.604C2.98485 5.25551 2.96803 4.88156 3.05242 4.52404C3.13682 4.16653 3.31911 3.83958 3.57885 3.57983C3.8386 3.32008 4.16555 3.1378 4.52307 3.0534C4.88058 2.969 5.25453 2.98583 5.60302 3.102L13.648 5.784C13.9676 5.89072 14.2547 6.07734 14.482 6.32615C14.7092 6.57495 14.8692 6.87769 14.9466 7.20565C15.024 7.53361 15.0164 7.87591 14.9244 8.20009C14.8324 8.52427 14.6582 8.81958 14.42 9.058ZM19.347 16.575L20.427 17.654C20.7946 18.0217 21.0011 18.5204 21.001 19.0404C21.0009 19.5603 20.7942 20.0589 20.4265 20.4265C20.0588 20.7941 19.5601 21.0005 19.0402 21.0005C18.5202 21.0004 18.0216 20.7937 17.654 20.426L16.574 19.347C16.2064 18.9793 16 18.4806 16.0001 17.9606C16.0002 17.4407 16.2068 16.9421 16.5745 16.5745C16.9422 16.2069 17.4409 16.0005 17.9609 16.0005C18.4808 16.0006 18.9794 16.2073 19.347 16.575Z" stroke="black" stroke-width="2" stroke-linecap="round" stroke-linejoin="round"/>
</svg>
