<svg width="24" height="24" viewBox="0 0 24 24" fill="none" xmlns="http://www.w3.org/2000/svg">
<path d="M10 20.7769C9.12961 20.5795 8.29368 20.2529 7.52 19.8079M14 3.2229C15.9882 3.67697 17.7632 4.79259 19.0347 6.38711C20.3061 7.98162 20.9984 9.96055 20.9984 11.9999C20.9984 14.0392 20.3061 16.0182 19.0347 17.6127C17.7632 19.2072 15.9882 20.3228 14 20.7769M4.579 17.0929C4.0335 16.3004 3.6192 15.4252 3.352 14.5009M3.124 10.4999C3.284 9.5499 3.592 8.6499 4.024 7.8249L4.193 7.5199M6.907 4.5789C7.84265 3.9348 8.89232 3.47462 10 3.2229M12 7.99991V11.9999L15 14.9999" stroke="black" stroke-width="2" stroke-linecap="round" stroke-linejoin="round"/>
</svg>
