<svg width="24" height="24" viewBox="0 0 24 24" fill="none" xmlns="http://www.w3.org/2000/svg">
<path d="M18 4.00006C18.4213 4.0001 18.8319 4.1332 19.1731 4.38036C19.5143 4.62752 19.7687 4.97613 19.9001 5.37645C20.0315 5.77677 20.033 6.20835 19.9046 6.60963C19.7762 7.01091 19.5244 7.36139 19.185 7.61106C20.735 10.5511 20.058 14.5281 17.293 17.2931C14.528 20.0581 10.55 20.7351 7.61098 19.1851C7.44032 19.4173 7.22149 19.6098 6.96947 19.7496C6.71746 19.8894 6.43822 19.973 6.15088 19.9949C5.86353 20.0167 5.57486 19.9761 5.30463 19.876C5.03441 19.7759 4.78901 19.6186 4.58524 19.4148C4.38147 19.211 4.22414 18.9656 4.12402 18.6954C4.02391 18.4252 3.98337 18.1365 4.00519 17.8492C4.02701 17.5618 4.11067 17.2826 4.25044 17.0306C4.3902 16.7786 4.58278 16.5597 4.81498 16.3891C3.26498 13.4491 3.94198 9.47206 6.70698 6.70706C9.47198 3.94206 13.45 3.26506 16.389 4.81506C16.5748 4.56241 16.8174 4.35701 17.0973 4.21543C17.3771 4.07386 17.6864 4.00008 18 4.00006Z" stroke="black" stroke-width="2" stroke-linecap="round" stroke-linejoin="round"/>
</svg>
