<svg width="24" height="24" viewBox="0 0 24 24" fill="none" xmlns="http://www.w3.org/2000/svg">
<path d="M14 12H18.5C19.0304 12 19.5391 12.2107 19.9142 12.5858C20.2893 12.9609 20.5 13.4696 20.5 14C20.5 14.5304 20.2893 15.0391 19.9142 15.4142C19.5391 15.7893 19.0304 16 18.5 16H14V8H18C18.5304 8 19.0391 8.21071 19.4142 8.58579C19.7893 8.96086 20 9.46957 20 10C20 10.5304 19.7893 11.0391 19.4142 11.4142C19.0391 11.7893 18.5304 12 18 12M9 10V16M9 13C9 14.6569 7.65685 16 6 16C4.34315 16 3 14.6569 3 13C3 11.3431 4.34315 10 6 10C7.65685 10 9 11.3431 9 13Z" stroke="black" stroke-width="2" stroke-linecap="round" stroke-linejoin="round"/>
</svg>
