<svg width="24" height="24" viewBox="0 0 24 24" fill="none" xmlns="http://www.w3.org/2000/svg">
<path d="M3 16L7 8L11 16M4 14H10M15 12H19.5C20.0304 12 20.5391 12.2107 20.9142 12.5858C21.2893 12.9609 21.5 13.4696 21.5 14C21.5 14.5304 21.2893 15.0391 20.9142 15.4142C20.5391 15.7893 20.0304 16 19.5 16H15V8H19C19.5304 8 20.0391 8.21071 20.4142 8.58579C20.7893 8.96086 21 9.46957 21 10C21 10.5304 20.7893 11.0391 20.4142 11.4142C20.0391 11.7893 19.5304 12 19 12" stroke="black" stroke-width="2" stroke-linecap="round" stroke-linejoin="round"/>
</svg>
