<svg width="24" height="24" viewBox="0 0 24 24" fill="none" xmlns="http://www.w3.org/2000/svg">
<path d="M9 12C9.79565 12 10.5587 11.6839 11.1213 11.1213C11.6839 10.5587 12 9.79565 12 9M12 9C12 9.79565 12.3161 10.5587 12.8787 11.1213C13.4413 11.6839 14.2044 12 15 12M12 9V4M6.08098 20C7.69298 20 8.99998 18.665 8.99998 17.02V7.257C8.99998 6.563 8.44798 6 7.76798 6C7.56298 6 7.36298 6.052 7.18398 6.15L7.05398 6.233C5.59398 7.292 4.62198 8.88 3.64998 12.057C3.22998 13.427 3.01398 15.019 3.00198 16.832C2.98998 18.507 4.26298 19.886 5.87898 19.993L6.08098 20ZM17.92 20C16.307 20 15 18.665 15 17.02V7.257C15 6.563 15.552 6 16.233 6C16.437 6 16.638 6.052 16.817 6.15L16.947 6.233C18.407 7.292 19.379 8.88 20.352 12.057C20.772 13.427 20.988 15.019 21 16.832C21.012 18.507 19.739 19.886 18.122 19.993L17.92 20Z" stroke="black" stroke-width="2" stroke-linecap="round" stroke-linejoin="round"/>
</svg>
