<svg width="24" height="24" viewBox="0 0 24 24" fill="none" xmlns="http://www.w3.org/2000/svg">
<path d="M3 7H6M3 11H5M9.79999 7.5L12.782 10.78C13.047 11.0715 13.3668 11.308 13.7232 11.476C14.0796 11.6439 14.4656 11.74 14.8591 11.7588C15.2527 11.7775 15.6461 11.7186 16.0168 11.5853C16.3876 11.452 16.7285 11.247 17.02 10.982L20.3 8M9.01999 8.801L8.41999 14.801C8.39219 15.079 8.42295 15.3598 8.5103 15.6252C8.59765 15.8906 8.73965 16.1348 8.92714 16.342C9.11463 16.5492 9.34345 16.7148 9.59885 16.8281C9.85425 16.9414 10.1306 17 10.41 17H18.39C18.886 17 19.3642 16.8157 19.732 16.4829C20.0997 16.1501 20.3306 15.6925 20.38 15.199L20.98 9.199C21.0078 8.92097 20.977 8.64019 20.8897 8.37478C20.8023 8.10936 20.6603 7.86519 20.4728 7.65801C20.2854 7.45083 20.0565 7.28524 19.8011 7.17191C19.5457 7.05857 19.2694 7.00001 18.99 7H11.01C10.514 7.00002 10.0358 7.18432 9.66802 7.51712C9.30029 7.84993 9.06934 8.30749 9.01999 8.801Z" stroke="black" stroke-width="2" stroke-linecap="round" stroke-linejoin="round"/>
</svg>
