<svg width="24" height="24" viewBox="0 0 24 24" fill="none" xmlns="http://www.w3.org/2000/svg">
<path d="M21 3L16 12H21L14.109 19.086C13.492 19.7043 12.7566 20.192 11.9469 20.5197C11.1371 20.8475 10.2697 21.0087 9.39623 20.9937C8.52281 20.9787 7.66137 20.7877 6.86339 20.4323C6.06541 20.0769 5.34725 19.5643 4.75183 18.9251C4.15641 18.2859 3.69594 17.5332 3.39793 16.7121C3.09992 15.8909 2.97049 15.0181 3.01736 14.1458C3.06424 13.2735 3.28646 12.4196 3.67075 11.6352C4.05504 10.8507 4.59352 10.1517 5.25401 9.58L13 3L12 8L21 3Z" stroke="black" stroke-width="2" stroke-linecap="round" stroke-linejoin="round"/>
<path d="M7 14.5C7 15.163 7.26339 15.7989 7.73223 16.2678C8.20107 16.7366 8.83696 17 9.5 17C10.163 17 10.7989 16.7366 11.2678 16.2678C11.7366 15.7989 12 15.163 12 14.5C12 13.837 11.7366 13.2011 11.2678 12.7322C10.7989 12.2634 10.163 12 9.5 12C8.83696 12 8.20107 12.2634 7.73223 12.7322C7.26339 13.2011 7 13.837 7 14.5Z" stroke="black" stroke-width="2" stroke-linecap="round" stroke-linejoin="round"/>
</svg>
