<svg width="24" height="24" viewBox="0 0 24 24" fill="none" xmlns="http://www.w3.org/2000/svg">
<path d="M15 12.8999C16.0531 13.1143 17.1472 12.9836 18.1202 12.5272C19.0932 12.0709 19.8932 11.3132 20.4018 10.3665C20.9103 9.41979 21.1003 8.3344 20.9436 7.27122C20.7869 6.20804 20.2918 5.22364 19.5317 4.46393C18.7716 3.70422 17.787 3.20963 16.7237 3.05345C15.6604 2.89728 14.5751 3.08784 13.6287 3.59688C12.6822 4.10593 11.925 4.90638 11.4691 5.87959C11.0133 6.8528 10.8832 7.94697 11.098 8.99995M15 12.8999L11.098 9.00095L3.58503 17.5849C3.20974 17.9598 2.99876 18.4684 2.99847 18.9989C2.99834 19.2615 3.04993 19.5216 3.15031 19.7644C3.2507 20.0071 3.3979 20.2276 3.58353 20.4134C3.76915 20.5993 3.98956 20.7467 4.23216 20.8473C4.47476 20.948 4.73481 20.9999 4.99747 21C5.52791 21.0003 6.03674 20.7898 6.41203 20.4149L15 12.8999Z" stroke="black" stroke-width="2" stroke-linecap="round" stroke-linejoin="round"/>
</svg>
