<svg width="24" height="24" viewBox="0 0 24 24" fill="none" xmlns="http://www.w3.org/2000/svg">
<mask id="path-1-inside-1_648_2973" fill="white">
<path d="M16.375 4.66667C16.5408 4.66667 16.6997 4.7369 16.8169 4.86193C16.9342 4.98695 17 5.15652 17 5.33333V14.6667C17 14.8435 16.9342 15.013 16.8169 15.1381C16.6997 15.2631 16.5408 15.3333 16.375 15.3333C16.2092 15.3333 16.0503 15.2631 15.9331 15.1381C15.8158 15.013 15.75 14.8435 15.75 14.6667V5.33333C15.75 5.15652 15.8158 4.98695 15.9331 4.86193C16.0503 4.7369 16.2092 4.66667 16.375 4.66667ZM18.875 4.66667C19.0408 4.66667 19.1997 4.7369 19.3169 4.86193C19.4342 4.98695 19.5 5.15652 19.5 5.33333V14.6667C19.5 14.8435 19.4342 15.013 19.3169 15.1381C19.1997 15.2631 19.0408 15.3333 18.875 15.3333C18.7092 15.3333 18.5503 15.2631 18.4331 15.1381C18.3158 15.013 18.25 14.8435 18.25 14.6667V5.33333C18.25 5.15652 18.3158 4.98695 18.4331 4.86193C18.5503 4.7369 18.7092 4.66667 18.875 4.66667ZM6.375 15.3333C6.20924 15.3333 6.05027 15.4036 5.93306 15.5286C5.81585 15.6536 5.75 15.8232 5.75 16C5.75 16.1768 5.81585 16.3464 5.93306 16.4714C6.05027 16.5964 6.20924 16.6667 6.375 16.6667H13.875C14.0408 16.6667 14.1997 16.5964 14.3169 16.4714C14.4342 16.3464 14.5 16.1768 14.5 16C14.5 15.8232 14.4342 15.6536 14.3169 15.5286C14.1997 15.4036 14.0408 15.3333 13.875 15.3333H6.375ZM6.375 18C6.20924 18 6.05027 18.0702 5.93306 18.1953C5.81585 18.3203 5.75 18.4899 5.75 18.6667C5.75 18.8435 5.81585 19.013 5.93306 19.1381C6.05027 19.2631 6.20924 19.3333 6.375 19.3333H13.875C14.0408 19.3333 14.1997 19.2631 14.3169 19.1381C14.4342 19.013 14.5 18.8435 14.5 18.6667C14.5 18.4899 14.4342 18.3203 14.3169 18.1953C14.1997 18.0702 14.0408 18 13.875 18H6.375ZM8.25 6C7.91848 6 7.60054 6.14048 7.36612 6.39052C7.1317 6.64057 7 6.97971 7 7.33333H6.375C6.20924 7.33333 6.05027 7.40357 5.93306 7.5286C5.81585 7.65362 5.75 7.82319 5.75 8C5.75 8.17681 5.81585 8.34638 5.93306 8.4714C6.05027 8.59643 6.20924 8.66667 6.375 8.66667H7V10H6.375C6.20924 10 6.05027 10.0702 5.93306 10.1953C5.81585 10.3203 5.75 10.4899 5.75 10.6667C5.75 10.8435 5.81585 11.013 5.93306 11.1381C6.05027 11.2631 6.20924 11.3333 6.375 11.3333H7C7 11.687 7.1317 12.0261 7.36612 12.2761C7.60054 12.5262 7.91848 12.6667 8.25 12.6667V13.3333C8.25 13.5101 8.31585 13.6797 8.43306 13.8047C8.55027 13.9298 8.70924 14 8.875 14C9.04076 14 9.19973 13.9298 9.31694 13.8047C9.43415 13.6797 9.5 13.5101 9.5 13.3333V12.6667H10.75V13.3333C10.75 13.5101 10.8158 13.6797 10.9331 13.8047C11.0503 13.9298 11.2092 14 11.375 14C11.5408 14 11.6997 13.9298 11.8169 13.8047C11.9342 13.6797 12 13.5101 12 13.3333V12.6667C12.3315 12.6667 12.6495 12.5262 12.8839 12.2761C13.1183 12.0261 13.25 11.687 13.25 11.3333H13.875C14.0408 11.3333 14.1997 11.2631 14.3169 11.1381C14.4342 11.013 14.5 10.8435 14.5 10.6667C14.5 10.4899 14.4342 10.3203 14.3169 10.1953C14.1997 10.0702 14.0408 10 13.875 10H13.25V8.66667H13.875C14.0408 8.66667 14.1997 8.59643 14.3169 8.4714C14.4342 8.34638 14.5 8.17681 14.5 8C14.5 7.82319 14.4342 7.65362 14.3169 7.5286C14.1997 7.40357 14.0408 7.33333 13.875 7.33333H13.25C13.25 6.97971 13.1183 6.64057 12.8839 6.39052C12.6495 6.14048 12.3315 6 12 6V5.33333C12 5.15652 11.9342 4.98695 11.8169 4.86193C11.6997 4.7369 11.5408 4.66667 11.375 4.66667C11.2092 4.66667 11.0503 4.7369 10.9331 4.86193C10.8158 4.98695 10.75 5.15652 10.75 5.33333V6H9.5V5.33333C9.5 5.15652 9.43415 4.98695 9.31694 4.86193C9.19973 4.7369 9.04076 4.66667 8.875 4.66667C8.70924 4.66667 8.55027 4.7369 8.43306 4.86193C8.31585 4.98695 8.25 5.15652 8.25 5.33333V6ZM8.25 7.33333H12V11.3333H8.25V7.33333ZM16.375 16.6667C16.2092 16.6667 16.0503 16.7369 15.9331 16.8619C15.8158 16.987 15.75 17.1565 15.75 17.3333V18.6667C15.75 18.8435 15.8158 19.013 15.9331 19.1381C16.0503 19.2631 16.2092 19.3333 16.375 19.3333H18.875C19.0408 19.3333 19.1997 19.2631 19.3169 19.1381C19.4342 19.013 19.5 18.8435 19.5 18.6667V17.3333C19.5 17.1565 19.4342 16.987 19.3169 16.8619C19.1997 16.7369 19.0408 16.6667 18.875 16.6667H16.375Z"/>
<path d="M3.25 4.66667C3.25 3.95942 3.51339 3.28115 3.98223 2.78105C4.45107 2.28095 5.08696 2 5.75 2H19.5C20.163 2 20.7989 2.28095 21.2678 2.78105C21.7366 3.28115 22 3.95942 22 4.66667V19.3333C22 20.0406 21.7366 20.7189 21.2678 21.219C20.7989 21.719 20.163 22 19.5 22H5.75C5.08696 22 4.45107 21.719 3.98223 21.219C3.51339 20.7189 3.25 20.0406 3.25 19.3333V16.6667H2.625C2.45924 16.6667 2.30027 16.5964 2.18306 16.4714C2.06585 16.3464 2 16.1768 2 16V14.6667C2 14.4899 2.06585 14.3203 2.18306 14.1953C2.30027 14.0702 2.45924 14 2.625 14H3.25V12.6667H2.625C2.45924 12.6667 2.30027 12.5964 2.18306 12.4714C2.06585 12.3464 2 12.1768 2 12V10.6667C2 10.4899 2.06585 10.3203 2.18306 10.1953C2.30027 10.0702 2.45924 10 2.625 10H3.25V8.66667H2.625C2.45924 8.66667 2.30027 8.59643 2.18306 8.4714C2.06585 8.34638 2 8.17681 2 8V5.33333C2 5.15652 2.06585 4.98695 2.18306 4.86193C2.30027 4.7369 2.45924 4.66667 2.625 4.66667H3.25ZM4.5 19.3333C4.5 19.687 4.6317 20.0261 4.86612 20.2761C5.10054 20.5262 5.41848 20.6667 5.75 20.6667H19.5C19.8315 20.6667 20.1495 20.5262 20.3839 20.2761C20.6183 20.0261 20.75 19.687 20.75 19.3333V4.66667C20.75 4.31304 20.6183 3.97391 20.3839 3.72386C20.1495 3.47381 19.8315 3.33333 19.5 3.33333H5.75C5.41848 3.33333 5.10054 3.47381 4.86612 3.72386C4.6317 3.97391 4.5 4.31304 4.5 4.66667V19.3333Z"/>
</mask>
<path d="M16.375 4.66667C16.5408 4.66667 16.6997 4.7369 16.8169 4.86193C16.9342 4.98695 17 5.15652 17 5.33333V14.6667C17 14.8435 16.9342 15.013 16.8169 15.1381C16.6997 15.2631 16.5408 15.3333 16.375 15.3333C16.2092 15.3333 16.0503 15.2631 15.9331 15.1381C15.8158 15.013 15.75 14.8435 15.75 14.6667V5.33333C15.75 5.15652 15.8158 4.98695 15.9331 4.86193C16.0503 4.7369 16.2092 4.66667 16.375 4.66667ZM18.875 4.66667C19.0408 4.66667 19.1997 4.7369 19.3169 4.86193C19.4342 4.98695 19.5 5.15652 19.5 5.33333V14.6667C19.5 14.8435 19.4342 15.013 19.3169 15.1381C19.1997 15.2631 19.0408 15.3333 18.875 15.3333C18.7092 15.3333 18.5503 15.2631 18.4331 15.1381C18.3158 15.013 18.25 14.8435 18.25 14.6667V5.33333C18.25 5.15652 18.3158 4.98695 18.4331 4.86193C18.5503 4.7369 18.7092 4.66667 18.875 4.66667ZM6.375 15.3333C6.20924 15.3333 6.05027 15.4036 5.93306 15.5286C5.81585 15.6536 5.75 15.8232 5.75 16C5.75 16.1768 5.81585 16.3464 5.93306 16.4714C6.05027 16.5964 6.20924 16.6667 6.375 16.6667H13.875C14.0408 16.6667 14.1997 16.5964 14.3169 16.4714C14.4342 16.3464 14.5 16.1768 14.5 16C14.5 15.8232 14.4342 15.6536 14.3169 15.5286C14.1997 15.4036 14.0408 15.3333 13.875 15.3333H6.375ZM6.375 18C6.20924 18 6.05027 18.0702 5.93306 18.1953C5.81585 18.3203 5.75 18.4899 5.75 18.6667C5.75 18.8435 5.81585 19.013 5.93306 19.1381C6.05027 19.2631 6.20924 19.3333 6.375 19.3333H13.875C14.0408 19.3333 14.1997 19.2631 14.3169 19.1381C14.4342 19.013 14.5 18.8435 14.5 18.6667C14.5 18.4899 14.4342 18.3203 14.3169 18.1953C14.1997 18.0702 14.0408 18 13.875 18H6.375ZM8.25 6C7.91848 6 7.60054 6.14048 7.36612 6.39052C7.1317 6.64057 7 6.97971 7 7.33333H6.375C6.20924 7.33333 6.05027 7.40357 5.93306 7.5286C5.81585 7.65362 5.75 7.82319 5.75 8C5.75 8.17681 5.81585 8.34638 5.93306 8.4714C6.05027 8.59643 6.20924 8.66667 6.375 8.66667H7V10H6.375C6.20924 10 6.05027 10.0702 5.93306 10.1953C5.81585 10.3203 5.75 10.4899 5.75 10.6667C5.75 10.8435 5.81585 11.013 5.93306 11.1381C6.05027 11.2631 6.20924 11.3333 6.375 11.3333H7C7 11.687 7.1317 12.0261 7.36612 12.2761C7.60054 12.5262 7.91848 12.6667 8.25 12.6667V13.3333C8.25 13.5101 8.31585 13.6797 8.43306 13.8047C8.55027 13.9298 8.70924 14 8.875 14C9.04076 14 9.19973 13.9298 9.31694 13.8047C9.43415 13.6797 9.5 13.5101 9.5 13.3333V12.6667H10.75V13.3333C10.75 13.5101 10.8158 13.6797 10.9331 13.8047C11.0503 13.9298 11.2092 14 11.375 14C11.5408 14 11.6997 13.9298 11.8169 13.8047C11.9342 13.6797 12 13.5101 12 13.3333V12.6667C12.3315 12.6667 12.6495 12.5262 12.8839 12.2761C13.1183 12.0261 13.25 11.687 13.25 11.3333H13.875C14.0408 11.3333 14.1997 11.2631 14.3169 11.1381C14.4342 11.013 14.5 10.8435 14.5 10.6667C14.5 10.4899 14.4342 10.3203 14.3169 10.1953C14.1997 10.0702 14.0408 10 13.875 10H13.25V8.66667H13.875C14.0408 8.66667 14.1997 8.59643 14.3169 8.4714C14.4342 8.34638 14.5 8.17681 14.5 8C14.5 7.82319 14.4342 7.65362 14.3169 7.5286C14.1997 7.40357 14.0408 7.33333 13.875 7.33333H13.25C13.25 6.97971 13.1183 6.64057 12.8839 6.39052C12.6495 6.14048 12.3315 6 12 6V5.33333C12 5.15652 11.9342 4.98695 11.8169 4.86193C11.6997 4.7369 11.5408 4.66667 11.375 4.66667C11.2092 4.66667 11.0503 4.7369 10.9331 4.86193C10.8158 4.98695 10.75 5.15652 10.75 5.33333V6H9.5V5.33333C9.5 5.15652 9.43415 4.98695 9.31694 4.86193C9.19973 4.7369 9.04076 4.66667 8.875 4.66667C8.70924 4.66667 8.55027 4.7369 8.43306 4.86193C8.31585 4.98695 8.25 5.15652 8.25 5.33333V6ZM8.25 7.33333H12V11.3333H8.25V7.33333ZM16.375 16.6667C16.2092 16.6667 16.0503 16.7369 15.9331 16.8619C15.8158 16.987 15.75 17.1565 15.75 17.3333V18.6667C15.75 18.8435 15.8158 19.013 15.9331 19.1381C16.0503 19.2631 16.2092 19.3333 16.375 19.3333H18.875C19.0408 19.3333 19.1997 19.2631 19.3169 19.1381C19.4342 19.013 19.5 18.8435 19.5 18.6667V17.3333C19.5 17.1565 19.4342 16.987 19.3169 16.8619C19.1997 16.7369 19.0408 16.6667 18.875 16.6667H16.375Z" stroke="black" stroke-width="4" mask="url(#path-1-inside-1_648_2973)"/>
<path d="M3.25 4.66667C3.25 3.95942 3.51339 3.28115 3.98223 2.78105C4.45107 2.28095 5.08696 2 5.75 2H19.5C20.163 2 20.7989 2.28095 21.2678 2.78105C21.7366 3.28115 22 3.95942 22 4.66667V19.3333C22 20.0406 21.7366 20.7189 21.2678 21.219C20.7989 21.719 20.163 22 19.5 22H5.75C5.08696 22 4.45107 21.719 3.98223 21.219C3.51339 20.7189 3.25 20.0406 3.25 19.3333V16.6667H2.625C2.45924 16.6667 2.30027 16.5964 2.18306 16.4714C2.06585 16.3464 2 16.1768 2 16V14.6667C2 14.4899 2.06585 14.3203 2.18306 14.1953C2.30027 14.0702 2.45924 14 2.625 14H3.25V12.6667H2.625C2.45924 12.6667 2.30027 12.5964 2.18306 12.4714C2.06585 12.3464 2 12.1768 2 12V10.6667C2 10.4899 2.06585 10.3203 2.18306 10.1953C2.30027 10.0702 2.45924 10 2.625 10H3.25V8.66667H2.625C2.45924 8.66667 2.30027 8.59643 2.18306 8.4714C2.06585 8.34638 2 8.17681 2 8V5.33333C2 5.15652 2.06585 4.98695 2.18306 4.86193C2.30027 4.7369 2.45924 4.66667 2.625 4.66667H3.25ZM4.5 19.3333C4.5 19.687 4.6317 20.0261 4.86612 20.2761C5.10054 20.5262 5.41848 20.6667 5.75 20.6667H19.5C19.8315 20.6667 20.1495 20.5262 20.3839 20.2761C20.6183 20.0261 20.75 19.687 20.75 19.3333V4.66667C20.75 4.31304 20.6183 3.97391 20.3839 3.72386C20.1495 3.47381 19.8315 3.33333 19.5 3.33333H5.75C5.41848 3.33333 5.10054 3.47381 4.86612 3.72386C4.6317 3.97391 4.5 4.31304 4.5 4.66667V19.3333Z" stroke="black" stroke-width="4" mask="url(#path-1-inside-1_648_2973)"/>
</svg>
