<svg width="24" height="24" viewBox="0 0 24 24" fill="none" xmlns="http://www.w3.org/2000/svg">
<path d="M17.5 6.5L16.5 7.5M3.00003 21C2.33303 20.333 6.26203 14.764 14.785 4.291C15.0888 3.91792 15.4663 3.61149 15.8938 3.39082C16.3213 3.17016 16.7897 3.04 17.2698 3.00849C17.7499 2.97698 18.2313 3.04479 18.684 3.20768C19.1368 3.37057 19.551 3.62504 19.901 3.95521C20.2509 4.28538 20.529 4.68415 20.7179 5.12662C20.9069 5.56909 21.0025 6.04576 20.999 6.52687C20.9954 7.00797 20.8927 7.48318 20.6973 7.92281C20.5018 8.36243 20.2178 8.75705 19.863 9.082C9.28803 17.694 3.66703 21.667 3.00003 21Z" stroke="black" stroke-width="2" stroke-linecap="round" stroke-linejoin="round"/>
</svg>
