<svg width="24" height="24" viewBox="0 0 24 24" fill="none" xmlns="http://www.w3.org/2000/svg">
<path d="M13.2 3.39401L20.233 8.631C20.5722 8.88345 20.8227 9.23692 20.9485 9.64064C21.0743 10.0444 21.0688 10.4776 20.933 10.878L17.96 19.642C17.8258 20.0379 17.571 20.3818 17.2312 20.6254C16.8915 20.869 16.484 21 16.066 21H7.946C7.52511 21.0002 7.1149 20.8676 6.77376 20.621C6.43262 20.3745 6.17795 20.0267 6.046 19.627L3.15 10.862C3.01883 10.4649 3.01543 10.0367 3.14028 9.63761C3.26513 9.2385 3.51194 8.88856 3.846 8.63701L10.804 3.40001C11.1499 3.14107 11.5704 3.00113 12.0025 3.00113C12.4346 3.00113 12.8551 3.14107 13.201 3.40001L13.2 3.39401Z" stroke="black" stroke-width="2" stroke-linecap="round" stroke-linejoin="round"/>
</svg>
