<svg width="24" height="24" viewBox="0 0 24 24" fill="none" xmlns="http://www.w3.org/2000/svg">
<path d="M10 12.0001H10.01M14 12.0001H14.01M10 16.0001C10.5869 16.4088 11.2849 16.6278 12 16.6278C12.7151 16.6278 13.4131 16.4088 14 16.0001M11 4.00012C13 4.00012 14.5 5.50012 14.5 8.00012H14.664C15.0486 8.02537 15.4221 8.13919 15.7554 8.33268C16.0887 8.52618 16.3727 8.79411 16.5853 9.11554C16.798 9.43697 16.9334 9.80321 16.981 10.1856C17.0287 10.5681 16.9873 10.9563 16.86 11.3201C17.4128 11.6012 17.8648 12.0466 18.1541 12.5951C18.4433 13.1436 18.5554 13.7683 18.475 14.3831C19.039 14.7017 19.4848 15.1942 19.7457 15.7871C20.0066 16.38 20.0685 17.0414 19.9223 17.6724C19.7761 18.3034 19.4296 18.8702 18.9346 19.288C18.4396 19.7057 17.8227 19.9521 17.176 19.9901H7.00003C6.33704 19.9902 5.69271 19.7706 5.16772 19.3657C4.64273 18.9608 4.26666 18.3933 4.09826 17.7521C3.92987 17.1108 3.97863 16.4319 4.23695 15.8213C4.49526 15.2107 4.94856 14.7028 5.52603 14.3771C5.44588 13.7624 5.55812 13.138 5.84732 12.5897C6.13651 12.0414 6.58847 11.5961 7.14103 11.3151C7.01381 10.9514 6.97238 10.5632 7.01998 10.1809C7.06757 9.79851 7.2029 9.43233 7.4154 9.11091C7.62791 8.7895 7.91182 8.52155 8.24499 8.328C8.57816 8.13444 8.95156 8.02052 9.33603 7.99512H9.50003C11 7.99512 12 5.99512 11 3.99512V4.00012Z" stroke="black" stroke-width="2" stroke-linecap="round" stroke-linejoin="round"/>
</svg>
