<svg width="24" height="24" viewBox="0 0 24 24" fill="none" xmlns="http://www.w3.org/2000/svg">
<path d="M9.99999 20.777C9.1296 20.5796 8.29367 20.2529 7.51999 19.808M14 3.22302C15.9881 3.67709 17.7632 4.79271 19.0346 6.38723C20.306 7.98174 20.9984 9.96067 20.9984 12C20.9984 14.0394 20.306 16.0183 19.0346 17.6128C17.7632 19.2073 15.9881 20.323 14 20.777M4.57899 17.093C4.0335 16.3004 3.61919 15.4252 3.35199 14.501M3.12399 10.5C3.28399 9.55002 3.59199 8.65002 4.02399 7.82502L4.19299 7.52002M6.90699 4.57902C7.84265 3.93492 8.89232 3.47474 9.99999 3.22302" stroke="black" stroke-width="2" stroke-linecap="round" stroke-linejoin="round"/>
</svg>
