<svg width="24" height="24" viewBox="0 0 24 24" fill="none" xmlns="http://www.w3.org/2000/svg">
<path d="M9 15L10.5 16L12 15L13.5 16L15 15M10 11H10.01M14 11H14.01M12 6.00001C11.125 6.00001 10.301 6.31501 9.58502 6.86901C8.57502 6.14801 8.08502 5.83801 7.00002 6.08201C4.39102 6.67001 3.37302 10.245 4.27602 14.065C5.18002 17.885 7.02702 20.506 9.63602 19.918C9.90471 19.8574 10.1647 19.7633 10.41 19.638C10.91 19.873 11.444 20 12 20C12.5502 19.9985 13.0931 19.8752 13.59 19.639C13.8356 19.7634 14.0956 19.8571 14.364 19.918C16.973 20.505 18.82 17.885 19.723 14.065C20.627 10.244 19.609 6.67001 17 6.08201C15.915 5.83801 15.425 6.14801 14.415 6.87001C13.699 6.31501 12.876 6.00001 12 6.00001ZM12 6.00001C12 4.77401 12.693 3.654 13.789 3.106L14 3" stroke="black" stroke-width="2" stroke-linecap="round" stroke-linejoin="round"/>
</svg>
