<svg width="24" height="24" viewBox="0 0 24 24" fill="none" xmlns="http://www.w3.org/2000/svg">
<path d="M5 18C5 18.5304 5.21071 19.0391 5.58579 19.4142C5.96086 19.7893 6.46957 20 7 20H19V4H7C6.46957 4 5.96086 4.21071 5.58579 4.58579C5.21071 4.96086 5 5.46957 5 6V18ZM5 18C5 17.4696 5.21071 16.9609 5.58579 16.5858C5.96086 16.2107 6.46957 16 7 16H19M15.275 8.09358C15.1391 7.96855 15.275 7.60372 15.275 7.42691C15.275 7.60372 15.411 7.96855 15.275 8.09358ZM15.275 8.09358C15.411 8.2186 15.8077 8.09358 16 8.09358C15.8077 8.09358 15.411 7.96855 15.275 8.09358ZM15.275 8.09358C15.1391 8.2186 15.275 8.58343 15.275 8.76024C15.275 8.58343 15.411 8.2186 15.275 8.09358ZM15.275 8.09358C15.1391 7.96855 14.7423 8.09358 14.55 8.09358C14.7423 8.09358 15.1391 8.2186 15.275 8.09358ZM12.2616 7.00267H12.4041C11.9384 7.40057 11.6391 7.93595 11.5581 8.51574C11.4772 9.09553 11.6198 9.68308 11.961 10.1762C12.3023 10.6694 12.8207 11.037 13.4262 11.2152C14.0316 11.3933 14.6858 11.3707 15.275 11.1513C15.0484 11.6528 14.6779 12.0883 14.2032 12.4114C13.7285 12.7345 13.1673 12.933 12.5795 12.9858C11.9917 13.0386 11.3994 12.9436 10.8656 12.7111C10.3319 12.4786 9.87684 12.1172 9.54896 11.6655C9.22108 11.2138 9.03269 10.6888 9.00388 10.1463C8.97508 9.60389 9.10694 9.06443 9.3854 8.5855C9.66386 8.10658 10.0785 7.70614 10.585 7.42691C11.0916 7.14768 11.671 7.00013 12.2616 7V7.00267Z" stroke="black" stroke-width="2" stroke-linecap="round" stroke-linejoin="round"/>
</svg>
