<svg width="24" height="24" viewBox="0 0 24 24" fill="none" xmlns="http://www.w3.org/2000/svg">
<mask id="path-1-inside-1_648_2974" fill="white">
<path d="M2 6V18H11.2857V17.3333C11.2857 16.9633 11.6036 16.6667 12 16.6667C12.3964 16.6667 12.7143 16.9633 12.7143 17.3333V18H22V6H2ZM3.42857 7.33333H20.5714V13.3333H3.42857V7.33333ZM4.85714 8.66667V12H9.14286V8.66667H4.85714ZM9.85714 8.66667V12H14.1429V8.66667H9.85714ZM14.8571 8.66667V12H19.1429V8.66667H14.8571ZM6.28571 10H7.71429V10.6667H6.28571V10ZM11.2857 10H12.7143V10.6667H11.2857V10ZM16.2857 10H17.7143V10.6667H16.2857V10ZM3.42857 14.6667H20.5714V16.6667H13.8529C13.5371 15.9267 12.8986 15.3333 12 15.3333C11.1014 15.3333 10.4629 15.9267 10.1471 16.6667H3.42857V14.6667Z"/>
</mask>
<path d="M2 6V4H0V6H2ZM2 18H0V20H2V18ZM11.2857 18V20H13.2857V18H11.2857ZM12.7143 18H10.7143V20H12.7143V18ZM22 18V20H24V18H22ZM22 6H24V4H22V6ZM3.42857 7.33333V5.33333H1.42857V7.33333H3.42857ZM20.5714 7.33333H22.5714V5.33333H20.5714V7.33333ZM20.5714 13.3333V15.3333H22.5714V13.3333H20.5714ZM3.42857 13.3333H1.42857V15.3333H3.42857V13.3333ZM4.85714 8.66667V6.66667H2.85714V8.66667H4.85714ZM4.85714 12H2.85714V14H4.85714V12ZM9.14286 12V14H11.1429V12H9.14286ZM9.14286 8.66667H11.1429V6.66667H9.14286V8.66667ZM9.85714 8.66667V6.66667H7.85714V8.66667H9.85714ZM9.85714 12H7.85714V14H9.85714V12ZM14.1429 12V14H16.1429V12H14.1429ZM14.1429 8.66667H16.1429V6.66667H14.1429V8.66667ZM14.8571 8.66667V6.66667H12.8571V8.66667H14.8571ZM14.8571 12H12.8571V14H14.8571V12ZM19.1429 12V14H21.1429V12H19.1429ZM19.1429 8.66667H21.1429V6.66667H19.1429V8.66667ZM6.28571 10V8H4.28571V10H6.28571ZM7.71429 10H9.71429V8H7.71429V10ZM7.71429 10.6667V12.6667H9.71429V10.6667H7.71429ZM6.28571 10.6667H4.28571V12.6667H6.28571V10.6667ZM11.2857 10V8H9.28571V10H11.2857ZM12.7143 10H14.7143V8H12.7143V10ZM12.7143 10.6667V12.6667H14.7143V10.6667H12.7143ZM11.2857 10.6667H9.28571V12.6667H11.2857V10.6667ZM16.2857 10V8H14.2857V10H16.2857ZM17.7143 10H19.7143V8H17.7143V10ZM17.7143 10.6667V12.6667H19.7143V10.6667H17.7143ZM16.2857 10.6667H14.2857V12.6667H16.2857V10.6667ZM3.42857 14.6667V12.6667H1.42857V14.6667H3.42857ZM20.5714 14.6667H22.5714V12.6667H20.5714V14.6667ZM20.5714 16.6667V18.6667H22.5714V16.6667H20.5714ZM13.8529 16.6667L12.0133 17.4515L12.5317 18.6667H13.8529V16.6667ZM10.1471 16.6667V18.6667H11.4683L11.9867 17.4515L10.1471 16.6667ZM3.42857 16.6667H1.42857V18.6667H3.42857V16.6667ZM0 6V18H4V6H0ZM2 20H11.2857V16H2V20ZM13.2857 18V17.3333H9.28571V18H13.2857ZM13.2857 17.3333C13.2857 18.1956 12.5759 18.6667 12 18.6667V14.6667C10.6312 14.6667 9.28571 15.731 9.28571 17.3333H13.2857ZM12 18.6667C11.4241 18.6667 10.7143 18.1956 10.7143 17.3333H14.7143C14.7143 15.731 13.3688 14.6667 12 14.6667V18.6667ZM10.7143 17.3333V18H14.7143V17.3333H10.7143ZM12.7143 20H22V16H12.7143V20ZM24 18V6H20V18H24ZM22 4H2V8H22V4ZM3.42857 9.33333H20.5714V5.33333H3.42857V9.33333ZM18.5714 7.33333V13.3333H22.5714V7.33333H18.5714ZM20.5714 11.3333H3.42857V15.3333H20.5714V11.3333ZM5.42857 13.3333V7.33333H1.42857V13.3333H5.42857ZM2.85714 8.66667V12H6.85714V8.66667H2.85714ZM4.85714 14H9.14286V10H4.85714V14ZM11.1429 12V8.66667H7.14286V12H11.1429ZM9.14286 6.66667H4.85714V10.6667H9.14286V6.66667ZM7.85714 8.66667V12H11.8571V8.66667H7.85714ZM9.85714 14H14.1429V10H9.85714V14ZM16.1429 12V8.66667H12.1429V12H16.1429ZM14.1429 6.66667H9.85714V10.6667H14.1429V6.66667ZM12.8571 8.66667V12H16.8571V8.66667H12.8571ZM14.8571 14H19.1429V10H14.8571V14ZM21.1429 12V8.66667H17.1429V12H21.1429ZM19.1429 6.66667H14.8571V10.6667H19.1429V6.66667ZM6.28571 12H7.71429V8H6.28571V12ZM5.71429 10V10.6667H9.71429V10H5.71429ZM7.71429 8.66667H6.28571V12.6667H7.71429V8.66667ZM8.28571 10.6667V10H4.28571V10.6667H8.28571ZM11.2857 12H12.7143V8H11.2857V12ZM10.7143 10V10.6667H14.7143V10H10.7143ZM12.7143 8.66667H11.2857V12.6667H12.7143V8.66667ZM13.2857 10.6667V10H9.28571V10.6667H13.2857ZM16.2857 12H17.7143V8H16.2857V12ZM15.7143 10V10.6667H19.7143V10H15.7143ZM17.7143 8.66667H16.2857V12.6667H17.7143V8.66667ZM18.2857 10.6667V10H14.2857V10.6667H18.2857ZM3.42857 16.6667H20.5714V12.6667H3.42857V16.6667ZM18.5714 14.6667V16.6667H22.5714V14.6667H18.5714ZM20.5714 14.6667H13.8529V18.6667H20.5714V14.6667ZM15.6924 15.8818C15.1609 14.636 13.9242 13.3333 12 13.3333V17.3333C12.001 17.3333 11.985 17.3329 11.961 17.3245C11.9382 17.3164 11.9246 17.307 11.9215 17.3046C11.9196 17.3031 11.9307 17.3114 11.9495 17.3367C11.9684 17.3623 11.9915 17.4004 12.0133 17.4515L15.6924 15.8818ZM12 13.3333C10.0758 13.3333 8.83911 14.636 8.30757 15.8818L11.9867 17.4515C12.0085 17.4004 12.0316 17.3623 12.0505 17.3367C12.0693 17.3114 12.0804 17.3031 12.0785 17.3046C12.0754 17.307 12.0618 17.3164 12.039 17.3245C12.015 17.3329 11.999 17.3333 12 17.3333V13.3333ZM10.1471 14.6667H3.42857V18.6667H10.1471V14.6667ZM5.42857 16.6667V14.6667H1.42857V16.6667H5.42857Z" fill="black" mask="url(#path-1-inside-1_648_2974)"/>
</svg>
