<svg width="24" height="24" viewBox="0 0 24 24" fill="none" xmlns="http://www.w3.org/2000/svg">
<path d="M12 17.0001L9.99998 19.0001M9.99998 19.0001L12 21.0001M9.99998 19.0001H19C19.3186 18.9836 19.6286 18.8912 19.9043 18.7306C20.1799 18.5699 20.4131 18.3456 20.5843 18.0765C20.7556 17.8073 20.86 17.5011 20.8888 17.1834C20.9177 16.8656 20.87 16.5456 20.75 16.2501L20.2 15.2501M8.53599 11.0001L7.80399 8.26806M7.80399 8.26806L5.07199 9.00006M7.80399 8.26806L3.30399 16.0621C3.15903 16.3461 3.0841 16.6608 3.08547 16.9797C3.08683 17.2986 3.16444 17.6126 3.31182 17.8954C3.4592 18.1782 3.67208 18.4217 3.9327 18.6055C4.19331 18.7893 4.49411 18.9081 4.80999 18.9521L5.95099 18.9761M15.464 11.0001L18.196 11.7321M18.196 11.7321L18.928 9.00006M18.196 11.7321L13.696 3.93806C13.5224 3.6705 13.2873 3.44833 13.0104 3.2901C12.7335 3.13187 12.4227 3.04216 12.1041 3.02846C11.7854 3.01476 11.4681 3.07746 11.1787 3.21134C10.8892 3.34522 10.6359 3.54639 10.44 3.79806L9.84898 4.77406" stroke="black" stroke-width="2" stroke-linecap="round" stroke-linejoin="round"/>
</svg>
