<svg width="24" height="24" viewBox="0 0 24 24" fill="none" xmlns="http://www.w3.org/2000/svg">
<path d="M12 13V13.01M10 16V16.01M14 16V16.01M7.5 8H16.5M7.5 8L7.78 5.752C7.84048 5.26803 8.07572 4.82285 8.44147 4.50019C8.80722 4.17754 9.27827 3.99965 9.766 4H14.234C14.7216 3.99989 15.1924 4.17789 15.5579 4.50052C15.9234 4.82316 16.1585 5.26821 16.219 5.752L16.5 8M7.5 8L5.88802 17.671C5.84024 17.9575 5.85545 18.2511 5.93259 18.5311C6.00974 18.8112 6.14698 19.0711 6.33475 19.2928C6.52253 19.5144 6.75634 19.6925 7.01992 19.8146C7.2835 19.9368 7.57052 20 7.86102 20H16.139C16.4295 20 16.7166 19.9368 16.9801 19.8146C17.2437 19.6925 17.4775 19.5144 17.6653 19.2928C17.8531 19.0711 17.9903 18.8112 18.0675 18.5311C18.1446 18.2511 18.1598 17.9575 18.112 17.671L16.5 8" stroke="black" stroke-width="2" stroke-linecap="round" stroke-linejoin="round"/>
</svg>
