<svg width="24" height="24" viewBox="0 0 24 24" fill="none" xmlns="http://www.w3.org/2000/svg">
<path d="M10 4L12 5L14 4M12 2V8.5L15 10.22M17.928 6.268L18.062 8.5L19.928 9.732M20.66 7L15.031 10.25L15.041 13.708M19.928 14.268L18.062 15.5L17.928 17.732M20.66 17L15.031 13.75L12.041 15.488M14 20L12 19L10 20M12 22V15.5L9 13.78M6.07202 17.732L5.93802 15.5L4.07202 14.268M3.34003 17L8.96903 13.75L8.95903 10.292M4.07202 9.732L5.93802 8.5L6.07202 6.268M3.34003 7L8.96903 10.25L11.959 8.512" stroke="black" stroke-width="2" stroke-linecap="round" stroke-linejoin="round"/>
</svg>
