<svg width="24" height="24" viewBox="0 0 24 24" fill="none" xmlns="http://www.w3.org/2000/svg">
<path d="M4 10H20M10 6L9 14M14 6L15 14M12 14V18M7 18H17M4.28 14H19.72C19.872 14 20.022 13.9653 20.1586 13.8987C20.2952 13.832 20.4148 13.735 20.5083 13.6152C20.6019 13.4954 20.6668 13.3558 20.6983 13.2071C20.7298 13.0584 20.7269 12.9044 20.69 12.757L19.19 6.757C19.1358 6.54075 19.011 6.34881 18.8352 6.21166C18.6595 6.0745 18.4429 6.00001 18.22 6H5.78C5.55707 6.00001 5.34054 6.0745 5.1648 6.21166C4.98905 6.34881 4.86417 6.54075 4.81 6.757L3.31 12.757C3.27307 12.9044 3.27023 13.0584 3.30171 13.2071C3.33319 13.3558 3.39815 13.4954 3.49167 13.6152C3.58518 13.735 3.70479 13.832 3.84139 13.8987C3.97799 13.9653 4.128 14 4.28 14Z" stroke="black" stroke-width="2" stroke-linecap="round" stroke-linejoin="round"/>
</svg>
