<svg width="24" height="24" viewBox="0 0 24 24" fill="none" xmlns="http://www.w3.org/2000/svg">
<path d="M12 3L16.919 7.5C17.529 8.087 18.096 8.677 18.622 9.271C19.4626 10.2261 19.9479 11.4421 19.996 12.7135C20.0441 13.985 19.652 15.2341 18.886 16.25C17.706 17.81 15.548 18.17 14 17V18L15 21H9L10 18V17C8.46 18.07 6.265 17.772 5.114 16.25C4.34797 15.2341 3.95592 13.985 4.00401 12.7135C4.05211 11.4421 4.53741 10.2261 5.378 9.271C5.92195 8.65831 6.49007 8.06751 7.081 7.5C8.71743 5.99646 10.3571 4.49645 12 3Z" stroke="black" stroke-width="2" stroke-linecap="round" stroke-linejoin="round"/>
</svg>
