<svg width="24" height="24" viewBox="0 0 24 24" fill="none" xmlns="http://www.w3.org/2000/svg">
<mask id="path-1-inside-1_648_2975" fill="white">
<path fill-rule="evenodd" clip-rule="evenodd" d="M6.01116 3.57415C6.55814 3.15231 7.18512 3 7.81395 3H16.186C16.8158 3 17.4428 3.15231 17.9888 3.57415C18.5284 3.99046 18.9163 4.61723 19.1767 5.43877L19.1842 5.46L21.5442 14.9677C21.8363 15.5428 22 16.1963 22 16.8877C22 19.1215 20.267 21 18.0465 21H5.95349C3.73302 21 2 19.1206 2 16.8868C2 16.1963 2.16372 15.5428 2.45581 14.9686L4.81581 5.46092L4.82326 5.43877C5.08372 4.61723 5.47256 3.99046 6.01116 3.57415ZM4.34977 13.1262C4.85219 12.8944 5.39945 12.7741 5.95349 12.7735H18.0465C18.6195 12.7735 19.1619 12.9 19.6502 13.1262L17.84 5.83385C17.6353 5.20338 17.3786 4.85815 17.1312 4.66615C16.8865 4.47692 16.5842 4.38462 16.186 4.38462H7.81395C7.41581 4.38462 7.11349 4.47692 6.86884 4.66615C6.6214 4.85815 6.36372 5.20338 6.16 5.83477L4.34977 13.1262ZM5.95349 14.1582C5.01674 14.1582 4.17767 14.6991 3.73023 15.5382C3.50868 15.9536 3.39367 16.4168 3.39535 16.8868C3.39535 18.432 4.57767 19.6154 5.95349 19.6154H18.0465C19.4223 19.6154 20.6047 18.432 20.6047 16.8868C20.6063 16.4168 20.4913 15.9536 20.2698 15.5382C19.8223 14.6991 18.9833 14.1582 18.0465 14.1582H5.95349ZM10.6047 15.9231C10.7897 15.9231 10.9671 15.996 11.098 16.1258C11.2288 16.2557 11.3023 16.4318 11.3023 16.6154V17.5385C11.3023 17.7221 11.2288 17.8982 11.098 18.028C10.9671 18.1578 10.7897 18.2308 10.6047 18.2308C10.4196 18.2308 10.2422 18.1578 10.1113 18.028C9.98048 17.8982 9.90698 17.7221 9.90698 17.5385V16.6154C9.90698 16.4318 9.98048 16.2557 10.1113 16.1258C10.2422 15.996 10.4196 15.9231 10.6047 15.9231ZM12.9302 15.9231C13.1153 15.9231 13.2927 15.996 13.4236 16.1258C13.5544 16.2557 13.6279 16.4318 13.6279 16.6154V17.5385C13.6279 17.7221 13.5544 17.8982 13.4236 18.028C13.2927 18.1578 13.1153 18.2308 12.9302 18.2308C12.7452 18.2308 12.5677 18.1578 12.4369 18.028C12.3061 17.8982 12.2326 17.7221 12.2326 17.5385V16.6154C12.2326 16.4318 12.3061 16.2557 12.4369 16.1258C12.5677 15.996 12.7452 15.9231 12.9302 15.9231ZM15.2558 15.9231C15.4408 15.9231 15.6183 15.996 15.7491 16.1258C15.88 16.2557 15.9535 16.4318 15.9535 16.6154V17.5385C15.9535 17.7221 15.88 17.8982 15.7491 18.028C15.6183 18.1578 15.4408 18.2308 15.2558 18.2308C15.0708 18.2308 14.8933 18.1578 14.7625 18.028C14.6316 17.8982 14.5581 17.7221 14.5581 17.5385V16.6154C14.5581 16.4318 14.6316 16.2557 14.7625 16.1258C14.8933 15.996 15.0708 15.9231 15.2558 15.9231ZM17.5814 15.9231C17.7664 15.9231 17.9439 15.996 18.0747 16.1258C18.2056 16.2557 18.2791 16.4318 18.2791 16.6154V17.5385C18.2791 17.7221 18.2056 17.8982 18.0747 18.028C17.9439 18.1578 17.7664 18.2308 17.5814 18.2308C17.3964 18.2308 17.2189 18.1578 17.0881 18.028C16.9572 17.8982 16.8837 17.7221 16.8837 17.5385V16.6154C16.8837 16.4318 16.9572 16.2557 17.0881 16.1258C17.2189 15.996 17.3964 15.9231 17.5814 15.9231Z"/>
</mask>
<path d="M6.01116 3.57415L4.78975 1.99044L4.78806 1.99174L6.01116 3.57415ZM17.9888 3.57415L16.7661 5.15686L16.7671 5.15758L17.9888 3.57415ZM19.1767 5.43877L17.2703 6.04321L17.2794 6.0719L17.2893 6.10031L19.1767 5.43877ZM19.1842 5.46L21.1253 4.97818L21.1027 4.88706L21.0716 4.79846L19.1842 5.46ZM21.5442 14.9677L19.6031 15.4495L19.6579 15.6704L19.761 15.8734L21.5442 14.9677ZM2.45581 14.9686L4.2384 15.8755L4.34191 15.672L4.39691 15.4504L2.45581 14.9686ZM4.81581 5.46092L2.91992 4.82406L2.89419 4.90067L2.87472 4.9791L4.81581 5.46092ZM4.82326 5.43877L6.71915 6.07563L6.72458 6.05947L6.72973 6.04321L4.82326 5.43877ZM4.34977 13.1262L2.4087 12.6442L1.40504 16.6868L5.18742 14.9423L4.34977 13.1262ZM5.95349 12.7735L5.95349 10.7735L5.95148 10.7735L5.95349 12.7735ZM19.6502 13.1262L18.8098 14.941L22.5968 16.6947L21.5913 12.6443L19.6502 13.1262ZM17.84 5.83385L19.7811 5.35199L19.7641 5.28349L19.7423 5.21635L17.84 5.83385ZM17.1312 4.66615L18.3572 3.08604L18.3548 3.08415L17.1312 4.66615ZM6.86884 4.66615L5.6452 3.08415L5.64277 3.08604L6.86884 4.66615ZM6.16 5.83477L4.25663 5.22063L4.2355 5.2861L4.21893 5.35286L6.16 5.83477ZM3.73023 15.5382L5.49496 16.4793L5.495 16.4792L3.73023 15.5382ZM3.39535 16.8868L5.39536 16.8868L5.39534 16.8796L3.39535 16.8868ZM20.6047 16.8868L18.6047 16.8796V16.8868H20.6047ZM20.2698 15.5382L18.505 16.4792L18.505 16.4793L20.2698 15.5382ZM10.1113 18.028L8.70258 19.4477L10.1113 18.028ZM10.1113 16.1258L8.70258 14.7062L10.1113 16.1258ZM14.5581 16.6154L16.5581 16.6154L14.5581 16.6154ZM7.23257 5.15787C7.34966 5.06757 7.51422 5 7.81395 5V1C6.85601 1 5.76662 1.23705 4.78975 1.99044L7.23257 5.15787ZM7.81395 5H16.186V1H7.81395V5ZM16.186 5C16.4874 5 16.651 5.0679 16.7661 5.15686L19.2116 1.99145C18.2346 1.23671 17.1442 1 16.186 1V5ZM16.7671 5.15758C16.8891 5.25173 17.091 5.47762 17.2703 6.04321L21.0832 4.83433C20.7416 3.75684 20.1677 2.7292 19.2106 1.99072L16.7671 5.15758ZM17.2893 6.10031L17.2968 6.12154L21.0716 4.79846L21.0642 4.77723L17.2893 6.10031ZM17.2431 5.94182L19.6031 15.4495L23.4853 14.4859L21.1253 4.97818L17.2431 5.94182ZM19.761 15.8734C19.9121 16.1709 20 16.5145 20 16.8877H24C24 15.8781 23.7604 14.9146 23.3274 14.062L19.761 15.8734ZM20 16.8877C20 18.1165 19.0655 19 18.0465 19V23C21.4685 23 24 20.1266 24 16.8877H20ZM18.0465 19H5.95349V23H18.0465V19ZM5.95349 19C4.93511 19 4 18.1161 4 16.8868H0C0 20.1251 2.53094 23 5.95349 23V19ZM4 16.8868C4 16.5145 4.08786 16.1714 4.2384 15.8755L0.673232 14.0618C0.239583 14.9142 0 15.8781 0 16.8868H4ZM4.39691 15.4504L6.75691 5.94274L2.87472 4.9791L0.514719 14.4868L4.39691 15.4504ZM6.71171 6.09779L6.71915 6.07563L2.92736 4.80191L2.91992 4.82406L6.71171 6.09779ZM6.72973 6.04321C6.90856 5.47917 7.11116 5.25172 7.23427 5.15656L4.78806 1.99174C3.83396 2.7292 3.25888 3.75529 2.91678 4.83433L6.72973 6.04321ZM5.18742 14.9423C5.42745 14.8316 5.6896 14.7738 5.9555 14.7735L5.95148 10.7735C5.1093 10.7744 4.27692 10.9573 3.51211 11.31L5.18742 14.9423ZM5.95349 14.7735H18.0465V10.7735H5.95349V14.7735ZM18.0465 14.7735C18.3217 14.7735 18.5779 14.8336 18.8098 14.941L20.4907 11.3113C19.7459 10.9664 18.9174 10.7735 18.0465 10.7735V14.7735ZM21.5913 12.6443L19.7811 5.35199L15.8989 6.3157L17.7091 13.608L21.5913 12.6443ZM19.7423 5.21635C19.4548 4.33058 19.0121 3.59422 18.3572 3.08604L15.9051 6.24626C15.8301 6.18804 15.8056 6.1457 15.8157 6.16156C15.8285 6.1816 15.8773 6.2652 15.9377 6.45134L19.7423 5.21635ZM18.3548 3.08415C17.6798 2.56208 16.9141 2.38462 16.186 2.38462V6.38462C16.2321 6.38462 16.2082 6.39009 16.142 6.37024C16.0683 6.34815 15.9839 6.3072 15.9075 6.24815L18.3548 3.08415ZM16.186 2.38462H7.81395V6.38462H16.186V2.38462ZM7.81395 2.38462C7.08593 2.38462 6.32018 2.56208 5.64521 3.08415L8.09247 6.24815C8.01613 6.3072 7.9317 6.34815 7.85799 6.37024C7.79175 6.39009 7.76794 6.38462 7.81395 6.38462V2.38462ZM5.64277 3.08604C4.98883 3.59346 4.54416 4.32949 4.25663 5.22063L8.06337 6.44891C8.12306 6.26394 8.17142 6.18125 8.18375 6.16194C8.19341 6.14682 8.16905 6.18873 8.09491 6.24626L5.64277 3.08604ZM4.21893 5.35286L2.4087 12.6442L6.29084 13.6081L8.10107 6.31668L4.21893 5.35286ZM5.95349 12.1582C4.21757 12.1582 2.73105 13.1614 1.96547 14.5971L5.495 16.4792C5.62429 16.2368 5.81592 16.1582 5.95349 16.1582V12.1582ZM1.96551 14.597C1.58862 15.3037 1.3925 16.0926 1.39536 16.8939L5.39534 16.8796C5.39484 16.7409 5.42875 16.6034 5.49496 16.4793L1.96551 14.597ZM1.39535 16.8868C1.39535 19.4511 3.38954 21.6154 5.95349 21.6154V17.6154C5.76581 17.6154 5.39535 17.4129 5.39535 16.8868H1.39535ZM5.95349 21.6154H18.0465V17.6154H5.95349V21.6154ZM18.0465 21.6154C20.6105 21.6154 22.6047 19.4511 22.6047 16.8868H18.6047C18.6047 17.4129 18.2342 17.6154 18.0465 17.6154V21.6154ZM22.6046 16.8939C22.6075 16.0926 22.4114 15.3037 22.0345 14.597L18.505 16.4793C18.5713 16.6035 18.6052 16.7409 18.6047 16.8796L22.6046 16.8939ZM22.0345 14.5971C21.2689 13.1614 19.7824 12.1582 18.0465 12.1582V16.1582C18.1841 16.1582 18.3757 16.2368 18.505 16.4792L22.0345 14.5971ZM18.0465 12.1582H5.95349V16.1582H18.0465V12.1582ZM10.6047 17.9231C10.2642 17.9231 9.93464 17.789 9.68924 17.5455L12.5067 14.7062C11.9996 14.203 11.3152 13.9231 10.6047 13.9231V17.9231ZM9.68924 17.5455C9.44332 17.3015 9.30233 16.9672 9.30233 16.6154H13.3023C13.3023 15.8963 13.0143 15.2099 12.5067 14.7062L9.68924 17.5455ZM9.30233 16.6154V17.5385H13.3023V16.6154H9.30233ZM9.30233 17.5385C9.30233 17.1866 9.44332 16.8524 9.68924 16.6083L12.5067 19.4477C13.0143 18.944 13.3023 18.2575 13.3023 17.5385H9.30233ZM9.68924 16.6083C9.93464 16.3648 10.2642 16.2308 10.6047 16.2308V20.2308C11.3152 20.2308 11.9996 19.9508 12.5067 19.4477L9.68924 16.6083ZM10.6047 16.2308C10.9451 16.2308 11.2747 16.3648 11.5201 16.6083L8.70258 19.4477C9.20966 19.9508 9.89415 20.2308 10.6047 20.2308V16.2308ZM11.5201 16.6083C11.766 16.8524 11.907 17.1866 11.907 17.5385H7.90698C7.90698 18.2575 8.19498 18.944 8.70258 19.4477L11.5201 16.6083ZM11.907 17.5385V16.6154H7.90698V17.5385H11.907ZM11.907 16.6154C11.907 16.9672 11.766 17.3015 11.5201 17.5455L8.70258 14.7062C8.19498 15.2099 7.90698 15.8963 7.90698 16.6154H11.907ZM11.5201 17.5455C11.2747 17.789 10.9451 17.9231 10.6047 17.9231V13.9231C9.89415 13.9231 9.20966 14.203 8.70258 14.7062L11.5201 17.5455ZM12.9302 17.9231C12.5898 17.9231 12.2602 17.789 12.0148 17.5455L14.8323 14.7062C14.3252 14.203 13.6407 13.9231 12.9302 13.9231V17.9231ZM12.0148 17.5455C11.7689 17.3015 11.6279 16.9672 11.6279 16.6154H15.6279C15.6279 15.8963 15.3399 15.2099 14.8323 14.7062L12.0148 17.5455ZM11.6279 16.6154V17.5385H15.6279V16.6154H11.6279ZM11.6279 17.5385C11.6279 17.1866 11.7689 16.8524 12.0148 16.6083L14.8323 19.4477C15.3399 18.944 15.6279 18.2575 15.6279 17.5385H11.6279ZM12.0148 16.6083C12.2602 16.3648 12.5898 16.2308 12.9302 16.2308V20.2308C13.6407 20.2308 14.3252 19.9508 14.8323 19.4477L12.0148 16.6083ZM12.9302 16.2308C13.2707 16.2308 13.6002 16.3648 13.8456 16.6083L11.0282 19.4477C11.5352 19.9508 12.2197 20.2308 12.9302 20.2308V16.2308ZM13.8456 16.6083C14.0916 16.8524 14.2326 17.1866 14.2326 17.5385H10.2326C10.2326 18.2575 10.5206 18.944 11.0282 19.4477L13.8456 16.6083ZM14.2326 17.5385V16.6154H10.2326V17.5385H14.2326ZM14.2326 16.6154C14.2326 16.9672 14.0916 17.3015 13.8456 17.5455L11.0282 14.7062C10.5206 15.2099 10.2326 15.8963 10.2326 16.6154H14.2326ZM13.8456 17.5455C13.6002 17.789 13.2707 17.9231 12.9302 17.9231V13.9231C12.2197 13.9231 11.5352 14.203 11.0282 14.7062L13.8456 17.5455ZM15.2558 17.9231C14.9154 17.9231 14.5858 17.789 14.3404 17.5455L17.1579 14.7062C16.6508 14.203 15.9663 13.9231 15.2558 13.9231V17.9231ZM14.3404 17.5455C14.0945 17.3015 13.9535 16.9672 13.9535 16.6154H17.9535C17.9535 15.8963 17.6655 15.2099 17.1579 14.7062L14.3404 17.5455ZM13.9535 16.6154V17.5385H17.9535V16.6154H13.9535ZM13.9535 17.5385C13.9535 17.1866 14.0945 16.8524 14.3404 16.6083L17.1579 19.4477C17.6655 18.944 17.9535 18.2575 17.9535 17.5385H13.9535ZM14.3404 16.6083C14.5858 16.3648 14.9154 16.2308 15.2558 16.2308V20.2308C15.9663 20.2308 16.6508 19.9508 17.1579 19.4477L14.3404 16.6083ZM15.2558 16.2308C15.5962 16.2308 15.9258 16.3648 16.1712 16.6083L13.3537 19.4477C13.8608 19.9508 14.5453 20.2308 15.2558 20.2308V16.2308ZM16.1712 16.6083C16.4171 16.8524 16.5581 17.1866 16.5581 17.5385H12.5581C12.5581 18.2575 12.8461 18.944 13.3537 19.4477L16.1712 16.6083ZM16.5581 17.5385V16.6154H12.5581V17.5385H16.5581ZM16.5581 16.6154C16.5581 16.9672 16.4171 17.3015 16.1712 17.5455L13.3537 14.7062C12.8461 15.2099 12.5581 15.8963 12.5581 16.6154L16.5581 16.6154ZM16.1712 17.5455C15.9258 17.789 15.5962 17.9231 15.2558 17.9231V13.9231C14.5453 13.9231 13.8608 14.203 13.3537 14.7062L16.1712 17.5455ZM17.5814 17.9231C17.241 17.9231 16.9114 17.789 16.666 17.5455L19.4835 14.7062C18.9764 14.203 18.2919 13.9231 17.5814 13.9231V17.9231ZM16.666 17.5455C16.4201 17.3015 16.2791 16.9672 16.2791 16.6154H20.2791C20.2791 15.8963 19.9911 15.2099 19.4835 14.7062L16.666 17.5455ZM16.2791 16.6154V17.5385H20.2791V16.6154H16.2791ZM16.2791 17.5385C16.2791 17.1866 16.4201 16.8524 16.666 16.6083L19.4835 19.4477C19.9911 18.944 20.2791 18.2575 20.2791 17.5385H16.2791ZM16.666 16.6083C16.9114 16.3648 17.241 16.2308 17.5814 16.2308V20.2308C18.2919 20.2308 18.9764 19.9508 19.4835 19.4477L16.666 16.6083ZM17.5814 16.2308C17.9218 16.2308 18.2514 16.3648 18.4968 16.6083L15.6793 19.4477C16.1864 19.9508 16.8709 20.2308 17.5814 20.2308V16.2308ZM18.4968 16.6083C18.7427 16.8524 18.8837 17.1866 18.8837 17.5385H14.8837C14.8837 18.2575 15.1717 18.944 15.6793 19.4477L18.4968 16.6083ZM18.8837 17.5385V16.6154H14.8837V17.5385H18.8837ZM18.8837 16.6154C18.8837 16.9672 18.7427 17.3015 18.4968 17.5455L15.6793 14.7062C15.1717 15.2099 14.8837 15.8963 14.8837 16.6154H18.8837ZM18.4968 17.5455C18.2514 17.789 17.9218 17.9231 17.5814 17.9231V13.9231C16.8709 13.9231 16.1864 14.203 15.6793 14.7062L18.4968 17.5455Z" fill="black" mask="url(#path-1-inside-1_648_2975)"/>
</svg>
