<svg width="24" height="24" viewBox="0 0 24 24" fill="none" xmlns="http://www.w3.org/2000/svg">
<path d="M12 13L10 11M12 12L14 9.99995M12 21V7.99995M9.82401 15.9999C9.38648 15.9743 8.95988 15.8532 8.57421 15.645C8.18855 15.4367 7.85318 15.1466 7.59171 14.7948C7.33024 14.4431 7.14902 14.0383 7.06079 13.609C6.97255 13.1797 6.97946 12.7363 7.08101 12.3099C6.71848 12.008 6.43227 11.6249 6.2456 11.1916C6.05894 10.7583 5.97709 10.2872 6.00671 9.81631C6.03633 9.34547 6.17657 8.88825 6.41606 8.48177C6.65554 8.0753 6.98751 7.73104 7.38501 7.47695C7.03638 6.8576 6.91896 6.1346 7.05367 5.43676C7.18838 4.73891 7.56647 4.11156 8.12057 3.66648C8.67468 3.22139 9.3688 2.98749 10.0793 3.00644C10.7897 3.02539 11.4704 3.29596 12 3.76995C12.5297 3.29671 13.2102 3.02678 13.9202 3.0082C14.6303 2.98962 15.3239 3.22359 15.8777 3.66848C16.4314 4.11336 16.8093 4.7403 16.9442 5.4377C17.079 6.1351 16.962 6.85772 16.614 7.47695C17.0116 7.73096 17.3436 8.07515 17.5832 8.48158C17.8228 8.88801 17.9631 9.34521 17.9928 9.81606C18.0226 10.2869 17.9408 10.7581 17.7542 11.1914C17.5676 11.6248 17.2815 12.008 16.919 12.3099C17.024 12.7507 17.0277 13.2096 16.93 13.652C16.8323 14.0945 16.6356 14.5091 16.3547 14.8646C16.0738 15.2202 15.716 15.5075 15.3082 15.705C14.9004 15.9025 14.4531 16.005 14 16.0049H10L9.82401 15.9999Z" stroke="black" stroke-width="2" stroke-linecap="round" stroke-linejoin="round"/>
</svg>
