<svg width="24" height="24" viewBox="0 0 24 24" fill="none" xmlns="http://www.w3.org/2000/svg">
<path d="M16 4.99995L19 7.99995L17 8.99995L21 13L18 14L22 18H13M15 21V18M8 13L6 11M8 12L10 9.99995M8 21V7.99995M5.82401 15.9999C5.38648 15.9743 4.95988 15.8532 4.57421 15.645C4.18855 15.4367 3.85318 15.1466 3.59171 14.7948C3.33024 14.4431 3.14902 14.0383 3.06079 13.609C2.97255 13.1797 2.97946 12.7363 3.08101 12.3099C2.71848 12.008 2.43227 11.6249 2.2456 11.1916C2.05894 10.7583 1.97709 10.2872 2.00671 9.81631C2.03633 9.34547 2.17657 8.88825 2.41606 8.48177C2.65554 8.0753 2.98751 7.73104 3.38501 7.47695C3.03638 6.8576 2.91896 6.1346 3.05367 5.43676C3.18838 4.73891 3.56647 4.11156 4.12057 3.66648C4.67468 3.22139 5.3688 2.98749 6.07928 3.00644C6.78975 3.02539 7.47042 3.29596 8.00001 3.76995C8.52972 3.29671 9.21017 3.02678 9.92024 3.0082C10.6303 2.98962 11.3239 3.22359 11.8777 3.66848C12.4314 4.11336 12.8093 4.7403 12.9442 5.4377C13.079 6.1351 12.962 6.85772 12.614 7.47695C13.0116 7.73096 13.3436 8.07515 13.5832 8.48158C13.8228 8.88801 13.9631 9.34521 13.9928 9.81606C14.0226 10.2869 13.9408 10.7581 13.7542 11.1914C13.5676 11.6248 13.2815 12.008 12.919 12.3099C13.024 12.7507 13.0277 13.2096 12.93 13.652C12.8323 14.0945 12.6356 14.5091 12.3547 14.8646C12.0738 15.2202 11.716 15.5075 11.3082 15.705C10.9004 15.9025 10.4531 16.005 10 16.0049H6.00001L5.82401 15.9999Z" stroke="black" stroke-width="2" stroke-linecap="round" stroke-linejoin="round"/>
</svg>
