<svg width="24" height="24" viewBox="0 0 24 24" fill="none" xmlns="http://www.w3.org/2000/svg">
<path d="M7 16H3L6.47 11.34C6.6831 11.1057 6.83752 10.8242 6.92057 10.5186C7.00361 10.213 7.01289 9.89206 6.94766 9.58217C6.88242 9.27228 6.74453 8.98231 6.54532 8.73612C6.34612 8.48994 6.09131 8.29458 5.80185 8.16611C5.51239 8.03765 5.19657 7.97976 4.88036 7.99721C4.56416 8.01466 4.25662 8.10694 3.98306 8.26647C3.70949 8.426 3.47771 8.64821 3.30681 8.91482C3.1359 9.18142 3.03075 9.4848 3 9.79999M10 16V7.99999H14M10 12H13M17 16V9.99999C17 9.46956 17.2107 8.96085 17.5858 8.58578C17.9609 8.21071 18.4696 7.99999 19 7.99999C19.5304 7.99999 20.0391 8.21071 20.4142 8.58578C20.7893 8.96085 21 9.46956 21 9.99999V16M17 13H21" stroke="black" stroke-width="2" stroke-linecap="round" stroke-linejoin="round"/>
</svg>
