<svg width="24" height="24" viewBox="0 0 24 24" fill="none" xmlns="http://www.w3.org/2000/svg">
<path d="M15.292 14C14.1373 12.9815 12.7133 12.3178 11.1908 12.0887C9.66824 11.8595 8.11193 12.0746 6.7086 12.708C5.30527 13.3415 4.11456 14.3664 3.27935 15.6599C2.44413 16.9533 1.99992 18.4603 2 20H14M19 15V21M22 18H16M15 7C15 9.76142 12.7614 12 10 12C7.23858 12 5 9.76142 5 7C5 4.23858 7.23858 2 10 2C12.7614 2 15 4.23858 15 7Z" stroke="black" stroke-width="2" stroke-linecap="round" stroke-linejoin="round"/>
</svg>
