<svg width="24" height="24" viewBox="0 0 24 24" fill="none" xmlns="http://www.w3.org/2000/svg">
<path d="M11 13C13.7614 13 16 10.7614 16 8C16 6.42112 15.2682 5.01317 14.1252 4.09684M11 13C8.23858 13 6 10.7614 6 8C6 5.23858 8.23858 3 11 3C12.1825 3 13.2692 3.41053 14.1252 4.09684M11 13C13.1217 13 15.1566 13.8429 16.6569 15.3431C18.1571 16.8434 19 18.8783 19 21H3C3 18.8783 3.84285 16.8434 5.34315 15.3431C6.84344 13.8429 8.87827 13 11 13ZM18.746 19H21.5C21.5 17.2319 20.8152 15.5362 19.5962 14.286C18.3772 13.0357 16.7239 12.3333 15 12.3333C17.2437 12.3333 19.0625 10.4679 19.0625 8.16667C19.0625 5.86548 17.2437 4 15 4C14.6997 4 14.407 4.03342 14.1252 4.09684" stroke="black" stroke-width="2" stroke-linecap="round" stroke-linejoin="round"/>
</svg>
