<svg width="24" height="24" viewBox="0 0 24 24" fill="none" xmlns="http://www.w3.org/2000/svg">
<path d="M11.9099 13C14.5635 13 16.7147 10.7614 16.7147 8C16.7147 6.42112 16.0115 5.01317 14.9131 4.09684M11.9099 13C9.25629 13 7.10511 10.7614 7.10511 8C7.10511 5.23858 9.25629 3 11.9099 3C13.0463 3 14.0905 3.41053 14.9131 4.09684M11.9099 13C13.9488 13 15.9042 13.8429 17.3459 15.3431C18.7876 16.8434 19.5976 18.8783 19.5976 21H4.22222C4.22222 18.8783 5.03217 16.8434 6.47389 15.3431C7.91562 13.8429 9.87101 13 11.9099 13ZM19.3535 19H22C22 17.2319 21.3419 15.5362 20.1705 14.286C18.9991 13.0357 17.4104 12.3333 15.7538 12.3333C17.9098 12.3333 19.6577 10.4679 19.6577 8.16667C19.6577 5.86548 17.9098 4 15.7538 4C15.4652 4 15.1839 4.03342 14.9131 4.09684M12.0901 13C9.43647 13 7.28529 10.7614 7.28529 8C7.28529 6.42112 7.98854 5.01317 9.08686 4.09684M12.0901 13C14.7437 13 16.8949 10.7614 16.8949 8C16.8949 5.23858 14.7437 3 12.0901 3C10.9537 3 9.90947 3.41053 9.08686 4.09684M12.0901 13C10.0512 13 8.0958 13.8429 6.65407 15.3431C5.21235 16.8434 4.4024 18.8783 4.4024 21H19.7778C19.7778 18.8783 18.9678 16.8434 17.5261 15.3431C16.0844 13.8429 14.129 13 12.0901 13ZM4.6465 19H2C2 17.2319 2.65808 15.5362 3.82948 14.286C5.00088 13.0357 6.58964 12.3333 8.24625 12.3333C6.09018 12.3333 4.34234 10.4679 4.34234 8.16667C4.34234 5.86548 6.09018 4 8.24625 4C8.53483 4 8.81611 4.03342 9.08686 4.09684" stroke="black" stroke-width="2" stroke-linecap="round" stroke-linejoin="round"/>
</svg>
