<svg width="24" height="24" viewBox="0 0 24 24" fill="none" xmlns="http://www.w3.org/2000/svg">
<mask id="path-1-inside-1_648_2972" fill="white">
<path d="M21.168 3.67778L21.3473 3.40743L21.5553 3.61544L22 2.97473L21.78 2.75472L21.9993 2.42403L21.5757 2.001L21.2453 2.21968L21.026 2L20.3837 2.4437L20.5924 2.65238L20.322 2.83106L20.2474 3.25308L20.0687 3.37142L19.6224 2.92473L19.8097 2.73738L19.2007 2.45736L18.8851 2.77372L19.1644 3.38276L19.3517 3.19541L19.7434 3.58744L19.1287 3.9958L18.3961 3.26342L18.1247 3.53444L18.9604 4.37083L15.0295 8.0214C14.3535 7.38836 13.3381 6.58697 12.2762 6.58697C11.4068 6.58697 10.6782 7.10634 10.1109 8.12908C10.0109 8.30875 9.94354 8.51877 9.87887 8.72178C9.68688 9.32116 9.52088 9.70385 8.92389 9.75685L3.96064 4.79319L2.32867 5.4669L2.80766 5.94626L3.09699 6.23562L3.48098 6.61997V6.61964L8.3929 11.532C8.31644 11.6794 8.20664 11.8069 8.07224 11.9043C7.61924 12.2437 7.23892 12.416 6.94126 12.416C6.78093 12.416 6.54526 12.371 6.3556 11.983C6.26693 11.8027 6.08127 11.61 5.82628 11.61C5.27262 11.61 5.15462 12.4324 5.11595 12.7014C5.09395 12.8521 4.95862 13.2084 4.1803 13.2604C3.23365 13.3241 2.505 13.8571 2.18 14.7218C1.74101 15.8923 2.00801 17.8797 4.07564 19.9472C5.39895 21.271 6.86126 21.9993 8.19324 22H8.1939C9.60454 22 10.6359 21.1369 10.7595 19.8529C10.8382 19.0385 11.2082 18.9231 11.3192 18.9071C11.7522 18.8448 12.3362 18.7118 12.4058 18.2721C12.4435 18.0331 12.2998 17.7954 12.0378 17.667C11.8018 17.551 11.6658 17.408 11.6222 17.2287C11.5475 16.9217 11.7132 16.493 12.1218 15.9436C12.2177 15.8115 12.3425 15.7032 12.4868 15.6269L16.6301 19.7705L17.3784 20.5189L18.0527 21.1933L18.5317 21.6723L19.206 20.0402L14.2645 15.0985C14.3215 14.4578 14.7605 14.3165 15.2991 14.1441C15.5024 14.0791 15.7124 14.0121 15.8924 13.9118C16.7978 13.4094 17.3101 12.7771 17.4141 12.0317C17.5791 10.8533 16.6774 9.71151 15.9801 8.97113L19.7124 4.95086L19.855 5.09354L20.114 4.70351L20.5517 5.14121L20.3647 5.32856L20.9737 5.60857L21.2893 5.29222L21.0094 4.68318L20.8224 4.87019L20.33 4.37749L20.5984 3.97347L21.603 4.97853L21.874 4.70718L20.894 3.72645L21.168 3.67778ZM10.5032 8.92246C10.5612 8.74178 10.6159 8.5711 10.6839 8.44776C11.1335 7.63738 11.6545 7.24335 12.2762 7.24335C13.0912 7.24335 13.9475 7.91206 14.5475 8.46943L10.9639 11.798L9.46521 10.2992C10.1412 10.0352 10.3542 9.38783 10.5032 8.92246ZM12.4792 14.9309L11.3925 13.8441L11.6638 13.5724L11.6868 13.5954L11.8725 13.3954L13.3738 14.8969C13.2448 14.8721 13.1138 14.8592 12.9825 14.8582C12.8121 14.858 12.6426 14.8825 12.4792 14.9309ZM8.0099 16.4876L10.6782 13.8188L10.9242 14.0648L8.2559 16.7333L8.0099 16.4876ZM9.60721 12.9067C9.62054 12.8684 9.62954 12.8224 9.63421 12.7747L9.81387 12.9544L9.66088 13.1074C9.66753 13.0721 9.66617 13.0357 9.65688 13.001C9.64759 12.9662 9.63062 12.934 9.60721 12.9067ZM9.93821 13.0787L10.1835 13.3241L7.51558 15.9929L7.27025 15.7476L9.93821 13.0787ZM10.7995 12.7084L10.5282 12.9797L10.2829 12.7344L10.5542 12.4627L10.7995 12.7084ZM11.5402 13.4488L11.2685 13.7201L11.0229 13.4744L11.2942 13.2027L11.5402 13.4488ZM10.8985 13.3504L10.6522 13.1041L10.9235 12.8324L11.1699 13.0787L10.8985 13.3504ZM10.3079 13.4484L10.5542 13.6948L7.88591 16.3633L7.63991 16.1176L10.3079 13.4484ZM11.0482 14.1885L11.2282 14.3685C11.1831 14.3726 11.1386 14.3817 11.0955 14.3958C11.0682 14.3724 11.0359 14.3554 11.0011 14.3461C10.9663 14.3368 10.9299 14.3354 10.8945 14.3422L11.0482 14.1885ZM10.4072 12.3154L10.4299 12.3384L10.1585 12.6097L9.08989 11.541C9.17019 11.2524 9.18465 10.9495 9.13222 10.6546L10.6072 12.1297L10.4072 12.3154ZM4.28963 5.81225L8.20757 9.73052L8.0309 9.71818L8.31157 10.2422C8.32423 10.2656 8.48723 10.5802 8.5059 10.9576L3.82531 6.27629L4.28963 5.81225ZM2.79466 14.9539C3.02832 14.3312 3.53631 13.9621 4.22464 13.9165C5.51495 13.8295 5.72994 13.0381 5.76494 12.7967C5.78961 12.6237 5.81828 12.5014 5.84427 12.4164C6.1656 12.9544 6.61193 13.0731 6.94159 13.0731C7.60758 13.0727 8.25323 12.5894 8.47156 12.4257C8.64089 12.299 8.76789 12.1577 8.86922 12.01L9.21722 12.358C8.34657 12.2984 7.17525 14.5052 6.66526 13.9955C6.53793 13.8671 6.5706 13.7551 6.6056 13.6938C6.6419 13.6994 6.67902 13.6966 6.71402 13.6854C6.74902 13.6742 6.78094 13.6551 6.80726 13.6294C6.82967 13.6071 6.84746 13.5805 6.8596 13.5513C6.87175 13.522 6.87802 13.4907 6.87805 13.459C6.87808 13.4273 6.87187 13.396 6.85978 13.3667C6.84769 13.3374 6.82996 13.3108 6.80759 13.2884C6.78522 13.266 6.75866 13.2482 6.72942 13.2361C6.70018 13.2239 6.66883 13.2177 6.63716 13.2176C6.6055 13.2176 6.57414 13.2238 6.54487 13.2359C6.51561 13.248 6.48901 13.2657 6.4666 13.2881C6.42925 13.3267 6.40593 13.3767 6.40037 13.4301C6.39481 13.4836 6.40733 13.5373 6.43593 13.5828C6.36627 13.6848 6.23194 13.9458 6.4736 14.1871C7.30092 15.0149 8.84756 12.173 9.37422 12.7C9.40855 12.734 9.41155 12.7847 9.40655 12.8291C9.3504 12.8324 9.29737 12.856 9.25722 12.8954C9.21207 12.9406 9.18671 13.0019 9.18671 13.0657C9.18671 13.1296 9.21207 13.1909 9.25722 13.2361C9.28489 13.2632 9.31878 13.283 9.35591 13.2939C9.39305 13.3049 9.43229 13.3065 9.47021 13.2988L7.14592 15.6239L6.92926 15.4072C6.92926 15.4072 6.51693 16.0956 6.42327 16.3453C6.3386 16.569 6.32527 17.0683 6.20994 17.2774C5.92527 17.7917 4.80596 18.7895 4.2963 19.2295C2.67266 17.4757 2.46 15.8449 2.79466 14.9539ZM11.5878 15.5636C11.3932 15.8256 10.8002 16.6226 10.9852 17.3844C11.0652 17.7147 11.2742 17.9817 11.6068 18.1801C11.4819 18.2157 11.3546 18.2421 11.2259 18.2591C10.9949 18.2928 10.2315 18.5014 10.1069 19.7912C10.0145 20.7503 9.28122 21.3456 8.1939 21.3456C7.55658 21.3456 6.28893 21.1239 4.77363 19.7095C5.21329 19.2001 6.2116 18.0787 6.72593 17.7944C6.93526 17.6784 7.43491 17.665 7.65824 17.5804C7.90824 17.487 8.59623 17.0743 8.59623 17.0743L8.37957 16.8577L10.7042 14.5325C10.6965 14.5704 10.6982 14.6096 10.7091 14.6466C10.72 14.6837 10.7398 14.7175 10.7669 14.7452C10.7892 14.7678 10.8158 14.7857 10.8451 14.7979C10.8743 14.8102 10.9058 14.8164 10.9375 14.8164C10.9693 14.8164 11.0007 14.8102 11.03 14.7979C11.0593 14.7857 11.0859 14.7678 11.1082 14.7452C11.1471 14.7052 11.1704 14.6526 11.1739 14.5968C11.2175 14.5908 11.2682 14.5948 11.3022 14.6282C11.8298 15.1552 8.98856 16.7033 9.81587 17.5314C10.0575 17.7727 10.3185 17.638 10.4202 17.5684C10.4655 17.5973 10.5193 17.6099 10.5727 17.6041C10.6262 17.5984 10.6761 17.5746 10.7142 17.5367C10.7366 17.5144 10.7544 17.4879 10.7666 17.4587C10.7787 17.4295 10.7849 17.3982 10.7849 17.3665C10.7849 17.3349 10.7787 17.3036 10.7666 17.2744C10.7544 17.2452 10.7366 17.2187 10.7142 17.1963C10.6919 17.1739 10.6653 17.156 10.6361 17.1439C10.6069 17.1317 10.5755 17.1254 10.5439 17.1254C10.5122 17.1254 10.4808 17.1317 10.4516 17.1439C10.4224 17.156 10.3958 17.1739 10.3735 17.1963C10.3479 17.2226 10.3288 17.2545 10.3176 17.2894C10.3065 17.3244 10.3036 17.3614 10.3092 17.3977C10.2475 17.4337 10.1355 17.467 10.0082 17.3387C9.49855 16.8287 11.7052 15.6569 11.6448 14.7855L12.0115 15.1522C11.8486 15.2651 11.7055 15.4041 11.5878 15.5636ZM13.0665 15.5186C13.3144 15.5372 13.5566 15.6027 13.7801 15.7116L14.3061 15.9976L14.2931 15.8163L18.1877 19.7108L17.7231 20.1752L16.9744 19.4265L13.0665 15.5186ZM16.7651 11.9407C16.6908 12.471 16.2901 12.9411 15.5741 13.3381C15.4508 13.4068 15.2801 13.4614 15.0991 13.5194C14.6298 13.6698 13.9855 13.8818 13.7231 14.5568L12.2042 13.0377L15.5328 9.45283C16.1424 10.1052 16.8888 11.0586 16.7651 11.9407Z"/>
</mask>
<path d="M21.168 3.67778L21.3473 3.40743L21.5553 3.61544L22 2.97473L21.78 2.75472L21.9993 2.42403L21.5757 2.001L21.2453 2.21968L21.026 2L20.3837 2.4437L20.5924 2.65238L20.322 2.83106L20.2474 3.25308L20.0687 3.37142L19.6224 2.92473L19.8097 2.73738L19.2007 2.45736L18.8851 2.77372L19.1644 3.38276L19.3517 3.19541L19.7434 3.58744L19.1287 3.9958L18.3961 3.26342L18.1247 3.53444L18.9604 4.37083L15.0295 8.0214C14.3535 7.38836 13.3381 6.58697 12.2762 6.58697C11.4068 6.58697 10.6782 7.10634 10.1109 8.12908C10.0109 8.30875 9.94354 8.51877 9.87887 8.72178C9.68688 9.32116 9.52088 9.70385 8.92389 9.75685L3.96064 4.79319L2.32867 5.4669L2.80766 5.94626L3.09699 6.23562L3.48098 6.61997V6.61964L8.3929 11.532C8.31644 11.6794 8.20664 11.8069 8.07224 11.9043C7.61924 12.2437 7.23892 12.416 6.94126 12.416C6.78093 12.416 6.54526 12.371 6.3556 11.983C6.26693 11.8027 6.08127 11.61 5.82628 11.61C5.27262 11.61 5.15462 12.4324 5.11595 12.7014C5.09395 12.8521 4.95862 13.2084 4.1803 13.2604C3.23365 13.3241 2.505 13.8571 2.18 14.7218C1.74101 15.8923 2.00801 17.8797 4.07564 19.9472C5.39895 21.271 6.86126 21.9993 8.19324 22H8.1939C9.60454 22 10.6359 21.1369 10.7595 19.8529C10.8382 19.0385 11.2082 18.9231 11.3192 18.9071C11.7522 18.8448 12.3362 18.7118 12.4058 18.2721C12.4435 18.0331 12.2998 17.7954 12.0378 17.667C11.8018 17.551 11.6658 17.408 11.6222 17.2287C11.5475 16.9217 11.7132 16.493 12.1218 15.9436C12.2177 15.8115 12.3425 15.7032 12.4868 15.6269L16.6301 19.7705L17.3784 20.5189L18.0527 21.1933L18.5317 21.6723L19.206 20.0402L14.2645 15.0985C14.3215 14.4578 14.7605 14.3165 15.2991 14.1441C15.5024 14.0791 15.7124 14.0121 15.8924 13.9118C16.7978 13.4094 17.3101 12.7771 17.4141 12.0317C17.5791 10.8533 16.6774 9.71151 15.9801 8.97113L19.7124 4.95086L19.855 5.09354L20.114 4.70351L20.5517 5.14121L20.3647 5.32856L20.9737 5.60857L21.2893 5.29222L21.0094 4.68318L20.8224 4.87019L20.33 4.37749L20.5984 3.97347L21.603 4.97853L21.874 4.70718L20.894 3.72645L21.168 3.67778ZM10.5032 8.92246C10.5612 8.74178 10.6159 8.5711 10.6839 8.44776C11.1335 7.63738 11.6545 7.24335 12.2762 7.24335C13.0912 7.24335 13.9475 7.91206 14.5475 8.46943L10.9639 11.798L9.46521 10.2992C10.1412 10.0352 10.3542 9.38783 10.5032 8.92246ZM12.4792 14.9309L11.3925 13.8441L11.6638 13.5724L11.6868 13.5954L11.8725 13.3954L13.3738 14.8969C13.2448 14.8721 13.1138 14.8592 12.9825 14.8582C12.8121 14.858 12.6426 14.8825 12.4792 14.9309ZM8.0099 16.4876L10.6782 13.8188L10.9242 14.0648L8.2559 16.7333L8.0099 16.4876ZM9.60721 12.9067C9.62054 12.8684 9.62954 12.8224 9.63421 12.7747L9.81387 12.9544L9.66088 13.1074C9.66753 13.0721 9.66617 13.0357 9.65688 13.001C9.64759 12.9662 9.63062 12.934 9.60721 12.9067ZM9.93821 13.0787L10.1835 13.3241L7.51558 15.9929L7.27025 15.7476L9.93821 13.0787ZM10.7995 12.7084L10.5282 12.9797L10.2829 12.7344L10.5542 12.4627L10.7995 12.7084ZM11.5402 13.4488L11.2685 13.7201L11.0229 13.4744L11.2942 13.2027L11.5402 13.4488ZM10.8985 13.3504L10.6522 13.1041L10.9235 12.8324L11.1699 13.0787L10.8985 13.3504ZM10.3079 13.4484L10.5542 13.6948L7.88591 16.3633L7.63991 16.1176L10.3079 13.4484ZM11.0482 14.1885L11.2282 14.3685C11.1831 14.3726 11.1386 14.3817 11.0955 14.3958C11.0682 14.3724 11.0359 14.3554 11.0011 14.3461C10.9663 14.3368 10.9299 14.3354 10.8945 14.3422L11.0482 14.1885ZM10.4072 12.3154L10.4299 12.3384L10.1585 12.6097L9.08989 11.541C9.17019 11.2524 9.18465 10.9495 9.13222 10.6546L10.6072 12.1297L10.4072 12.3154ZM4.28963 5.81225L8.20757 9.73052L8.0309 9.71818L8.31157 10.2422C8.32423 10.2656 8.48723 10.5802 8.5059 10.9576L3.82531 6.27629L4.28963 5.81225ZM2.79466 14.9539C3.02832 14.3312 3.53631 13.9621 4.22464 13.9165C5.51495 13.8295 5.72994 13.0381 5.76494 12.7967C5.78961 12.6237 5.81828 12.5014 5.84427 12.4164C6.1656 12.9544 6.61193 13.0731 6.94159 13.0731C7.60758 13.0727 8.25323 12.5894 8.47156 12.4257C8.64089 12.299 8.76789 12.1577 8.86922 12.01L9.21722 12.358C8.34657 12.2984 7.17525 14.5052 6.66526 13.9955C6.53793 13.8671 6.5706 13.7551 6.6056 13.6938C6.6419 13.6994 6.67902 13.6966 6.71402 13.6854C6.74902 13.6742 6.78094 13.6551 6.80726 13.6294C6.82967 13.6071 6.84746 13.5805 6.8596 13.5513C6.87175 13.522 6.87802 13.4907 6.87805 13.459C6.87808 13.4273 6.87187 13.396 6.85978 13.3667C6.84769 13.3374 6.82996 13.3108 6.80759 13.2884C6.78522 13.266 6.75866 13.2482 6.72942 13.2361C6.70018 13.2239 6.66883 13.2177 6.63716 13.2176C6.6055 13.2176 6.57414 13.2238 6.54487 13.2359C6.51561 13.248 6.48901 13.2657 6.4666 13.2881C6.42925 13.3267 6.40593 13.3767 6.40037 13.4301C6.39481 13.4836 6.40733 13.5373 6.43593 13.5828C6.36627 13.6848 6.23194 13.9458 6.4736 14.1871C7.30092 15.0149 8.84756 12.173 9.37422 12.7C9.40855 12.734 9.41155 12.7847 9.40655 12.8291C9.3504 12.8324 9.29737 12.856 9.25722 12.8954C9.21207 12.9406 9.18671 13.0019 9.18671 13.0657C9.18671 13.1296 9.21207 13.1909 9.25722 13.2361C9.28489 13.2632 9.31878 13.283 9.35591 13.2939C9.39305 13.3049 9.43229 13.3065 9.47021 13.2988L7.14592 15.6239L6.92926 15.4072C6.92926 15.4072 6.51693 16.0956 6.42327 16.3453C6.3386 16.569 6.32527 17.0683 6.20994 17.2774C5.92527 17.7917 4.80596 18.7895 4.2963 19.2295C2.67266 17.4757 2.46 15.8449 2.79466 14.9539ZM11.5878 15.5636C11.3932 15.8256 10.8002 16.6226 10.9852 17.3844C11.0652 17.7147 11.2742 17.9817 11.6068 18.1801C11.4819 18.2157 11.3546 18.2421 11.2259 18.2591C10.9949 18.2928 10.2315 18.5014 10.1069 19.7912C10.0145 20.7503 9.28122 21.3456 8.1939 21.3456C7.55658 21.3456 6.28893 21.1239 4.77363 19.7095C5.21329 19.2001 6.2116 18.0787 6.72593 17.7944C6.93526 17.6784 7.43491 17.665 7.65824 17.5804C7.90824 17.487 8.59623 17.0743 8.59623 17.0743L8.37957 16.8577L10.7042 14.5325C10.6965 14.5704 10.6982 14.6096 10.7091 14.6466C10.72 14.6837 10.7398 14.7175 10.7669 14.7452C10.7892 14.7678 10.8158 14.7857 10.8451 14.7979C10.8743 14.8102 10.9058 14.8164 10.9375 14.8164C10.9693 14.8164 11.0007 14.8102 11.03 14.7979C11.0593 14.7857 11.0859 14.7678 11.1082 14.7452C11.1471 14.7052 11.1704 14.6526 11.1739 14.5968C11.2175 14.5908 11.2682 14.5948 11.3022 14.6282C11.8298 15.1552 8.98856 16.7033 9.81587 17.5314C10.0575 17.7727 10.3185 17.638 10.4202 17.5684C10.4655 17.5973 10.5193 17.6099 10.5727 17.6041C10.6262 17.5984 10.6761 17.5746 10.7142 17.5367C10.7366 17.5144 10.7544 17.4879 10.7666 17.4587C10.7787 17.4295 10.7849 17.3982 10.7849 17.3665C10.7849 17.3349 10.7787 17.3036 10.7666 17.2744C10.7544 17.2452 10.7366 17.2187 10.7142 17.1963C10.6919 17.1739 10.6653 17.156 10.6361 17.1439C10.6069 17.1317 10.5755 17.1254 10.5439 17.1254C10.5122 17.1254 10.4808 17.1317 10.4516 17.1439C10.4224 17.156 10.3958 17.1739 10.3735 17.1963C10.3479 17.2226 10.3288 17.2545 10.3176 17.2894C10.3065 17.3244 10.3036 17.3614 10.3092 17.3977C10.2475 17.4337 10.1355 17.467 10.0082 17.3387C9.49855 16.8287 11.7052 15.6569 11.6448 14.7855L12.0115 15.1522C11.8486 15.2651 11.7055 15.4041 11.5878 15.5636ZM13.0665 15.5186C13.3144 15.5372 13.5566 15.6027 13.7801 15.7116L14.3061 15.9976L14.2931 15.8163L18.1877 19.7108L17.7231 20.1752L16.9744 19.4265L13.0665 15.5186ZM16.7651 11.9407C16.6908 12.471 16.2901 12.9411 15.5741 13.3381C15.4508 13.4068 15.2801 13.4614 15.0991 13.5194C14.6298 13.6698 13.9855 13.8818 13.7231 14.5568L12.2042 13.0377L15.5328 9.45283C16.1424 10.1052 16.8888 11.0586 16.7651 11.9407Z" stroke="black" stroke-width="4" mask="url(#path-1-inside-1_648_2972)"/>
</svg>
