<svg width="24" height="24" viewBox="0 0 24 24" fill="none" xmlns="http://www.w3.org/2000/svg">
<path d="M7.99999 16L5.90899 19.486C5.8181 19.6377 5.76905 19.8108 5.76686 19.9876C5.76467 20.1645 5.80942 20.3387 5.89653 20.4926C5.98365 20.6465 6.11002 20.7746 6.26276 20.8637C6.4155 20.9528 6.58915 20.9999 6.76599 21H17.234C17.4108 20.9999 17.5845 20.9528 17.7372 20.8637C17.89 20.7746 18.0163 20.6465 18.1035 20.4926C18.1906 20.3387 18.2353 20.1645 18.2331 19.9876C18.2309 19.8108 18.1819 19.6377 18.091 19.486L16 16M5 10C5 10.9193 5.18106 11.8295 5.53284 12.6788C5.88463 13.5281 6.40024 14.2997 7.05025 14.9497C7.70026 15.5998 8.47194 16.1154 9.32122 16.4672C10.1705 16.8189 11.0807 17 12 17C12.9193 17 13.8295 16.8189 14.6788 16.4672C15.5281 16.1154 16.2997 15.5998 16.9497 14.9497C17.5998 14.2997 18.1154 13.5281 18.4672 12.6788C18.8189 11.8295 19 10.9193 19 10C19 9.08075 18.8189 8.1705 18.4672 7.32122C18.1154 6.47194 17.5998 5.70026 16.9497 5.05025C16.2997 4.40024 15.5281 3.88463 14.6788 3.53284C13.8295 3.18106 12.9193 3 12 3C11.0807 3 10.1705 3.18106 9.32122 3.53284C8.47194 3.88463 7.70026 4.40024 7.05025 5.05025C6.40024 5.70026 5.88463 6.47194 5.53284 7.32122C5.18106 8.1705 5 9.08075 5 10ZM9 10C9 10.7956 9.31607 11.5587 9.87868 12.1213C10.4413 12.6839 11.2044 13 12 13C12.7956 13 13.5587 12.6839 14.1213 12.1213C14.6839 11.5587 15 10.7956 15 10C15 9.20435 14.6839 8.44129 14.1213 7.87868C13.5587 7.31607 12.7956 7 12 7C11.2044 7 10.4413 7.31607 9.87868 7.87868C9.31607 8.44129 9 9.20435 9 10Z" stroke="black" stroke-width="2" stroke-linecap="round" stroke-linejoin="round"/>
</svg>
