<svg width="24" height="24" viewBox="0 0 24 24" fill="none" xmlns="http://www.w3.org/2000/svg">
<path d="M9 6C9 6.79565 9.31607 7.55871 9.87868 8.12132C10.4413 8.68393 11.2044 9 12 9C12.7956 9 13.5587 8.68393 14.1213 8.12132C14.6839 7.55871 15 6.79565 15 6C15 5.20435 14.6839 4.44129 14.1213 3.87868C13.5587 3.31607 12.7956 3 12 3C11.2044 3 10.4413 3.31607 9.87868 3.87868C9.31607 4.44129 9 5.20435 9 6Z" stroke="black" stroke-width="2" stroke-linecap="round" stroke-linejoin="round"/>
<path d="M6.83503 9H17.165C17.3992 8.99996 17.626 9.08213 17.8058 9.23216C17.9856 9.3822 18.1071 9.59059 18.149 9.821L19.786 18.821C19.8122 18.9651 19.8065 19.1133 19.7691 19.2549C19.7318 19.3966 19.6638 19.5283 19.5699 19.6408C19.476 19.7532 19.3586 19.8437 19.2259 19.9058C19.0932 19.9679 18.9485 20 18.802 20H5.19803C5.05153 20 4.90682 19.9679 4.77413 19.9058C4.64144 19.8437 4.524 19.7532 4.43014 19.6408C4.33627 19.5283 4.26826 19.3966 4.23091 19.2549C4.19357 19.1133 4.1878 18.9651 4.21403 18.821L5.85103 9.821C5.89295 9.59059 6.01441 9.3822 6.19423 9.23216C6.37405 9.08213 6.60083 8.99996 6.83503 9Z" stroke="black" stroke-width="2" stroke-linecap="round" stroke-linejoin="round"/>
</svg>
