<svg width="24" height="24" viewBox="0 0 24 24" fill="none" xmlns="http://www.w3.org/2000/svg">
<path d="M10 11C10 11.5304 10.2107 12.0391 10.5858 12.4142C10.9609 12.7893 11.4696 13 12 13C12.5304 13 13.0391 12.7893 13.4142 12.4142C13.7893 12.0391 14 11.5304 14 11M10 11C10 10.4696 10.2107 9.96086 10.5858 9.58579C10.9609 9.21071 11.4696 9 12 9C12.5304 9 13.0391 9.21071 13.4142 9.58579C13.7893 9.96086 14 10.4696 14 11M10 11V8.427C10 8.247 10.013 8.069 10.04 7.891L10.756 3.063C10.82 2.466 11.353 2 12 2C12.647 2 13.18 2.466 13.244 3.063L13.96 7.891C13.987 8.069 14 8.248 14 8.427V11M13.01 9.28L15.245 10.556C15.401 10.646 15.55 10.746 15.691 10.856L19.527 13.767C20.014 14.119 20.151 14.807 19.827 15.363C19.502 15.919 18.827 16.145 18.279 15.904L13.724 14.224C13.5565 14.1591 13.394 14.0819 13.238 13.993L11.003 12.716M13 12.716L10.764 13.993C10.6082 14.0815 10.4461 14.1584 10.279 14.223L5.724 15.904C5.173 16.145 4.501 15.919 4.176 15.364C3.852 14.807 3.989 14.119 4.476 13.767L8.312 10.857C8.45254 10.7454 8.60167 10.6451 8.758 10.557L10.993 9.28M7 21H17M10 21L11 14M13 14L14 21" stroke="black" stroke-width="2" stroke-linecap="round" stroke-linejoin="round"/>
</svg>
