<svg width="24" height="24" viewBox="0 0 24 24" fill="none" xmlns="http://www.w3.org/2000/svg">
<path d="M3 12C3 12.7957 3.31607 13.5587 3.87868 14.1213C4.44129 14.6839 5.20435 15 6 15C6.79565 15 7.55871 14.6839 8.12132 14.1213C8.68393 13.5587 9 12.7957 9 12C9 11.2044 8.68393 10.4413 8.12132 9.8787C7.55871 9.31609 6.79565 9.00002 6 9.00002C5.20435 9.00002 4.44129 9.31609 3.87868 9.8787C3.31607 10.4413 3 11.2044 3 12ZM3 12C2.85232 10.8758 3.15743 9.74588 3.88532 8.72152C4.6132 7.69715 5.73879 6.81359 7.15137 6.15776C8.56394 5.50192 10.2148 5.09639 11.9417 4.98106C13.6685 4.86574 15.4118 5.04459 17 5.50002M21 12C21 12.7957 20.6839 13.5587 20.1213 14.1213C19.5587 14.6839 18.7957 15 18 15C17.2044 15 16.4413 14.6839 15.8787 14.1213C15.3161 13.5587 15 12.7957 15 12C15 11.2044 15.3161 10.4413 15.8787 9.8787C16.4413 9.31609 17.2044 9.00002 18 9.00002C18.7957 9.00002 19.5587 9.31609 20.1213 9.8787C20.6839 10.4413 21 11.2044 21 12ZM21 12C21.1477 13.1243 20.8426 14.2542 20.1147 15.2785C19.3868 16.3029 18.2612 17.1864 16.8486 17.8423C15.4361 18.4981 13.7852 18.9036 12.0583 19.019C10.3315 19.1343 8.58824 18.9554 7 18.5" stroke="black" stroke-width="2" stroke-linecap="round" stroke-linejoin="round"/>
</svg>
